M48
; DRILL file {KiCad (6.0.2)} date Thu Apr 14 15:11:51 2022
; FORMAT={-:-/ absolute / inch / decimal}
; #@! TF.CreationDate,2022-04-14T15:11:51+02:00
; #@! TF.GenerationSoftware,Kicad,Pcbnew,(6.0.2)
; #@! TF.FileFunction,Plated,1,2,PTH
FMAT,2
INCH
; #@! TA.AperFunction,Plated,PTH,ViaDrill
T1C0.0157
; #@! TA.AperFunction,Plated,PTH,ComponentDrill
T2C0.0256
; #@! TA.AperFunction,Plated,PTH,ComponentDrill
T3C0.0276
; #@! TA.AperFunction,Plated,PTH,ComponentDrill
T4C0.0295
; #@! TA.AperFunction,Plated,PTH,ComponentDrill
T5C0.0390
; #@! TA.AperFunction,Plated,PTH,ComponentDrill
T6C0.0394
%
G90
G05
T1
X4.5Y-4.2
X4.7Y-3.7
X4.8Y-3.1
X4.9Y-2.8
X4.9Y-3.3
X4.9Y-3.7
X5.0Y-3.5
X5.0Y-3.8
X5.1Y-2.5
X5.1Y-2.8
X5.1Y-3.3
X5.2Y-3.3
X5.3Y-2.9
X5.3Y-3.5
X5.3Y-3.7
X5.3138Y-2.9858
X5.4Y-2.6
X5.4Y-3.4
X5.4Y-3.7
X5.4346Y-2.7839
X5.4904Y-3.7
X5.5Y-3.9
X5.6Y-2.6
X5.6Y-2.8
X5.6Y-3.4
X5.6Y-3.5
X5.6Y-3.7
X5.6Y-3.9
X5.9Y-2.8
X5.9Y-2.9
X6.0Y-3.8
X6.2Y-2.6
X6.2Y-3.6
X6.3Y-2.8
X6.6Y-2.5
X6.7Y-3.1
X6.7Y-3.4
X6.7715Y-3.5
X7.0Y-2.6
X7.0Y-3.0
X7.0Y-3.4
X7.0Y-3.5
X7.0965Y-3.4
X7.1Y-3.5
X7.2Y-3.4
X7.3Y-2.9
X7.3Y-3.0
X7.3Y-3.5
X7.5Y-3.3
X7.6Y-3.1
X7.8Y-3.4
T3
X6.2252Y-3.8
X6.3Y-3.8
X6.4Y-2.6
X6.4748Y-2.6
T4
X7.05Y-3.65
X7.1Y-3.6
X7.1Y-3.7
T5
X6.272Y-2.9675
X6.272Y-3.1447
X6.272Y-3.2675
X6.272Y-3.4447
X6.528Y-2.9675
X6.528Y-3.1447
X6.528Y-3.2675
X6.528Y-3.4447
T6
X4.7Y-2.0
X4.7Y-2.4
X4.7Y-4.001
X4.7Y-4.4
X4.8Y-2.0
X4.8Y-2.4
X4.8Y-4.001
X4.8Y-4.4
X4.9Y-2.0
X4.9Y-2.4
X4.9Y-4.001
X4.9Y-4.4
X5.0Y-2.0
X5.0Y-2.4
X5.0Y-4.001
X5.0Y-4.4
X5.1Y-2.0
X5.1Y-2.4
X5.1Y-4.001
X5.1Y-4.4
X5.2Y-2.0
X5.2Y-2.4
X5.2Y-4.001
X5.2Y-4.4
X5.3Y-2.0
X5.3Y-2.4
X5.3Y-4.001
X5.3Y-4.4
X5.4Y-2.0
X5.4Y-2.4
X5.4Y-4.001
X5.4Y-4.4
X5.5Y-2.0
X5.5Y-2.4
X5.5Y-4.001
X5.5Y-4.4
X5.6Y-2.0
X5.6Y-2.4
X5.6Y-4.001
X5.6Y-4.4
X5.7Y-2.0
X5.7Y-2.4
X5.7Y-4.001
X5.7Y-4.4
X5.8Y-2.0
X5.8Y-2.4
X5.8Y-4.001
X5.8Y-4.4
X5.9Y-2.0
X5.9Y-2.4
X5.9Y-4.001
X5.9Y-4.4
X6.0Y-2.0
X6.0Y-2.4
X6.0Y-4.001
X6.0Y-4.4
X6.1Y-2.0
X6.1Y-2.4
X6.1Y-4.001
X6.1Y-4.4
X6.2Y-2.0
X6.2Y-2.4
X6.2Y-4.001
X6.2Y-4.4
X6.3Y-2.0
X6.3Y-2.4
X6.3Y-4.001
X6.3Y-4.4
X6.4Y-2.0
X6.4Y-2.4
X6.4Y-4.001
X6.4Y-4.4
X6.5Y-2.0
X6.5Y-2.4
X6.5Y-4.001
X6.5Y-4.4
X6.6Y-2.0
X6.6Y-2.4
X6.6Y-4.001
X6.6Y-4.4
X6.7Y-2.0
X6.7Y-2.4
X6.7Y-4.001
X6.7Y-4.4
X6.8Y-2.0
X6.8Y-2.4
X6.8Y-4.001
X6.8Y-4.4
X6.9Y-2.0
X6.9Y-2.4
X6.9Y-4.001
X6.9Y-4.4
X7.0Y-2.0
X7.0Y-2.4
X7.0Y-4.001
X7.0Y-4.4
X7.1Y-2.0
X7.1Y-2.4
X7.1Y-4.001
X7.1Y-4.4
X7.2Y-2.0
X7.2Y-2.4
X7.2Y-4.001
X7.2Y-4.4
X7.3Y-2.0
X7.3Y-2.4
X7.3Y-4.001
X7.3Y-4.4
X7.4Y-2.0
X7.4Y-2.4
X7.4Y-4.001
X7.4Y-4.4
X7.5Y-2.0
X7.5Y-2.4
X7.5Y-4.001
X7.5Y-4.4
X7.6Y-2.0
X7.6Y-2.4
X7.6Y-4.001
X7.6Y-4.4
X7.7Y-2.0
X7.7Y-2.4
X7.7Y-4.001
X7.7Y-4.4
X7.8Y-2.0
X7.8Y-2.4
X7.8Y-4.001
X7.8Y-4.4
X7.9Y-2.0
X7.9Y-2.4
X7.9Y-4.001
X7.9Y-4.4
T2
G00X4.5006Y-3.5884
M15
G01X4.5163Y-3.5884
M16
G05
G00X4.5006Y-3.7789
M15
G01X4.5163Y-3.7789
M16
G05
T3
G00X4.3805Y-3.5762
M15
G01X4.4002Y-3.5762
M16
G05
G00X4.3805Y-3.7911
M15
G01X4.4002Y-3.7911
M16
G05
T0
M30
