%TF.GenerationSoftware,KiCad,Pcbnew,(6.0.2)*%
%TF.CreationDate,2022-04-14T15:11:51+02:00*%
%TF.ProjectId,main,6d61696e-2e6b-4696-9361-645f70636258,rev?*%
%TF.SameCoordinates,Original*%
%TF.FileFunction,Soldermask,Top*%
%TF.FilePolarity,Negative*%
%FSLAX46Y46*%
G04 Gerber Fmt 4.6, Leading zero omitted, Abs format (unit mm)*
G04 Created by KiCad (PCBNEW (6.0.2)) date 2022-04-14 15:11:51*
%MOMM*%
%LPD*%
G01*
G04 APERTURE LIST*
G04 Aperture macros list*
%AMRoundRect*
0 Rectangle with rounded corners*
0 $1 Rounding radius*
0 $2 $3 $4 $5 $6 $7 $8 $9 X,Y pos of 4 corners*
0 Add a 4 corners polygon primitive as box body*
4,1,4,$2,$3,$4,$5,$6,$7,$8,$9,$2,$3,0*
0 Add four circle primitives for the rounded corners*
1,1,$1+$1,$2,$3*
1,1,$1+$1,$4,$5*
1,1,$1+$1,$6,$7*
1,1,$1+$1,$8,$9*
0 Add four rect primitives between the rounded corners*
20,1,$1+$1,$2,$3,$4,$5,0*
20,1,$1+$1,$4,$5,$6,$7,0*
20,1,$1+$1,$6,$7,$8,$9,0*
20,1,$1+$1,$8,$9,$2,$3,0*%
G04 Aperture macros list end*
%ADD10R,0.533400X1.701800*%
%ADD11RoundRect,0.150000X0.150000X-0.850000X0.150000X0.850000X-0.150000X0.850000X-0.150000X-0.850000X0*%
%ADD12RoundRect,0.039900X-0.245100X0.945100X-0.245100X-0.945100X0.245100X-0.945100X0.245100X0.945100X0*%
%ADD13O,1.400000X1.400000*%
%ADD14C,1.400000*%
%ADD15R,7.340000X6.350000*%
%ADD16C,3.450000*%
%ADD17C,2.390000*%
%ADD18RoundRect,0.200000X-0.275000X0.200000X-0.275000X-0.200000X0.275000X-0.200000X0.275000X0.200000X0*%
%ADD19RoundRect,0.200000X-0.200000X-0.275000X0.200000X-0.275000X0.200000X0.275000X-0.200000X0.275000X0*%
%ADD20RoundRect,0.200000X0.275000X-0.200000X0.275000X0.200000X-0.275000X0.200000X-0.275000X-0.200000X0*%
%ADD21RoundRect,0.243750X0.456250X-0.243750X0.456250X0.243750X-0.456250X0.243750X-0.456250X-0.243750X0*%
%ADD22O,1.700000X1.700000*%
%ADD23R,1.700000X1.700000*%
%ADD24RoundRect,0.243750X-0.243750X-0.456250X0.243750X-0.456250X0.243750X0.456250X-0.243750X0.456250X0*%
%ADD25RoundRect,0.100000X0.100000X-0.130000X0.100000X0.130000X-0.100000X0.130000X-0.100000X-0.130000X0*%
%ADD26RoundRect,0.200000X0.200000X0.275000X-0.200000X0.275000X-0.200000X-0.275000X0.200000X-0.275000X0*%
%ADD27C,1.498000*%
%ADD28R,1.498000X1.498000*%
%ADD29R,1.500000X2.000000*%
%ADD30R,0.700000X1.825000*%
%ADD31R,2.000000X1.350000*%
%ADD32R,2.500000X1.430000*%
%ADD33O,1.500000X1.100000*%
%ADD34O,1.700000X1.350000*%
%ADD35R,1.650000X0.400000*%
%ADD36RoundRect,0.250000X-0.250000X-0.475000X0.250000X-0.475000X0.250000X0.475000X-0.250000X0.475000X0*%
%ADD37RoundRect,0.150000X-0.512500X-0.150000X0.512500X-0.150000X0.512500X0.150000X-0.512500X0.150000X0*%
%ADD38R,0.600000X0.450000*%
%ADD39RoundRect,0.100000X-0.130000X-0.100000X0.130000X-0.100000X0.130000X0.100000X-0.130000X0.100000X0*%
%ADD40RoundRect,0.218750X0.218750X0.381250X-0.218750X0.381250X-0.218750X-0.381250X0.218750X-0.381250X0*%
%ADD41C,1.300000*%
%ADD42R,1.300000X1.300000*%
G04 APERTURE END LIST*
D10*
%TO.C,U3*%
X131805000Y-70200800D03*
X133075000Y-70200800D03*
X134345000Y-70200800D03*
X135615000Y-70200800D03*
X135615000Y-65019200D03*
X134345000Y-65019200D03*
X133075000Y-65019200D03*
X131805000Y-65019200D03*
%TD*%
D11*
%TO.C,U5*%
X124505000Y-81690000D03*
X125775000Y-81690000D03*
X127045000Y-81690000D03*
X128315000Y-81690000D03*
X129585000Y-81690000D03*
X130855000Y-81690000D03*
X132125000Y-81690000D03*
X133395000Y-81690000D03*
X133395000Y-76690000D03*
X132125000Y-76690000D03*
X130855000Y-76690000D03*
X129585000Y-76690000D03*
X128315000Y-76690000D03*
X127045000Y-76690000D03*
X125775000Y-76690000D03*
X124505000Y-76690000D03*
%TD*%
D12*
%TO.C,U4*%
X182265000Y-77955000D03*
X180995000Y-77955000D03*
X179725000Y-77955000D03*
X178455000Y-77955000D03*
X178455000Y-82905000D03*
X179725000Y-82905000D03*
X180995000Y-82905000D03*
X182265000Y-82905000D03*
%TD*%
D13*
%TO.C,LDR1*%
X158120000Y-96520000D03*
D14*
X160020000Y-96520000D03*
%TD*%
D15*
%TO.C,BT1*%
X200580000Y-129540000D03*
X121920000Y-129540000D03*
D16*
X188850000Y-121540000D03*
D17*
X125320000Y-121540000D03*
D16*
X133650000Y-137540000D03*
%TD*%
D18*
%TO.C,R5*%
X190500000Y-71945000D03*
X190500000Y-70295000D03*
%TD*%
D19*
%TO.C,R17*%
X137755000Y-78740000D03*
X136105000Y-78740000D03*
%TD*%
D20*
%TO.C,R7*%
X152400000Y-67755000D03*
X152400000Y-69405000D03*
%TD*%
D19*
%TO.C,R1*%
X188785000Y-76200000D03*
X187135000Y-76200000D03*
%TD*%
D21*
%TO.C,D1*%
X172720000Y-80342500D03*
X172720000Y-82217500D03*
%TD*%
D19*
%TO.C,R14*%
X150685000Y-91440000D03*
X149035000Y-91440000D03*
%TD*%
D20*
%TO.C,R4*%
X175260000Y-88075000D03*
X175260000Y-89725000D03*
%TD*%
D22*
%TO.C,J2*%
X119380000Y-60960000D03*
X121920000Y-60960000D03*
X124460000Y-60960000D03*
X127000000Y-60960000D03*
X129540000Y-60960000D03*
X132080000Y-60960000D03*
X134620000Y-60960000D03*
X137160000Y-60960000D03*
X139700000Y-60960000D03*
X142240000Y-60960000D03*
X144780000Y-60960000D03*
X147320000Y-60960000D03*
X149860000Y-60960000D03*
X152400000Y-60960000D03*
X154940000Y-60960000D03*
X157480000Y-60960000D03*
X160020000Y-60960000D03*
X162560000Y-60960000D03*
X165100000Y-60960000D03*
X167640000Y-60960000D03*
X170180000Y-60960000D03*
X172720000Y-60960000D03*
X175260000Y-60960000D03*
X177800000Y-60960000D03*
X180340000Y-60960000D03*
X182880000Y-60960000D03*
X185420000Y-60960000D03*
X187960000Y-60960000D03*
X190500000Y-60960000D03*
X193040000Y-60960000D03*
X195580000Y-60960000D03*
X198120000Y-60960000D03*
D23*
X200660000Y-60960000D03*
%TD*%
D19*
%TO.C,R19*%
X130365000Y-91440000D03*
X128715000Y-91440000D03*
%TD*%
D24*
%TO.C,D4*%
X138097500Y-96520000D03*
X136222500Y-96520000D03*
%TD*%
D19*
%TO.C,R6*%
X155765000Y-73660000D03*
X154115000Y-73660000D03*
%TD*%
D25*
%TO.C,C3*%
X144780000Y-78420000D03*
X144780000Y-79060000D03*
%TD*%
D26*
%TO.C,R3*%
X174435000Y-76200000D03*
X176085000Y-76200000D03*
%TD*%
D19*
%TO.C,R20*%
X135445000Y-91440000D03*
X133795000Y-91440000D03*
%TD*%
D27*
%TO.C,SW2*%
X159310000Y-82995000D03*
X165810000Y-82995000D03*
X159310000Y-87495000D03*
D28*
X165810000Y-87495000D03*
%TD*%
D29*
%TO.C,J5*%
X114515000Y-96465000D03*
D30*
X113195000Y-90615000D03*
D29*
X114495000Y-90715000D03*
D31*
X112445000Y-96315000D03*
D32*
X111245000Y-92605000D03*
X111245000Y-94525000D03*
D30*
X113195000Y-96565000D03*
D31*
X112445000Y-90835000D03*
D33*
X114515000Y-91145000D03*
D34*
X111515000Y-96295000D03*
D33*
X114515000Y-95985000D03*
D34*
X111515000Y-90835000D03*
D35*
X114395000Y-94865000D03*
X114395000Y-94215000D03*
X114395000Y-93565000D03*
X114395000Y-92915000D03*
X114395000Y-92265000D03*
%TD*%
D19*
%TO.C,R9*%
X140525000Y-66040000D03*
X138875000Y-66040000D03*
%TD*%
D36*
%TO.C,C2*%
X150810000Y-78740000D03*
X148910000Y-78740000D03*
%TD*%
D22*
%TO.C,J1*%
X119380000Y-50800000D03*
X121920000Y-50800000D03*
X124460000Y-50800000D03*
X127000000Y-50800000D03*
X129540000Y-50800000D03*
X132080000Y-50800000D03*
X134620000Y-50800000D03*
X137160000Y-50800000D03*
X139700000Y-50800000D03*
X142240000Y-50800000D03*
X144780000Y-50800000D03*
X147320000Y-50800000D03*
X149860000Y-50800000D03*
X152400000Y-50800000D03*
X154940000Y-50800000D03*
X157480000Y-50800000D03*
X160020000Y-50800000D03*
X162560000Y-50800000D03*
X165100000Y-50800000D03*
X167640000Y-50800000D03*
X170180000Y-50800000D03*
X172720000Y-50800000D03*
X175260000Y-50800000D03*
X177800000Y-50800000D03*
X180340000Y-50800000D03*
X182880000Y-50800000D03*
X185420000Y-50800000D03*
X187960000Y-50800000D03*
X190500000Y-50800000D03*
X193040000Y-50800000D03*
X195580000Y-50800000D03*
X198120000Y-50800000D03*
D23*
X200660000Y-50800000D03*
%TD*%
D26*
%TO.C,R10*%
X141415000Y-72870000D03*
X143065000Y-72870000D03*
%TD*%
D13*
%TO.C,LDR2*%
X164460000Y-66040000D03*
D14*
X162560000Y-66040000D03*
%TD*%
D27*
%TO.C,SW1*%
X159310000Y-75375000D03*
X165810000Y-75375000D03*
X159310000Y-79875000D03*
D28*
X165810000Y-79875000D03*
%TD*%
D37*
%TO.C,U1*%
X181477500Y-72710000D03*
X181477500Y-74610000D03*
X179202500Y-74610000D03*
X179202500Y-73660000D03*
X179202500Y-72710000D03*
%TD*%
D26*
%TO.C,R2*%
X187135000Y-78740000D03*
X188785000Y-78740000D03*
%TD*%
D22*
%TO.C,J4*%
X119380000Y-111760000D03*
X121920000Y-111760000D03*
X124460000Y-111760000D03*
X127000000Y-111760000D03*
X129540000Y-111760000D03*
X132080000Y-111760000D03*
X134620000Y-111760000D03*
X137160000Y-111760000D03*
X139700000Y-111760000D03*
X142240000Y-111760000D03*
X144780000Y-111760000D03*
X147320000Y-111760000D03*
X149860000Y-111760000D03*
X152400000Y-111760000D03*
X154940000Y-111760000D03*
X157480000Y-111760000D03*
X160020000Y-111760000D03*
X162560000Y-111760000D03*
X165100000Y-111760000D03*
X167640000Y-111760000D03*
X170180000Y-111760000D03*
X172720000Y-111760000D03*
X175260000Y-111760000D03*
X177800000Y-111760000D03*
X180340000Y-111760000D03*
X182880000Y-111760000D03*
X185420000Y-111760000D03*
X187960000Y-111760000D03*
X190500000Y-111760000D03*
X193040000Y-111760000D03*
X195580000Y-111760000D03*
X198120000Y-111760000D03*
D23*
X200660000Y-111760000D03*
%TD*%
D26*
%TO.C,R11*%
X143955000Y-68580000D03*
X145605000Y-68580000D03*
%TD*%
D37*
%TO.C,U2*%
X189097500Y-85410000D03*
X189097500Y-86360000D03*
X189097500Y-87310000D03*
X186822500Y-87310000D03*
X186822500Y-86360000D03*
X186822500Y-85410000D03*
%TD*%
D38*
%TO.C,D3*%
X171230000Y-73660000D03*
X169130000Y-73660000D03*
%TD*%
D39*
%TO.C,C1*%
X193360000Y-71120000D03*
X192720000Y-71120000D03*
%TD*%
%TO.C,C4*%
X142215000Y-91440000D03*
X141575000Y-91440000D03*
%TD*%
D22*
%TO.C,J3*%
X119380000Y-101625000D03*
X121920000Y-101625000D03*
X124460000Y-101625000D03*
X127000000Y-101625000D03*
X129540000Y-101625000D03*
X132080000Y-101625000D03*
X134620000Y-101625000D03*
X137160000Y-101625000D03*
X139700000Y-101625000D03*
X142240000Y-101625000D03*
X144780000Y-101625000D03*
X147320000Y-101625000D03*
X149860000Y-101625000D03*
X152400000Y-101625000D03*
X154940000Y-101625000D03*
X157480000Y-101625000D03*
X160020000Y-101625000D03*
X162560000Y-101625000D03*
X165100000Y-101625000D03*
X167640000Y-101625000D03*
X170180000Y-101625000D03*
X172720000Y-101625000D03*
X175260000Y-101625000D03*
X177800000Y-101625000D03*
X180340000Y-101625000D03*
X182880000Y-101625000D03*
X185420000Y-101625000D03*
X187960000Y-101625000D03*
X190500000Y-101625000D03*
X193040000Y-101625000D03*
X195580000Y-101625000D03*
X198120000Y-101625000D03*
D23*
X200660000Y-101625000D03*
%TD*%
D24*
%TO.C,LED1*%
X139035000Y-76200000D03*
X137160000Y-76200000D03*
%TD*%
D19*
%TO.C,R15*%
X140180000Y-91440000D03*
X138530000Y-91440000D03*
%TD*%
%TO.C,R13*%
X142745000Y-76200000D03*
X141095000Y-76200000D03*
%TD*%
%TO.C,R16*%
X137985000Y-81280000D03*
X136335000Y-81280000D03*
%TD*%
D24*
%TO.C,D2*%
X186357500Y-71120000D03*
X184482500Y-71120000D03*
%TD*%
D19*
%TO.C,R8*%
X148145000Y-73660000D03*
X146495000Y-73660000D03*
%TD*%
D40*
%TO.C,L1*%
X186897500Y-81280000D03*
X189022500Y-81280000D03*
%TD*%
D19*
%TO.C,R18*%
X145260000Y-91440000D03*
X143610000Y-91440000D03*
%TD*%
D41*
%TO.C,Q1*%
X180340000Y-91440000D03*
X179070000Y-92710000D03*
D42*
X180340000Y-93980000D03*
%TD*%
D18*
%TO.C,R12*%
X127000000Y-69750000D03*
X127000000Y-68100000D03*
%TD*%
M02*
