%TF.GenerationSoftware,KiCad,Pcbnew,(6.0.2)*%
%TF.CreationDate,2022-04-14T15:11:51+02:00*%
%TF.ProjectId,main,6d61696e-2e6b-4696-9361-645f70636258,rev?*%
%TF.SameCoordinates,Original*%
%TF.FileFunction,Legend,Top*%
%TF.FilePolarity,Positive*%
%FSLAX46Y46*%
G04 Gerber Fmt 4.6, Leading zero omitted, Abs format (unit mm)*
G04 Created by KiCad (PCBNEW (6.0.2)) date 2022-04-14 15:11:51*
%MOMM*%
%LPD*%
G01*
G04 APERTURE LIST*
%ADD10C,0.100000*%
%ADD11C,0.325000*%
%ADD12C,0.300000*%
%ADD13C,0.075000*%
%ADD14C,0.150000*%
%ADD15C,0.152400*%
%ADD16C,0.120000*%
%ADD17C,0.127000*%
%ADD18C,0.200000*%
G04 APERTURE END LIST*
D10*
X194310000Y-73780000D02*
X204470000Y-73780000D01*
X204470000Y-73780000D02*
X204470000Y-83940000D01*
X204470000Y-83940000D02*
X194310000Y-83940000D01*
X194310000Y-83940000D02*
X194310000Y-73780000D01*
D11*
X186248095Y-91467642D02*
X186681428Y-91467642D01*
X186867142Y-92148595D02*
X186248095Y-92148595D01*
X186248095Y-90848595D01*
X186867142Y-90848595D01*
X187424285Y-91467642D02*
X187857619Y-91467642D01*
X188043333Y-92148595D02*
X187424285Y-92148595D01*
X187424285Y-90848595D01*
X188043333Y-90848595D01*
X188600476Y-91467642D02*
X189033809Y-91467642D01*
X189219523Y-92148595D02*
X188600476Y-92148595D01*
X188600476Y-90848595D01*
X189219523Y-90848595D01*
X189652857Y-90848595D02*
X190457619Y-90848595D01*
X190024285Y-91343833D01*
X190210000Y-91343833D01*
X190333809Y-91405738D01*
X190395714Y-91467642D01*
X190457619Y-91591452D01*
X190457619Y-91900976D01*
X190395714Y-92024785D01*
X190333809Y-92086690D01*
X190210000Y-92148595D01*
X189838571Y-92148595D01*
X189714761Y-92086690D01*
X189652857Y-92024785D01*
X191262380Y-90848595D02*
X191386190Y-90848595D01*
X191510000Y-90910500D01*
X191571904Y-90972404D01*
X191633809Y-91096214D01*
X191695714Y-91343833D01*
X191695714Y-91653357D01*
X191633809Y-91900976D01*
X191571904Y-92024785D01*
X191510000Y-92086690D01*
X191386190Y-92148595D01*
X191262380Y-92148595D01*
X191138571Y-92086690D01*
X191076666Y-92024785D01*
X191014761Y-91900976D01*
X190952857Y-91653357D01*
X190952857Y-91343833D01*
X191014761Y-91096214D01*
X191076666Y-90972404D01*
X191138571Y-90910500D01*
X191262380Y-90848595D01*
X192438571Y-91405738D02*
X192314761Y-91343833D01*
X192252857Y-91281928D01*
X192190952Y-91158119D01*
X192190952Y-91096214D01*
X192252857Y-90972404D01*
X192314761Y-90910500D01*
X192438571Y-90848595D01*
X192686190Y-90848595D01*
X192810000Y-90910500D01*
X192871904Y-90972404D01*
X192933809Y-91096214D01*
X192933809Y-91158119D01*
X192871904Y-91281928D01*
X192810000Y-91343833D01*
X192686190Y-91405738D01*
X192438571Y-91405738D01*
X192314761Y-91467642D01*
X192252857Y-91529547D01*
X192190952Y-91653357D01*
X192190952Y-91900976D01*
X192252857Y-92024785D01*
X192314761Y-92086690D01*
X192438571Y-92148595D01*
X192686190Y-92148595D01*
X192810000Y-92086690D01*
X192871904Y-92024785D01*
X192933809Y-91900976D01*
X192933809Y-91653357D01*
X192871904Y-91529547D01*
X192810000Y-91467642D01*
X192686190Y-91405738D01*
X193676666Y-91405738D02*
X193552857Y-91343833D01*
X193490952Y-91281928D01*
X193429047Y-91158119D01*
X193429047Y-91096214D01*
X193490952Y-90972404D01*
X193552857Y-90910500D01*
X193676666Y-90848595D01*
X193924285Y-90848595D01*
X194048095Y-90910500D01*
X194110000Y-90972404D01*
X194171904Y-91096214D01*
X194171904Y-91158119D01*
X194110000Y-91281928D01*
X194048095Y-91343833D01*
X193924285Y-91405738D01*
X193676666Y-91405738D01*
X193552857Y-91467642D01*
X193490952Y-91529547D01*
X193429047Y-91653357D01*
X193429047Y-91900976D01*
X193490952Y-92024785D01*
X193552857Y-92086690D01*
X193676666Y-92148595D01*
X193924285Y-92148595D01*
X194048095Y-92086690D01*
X194110000Y-92024785D01*
X194171904Y-91900976D01*
X194171904Y-91653357D01*
X194110000Y-91529547D01*
X194048095Y-91467642D01*
X193924285Y-91405738D01*
X195162380Y-91467642D02*
X194729047Y-91467642D01*
X194729047Y-92148595D02*
X194729047Y-90848595D01*
X195348095Y-90848595D01*
X196833809Y-92148595D02*
X196833809Y-90848595D01*
X197329047Y-90848595D01*
X197452857Y-90910500D01*
X197514761Y-90972404D01*
X197576666Y-91096214D01*
X197576666Y-91281928D01*
X197514761Y-91405738D01*
X197452857Y-91467642D01*
X197329047Y-91529547D01*
X196833809Y-91529547D01*
X198876666Y-92024785D02*
X198814761Y-92086690D01*
X198629047Y-92148595D01*
X198505238Y-92148595D01*
X198319523Y-92086690D01*
X198195714Y-91962880D01*
X198133809Y-91839071D01*
X198071904Y-91591452D01*
X198071904Y-91405738D01*
X198133809Y-91158119D01*
X198195714Y-91034309D01*
X198319523Y-90910500D01*
X198505238Y-90848595D01*
X198629047Y-90848595D01*
X198814761Y-90910500D01*
X198876666Y-90972404D01*
X199867142Y-91467642D02*
X200052857Y-91529547D01*
X200114761Y-91591452D01*
X200176666Y-91715261D01*
X200176666Y-91900976D01*
X200114761Y-92024785D01*
X200052857Y-92086690D01*
X199929047Y-92148595D01*
X199433809Y-92148595D01*
X199433809Y-90848595D01*
X199867142Y-90848595D01*
X199990952Y-90910500D01*
X200052857Y-90972404D01*
X200114761Y-91096214D01*
X200114761Y-91220023D01*
X200052857Y-91343833D01*
X199990952Y-91405738D01*
X199867142Y-91467642D01*
X199433809Y-91467642D01*
X201724285Y-92148595D02*
X201724285Y-90848595D01*
X201724285Y-91467642D02*
X202467142Y-91467642D01*
X202467142Y-92148595D02*
X202467142Y-90848595D01*
X203024285Y-91777166D02*
X203643333Y-91777166D01*
X202900476Y-92148595D02*
X203333809Y-90848595D01*
X203767142Y-92148595D01*
X204014761Y-90848595D02*
X204757619Y-90848595D01*
X204386190Y-92148595D02*
X204386190Y-90848595D01*
X188290952Y-92941595D02*
X188290952Y-93870166D01*
X188229047Y-94055880D01*
X188105238Y-94179690D01*
X187919523Y-94241595D01*
X187795714Y-94241595D01*
X189157619Y-92941595D02*
X189405238Y-92941595D01*
X189529047Y-93003500D01*
X189652857Y-93127309D01*
X189714761Y-93374928D01*
X189714761Y-93808261D01*
X189652857Y-94055880D01*
X189529047Y-94179690D01*
X189405238Y-94241595D01*
X189157619Y-94241595D01*
X189033809Y-94179690D01*
X188910000Y-94055880D01*
X188848095Y-93808261D01*
X188848095Y-93374928D01*
X188910000Y-93127309D01*
X189033809Y-93003500D01*
X189157619Y-92941595D01*
X190271904Y-94241595D02*
X190271904Y-92941595D01*
X191014761Y-94241595D01*
X191014761Y-92941595D01*
X191571904Y-93870166D02*
X192190952Y-93870166D01*
X191448095Y-94241595D02*
X191881428Y-92941595D01*
X192314761Y-94241595D01*
X192562380Y-92941595D02*
X193305238Y-92941595D01*
X192933809Y-94241595D02*
X192933809Y-92941595D01*
X193738571Y-94241595D02*
X193738571Y-92941595D01*
X193738571Y-93560642D02*
X194481428Y-93560642D01*
X194481428Y-94241595D02*
X194481428Y-92941595D01*
X195038571Y-93870166D02*
X195657619Y-93870166D01*
X194914761Y-94241595D02*
X195348095Y-92941595D01*
X195781428Y-94241595D01*
X196214761Y-94241595D02*
X196214761Y-92941595D01*
X196957619Y-94241595D01*
X196957619Y-92941595D01*
X198505238Y-93870166D02*
X199124285Y-93870166D01*
X198381428Y-94241595D02*
X198814761Y-92941595D01*
X199248095Y-94241595D01*
X199681428Y-94241595D02*
X199681428Y-92941595D01*
X200176666Y-92941595D01*
X200300476Y-93003500D01*
X200362380Y-93065404D01*
X200424285Y-93189214D01*
X200424285Y-93374928D01*
X200362380Y-93498738D01*
X200300476Y-93560642D01*
X200176666Y-93622547D01*
X199681428Y-93622547D01*
X200981428Y-94241595D02*
X200981428Y-92941595D01*
X201476666Y-92941595D01*
X201600476Y-93003500D01*
X201662380Y-93065404D01*
X201724285Y-93189214D01*
X201724285Y-93374928D01*
X201662380Y-93498738D01*
X201600476Y-93560642D01*
X201476666Y-93622547D01*
X200981428Y-93622547D01*
X202219523Y-94179690D02*
X202405238Y-94241595D01*
X202714761Y-94241595D01*
X202838571Y-94179690D01*
X202900476Y-94117785D01*
X202962380Y-93993976D01*
X202962380Y-93870166D01*
X202900476Y-93746357D01*
X202838571Y-93684452D01*
X202714761Y-93622547D01*
X202467142Y-93560642D01*
X202343333Y-93498738D01*
X202281428Y-93436833D01*
X202219523Y-93313023D01*
X202219523Y-93189214D01*
X202281428Y-93065404D01*
X202343333Y-93003500D01*
X202467142Y-92941595D01*
X202776666Y-92941595D01*
X202962380Y-93003500D01*
X186681428Y-96272690D02*
X186867142Y-96334595D01*
X187176666Y-96334595D01*
X187300476Y-96272690D01*
X187362380Y-96210785D01*
X187424285Y-96086976D01*
X187424285Y-95963166D01*
X187362380Y-95839357D01*
X187300476Y-95777452D01*
X187176666Y-95715547D01*
X186929047Y-95653642D01*
X186805238Y-95591738D01*
X186743333Y-95529833D01*
X186681428Y-95406023D01*
X186681428Y-95282214D01*
X186743333Y-95158404D01*
X186805238Y-95096500D01*
X186929047Y-95034595D01*
X187238571Y-95034595D01*
X187424285Y-95096500D01*
X187981428Y-96334595D02*
X187981428Y-95034595D01*
X187981428Y-95653642D02*
X188724285Y-95653642D01*
X188724285Y-96334595D02*
X188724285Y-95034595D01*
X189281428Y-95963166D02*
X189900476Y-95963166D01*
X189157619Y-96334595D02*
X189590952Y-95034595D01*
X190024285Y-96334595D01*
X190457619Y-96334595D02*
X190457619Y-95034595D01*
X190890952Y-95963166D01*
X191324285Y-95034595D01*
X191324285Y-96334595D01*
X191943333Y-95653642D02*
X192376666Y-95653642D01*
X192562380Y-96334595D02*
X191943333Y-96334595D01*
X191943333Y-95034595D01*
X192562380Y-95034595D01*
X193119523Y-95653642D02*
X193552857Y-95653642D01*
X193738571Y-96334595D02*
X193119523Y-96334595D01*
X193119523Y-95034595D01*
X193738571Y-95034595D01*
X195038571Y-96334595D02*
X194605238Y-95715547D01*
X194295714Y-96334595D02*
X194295714Y-95034595D01*
X194790952Y-95034595D01*
X194914761Y-95096500D01*
X194976666Y-95158404D01*
X195038571Y-95282214D01*
X195038571Y-95467928D01*
X194976666Y-95591738D01*
X194914761Y-95653642D01*
X194790952Y-95715547D01*
X194295714Y-95715547D01*
X195533809Y-95963166D02*
X196152857Y-95963166D01*
X195410000Y-96334595D02*
X195843333Y-95034595D01*
X196276666Y-96334595D01*
X198443333Y-96210785D02*
X198381428Y-96272690D01*
X198195714Y-96334595D01*
X198071904Y-96334595D01*
X197886190Y-96272690D01*
X197762380Y-96148880D01*
X197700476Y-96025071D01*
X197638571Y-95777452D01*
X197638571Y-95591738D01*
X197700476Y-95344119D01*
X197762380Y-95220309D01*
X197886190Y-95096500D01*
X198071904Y-95034595D01*
X198195714Y-95034595D01*
X198381428Y-95096500D01*
X198443333Y-95158404D01*
X198938571Y-95963166D02*
X199557619Y-95963166D01*
X198814761Y-96334595D02*
X199248095Y-95034595D01*
X199681428Y-96334595D01*
X200052857Y-96272690D02*
X200238571Y-96334595D01*
X200548095Y-96334595D01*
X200671904Y-96272690D01*
X200733809Y-96210785D01*
X200795714Y-96086976D01*
X200795714Y-95963166D01*
X200733809Y-95839357D01*
X200671904Y-95777452D01*
X200548095Y-95715547D01*
X200300476Y-95653642D01*
X200176666Y-95591738D01*
X200114761Y-95529833D01*
X200052857Y-95406023D01*
X200052857Y-95282214D01*
X200114761Y-95158404D01*
X200176666Y-95096500D01*
X200300476Y-95034595D01*
X200610000Y-95034595D01*
X200795714Y-95096500D01*
X201290952Y-96272690D02*
X201476666Y-96334595D01*
X201786190Y-96334595D01*
X201910000Y-96272690D01*
X201971904Y-96210785D01*
X202033809Y-96086976D01*
X202033809Y-95963166D01*
X201971904Y-95839357D01*
X201910000Y-95777452D01*
X201786190Y-95715547D01*
X201538571Y-95653642D01*
X201414761Y-95591738D01*
X201352857Y-95529833D01*
X201290952Y-95406023D01*
X201290952Y-95282214D01*
X201352857Y-95158404D01*
X201414761Y-95096500D01*
X201538571Y-95034595D01*
X201848095Y-95034595D01*
X202033809Y-95096500D01*
X202590952Y-96334595D02*
X202590952Y-95034595D01*
X203210000Y-96334595D02*
X203210000Y-95034595D01*
X203643333Y-95963166D01*
X204076666Y-95034595D01*
X204076666Y-96334595D01*
X188940952Y-97127595D02*
X188940952Y-98056166D01*
X188879047Y-98241880D01*
X188755238Y-98365690D01*
X188569523Y-98427595D01*
X188445714Y-98427595D01*
X189498095Y-98056166D02*
X190117142Y-98056166D01*
X189374285Y-98427595D02*
X189807619Y-97127595D01*
X190240952Y-98427595D01*
X190674285Y-98427595D02*
X190674285Y-97127595D01*
X190674285Y-97746642D02*
X191417142Y-97746642D01*
X191417142Y-98427595D02*
X191417142Y-97127595D01*
X191974285Y-98056166D02*
X192593333Y-98056166D01*
X191850476Y-98427595D02*
X192283809Y-97127595D01*
X192717142Y-98427595D01*
X193893333Y-98427595D02*
X193460000Y-97808547D01*
X193150476Y-98427595D02*
X193150476Y-97127595D01*
X193645714Y-97127595D01*
X193769523Y-97189500D01*
X193831428Y-97251404D01*
X193893333Y-97375214D01*
X193893333Y-97560928D01*
X193831428Y-97684738D01*
X193769523Y-97746642D01*
X193645714Y-97808547D01*
X193150476Y-97808547D01*
X195440952Y-98427595D02*
X195440952Y-97127595D01*
X195936190Y-97127595D01*
X196060000Y-97189500D01*
X196121904Y-97251404D01*
X196183809Y-97375214D01*
X196183809Y-97560928D01*
X196121904Y-97684738D01*
X196060000Y-97746642D01*
X195936190Y-97808547D01*
X195440952Y-97808547D01*
X196740952Y-97746642D02*
X197174285Y-97746642D01*
X197360000Y-98427595D02*
X196740952Y-98427595D01*
X196740952Y-97127595D01*
X197360000Y-97127595D01*
X198660000Y-98427595D02*
X198226666Y-97808547D01*
X197917142Y-98427595D02*
X197917142Y-97127595D01*
X198412380Y-97127595D01*
X198536190Y-97189500D01*
X198598095Y-97251404D01*
X198660000Y-97375214D01*
X198660000Y-97560928D01*
X198598095Y-97684738D01*
X198536190Y-97746642D01*
X198412380Y-97808547D01*
X197917142Y-97808547D01*
X199155238Y-98365690D02*
X199340952Y-98427595D01*
X199650476Y-98427595D01*
X199774285Y-98365690D01*
X199836190Y-98303785D01*
X199898095Y-98179976D01*
X199898095Y-98056166D01*
X199836190Y-97932357D01*
X199774285Y-97870452D01*
X199650476Y-97808547D01*
X199402857Y-97746642D01*
X199279047Y-97684738D01*
X199217142Y-97622833D01*
X199155238Y-97499023D01*
X199155238Y-97375214D01*
X199217142Y-97251404D01*
X199279047Y-97189500D01*
X199402857Y-97127595D01*
X199712380Y-97127595D01*
X199898095Y-97189500D01*
X200393333Y-98056166D02*
X201012380Y-98056166D01*
X200269523Y-98427595D02*
X200702857Y-97127595D01*
X201136190Y-98427595D01*
X201569523Y-98427595D02*
X201569523Y-97127595D01*
X201879047Y-97127595D01*
X202064761Y-97189500D01*
X202188571Y-97313309D01*
X202250476Y-97437119D01*
X202312380Y-97684738D01*
X202312380Y-97870452D01*
X202250476Y-98118071D01*
X202188571Y-98241880D01*
X202064761Y-98365690D01*
X201879047Y-98427595D01*
X201569523Y-98427595D01*
D12*
X198136190Y-77644761D02*
X198136190Y-79263809D01*
X198231428Y-79454285D01*
X198326666Y-79549523D01*
X198517142Y-79644761D01*
X198898095Y-79644761D01*
X199088571Y-79549523D01*
X199183809Y-79454285D01*
X199279047Y-79263809D01*
X199279047Y-77644761D01*
X200136190Y-79549523D02*
X200421904Y-79644761D01*
X200898095Y-79644761D01*
X201088571Y-79549523D01*
X201183809Y-79454285D01*
X201279047Y-79263809D01*
X201279047Y-79073333D01*
X201183809Y-78882857D01*
X201088571Y-78787619D01*
X200898095Y-78692380D01*
X200517142Y-78597142D01*
X200326666Y-78501904D01*
X200231428Y-78406666D01*
X200136190Y-78216190D01*
X200136190Y-78025714D01*
X200231428Y-77835238D01*
X200326666Y-77740000D01*
X200517142Y-77644761D01*
X200993333Y-77644761D01*
X201279047Y-77740000D01*
X202802857Y-78597142D02*
X203088571Y-78692380D01*
X203183809Y-78787619D01*
X203279047Y-78978095D01*
X203279047Y-79263809D01*
X203183809Y-79454285D01*
X203088571Y-79549523D01*
X202898095Y-79644761D01*
X202136190Y-79644761D01*
X202136190Y-77644761D01*
X202802857Y-77644761D01*
X202993333Y-77740000D01*
X203088571Y-77835238D01*
X203183809Y-78025714D01*
X203183809Y-78216190D01*
X203088571Y-78406666D01*
X202993333Y-78501904D01*
X202802857Y-78597142D01*
X202136190Y-78597142D01*
D13*
X159875714Y-90622285D02*
X160028095Y-90622285D01*
X159932857Y-90488952D02*
X159932857Y-90831809D01*
X159951904Y-90869904D01*
X159990000Y-90888952D01*
X160028095Y-90888952D01*
X160161428Y-90850857D02*
X160180476Y-90869904D01*
X160161428Y-90888952D01*
X160142380Y-90869904D01*
X160161428Y-90850857D01*
X160161428Y-90888952D01*
X160161428Y-90641333D02*
X160180476Y-90660380D01*
X160161428Y-90679428D01*
X160142380Y-90660380D01*
X160161428Y-90641333D01*
X160161428Y-90679428D01*
X160351904Y-90679428D02*
X160485238Y-90679428D01*
X160542380Y-90888952D02*
X160351904Y-90888952D01*
X160351904Y-90488952D01*
X160542380Y-90488952D01*
X160713809Y-90679428D02*
X160847142Y-90679428D01*
X160904285Y-90888952D02*
X160713809Y-90888952D01*
X160713809Y-90488952D01*
X160904285Y-90488952D01*
X161075714Y-90888952D02*
X161075714Y-90488952D01*
X161228095Y-90488952D01*
X161266190Y-90508000D01*
X161285238Y-90527047D01*
X161304285Y-90565142D01*
X161304285Y-90622285D01*
X161285238Y-90660380D01*
X161266190Y-90679428D01*
X161228095Y-90698476D01*
X161075714Y-90698476D01*
X161704285Y-90888952D02*
X161570952Y-90698476D01*
X161475714Y-90888952D02*
X161475714Y-90488952D01*
X161628095Y-90488952D01*
X161666190Y-90508000D01*
X161685238Y-90527047D01*
X161704285Y-90565142D01*
X161704285Y-90622285D01*
X161685238Y-90660380D01*
X161666190Y-90679428D01*
X161628095Y-90698476D01*
X161475714Y-90698476D01*
X161951904Y-90488952D02*
X162028095Y-90488952D01*
X162066190Y-90508000D01*
X162104285Y-90546095D01*
X162123333Y-90622285D01*
X162123333Y-90755619D01*
X162104285Y-90831809D01*
X162066190Y-90869904D01*
X162028095Y-90888952D01*
X161951904Y-90888952D01*
X161913809Y-90869904D01*
X161875714Y-90831809D01*
X161856666Y-90755619D01*
X161856666Y-90622285D01*
X161875714Y-90546095D01*
X161913809Y-90508000D01*
X161951904Y-90488952D01*
X162294761Y-90888952D02*
X162294761Y-90488952D01*
X162428095Y-90774666D01*
X162561428Y-90488952D01*
X162561428Y-90888952D01*
X163018571Y-90488952D02*
X163113809Y-90888952D01*
X163190000Y-90603238D01*
X163266190Y-90888952D01*
X163361428Y-90488952D01*
X163742380Y-90888952D02*
X163609047Y-90698476D01*
X163513809Y-90888952D02*
X163513809Y-90488952D01*
X163666190Y-90488952D01*
X163704285Y-90508000D01*
X163723333Y-90527047D01*
X163742380Y-90565142D01*
X163742380Y-90622285D01*
X163723333Y-90660380D01*
X163704285Y-90679428D01*
X163666190Y-90698476D01*
X163513809Y-90698476D01*
X163913809Y-90888952D02*
X163913809Y-90488952D01*
X164047142Y-90488952D02*
X164275714Y-90488952D01*
X164161428Y-90888952D02*
X164161428Y-90488952D01*
X164409047Y-90679428D02*
X164542380Y-90679428D01*
X164599523Y-90888952D02*
X164409047Y-90888952D01*
X164409047Y-90488952D01*
X164599523Y-90488952D01*
X165056666Y-90869904D02*
X165113809Y-90888952D01*
X165209047Y-90888952D01*
X165247142Y-90869904D01*
X165266190Y-90850857D01*
X165285238Y-90812761D01*
X165285238Y-90774666D01*
X165266190Y-90736571D01*
X165247142Y-90717523D01*
X165209047Y-90698476D01*
X165132857Y-90679428D01*
X165094761Y-90660380D01*
X165075714Y-90641333D01*
X165056666Y-90603238D01*
X165056666Y-90565142D01*
X165075714Y-90527047D01*
X165094761Y-90508000D01*
X165132857Y-90488952D01*
X165228095Y-90488952D01*
X165285238Y-90508000D01*
X165456666Y-90679428D02*
X165590000Y-90679428D01*
X165647142Y-90888952D02*
X165456666Y-90888952D01*
X165456666Y-90488952D01*
X165647142Y-90488952D01*
X165761428Y-90488952D02*
X165990000Y-90488952D01*
X165875714Y-90888952D02*
X165875714Y-90488952D01*
X166066190Y-90488952D02*
X166294761Y-90488952D01*
X166180476Y-90888952D02*
X166180476Y-90488952D01*
X166428095Y-90888952D02*
X166428095Y-90488952D01*
X166618571Y-90888952D02*
X166618571Y-90488952D01*
X166847142Y-90888952D01*
X166847142Y-90488952D01*
X167247142Y-90508000D02*
X167209047Y-90488952D01*
X167151904Y-90488952D01*
X167094761Y-90508000D01*
X167056666Y-90546095D01*
X167037619Y-90584190D01*
X167018571Y-90660380D01*
X167018571Y-90717523D01*
X167037619Y-90793714D01*
X167056666Y-90831809D01*
X167094761Y-90869904D01*
X167151904Y-90888952D01*
X167190000Y-90888952D01*
X167247142Y-90869904D01*
X167266190Y-90850857D01*
X167266190Y-90717523D01*
X167190000Y-90717523D01*
X161513809Y-91532952D02*
X161513809Y-91132952D01*
X161513809Y-91285333D02*
X161551904Y-91266285D01*
X161628095Y-91266285D01*
X161666190Y-91285333D01*
X161685238Y-91304380D01*
X161704285Y-91342476D01*
X161704285Y-91456761D01*
X161685238Y-91494857D01*
X161666190Y-91513904D01*
X161628095Y-91532952D01*
X161551904Y-91532952D01*
X161513809Y-91513904D01*
X161875714Y-91494857D02*
X161894761Y-91513904D01*
X161875714Y-91532952D01*
X161856666Y-91513904D01*
X161875714Y-91494857D01*
X161875714Y-91532952D01*
X161875714Y-91285333D02*
X161894761Y-91304380D01*
X161875714Y-91323428D01*
X161856666Y-91304380D01*
X161875714Y-91285333D01*
X161875714Y-91323428D01*
X162199523Y-91323428D02*
X162066190Y-91323428D01*
X162066190Y-91532952D02*
X162066190Y-91132952D01*
X162256666Y-91132952D01*
X162351904Y-91132952D02*
X162580476Y-91132952D01*
X162466190Y-91532952D02*
X162466190Y-91132952D01*
X162713809Y-91532952D02*
X162713809Y-91132952D01*
X162809047Y-91132952D01*
X162866190Y-91152000D01*
X162904285Y-91190095D01*
X162923333Y-91228190D01*
X162942380Y-91304380D01*
X162942380Y-91361523D01*
X162923333Y-91437714D01*
X162904285Y-91475809D01*
X162866190Y-91513904D01*
X162809047Y-91532952D01*
X162713809Y-91532952D01*
X163113809Y-91532952D02*
X163113809Y-91132952D01*
X163609047Y-91532952D02*
X163609047Y-91132952D01*
X163761428Y-91132952D01*
X163799523Y-91152000D01*
X163818571Y-91171047D01*
X163837619Y-91209142D01*
X163837619Y-91266285D01*
X163818571Y-91304380D01*
X163799523Y-91323428D01*
X163761428Y-91342476D01*
X163609047Y-91342476D01*
X164009047Y-91532952D02*
X164009047Y-91132952D01*
X164104285Y-91132952D01*
X164161428Y-91152000D01*
X164199523Y-91190095D01*
X164218571Y-91228190D01*
X164237619Y-91304380D01*
X164237619Y-91361523D01*
X164218571Y-91437714D01*
X164199523Y-91475809D01*
X164161428Y-91513904D01*
X164104285Y-91532952D01*
X164009047Y-91532952D01*
X164942380Y-91532952D02*
X164809047Y-91342476D01*
X164713809Y-91532952D02*
X164713809Y-91132952D01*
X164866190Y-91132952D01*
X164904285Y-91152000D01*
X164923333Y-91171047D01*
X164942380Y-91209142D01*
X164942380Y-91266285D01*
X164923333Y-91304380D01*
X164904285Y-91323428D01*
X164866190Y-91342476D01*
X164713809Y-91342476D01*
X165113809Y-91323428D02*
X165247142Y-91323428D01*
X165304285Y-91532952D02*
X165113809Y-91532952D01*
X165113809Y-91132952D01*
X165304285Y-91132952D01*
X165456666Y-91513904D02*
X165513809Y-91532952D01*
X165609047Y-91532952D01*
X165647142Y-91513904D01*
X165666190Y-91494857D01*
X165685238Y-91456761D01*
X165685238Y-91418666D01*
X165666190Y-91380571D01*
X165647142Y-91361523D01*
X165609047Y-91342476D01*
X165532857Y-91323428D01*
X165494761Y-91304380D01*
X165475714Y-91285333D01*
X165456666Y-91247238D01*
X165456666Y-91209142D01*
X165475714Y-91171047D01*
X165494761Y-91152000D01*
X165532857Y-91132952D01*
X165628095Y-91132952D01*
X165685238Y-91152000D01*
D14*
%TO.C,BT1*%
X160464285Y-117968571D02*
X160607142Y-118016190D01*
X160654761Y-118063809D01*
X160702380Y-118159047D01*
X160702380Y-118301904D01*
X160654761Y-118397142D01*
X160607142Y-118444761D01*
X160511904Y-118492380D01*
X160130952Y-118492380D01*
X160130952Y-117492380D01*
X160464285Y-117492380D01*
X160559523Y-117540000D01*
X160607142Y-117587619D01*
X160654761Y-117682857D01*
X160654761Y-117778095D01*
X160607142Y-117873333D01*
X160559523Y-117920952D01*
X160464285Y-117968571D01*
X160130952Y-117968571D01*
X160988095Y-117492380D02*
X161559523Y-117492380D01*
X161273809Y-118492380D02*
X161273809Y-117492380D01*
X162416666Y-118492380D02*
X161845238Y-118492380D01*
X162130952Y-118492380D02*
X162130952Y-117492380D01*
X162035714Y-117635238D01*
X161940476Y-117730476D01*
X161845238Y-117778095D01*
%TO.C,J4*%
X202442380Y-112093333D02*
X203156666Y-112093333D01*
X203299523Y-112140952D01*
X203394761Y-112236190D01*
X203442380Y-112379047D01*
X203442380Y-112474285D01*
X202775714Y-111188571D02*
X203442380Y-111188571D01*
X202394761Y-111426666D02*
X203109047Y-111664761D01*
X203109047Y-111045714D01*
D15*
%TO.C,U3*%
X131220800Y-67914800D02*
X131220800Y-69286400D01*
X131220800Y-65933600D02*
X131220800Y-67305200D01*
X136199200Y-69286400D02*
X136199200Y-65933600D01*
X131220800Y-67305200D02*
X131220800Y-67914800D01*
X131220800Y-67914800D02*
G75*
G03*
X131220800Y-67305200I0J304800D01*
G01*
D16*
%TO.C,U5*%
X123890000Y-79190000D02*
X123890000Y-77240000D01*
X134010000Y-79190000D02*
X134010000Y-77240000D01*
X134010000Y-79190000D02*
X134010000Y-81140000D01*
X123890000Y-79190000D02*
X123890000Y-82690000D01*
D17*
%TO.C,U4*%
X177850000Y-78430000D02*
X177850000Y-82430000D01*
X182870000Y-78430000D02*
X182870000Y-82430000D01*
D18*
X182935000Y-75985000D02*
G75*
G03*
X182935000Y-75985000I-100000J0D01*
G01*
D16*
%TO.C,LDR1*%
X159602867Y-97220000D02*
G75*
G03*
X159699905Y-95770641I417133J700000D01*
G01*
%TO.C,BT1*%
X199890000Y-132980000D02*
X199890000Y-139980000D01*
X199890000Y-139980000D02*
X122610000Y-139980000D01*
X199890000Y-119100000D02*
X122610000Y-119100000D01*
X122610000Y-119100000D02*
X122610000Y-126100000D01*
X118750000Y-124790000D02*
X118750000Y-122290000D01*
X122610000Y-126100000D02*
X118250000Y-126100000D01*
X117500000Y-123540000D02*
X120000000Y-123540000D01*
X122610000Y-139980000D02*
X122610000Y-132980000D01*
X199890000Y-126100000D02*
X199890000Y-119120000D01*
X205000000Y-123540000D02*
X202500000Y-123540000D01*
%TO.C,R5*%
X189977500Y-70882742D02*
X189977500Y-71357258D01*
X191022500Y-70882742D02*
X191022500Y-71357258D01*
%TO.C,R17*%
X136692742Y-79262500D02*
X137167258Y-79262500D01*
X136692742Y-78217500D02*
X137167258Y-78217500D01*
%TO.C,R7*%
X152922500Y-68817258D02*
X152922500Y-68342742D01*
X151877500Y-68817258D02*
X151877500Y-68342742D01*
%TO.C,R1*%
X187722742Y-76722500D02*
X188197258Y-76722500D01*
X187722742Y-75677500D02*
X188197258Y-75677500D01*
%TO.C,D1*%
X171760000Y-82965000D02*
X173680000Y-82965000D01*
X173680000Y-82965000D02*
X173680000Y-80280000D01*
X171760000Y-80280000D02*
X171760000Y-82965000D01*
%TO.C,R14*%
X149622742Y-90917500D02*
X150097258Y-90917500D01*
X149622742Y-91962500D02*
X150097258Y-91962500D01*
%TO.C,R4*%
X174737500Y-89137258D02*
X174737500Y-88662742D01*
X175782500Y-89137258D02*
X175782500Y-88662742D01*
%TO.C,J2*%
X199390000Y-62290000D02*
X118050000Y-62290000D01*
X201990000Y-60960000D02*
X201990000Y-62290000D01*
X118050000Y-59630000D02*
X118050000Y-62290000D01*
X199390000Y-59630000D02*
X199390000Y-62290000D01*
X199390000Y-59630000D02*
X118050000Y-59630000D01*
X201990000Y-62290000D02*
X200660000Y-62290000D01*
%TO.C,R19*%
X129302742Y-90917500D02*
X129777258Y-90917500D01*
X129302742Y-91962500D02*
X129777258Y-91962500D01*
%TO.C,D4*%
X138160000Y-95560000D02*
X135475000Y-95560000D01*
X135475000Y-95560000D02*
X135475000Y-97480000D01*
X135475000Y-97480000D02*
X138160000Y-97480000D01*
%TO.C,R6*%
X154702742Y-74182500D02*
X155177258Y-74182500D01*
X154702742Y-73137500D02*
X155177258Y-73137500D01*
%TO.C,R3*%
X175497258Y-76722500D02*
X175022742Y-76722500D01*
X175497258Y-75677500D02*
X175022742Y-75677500D01*
%TO.C,R20*%
X134382742Y-91962500D02*
X134857258Y-91962500D01*
X134382742Y-90917500D02*
X134857258Y-90917500D01*
D17*
%TO.C,SW2*%
X164315000Y-85245000D02*
G75*
G03*
X164315000Y-85245000I-1755000J0D01*
G01*
D18*
X167105000Y-87495000D02*
G75*
G03*
X167105000Y-87495000I-100000J0D01*
G01*
D17*
X165555000Y-86395000D02*
X165555000Y-84095000D01*
X160260000Y-82250000D02*
X164860000Y-82250000D01*
X164760000Y-88240000D02*
X160260000Y-88240000D01*
X159560000Y-86395000D02*
X159560000Y-84095000D01*
D16*
%TO.C,J5*%
X109895000Y-89715000D02*
X112695000Y-89715000D01*
X109895000Y-97415000D02*
X112695000Y-97415000D01*
X115945000Y-91865000D02*
X115945000Y-92665000D01*
X112695000Y-97415000D02*
X112695000Y-97715000D01*
X115945000Y-92665000D02*
X115495000Y-92265000D01*
X115495000Y-92265000D02*
X115945000Y-91865000D01*
X112695000Y-89415000D02*
X112695000Y-89715000D01*
X112695000Y-97715000D02*
X114245000Y-97715000D01*
X112695000Y-89415000D02*
X114245000Y-89415000D01*
%TO.C,R9*%
X139462742Y-66562500D02*
X139937258Y-66562500D01*
X139462742Y-65517500D02*
X139937258Y-65517500D01*
%TO.C,C2*%
X149598748Y-78005000D02*
X150121252Y-78005000D01*
X149598748Y-79475000D02*
X150121252Y-79475000D01*
%TO.C,J1*%
X199390000Y-49470000D02*
X118050000Y-49470000D01*
X118050000Y-49470000D02*
X118050000Y-52130000D01*
X201990000Y-49470000D02*
X201990000Y-50800000D01*
X199390000Y-49470000D02*
X199390000Y-52130000D01*
X199390000Y-52130000D02*
X118050000Y-52130000D01*
X200660000Y-49470000D02*
X201990000Y-49470000D01*
%TO.C,R10*%
X142477258Y-73392500D02*
X142002742Y-73392500D01*
X142477258Y-72347500D02*
X142002742Y-72347500D01*
%TO.C,LDR2*%
X162977133Y-65340000D02*
G75*
G03*
X162880095Y-66789359I-417133J-700000D01*
G01*
D18*
%TO.C,SW1*%
X167105000Y-79875000D02*
G75*
G03*
X167105000Y-79875000I-100000J0D01*
G01*
D17*
X164315000Y-77625000D02*
G75*
G03*
X164315000Y-77625000I-1755000J0D01*
G01*
X165555000Y-78775000D02*
X165555000Y-76475000D01*
X160260000Y-74630000D02*
X164860000Y-74630000D01*
X159560000Y-78775000D02*
X159560000Y-76475000D01*
X164760000Y-80620000D02*
X160260000Y-80620000D01*
D16*
%TO.C,U1*%
X180340000Y-75220000D02*
X179540000Y-75220000D01*
X180340000Y-75220000D02*
X181140000Y-75220000D01*
X180340000Y-72100000D02*
X181140000Y-72100000D01*
X180340000Y-72100000D02*
X178540000Y-72100000D01*
%TO.C,R2*%
X188197258Y-79262500D02*
X187722742Y-79262500D01*
X188197258Y-78217500D02*
X187722742Y-78217500D01*
%TO.C,J4*%
X199390000Y-110430000D02*
X118050000Y-110430000D01*
X199390000Y-113090000D02*
X118050000Y-113090000D01*
X201990000Y-110430000D02*
X201990000Y-111760000D01*
X118050000Y-110430000D02*
X118050000Y-113090000D01*
X199390000Y-110430000D02*
X199390000Y-113090000D01*
X200660000Y-110430000D02*
X201990000Y-110430000D01*
%TO.C,R11*%
X145017258Y-68057500D02*
X144542742Y-68057500D01*
X145017258Y-69102500D02*
X144542742Y-69102500D01*
%TO.C,U2*%
X187960000Y-84800000D02*
X186160000Y-84800000D01*
X187960000Y-87920000D02*
X188760000Y-87920000D01*
X187960000Y-84800000D02*
X188760000Y-84800000D01*
X187960000Y-87920000D02*
X187160000Y-87920000D01*
%TO.C,D3*%
X168680000Y-72810000D02*
X171230000Y-72810000D01*
X168680000Y-74510000D02*
X171230000Y-74510000D01*
X168680000Y-72810000D02*
X168680000Y-74510000D01*
%TO.C,J3*%
X199390000Y-102955000D02*
X118050000Y-102955000D01*
X201990000Y-101625000D02*
X201990000Y-102955000D01*
X199390000Y-100295000D02*
X118050000Y-100295000D01*
X118050000Y-100295000D02*
X118050000Y-102955000D01*
X201990000Y-102955000D02*
X200660000Y-102955000D01*
X199390000Y-100295000D02*
X199390000Y-102955000D01*
%TO.C,LED1*%
X136412500Y-77160000D02*
X139097500Y-77160000D01*
X139097500Y-75240000D02*
X136412500Y-75240000D01*
X136412500Y-75240000D02*
X136412500Y-77160000D01*
%TO.C,R15*%
X139117742Y-91962500D02*
X139592258Y-91962500D01*
X139117742Y-90917500D02*
X139592258Y-90917500D01*
%TO.C,R13*%
X141682742Y-76722500D02*
X142157258Y-76722500D01*
X141682742Y-75677500D02*
X142157258Y-75677500D01*
%TO.C,R16*%
X136922742Y-81802500D02*
X137397258Y-81802500D01*
X136922742Y-80757500D02*
X137397258Y-80757500D01*
%TO.C,D2*%
X186420000Y-70160000D02*
X183735000Y-70160000D01*
X183735000Y-72080000D02*
X186420000Y-72080000D01*
X183735000Y-70160000D02*
X183735000Y-72080000D01*
%TO.C,R8*%
X147082742Y-74182500D02*
X147557258Y-74182500D01*
X147082742Y-73137500D02*
X147557258Y-73137500D01*
%TO.C,L1*%
X188359622Y-81840000D02*
X187560378Y-81840000D01*
X188359622Y-80720000D02*
X187560378Y-80720000D01*
%TO.C,R18*%
X144197742Y-90917500D02*
X144672258Y-90917500D01*
X144197742Y-91962500D02*
X144672258Y-91962500D01*
%TO.C,Q1*%
X177739999Y-92710000D02*
G75*
G03*
X182178478Y-94548478I2600001J0D01*
G01*
X182178478Y-90871522D02*
G75*
G03*
X177740000Y-92710000I-1838478J-1838478D01*
G01*
X182190000Y-94510000D02*
X182190000Y-90910000D01*
%TO.C,R12*%
X127522500Y-68687742D02*
X127522500Y-69162258D01*
X126477500Y-68687742D02*
X126477500Y-69162258D01*
%TD*%
M02*
