M48
; DRILL file {KiCad (6.0.2)} date Tue Apr 12 21:34:15 2022
; FORMAT={-:-/ absolute / inch / decimal}
; #@! TF.CreationDate,2022-04-12T21:34:15+02:00
; #@! TF.GenerationSoftware,Kicad,Pcbnew,(6.0.2)
; #@! TF.FileFunction,Plated,1,2,PTH
FMAT,2
INCH
; #@! TA.AperFunction,Plated,PTH,ViaDrill
T1C0.0157
; #@! TA.AperFunction,Plated,PTH,ComponentDrill
T2C0.0256
; #@! TA.AperFunction,Plated,PTH,ComponentDrill
T3C0.0276
; #@! TA.AperFunction,Plated,PTH,ComponentDrill
T4C0.0295
; #@! TA.AperFunction,Plated,PTH,ComponentDrill
T5C0.0390
; #@! TA.AperFunction,Plated,PTH,ComponentDrill
T6C0.0394
%
G90
G05
T1
X4.5Y-3.4
X4.6Y-3.3
X4.7Y-4.8
X4.8Y-3.3
X4.8Y-3.5
X4.9366Y-3.4535
X5.1Y-2.8
X5.1Y-3.7
X5.2Y-2.5
X5.2Y-3.3
X5.2Y-3.7
X5.3Y-2.9
X5.3Y-3.4
X5.3Y-3.5
X5.3Y-3.7
X5.4Y-2.5
X5.4Y-2.8
X5.4Y-3.7
X5.4Y-3.9
X5.5Y-3.1
X5.5Y-3.5
X5.5Y-3.8
X5.5Y-3.9
X5.6Y-2.7079
X5.6Y-3.4
X5.7Y-3.0
X5.7Y-3.5
X5.9Y-3.6
X6.0Y-2.9
X6.0Y-3.1
X6.0Y-3.3
X6.0874Y-2.6874
X6.1Y-3.1
X6.2Y-2.8285
X6.2Y-3.2
X6.2Y-3.7
X6.2Y-3.8
X6.3Y-3.6
X6.5Y-2.6
X6.6Y-2.6
X6.7Y-3.1
X6.7Y-3.7
X6.7Y-3.9
X6.8Y-3.5155
X6.9Y-2.9
X6.9Y-3.6
X6.9Y-3.7
X7.0Y-2.9
X7.0Y-3.4
X7.1Y-3.0
X7.1Y-3.4
X7.1Y-3.5
X7.3Y-2.9
X7.3Y-3.4
X7.5Y-2.9
X7.5Y-3.0
X7.5Y-3.1
X7.6Y-3.1
X7.7Y-2.8
T4
X7.05Y-3.65
X7.1Y-3.6
X7.1Y-3.7
T5
X6.272Y-2.9675
X6.272Y-3.1447
X6.272Y-3.2675
X6.272Y-3.4447
X6.528Y-2.9675
X6.528Y-3.1447
X6.528Y-3.2675
X6.528Y-3.4447
T6
X4.7Y-2.0
X4.7Y-2.4
X4.7Y-4.0
X4.7Y-4.4
X4.8Y-2.0
X4.8Y-2.4
X4.8Y-4.0
X4.8Y-4.4
X4.9Y-2.0
X4.9Y-2.4
X4.9Y-4.0
X4.9Y-4.4
X5.0Y-2.0
X5.0Y-2.4
X5.0Y-4.0
X5.0Y-4.4
X5.1Y-2.0
X5.1Y-2.4
X5.1Y-4.0
X5.1Y-4.4
X5.2Y-2.0
X5.2Y-2.4
X5.2Y-4.0
X5.2Y-4.4
X5.3Y-2.0
X5.3Y-2.4
X5.3Y-4.0
X5.3Y-4.4
X5.4Y-2.0
X5.4Y-2.4
X5.4Y-4.0
X5.4Y-4.4
X5.5Y-2.0
X5.5Y-2.4
X5.5Y-4.0
X5.5Y-4.4
X5.6Y-2.0
X5.6Y-2.4
X5.6Y-4.0
X5.6Y-4.4
X5.7Y-2.0
X5.7Y-2.4
X5.7Y-4.0
X5.7Y-4.4
X5.8Y-2.0
X5.8Y-2.4
X5.8Y-4.0
X5.8Y-4.4
X5.9Y-2.0
X5.9Y-2.4
X5.9Y-4.0
X5.9Y-4.4
X6.0Y-2.0
X6.0Y-2.4
X6.0Y-4.0
X6.0Y-4.4
X6.1Y-2.0
X6.1Y-2.4
X6.1Y-4.0
X6.1Y-4.4
X6.2Y-2.0
X6.2Y-2.4
X6.2Y-4.0
X6.2Y-4.4
X6.3Y-2.0
X6.3Y-2.4
X6.3Y-4.0
X6.3Y-4.4
X6.4Y-2.0
X6.4Y-2.4
X6.4Y-4.0
X6.4Y-4.4
X6.5Y-2.0
X6.5Y-2.4
X6.5Y-4.0
X6.5Y-4.4
X6.6Y-2.0
X6.6Y-2.4
X6.6Y-4.0
X6.6Y-4.4
X6.7Y-2.0
X6.7Y-2.4
X6.7Y-4.0
X6.7Y-4.4
X6.8Y-2.0
X6.8Y-2.4
X6.8Y-4.0
X6.8Y-4.4
X6.9Y-2.0
X6.9Y-2.4
X6.9Y-4.0
X6.9Y-4.4
X7.0Y-2.0
X7.0Y-2.4
X7.0Y-4.0
X7.0Y-4.4
X7.1Y-2.0
X7.1Y-2.4
X7.1Y-4.0
X7.1Y-4.4
X7.2Y-2.0
X7.2Y-2.4
X7.2Y-4.0
X7.2Y-4.4
X7.3Y-2.0
X7.3Y-2.4
X7.3Y-4.0
X7.3Y-4.4
X7.4Y-2.0
X7.4Y-2.4
X7.4Y-4.0
X7.4Y-4.4
X7.5Y-2.0
X7.5Y-2.4
X7.5Y-4.0
X7.5Y-4.4
X7.6Y-2.0
X7.6Y-2.4
X7.6Y-4.0
X7.6Y-4.4
X7.7Y-2.0
X7.7Y-2.4
X7.7Y-4.0
X7.7Y-4.4
X7.8Y-2.0
X7.8Y-2.4
X7.8Y-4.0
X7.8Y-4.4
X7.9Y-2.0
X7.9Y-2.4
X7.9Y-4.0
X7.9Y-4.4
T2
G00X4.5031Y-3.5037
M15
G01X4.4874Y-3.5037
M16
G05
G00X4.5031Y-3.6943
M15
G01X4.4874Y-3.6943
M16
G05
T3
G00X4.6232Y-3.4915
M15
G01X4.6035Y-3.4915
M16
G05
G00X4.6232Y-3.7065
M15
G01X4.6035Y-3.7065
M16
G05
T0
M30
