%TF.GenerationSoftware,KiCad,Pcbnew,(6.0.2)*%
%TF.CreationDate,2022-04-12T21:34:14+02:00*%
%TF.ProjectId,main,6d61696e-2e6b-4696-9361-645f70636258,rev?*%
%TF.SameCoordinates,Original*%
%TF.FileFunction,Paste,Top*%
%TF.FilePolarity,Positive*%
%FSLAX46Y46*%
G04 Gerber Fmt 4.6, Leading zero omitted, Abs format (unit mm)*
G04 Created by KiCad (PCBNEW (6.0.2)) date 2022-04-12 21:34:14*
%MOMM*%
%LPD*%
G01*
G04 APERTURE LIST*
G04 Aperture macros list*
%AMRoundRect*
0 Rectangle with rounded corners*
0 $1 Rounding radius*
0 $2 $3 $4 $5 $6 $7 $8 $9 X,Y pos of 4 corners*
0 Add a 4 corners polygon primitive as box body*
4,1,4,$2,$3,$4,$5,$6,$7,$8,$9,$2,$3,0*
0 Add four circle primitives for the rounded corners*
1,1,$1+$1,$2,$3*
1,1,$1+$1,$4,$5*
1,1,$1+$1,$6,$7*
1,1,$1+$1,$8,$9*
0 Add four rect primitives between the rounded corners*
20,1,$1+$1,$2,$3,$4,$5,0*
20,1,$1+$1,$4,$5,$6,$7,0*
20,1,$1+$1,$6,$7,$8,$9,0*
20,1,$1+$1,$8,$9,$2,$3,0*%
G04 Aperture macros list end*
%ADD10RoundRect,0.079500X0.079500X0.100500X-0.079500X0.100500X-0.079500X-0.100500X0.079500X-0.100500X0*%
%ADD11R,7.340000X6.350000*%
%ADD12R,0.533400X1.701800*%
%ADD13RoundRect,0.079500X-0.100500X0.079500X-0.100500X-0.079500X0.100500X-0.079500X0.100500X0.079500X0*%
%ADD14RoundRect,0.079500X-0.079500X-0.100500X0.079500X-0.100500X0.079500X0.100500X-0.079500X0.100500X0*%
%ADD15RoundRect,0.079500X0.100500X-0.079500X0.100500X0.079500X-0.100500X0.079500X-0.100500X-0.079500X0*%
%ADD16RoundRect,0.243750X0.456250X-0.243750X0.456250X0.243750X-0.456250X0.243750X-0.456250X-0.243750X0*%
%ADD17RoundRect,0.243750X-0.243750X-0.456250X0.243750X-0.456250X0.243750X0.456250X-0.243750X0.456250X0*%
%ADD18RoundRect,0.039900X-0.245100X0.945100X-0.245100X-0.945100X0.245100X-0.945100X0.245100X0.945100X0*%
%ADD19RoundRect,0.250000X-0.250000X-0.475000X0.250000X-0.475000X0.250000X0.475000X-0.250000X0.475000X0*%
%ADD20RoundRect,0.150000X-0.512500X-0.150000X0.512500X-0.150000X0.512500X0.150000X-0.512500X0.150000X0*%
%ADD21R,1.650000X0.400000*%
%ADD22R,0.700000X1.825000*%
%ADD23R,1.500000X2.000000*%
%ADD24R,2.000000X1.350000*%
%ADD25R,2.500000X1.430000*%
%ADD26R,0.600000X0.450000*%
%ADD27RoundRect,0.218750X0.218750X0.381250X-0.218750X0.381250X-0.218750X-0.381250X0.218750X-0.381250X0*%
%ADD28RoundRect,0.049600X0.260400X-0.605400X0.260400X0.605400X-0.260400X0.605400X-0.260400X-0.605400X0*%
G04 APERTURE END LIST*
D10*
%TO.C,LDR1*%
X159675000Y-96520000D03*
X160365000Y-96520000D03*
%TD*%
D11*
%TO.C,BT1*%
X121920000Y-129540000D03*
X200580000Y-129540000D03*
%TD*%
D12*
%TO.C,TSensor*%
X131665000Y-70825800D03*
X132935000Y-70825800D03*
X134205000Y-70825800D03*
X135475000Y-70825800D03*
X135475000Y-65644200D03*
X134205000Y-65644200D03*
X132935000Y-65644200D03*
X131665000Y-65644200D03*
%TD*%
D13*
%TO.C,R5*%
X190500000Y-70775000D03*
X190500000Y-71465000D03*
%TD*%
D14*
%TO.C,R17*%
X136585000Y-78740000D03*
X137275000Y-78740000D03*
%TD*%
D15*
%TO.C,R7*%
X152400000Y-68925000D03*
X152400000Y-68235000D03*
%TD*%
D14*
%TO.C,R1*%
X188305000Y-76200000D03*
X187615000Y-76200000D03*
%TD*%
D16*
%TO.C,D1*%
X172720000Y-82217500D03*
X172720000Y-80342500D03*
%TD*%
D14*
%TO.C,R14*%
X147320000Y-91440000D03*
X146630000Y-91440000D03*
%TD*%
D15*
%TO.C,R4*%
X175260000Y-89245000D03*
X175260000Y-88555000D03*
%TD*%
D14*
%TO.C,R19*%
X134620000Y-91440000D03*
X133930000Y-91440000D03*
%TD*%
D17*
%TO.C,D4*%
X136222500Y-96520000D03*
X138097500Y-96520000D03*
%TD*%
D14*
%TO.C,R6*%
X155285000Y-73660000D03*
X154595000Y-73660000D03*
%TD*%
D15*
%TO.C,C3*%
X144780000Y-78395000D03*
X144780000Y-79085000D03*
%TD*%
D10*
%TO.C,R3*%
X174915000Y-76200000D03*
X175605000Y-76200000D03*
%TD*%
D14*
%TO.C,R20*%
X137160000Y-91440000D03*
X136470000Y-91440000D03*
%TD*%
D18*
%TO.C,EEPROM1*%
X182245000Y-78805000D03*
X180975000Y-78805000D03*
X179705000Y-78805000D03*
X178435000Y-78805000D03*
X178435000Y-83755000D03*
X179705000Y-83755000D03*
X180975000Y-83755000D03*
X182245000Y-83755000D03*
%TD*%
D14*
%TO.C,R9*%
X140045000Y-66040000D03*
X139355000Y-66040000D03*
%TD*%
D19*
%TO.C,C2*%
X148910000Y-78740000D03*
X150810000Y-78740000D03*
%TD*%
D10*
%TO.C,R10*%
X141895000Y-72870000D03*
X142585000Y-72870000D03*
%TD*%
D14*
%TO.C,LDR2*%
X162905000Y-66040000D03*
X162215000Y-66040000D03*
%TD*%
D20*
%TO.C,U1*%
X179202500Y-72710000D03*
X179202500Y-73660000D03*
X179202500Y-74610000D03*
X181477500Y-74610000D03*
X181477500Y-72710000D03*
%TD*%
D21*
%TO.C,J5*%
X114300000Y-92715000D03*
X114300000Y-92065000D03*
X114300000Y-91415000D03*
X114300000Y-90765000D03*
X114300000Y-90115000D03*
D22*
X115500000Y-94365000D03*
D23*
X114200000Y-94265000D03*
D24*
X116250000Y-88665000D03*
D22*
X115500000Y-88415000D03*
D25*
X117450000Y-90455000D03*
X117450000Y-92375000D03*
D24*
X116250000Y-94145000D03*
D23*
X114180000Y-88515000D03*
%TD*%
D10*
%TO.C,R2*%
X187615000Y-78740000D03*
X188305000Y-78740000D03*
%TD*%
%TO.C,R11*%
X145125000Y-68580000D03*
X144435000Y-68580000D03*
%TD*%
D20*
%TO.C,U2*%
X186822500Y-85410000D03*
X186822500Y-86360000D03*
X186822500Y-87310000D03*
X189097500Y-87310000D03*
X189097500Y-86360000D03*
X189097500Y-85410000D03*
%TD*%
D26*
%TO.C,D3*%
X169130000Y-73660000D03*
X171230000Y-73660000D03*
%TD*%
D14*
%TO.C,C1*%
X193385000Y-71120000D03*
X192695000Y-71120000D03*
%TD*%
%TO.C,C4*%
X142240000Y-91440000D03*
X141550000Y-91440000D03*
%TD*%
D17*
%TO.C,LED1*%
X137160000Y-76200000D03*
X139035000Y-76200000D03*
%TD*%
D14*
%TO.C,R15*%
X139010000Y-91440000D03*
X139700000Y-91440000D03*
%TD*%
%TO.C,R13*%
X141575000Y-76200000D03*
X142265000Y-76200000D03*
%TD*%
%TO.C,R16*%
X137505000Y-81280000D03*
X136815000Y-81280000D03*
%TD*%
D17*
%TO.C,D2*%
X184482500Y-71120000D03*
X186357500Y-71120000D03*
%TD*%
D14*
%TO.C,R8*%
X146975000Y-73660000D03*
X147665000Y-73660000D03*
%TD*%
D27*
%TO.C,L1*%
X189022500Y-81280000D03*
X186897500Y-81280000D03*
%TD*%
D28*
%TO.C,FTDI(UART)1*%
X125095000Y-81490000D03*
X126365000Y-81490000D03*
X127635000Y-81490000D03*
X128905000Y-81490000D03*
X130175000Y-81490000D03*
X131445000Y-81490000D03*
X132715000Y-81490000D03*
X133985000Y-81490000D03*
X133985000Y-75990000D03*
X132715000Y-75990000D03*
X131445000Y-75990000D03*
X130175000Y-75990000D03*
X128905000Y-75990000D03*
X127635000Y-75990000D03*
X126365000Y-75990000D03*
X125095000Y-75990000D03*
%TD*%
D14*
%TO.C,R18*%
X144780000Y-91440000D03*
X144090000Y-91440000D03*
%TD*%
D13*
%TO.C,R12*%
X127000000Y-68580000D03*
X127000000Y-69270000D03*
%TD*%
M02*
