%TF.GenerationSoftware,KiCad,Pcbnew,(6.0.2)*%
%TF.CreationDate,2022-04-12T21:34:15+02:00*%
%TF.ProjectId,main,6d61696e-2e6b-4696-9361-645f70636258,rev?*%
%TF.SameCoordinates,Original*%
%TF.FileFunction,Soldermask,Bot*%
%TF.FilePolarity,Negative*%
%FSLAX46Y46*%
G04 Gerber Fmt 4.6, Leading zero omitted, Abs format (unit mm)*
G04 Created by KiCad (PCBNEW (6.0.2)) date 2022-04-12 21:34:15*
%MOMM*%
%LPD*%
G01*
G04 APERTURE LIST*
%ADD10C,3.450000*%
%ADD11C,2.390000*%
%ADD12R,1.700000X1.700000*%
%ADD13O,1.700000X1.700000*%
%ADD14R,1.498000X1.498000*%
%ADD15C,1.498000*%
%ADD16O,1.500000X1.100000*%
%ADD17O,1.700000X1.350000*%
%ADD18R,1.300000X1.300000*%
%ADD19C,1.300000*%
G04 APERTURE END LIST*
D10*
%TO.C,BT1*%
X133650000Y-137540000D03*
D11*
X125320000Y-121540000D03*
D10*
X188850000Y-121540000D03*
%TD*%
D12*
%TO.C,J2*%
X200660000Y-60960000D03*
D13*
X198120000Y-60960000D03*
X195580000Y-60960000D03*
X193040000Y-60960000D03*
X190500000Y-60960000D03*
X187960000Y-60960000D03*
X185420000Y-60960000D03*
X182880000Y-60960000D03*
X180340000Y-60960000D03*
X177800000Y-60960000D03*
X175260000Y-60960000D03*
X172720000Y-60960000D03*
X170180000Y-60960000D03*
X167640000Y-60960000D03*
X165100000Y-60960000D03*
X162560000Y-60960000D03*
X160020000Y-60960000D03*
X157480000Y-60960000D03*
X154940000Y-60960000D03*
X152400000Y-60960000D03*
X149860000Y-60960000D03*
X147320000Y-60960000D03*
X144780000Y-60960000D03*
X142240000Y-60960000D03*
X139700000Y-60960000D03*
X137160000Y-60960000D03*
X134620000Y-60960000D03*
X132080000Y-60960000D03*
X129540000Y-60960000D03*
X127000000Y-60960000D03*
X124460000Y-60960000D03*
X121920000Y-60960000D03*
X119380000Y-60960000D03*
%TD*%
D14*
%TO.C,SW2*%
X165810000Y-87495000D03*
D15*
X159310000Y-87495000D03*
X165810000Y-82995000D03*
X159310000Y-82995000D03*
%TD*%
D12*
%TO.C,J1*%
X200660000Y-50800000D03*
D13*
X198120000Y-50800000D03*
X195580000Y-50800000D03*
X193040000Y-50800000D03*
X190500000Y-50800000D03*
X187960000Y-50800000D03*
X185420000Y-50800000D03*
X182880000Y-50800000D03*
X180340000Y-50800000D03*
X177800000Y-50800000D03*
X175260000Y-50800000D03*
X172720000Y-50800000D03*
X170180000Y-50800000D03*
X167640000Y-50800000D03*
X165100000Y-50800000D03*
X162560000Y-50800000D03*
X160020000Y-50800000D03*
X157480000Y-50800000D03*
X154940000Y-50800000D03*
X152400000Y-50800000D03*
X149860000Y-50800000D03*
X147320000Y-50800000D03*
X144780000Y-50800000D03*
X142240000Y-50800000D03*
X139700000Y-50800000D03*
X137160000Y-50800000D03*
X134620000Y-50800000D03*
X132080000Y-50800000D03*
X129540000Y-50800000D03*
X127000000Y-50800000D03*
X124460000Y-50800000D03*
X121920000Y-50800000D03*
X119380000Y-50800000D03*
%TD*%
D14*
%TO.C,SW1*%
X165810000Y-79875000D03*
D15*
X159310000Y-79875000D03*
X165810000Y-75375000D03*
X159310000Y-75375000D03*
%TD*%
D16*
%TO.C,J5*%
X114180000Y-93835000D03*
X114180000Y-88995000D03*
D17*
X117180000Y-94145000D03*
X117180000Y-88685000D03*
%TD*%
D12*
%TO.C,J4*%
X200660000Y-111760000D03*
D13*
X198120000Y-111760000D03*
X195580000Y-111760000D03*
X193040000Y-111760000D03*
X190500000Y-111760000D03*
X187960000Y-111760000D03*
X185420000Y-111760000D03*
X182880000Y-111760000D03*
X180340000Y-111760000D03*
X177800000Y-111760000D03*
X175260000Y-111760000D03*
X172720000Y-111760000D03*
X170180000Y-111760000D03*
X167640000Y-111760000D03*
X165100000Y-111760000D03*
X162560000Y-111760000D03*
X160020000Y-111760000D03*
X157480000Y-111760000D03*
X154940000Y-111760000D03*
X152400000Y-111760000D03*
X149860000Y-111760000D03*
X147320000Y-111760000D03*
X144780000Y-111760000D03*
X142240000Y-111760000D03*
X139700000Y-111760000D03*
X137160000Y-111760000D03*
X134620000Y-111760000D03*
X132080000Y-111760000D03*
X129540000Y-111760000D03*
X127000000Y-111760000D03*
X124460000Y-111760000D03*
X121920000Y-111760000D03*
X119380000Y-111760000D03*
%TD*%
D12*
%TO.C,J3*%
X200660000Y-101600000D03*
D13*
X198120000Y-101600000D03*
X195580000Y-101600000D03*
X193040000Y-101600000D03*
X190500000Y-101600000D03*
X187960000Y-101600000D03*
X185420000Y-101600000D03*
X182880000Y-101600000D03*
X180340000Y-101600000D03*
X177800000Y-101600000D03*
X175260000Y-101600000D03*
X172720000Y-101600000D03*
X170180000Y-101600000D03*
X167640000Y-101600000D03*
X165100000Y-101600000D03*
X162560000Y-101600000D03*
X160020000Y-101600000D03*
X157480000Y-101600000D03*
X154940000Y-101600000D03*
X152400000Y-101600000D03*
X149860000Y-101600000D03*
X147320000Y-101600000D03*
X144780000Y-101600000D03*
X142240000Y-101600000D03*
X139700000Y-101600000D03*
X137160000Y-101600000D03*
X134620000Y-101600000D03*
X132080000Y-101600000D03*
X129540000Y-101600000D03*
X127000000Y-101600000D03*
X124460000Y-101600000D03*
X121920000Y-101600000D03*
X119380000Y-101600000D03*
%TD*%
D18*
%TO.C,Q1*%
X180340000Y-93980000D03*
D19*
X179070000Y-92710000D03*
X180340000Y-91440000D03*
%TD*%
M02*
