M48
; DRILL file {KiCad (6.0.2)} date Tue Apr 12 17:31:18 2022
; FORMAT={-:-/ absolute / metric / decimal}
; #@! TF.CreationDate,2022-04-12T17:31:18+02:00
; #@! TF.GenerationSoftware,Kicad,Pcbnew,(6.0.2)
; #@! TF.FileFunction,Plated,1,2,PTH
FMAT,2
METRIC
; #@! TA.AperFunction,Plated,PTH,ViaDrill
T1C0.400
; #@! TA.AperFunction,Plated,PTH,ComponentDrill
T2C0.650
; #@! TA.AperFunction,Plated,PTH,ComponentDrill
T3C0.700
; #@! TA.AperFunction,Plated,PTH,ComponentDrill
T4C0.750
; #@! TA.AperFunction,Plated,PTH,ComponentDrill
T5C0.990
; #@! TA.AperFunction,Plated,PTH,ComponentDrill
T6C1.000
%
G90
G05
T1
X114.3Y-86.36
X116.84Y-83.82
X119.38Y-121.92
X121.92Y-83.82
X121.92Y-88.9
X125.39Y-87.72
X129.54Y-71.12
X129.54Y-93.98
X132.08Y-63.5
X132.08Y-83.82
X132.08Y-93.98
X134.62Y-73.66
X134.62Y-86.36
X134.62Y-88.9
X134.62Y-93.98
X137.16Y-63.5
X137.16Y-71.12
X137.16Y-93.98
X137.16Y-99.06
X139.7Y-78.74
X139.7Y-88.9
X139.7Y-96.52
X139.7Y-99.06
X142.24Y-68.78
X142.24Y-86.36
X144.78Y-76.2
X144.78Y-88.9
X149.86Y-91.44
X152.4Y-73.66
X152.4Y-78.74
X152.4Y-83.82
X154.62Y-68.26
X154.94Y-78.74
X157.48Y-71.844
X157.48Y-81.28
X157.48Y-93.98
X157.48Y-96.52
X160.02Y-91.44
X165.1Y-66.04
X167.64Y-66.04
X170.18Y-78.74
X170.18Y-93.98
X170.18Y-99.06
X172.72Y-89.293
X175.26Y-73.66
X175.26Y-91.44
X175.26Y-93.98
X177.8Y-73.66
X177.8Y-86.36
X180.34Y-76.2
X180.34Y-86.36
X180.34Y-88.9
X185.42Y-73.66
X185.42Y-86.36
X190.5Y-73.66
X190.5Y-76.2
X190.5Y-78.74
X193.04Y-78.74
X195.58Y-71.12
T4
X179.07Y-92.71
X180.34Y-91.44
X180.34Y-93.98
T5
X159.31Y-75.375
X159.31Y-79.875
X159.31Y-82.995
X159.31Y-87.495
X165.81Y-75.375
X165.81Y-79.875
X165.81Y-82.995
X165.81Y-87.495
T6
X119.38Y-50.8
X119.38Y-60.96
X119.38Y-101.6
X119.38Y-111.76
X121.92Y-50.8
X121.92Y-60.96
X121.92Y-101.6
X121.92Y-111.76
X124.46Y-50.8
X124.46Y-60.96
X124.46Y-101.6
X124.46Y-111.76
X127.0Y-50.8
X127.0Y-60.96
X127.0Y-101.6
X127.0Y-111.76
X129.54Y-50.8
X129.54Y-60.96
X129.54Y-101.6
X129.54Y-111.76
X132.08Y-50.8
X132.08Y-60.96
X132.08Y-101.6
X132.08Y-111.76
X134.62Y-50.8
X134.62Y-60.96
X134.62Y-101.6
X134.62Y-111.76
X137.16Y-50.8
X137.16Y-60.96
X137.16Y-101.6
X137.16Y-111.76
X139.7Y-50.8
X139.7Y-60.96
X139.7Y-101.6
X139.7Y-111.76
X142.24Y-50.8
X142.24Y-60.96
X142.24Y-101.6
X142.24Y-111.76
X144.78Y-50.8
X144.78Y-60.96
X144.78Y-101.6
X144.78Y-111.76
X147.32Y-50.8
X147.32Y-60.96
X147.32Y-101.6
X147.32Y-111.76
X149.86Y-50.8
X149.86Y-60.96
X149.86Y-101.6
X149.86Y-111.76
X152.4Y-50.8
X152.4Y-60.96
X152.4Y-101.6
X152.4Y-111.76
X154.94Y-50.8
X154.94Y-60.96
X154.94Y-101.6
X154.94Y-111.76
X157.48Y-50.8
X157.48Y-60.96
X157.48Y-101.6
X157.48Y-111.76
X160.02Y-50.8
X160.02Y-60.96
X160.02Y-101.6
X160.02Y-111.76
X162.56Y-50.8
X162.56Y-60.96
X162.56Y-101.6
X162.56Y-111.76
X165.1Y-50.8
X165.1Y-60.96
X165.1Y-101.6
X165.1Y-111.76
X167.64Y-50.8
X167.64Y-60.96
X167.64Y-101.6
X167.64Y-111.76
X170.18Y-50.8
X170.18Y-60.96
X170.18Y-101.6
X170.18Y-111.76
X172.72Y-50.8
X172.72Y-60.96
X172.72Y-101.6
X172.72Y-111.76
X175.26Y-50.8
X175.26Y-60.96
X175.26Y-101.6
X175.26Y-111.76
X177.8Y-50.8
X177.8Y-60.96
X177.8Y-101.6
X177.8Y-111.76
X180.34Y-50.8
X180.34Y-60.96
X180.34Y-101.6
X180.34Y-111.76
X182.88Y-50.8
X182.88Y-60.96
X182.88Y-101.6
X182.88Y-111.76
X185.42Y-50.8
X185.42Y-60.96
X185.42Y-101.6
X185.42Y-111.76
X187.96Y-50.8
X187.96Y-60.96
X187.96Y-101.6
X187.96Y-111.76
X190.5Y-50.8
X190.5Y-60.96
X190.5Y-101.6
X190.5Y-111.76
X193.04Y-50.8
X193.04Y-60.96
X193.04Y-101.6
X193.04Y-111.76
X195.58Y-50.8
X195.58Y-60.96
X195.58Y-101.6
X195.58Y-111.76
X198.12Y-50.8
X198.12Y-60.96
X198.12Y-101.6
X198.12Y-111.76
X200.66Y-50.8
X200.66Y-60.96
X200.66Y-101.6
X200.66Y-111.76
T2
X114.38Y-88.995G85X113.98Y-88.995
G05
X114.38Y-93.835G85X113.98Y-93.835
G05
T3
X117.43Y-88.685G85X116.93Y-88.685
G05
X117.43Y-94.145G85X116.93Y-94.145
G05
T0
M30
