%TF.GenerationSoftware,KiCad,Pcbnew,(6.0.2)*%
%TF.CreationDate,2022-04-12T17:30:22+02:00*%
%TF.ProjectId,main,6d61696e-2e6b-4696-9361-645f70636258,rev?*%
%TF.SameCoordinates,Original*%
%TF.FileFunction,Legend,Top*%
%TF.FilePolarity,Positive*%
%FSLAX46Y46*%
G04 Gerber Fmt 4.6, Leading zero omitted, Abs format (unit mm)*
G04 Created by KiCad (PCBNEW (6.0.2)) date 2022-04-12 17:30:22*
%MOMM*%
%LPD*%
G01*
G04 APERTURE LIST*
G04 Aperture macros list*
%AMRoundRect*
0 Rectangle with rounded corners*
0 $1 Rounding radius*
0 $2 $3 $4 $5 $6 $7 $8 $9 X,Y pos of 4 corners*
0 Add a 4 corners polygon primitive as box body*
4,1,4,$2,$3,$4,$5,$6,$7,$8,$9,$2,$3,0*
0 Add four circle primitives for the rounded corners*
1,1,$1+$1,$2,$3*
1,1,$1+$1,$4,$5*
1,1,$1+$1,$6,$7*
1,1,$1+$1,$8,$9*
0 Add four rect primitives between the rounded corners*
20,1,$1+$1,$2,$3,$4,$5,0*
20,1,$1+$1,$4,$5,$6,$7,0*
20,1,$1+$1,$6,$7,$8,$9,0*
20,1,$1+$1,$8,$9,$2,$3,0*%
G04 Aperture macros list end*
%ADD10C,0.100000*%
%ADD11C,0.300000*%
%ADD12C,0.150000*%
%ADD13C,0.120000*%
%ADD14C,0.152400*%
%ADD15C,0.127000*%
%ADD16C,0.200000*%
%ADD17RoundRect,0.100000X0.130000X0.100000X-0.130000X0.100000X-0.130000X-0.100000X0.130000X-0.100000X0*%
%ADD18C,3.450000*%
%ADD19C,2.390000*%
%ADD20R,7.340000X6.350000*%
%ADD21R,0.533400X1.701800*%
%ADD22RoundRect,0.100000X-0.100000X0.130000X-0.100000X-0.130000X0.100000X-0.130000X0.100000X0.130000X0*%
%ADD23RoundRect,0.100000X-0.130000X-0.100000X0.130000X-0.100000X0.130000X0.100000X-0.130000X0.100000X0*%
%ADD24RoundRect,0.100000X0.100000X-0.130000X0.100000X0.130000X-0.100000X0.130000X-0.100000X-0.130000X0*%
%ADD25RoundRect,0.243750X0.456250X-0.243750X0.456250X0.243750X-0.456250X0.243750X-0.456250X-0.243750X0*%
%ADD26R,1.700000X1.700000*%
%ADD27O,1.700000X1.700000*%
%ADD28RoundRect,0.243750X-0.243750X-0.456250X0.243750X-0.456250X0.243750X0.456250X-0.243750X0.456250X0*%
%ADD29RoundRect,0.039900X-0.245100X0.945100X-0.245100X-0.945100X0.245100X-0.945100X0.245100X0.945100X0*%
%ADD30R,1.498000X1.498000*%
%ADD31C,1.498000*%
%ADD32RoundRect,0.250000X-0.250000X-0.475000X0.250000X-0.475000X0.250000X0.475000X-0.250000X0.475000X0*%
%ADD33RoundRect,0.150000X-0.512500X-0.150000X0.512500X-0.150000X0.512500X0.150000X-0.512500X0.150000X0*%
%ADD34R,1.650000X0.400000*%
%ADD35O,1.500000X1.100000*%
%ADD36R,0.700000X1.825000*%
%ADD37R,1.500000X2.000000*%
%ADD38O,1.700000X1.350000*%
%ADD39R,2.000000X1.350000*%
%ADD40R,2.500000X1.430000*%
%ADD41R,0.600000X0.450000*%
%ADD42RoundRect,0.218750X0.218750X0.381250X-0.218750X0.381250X-0.218750X-0.381250X0.218750X-0.381250X0*%
%ADD43RoundRect,0.049600X0.260400X-0.605400X0.260400X0.605400X-0.260400X0.605400X-0.260400X-0.605400X0*%
%ADD44R,1.300000X1.300000*%
%ADD45C,1.300000*%
G04 APERTURE END LIST*
D10*
X194310000Y-73780000D02*
X204470000Y-73780000D01*
X204470000Y-73780000D02*
X204470000Y-83940000D01*
X204470000Y-83940000D02*
X194310000Y-83940000D01*
X194310000Y-83940000D02*
X194310000Y-73780000D01*
D11*
X198136190Y-77644761D02*
X198136190Y-79263809D01*
X198231428Y-79454285D01*
X198326666Y-79549523D01*
X198517142Y-79644761D01*
X198898095Y-79644761D01*
X199088571Y-79549523D01*
X199183809Y-79454285D01*
X199279047Y-79263809D01*
X199279047Y-77644761D01*
X200136190Y-79549523D02*
X200421904Y-79644761D01*
X200898095Y-79644761D01*
X201088571Y-79549523D01*
X201183809Y-79454285D01*
X201279047Y-79263809D01*
X201279047Y-79073333D01*
X201183809Y-78882857D01*
X201088571Y-78787619D01*
X200898095Y-78692380D01*
X200517142Y-78597142D01*
X200326666Y-78501904D01*
X200231428Y-78406666D01*
X200136190Y-78216190D01*
X200136190Y-78025714D01*
X200231428Y-77835238D01*
X200326666Y-77740000D01*
X200517142Y-77644761D01*
X200993333Y-77644761D01*
X201279047Y-77740000D01*
X202802857Y-78597142D02*
X203088571Y-78692380D01*
X203183809Y-78787619D01*
X203279047Y-78978095D01*
X203279047Y-79263809D01*
X203183809Y-79454285D01*
X203088571Y-79549523D01*
X202898095Y-79644761D01*
X202136190Y-79644761D01*
X202136190Y-77644761D01*
X202802857Y-77644761D01*
X202993333Y-77740000D01*
X203088571Y-77835238D01*
X203183809Y-78025714D01*
X203183809Y-78216190D01*
X203088571Y-78406666D01*
X202993333Y-78501904D01*
X202802857Y-78597142D01*
X202136190Y-78597142D01*
D12*
X190016190Y-91892380D02*
X190016190Y-90892380D01*
X190349523Y-91606666D01*
X190682857Y-90892380D01*
X190682857Y-91892380D01*
X191016190Y-90892380D02*
X191587619Y-90892380D01*
X191301904Y-91892380D02*
X191301904Y-90892380D01*
X191825714Y-90892380D02*
X192444761Y-90892380D01*
X192111428Y-91273333D01*
X192254285Y-91273333D01*
X192349523Y-91320952D01*
X192397142Y-91368571D01*
X192444761Y-91463809D01*
X192444761Y-91701904D01*
X192397142Y-91797142D01*
X192349523Y-91844761D01*
X192254285Y-91892380D01*
X191968571Y-91892380D01*
X191873333Y-91844761D01*
X191825714Y-91797142D01*
X193301904Y-90892380D02*
X193111428Y-90892380D01*
X193016190Y-90940000D01*
X192968571Y-90987619D01*
X192873333Y-91130476D01*
X192825714Y-91320952D01*
X192825714Y-91701904D01*
X192873333Y-91797142D01*
X192920952Y-91844761D01*
X193016190Y-91892380D01*
X193206666Y-91892380D01*
X193301904Y-91844761D01*
X193349523Y-91797142D01*
X193397142Y-91701904D01*
X193397142Y-91463809D01*
X193349523Y-91368571D01*
X193301904Y-91320952D01*
X193206666Y-91273333D01*
X193016190Y-91273333D01*
X192920952Y-91320952D01*
X192873333Y-91368571D01*
X192825714Y-91463809D01*
X194016190Y-90892380D02*
X194111428Y-90892380D01*
X194206666Y-90940000D01*
X194254285Y-90987619D01*
X194301904Y-91082857D01*
X194349523Y-91273333D01*
X194349523Y-91511428D01*
X194301904Y-91701904D01*
X194254285Y-91797142D01*
X194206666Y-91844761D01*
X194111428Y-91892380D01*
X194016190Y-91892380D01*
X193920952Y-91844761D01*
X193873333Y-91797142D01*
X193825714Y-91701904D01*
X193778095Y-91511428D01*
X193778095Y-91273333D01*
X193825714Y-91082857D01*
X193873333Y-90987619D01*
X193920952Y-90940000D01*
X194016190Y-90892380D01*
X194920952Y-91320952D02*
X194825714Y-91273333D01*
X194778095Y-91225714D01*
X194730476Y-91130476D01*
X194730476Y-91082857D01*
X194778095Y-90987619D01*
X194825714Y-90940000D01*
X194920952Y-90892380D01*
X195111428Y-90892380D01*
X195206666Y-90940000D01*
X195254285Y-90987619D01*
X195301904Y-91082857D01*
X195301904Y-91130476D01*
X195254285Y-91225714D01*
X195206666Y-91273333D01*
X195111428Y-91320952D01*
X194920952Y-91320952D01*
X194825714Y-91368571D01*
X194778095Y-91416190D01*
X194730476Y-91511428D01*
X194730476Y-91701904D01*
X194778095Y-91797142D01*
X194825714Y-91844761D01*
X194920952Y-91892380D01*
X195111428Y-91892380D01*
X195206666Y-91844761D01*
X195254285Y-91797142D01*
X195301904Y-91701904D01*
X195301904Y-91511428D01*
X195254285Y-91416190D01*
X195206666Y-91368571D01*
X195111428Y-91320952D01*
X196206666Y-91892380D02*
X195730476Y-91892380D01*
X195730476Y-90892380D01*
X163147619Y-90420714D02*
X163528571Y-90420714D01*
X163290476Y-90087380D02*
X163290476Y-90944523D01*
X163338095Y-91039761D01*
X163433333Y-91087380D01*
X163528571Y-91087380D01*
X163861904Y-90992142D02*
X163909523Y-91039761D01*
X163861904Y-91087380D01*
X163814285Y-91039761D01*
X163861904Y-90992142D01*
X163861904Y-91087380D01*
X163861904Y-90468333D02*
X163909523Y-90515952D01*
X163861904Y-90563571D01*
X163814285Y-90515952D01*
X163861904Y-90468333D01*
X163861904Y-90563571D01*
X164290476Y-91039761D02*
X164433333Y-91087380D01*
X164671428Y-91087380D01*
X164766666Y-91039761D01*
X164814285Y-90992142D01*
X164861904Y-90896904D01*
X164861904Y-90801666D01*
X164814285Y-90706428D01*
X164766666Y-90658809D01*
X164671428Y-90611190D01*
X164480952Y-90563571D01*
X164385714Y-90515952D01*
X164338095Y-90468333D01*
X164290476Y-90373095D01*
X164290476Y-90277857D01*
X164338095Y-90182619D01*
X164385714Y-90135000D01*
X164480952Y-90087380D01*
X164719047Y-90087380D01*
X164861904Y-90135000D01*
X165195238Y-90087380D02*
X165433333Y-91087380D01*
X165623809Y-90373095D01*
X165814285Y-91087380D01*
X166052380Y-90087380D01*
X166957142Y-91087380D02*
X166385714Y-91087380D01*
X166671428Y-91087380D02*
X166671428Y-90087380D01*
X166576190Y-90230238D01*
X166480952Y-90325476D01*
X166385714Y-90373095D01*
X163123809Y-92697380D02*
X163123809Y-91697380D01*
X163123809Y-92078333D02*
X163219047Y-92030714D01*
X163409523Y-92030714D01*
X163504761Y-92078333D01*
X163552380Y-92125952D01*
X163600000Y-92221190D01*
X163600000Y-92506904D01*
X163552380Y-92602142D01*
X163504761Y-92649761D01*
X163409523Y-92697380D01*
X163219047Y-92697380D01*
X163123809Y-92649761D01*
X164028571Y-92602142D02*
X164076190Y-92649761D01*
X164028571Y-92697380D01*
X163980952Y-92649761D01*
X164028571Y-92602142D01*
X164028571Y-92697380D01*
X164028571Y-92078333D02*
X164076190Y-92125952D01*
X164028571Y-92173571D01*
X163980952Y-92125952D01*
X164028571Y-92078333D01*
X164028571Y-92173571D01*
X164457142Y-92649761D02*
X164600000Y-92697380D01*
X164838095Y-92697380D01*
X164933333Y-92649761D01*
X164980952Y-92602142D01*
X165028571Y-92506904D01*
X165028571Y-92411666D01*
X164980952Y-92316428D01*
X164933333Y-92268809D01*
X164838095Y-92221190D01*
X164647619Y-92173571D01*
X164552380Y-92125952D01*
X164504761Y-92078333D01*
X164457142Y-91983095D01*
X164457142Y-91887857D01*
X164504761Y-91792619D01*
X164552380Y-91745000D01*
X164647619Y-91697380D01*
X164885714Y-91697380D01*
X165028571Y-91745000D01*
X165361904Y-91697380D02*
X165600000Y-92697380D01*
X165790476Y-91983095D01*
X165980952Y-92697380D01*
X166219047Y-91697380D01*
X166552380Y-91792619D02*
X166600000Y-91745000D01*
X166695238Y-91697380D01*
X166933333Y-91697380D01*
X167028571Y-91745000D01*
X167076190Y-91792619D01*
X167123809Y-91887857D01*
X167123809Y-91983095D01*
X167076190Y-92125952D01*
X166504761Y-92697380D01*
X167123809Y-92697380D01*
%TO.C,LDR1*%
X158523333Y-98922380D02*
X158047142Y-98922380D01*
X158047142Y-97922380D01*
X158856666Y-98922380D02*
X158856666Y-97922380D01*
X159094761Y-97922380D01*
X159237619Y-97970000D01*
X159332857Y-98065238D01*
X159380476Y-98160476D01*
X159428095Y-98350952D01*
X159428095Y-98493809D01*
X159380476Y-98684285D01*
X159332857Y-98779523D01*
X159237619Y-98874761D01*
X159094761Y-98922380D01*
X158856666Y-98922380D01*
X160428095Y-98922380D02*
X160094761Y-98446190D01*
X159856666Y-98922380D02*
X159856666Y-97922380D01*
X160237619Y-97922380D01*
X160332857Y-97970000D01*
X160380476Y-98017619D01*
X160428095Y-98112857D01*
X160428095Y-98255714D01*
X160380476Y-98350952D01*
X160332857Y-98398571D01*
X160237619Y-98446190D01*
X159856666Y-98446190D01*
X161380476Y-98922380D02*
X160809047Y-98922380D01*
X161094761Y-98922380D02*
X161094761Y-97922380D01*
X160999523Y-98065238D01*
X160904285Y-98160476D01*
X160809047Y-98208095D01*
%TO.C,BT1*%
X160464285Y-117968571D02*
X160607142Y-118016190D01*
X160654761Y-118063809D01*
X160702380Y-118159047D01*
X160702380Y-118301904D01*
X160654761Y-118397142D01*
X160607142Y-118444761D01*
X160511904Y-118492380D01*
X160130952Y-118492380D01*
X160130952Y-117492380D01*
X160464285Y-117492380D01*
X160559523Y-117540000D01*
X160607142Y-117587619D01*
X160654761Y-117682857D01*
X160654761Y-117778095D01*
X160607142Y-117873333D01*
X160559523Y-117920952D01*
X160464285Y-117968571D01*
X160130952Y-117968571D01*
X160988095Y-117492380D02*
X161559523Y-117492380D01*
X161273809Y-118492380D02*
X161273809Y-117492380D01*
X162416666Y-118492380D02*
X161845238Y-118492380D01*
X162130952Y-118492380D02*
X162130952Y-117492380D01*
X162035714Y-117635238D01*
X161940476Y-117730476D01*
X161845238Y-117778095D01*
%TO.C,TSensor*%
X136932380Y-70068571D02*
X136932380Y-69554285D01*
X137932380Y-69811428D02*
X136932380Y-69811428D01*
X137884761Y-69297142D02*
X137932380Y-69168571D01*
X137932380Y-68954285D01*
X137884761Y-68868571D01*
X137837142Y-68825714D01*
X137741904Y-68782857D01*
X137646666Y-68782857D01*
X137551428Y-68825714D01*
X137503809Y-68868571D01*
X137456190Y-68954285D01*
X137408571Y-69125714D01*
X137360952Y-69211428D01*
X137313333Y-69254285D01*
X137218095Y-69297142D01*
X137122857Y-69297142D01*
X137027619Y-69254285D01*
X136980000Y-69211428D01*
X136932380Y-69125714D01*
X136932380Y-68911428D01*
X136980000Y-68782857D01*
X137884761Y-68054285D02*
X137932380Y-68140000D01*
X137932380Y-68311428D01*
X137884761Y-68397142D01*
X137789523Y-68440000D01*
X137408571Y-68440000D01*
X137313333Y-68397142D01*
X137265714Y-68311428D01*
X137265714Y-68140000D01*
X137313333Y-68054285D01*
X137408571Y-68011428D01*
X137503809Y-68011428D01*
X137599047Y-68440000D01*
X137265714Y-67625714D02*
X137932380Y-67625714D01*
X137360952Y-67625714D02*
X137313333Y-67582857D01*
X137265714Y-67497142D01*
X137265714Y-67368571D01*
X137313333Y-67282857D01*
X137408571Y-67240000D01*
X137932380Y-67240000D01*
X137884761Y-66854285D02*
X137932380Y-66768571D01*
X137932380Y-66597142D01*
X137884761Y-66511428D01*
X137789523Y-66468571D01*
X137741904Y-66468571D01*
X137646666Y-66511428D01*
X137599047Y-66597142D01*
X137599047Y-66725714D01*
X137551428Y-66811428D01*
X137456190Y-66854285D01*
X137408571Y-66854285D01*
X137313333Y-66811428D01*
X137265714Y-66725714D01*
X137265714Y-66597142D01*
X137313333Y-66511428D01*
X137932380Y-65954285D02*
X137884761Y-66040000D01*
X137837142Y-66082857D01*
X137741904Y-66125714D01*
X137456190Y-66125714D01*
X137360952Y-66082857D01*
X137313333Y-66040000D01*
X137265714Y-65954285D01*
X137265714Y-65825714D01*
X137313333Y-65740000D01*
X137360952Y-65697142D01*
X137456190Y-65654285D01*
X137741904Y-65654285D01*
X137837142Y-65697142D01*
X137884761Y-65740000D01*
X137932380Y-65825714D01*
X137932380Y-65954285D01*
X137932380Y-65268571D02*
X137265714Y-65268571D01*
X137456190Y-65268571D02*
X137360952Y-65225714D01*
X137313333Y-65182857D01*
X137265714Y-65097142D01*
X137265714Y-65011428D01*
%TO.C,J1*%
X202442380Y-51133333D02*
X203156666Y-51133333D01*
X203299523Y-51180952D01*
X203394761Y-51276190D01*
X203442380Y-51419047D01*
X203442380Y-51514285D01*
X203442380Y-50133333D02*
X203442380Y-50704761D01*
X203442380Y-50419047D02*
X202442380Y-50419047D01*
X202585238Y-50514285D01*
X202680476Y-50609523D01*
X202728095Y-50704761D01*
%TO.C,LDR2*%
X161403333Y-64612380D02*
X160927142Y-64612380D01*
X160927142Y-63612380D01*
X161736666Y-64612380D02*
X161736666Y-63612380D01*
X161974761Y-63612380D01*
X162117619Y-63660000D01*
X162212857Y-63755238D01*
X162260476Y-63850476D01*
X162308095Y-64040952D01*
X162308095Y-64183809D01*
X162260476Y-64374285D01*
X162212857Y-64469523D01*
X162117619Y-64564761D01*
X161974761Y-64612380D01*
X161736666Y-64612380D01*
X163308095Y-64612380D02*
X162974761Y-64136190D01*
X162736666Y-64612380D02*
X162736666Y-63612380D01*
X163117619Y-63612380D01*
X163212857Y-63660000D01*
X163260476Y-63707619D01*
X163308095Y-63802857D01*
X163308095Y-63945714D01*
X163260476Y-64040952D01*
X163212857Y-64088571D01*
X163117619Y-64136190D01*
X162736666Y-64136190D01*
X163689047Y-63707619D02*
X163736666Y-63660000D01*
X163831904Y-63612380D01*
X164070000Y-63612380D01*
X164165238Y-63660000D01*
X164212857Y-63707619D01*
X164260476Y-63802857D01*
X164260476Y-63898095D01*
X164212857Y-64040952D01*
X163641428Y-64612380D01*
X164260476Y-64612380D01*
%TO.C,J4*%
X202442380Y-112093333D02*
X203156666Y-112093333D01*
X203299523Y-112140952D01*
X203394761Y-112236190D01*
X203442380Y-112379047D01*
X203442380Y-112474285D01*
X202775714Y-111188571D02*
X203442380Y-111188571D01*
X202394761Y-111426666D02*
X203109047Y-111664761D01*
X203109047Y-111045714D01*
%TO.C,J3*%
X202882380Y-101933333D02*
X203596666Y-101933333D01*
X203739523Y-101980952D01*
X203834761Y-102076190D01*
X203882380Y-102219047D01*
X203882380Y-102314285D01*
X202882380Y-101552380D02*
X202882380Y-100933333D01*
X203263333Y-101266666D01*
X203263333Y-101123809D01*
X203310952Y-101028571D01*
X203358571Y-100980952D01*
X203453809Y-100933333D01*
X203691904Y-100933333D01*
X203787142Y-100980952D01*
X203834761Y-101028571D01*
X203882380Y-101123809D01*
X203882380Y-101409523D01*
X203834761Y-101504761D01*
X203787142Y-101552380D01*
D13*
%TO.C,BT1*%
X205000000Y-123540000D02*
X202500000Y-123540000D01*
X199890000Y-126100000D02*
X199890000Y-119120000D01*
X122610000Y-139980000D02*
X122610000Y-132980000D01*
X117500000Y-123540000D02*
X120000000Y-123540000D01*
X122610000Y-126100000D02*
X118250000Y-126100000D01*
X118750000Y-124790000D02*
X118750000Y-122290000D01*
X122610000Y-119100000D02*
X122610000Y-126100000D01*
X199890000Y-119100000D02*
X122610000Y-119100000D01*
X199890000Y-139980000D02*
X122610000Y-139980000D01*
X199890000Y-132980000D02*
X199890000Y-139980000D01*
D14*
%TO.C,TSensor*%
X131080800Y-66558600D02*
X131080800Y-67930200D01*
X131080800Y-67930200D02*
X131080800Y-68539800D01*
X136059200Y-69911400D02*
X136059200Y-66558600D01*
X131080800Y-68539800D02*
X131080800Y-69911400D01*
X131080800Y-68539800D02*
G75*
G03*
X131080800Y-67930200I0J304800D01*
G01*
D13*
%TO.C,D1*%
X171760000Y-80280000D02*
X171760000Y-82965000D01*
X173680000Y-82965000D02*
X173680000Y-80280000D01*
X171760000Y-82965000D02*
X173680000Y-82965000D01*
%TO.C,J2*%
X201990000Y-62290000D02*
X200660000Y-62290000D01*
X199390000Y-59630000D02*
X118050000Y-59630000D01*
X199390000Y-59630000D02*
X199390000Y-62290000D01*
X118050000Y-59630000D02*
X118050000Y-62290000D01*
X201990000Y-60960000D02*
X201990000Y-62290000D01*
X199390000Y-62290000D02*
X118050000Y-62290000D01*
%TO.C,D4*%
X135475000Y-97480000D02*
X138160000Y-97480000D01*
X135475000Y-95560000D02*
X135475000Y-97480000D01*
X138160000Y-95560000D02*
X135475000Y-95560000D01*
D15*
%TO.C,EEPROM1*%
X182850000Y-79280000D02*
X182850000Y-83280000D01*
X177830000Y-79280000D02*
X177830000Y-83280000D01*
D16*
X182915000Y-76835000D02*
G75*
G03*
X182915000Y-76835000I-100000J0D01*
G01*
D15*
%TO.C,SW2*%
X159560000Y-86395000D02*
X159560000Y-84095000D01*
X164760000Y-88240000D02*
X160260000Y-88240000D01*
X160260000Y-82250000D02*
X164860000Y-82250000D01*
X165555000Y-86395000D02*
X165555000Y-84095000D01*
D16*
X167105000Y-87495000D02*
G75*
G03*
X167105000Y-87495000I-100000J0D01*
G01*
D15*
X164315000Y-85245000D02*
G75*
G03*
X164315000Y-85245000I-1755000J0D01*
G01*
D13*
%TO.C,C2*%
X149598748Y-79475000D02*
X150121252Y-79475000D01*
X149598748Y-78005000D02*
X150121252Y-78005000D01*
%TO.C,J1*%
X200660000Y-49470000D02*
X201990000Y-49470000D01*
X199390000Y-52130000D02*
X118050000Y-52130000D01*
X199390000Y-49470000D02*
X199390000Y-52130000D01*
X201990000Y-49470000D02*
X201990000Y-50800000D01*
X118050000Y-49470000D02*
X118050000Y-52130000D01*
X199390000Y-49470000D02*
X118050000Y-49470000D01*
D15*
%TO.C,SW1*%
X164760000Y-80620000D02*
X160260000Y-80620000D01*
X159560000Y-78775000D02*
X159560000Y-76475000D01*
X160260000Y-74630000D02*
X164860000Y-74630000D01*
X165555000Y-78775000D02*
X165555000Y-76475000D01*
X164315000Y-77625000D02*
G75*
G03*
X164315000Y-77625000I-1755000J0D01*
G01*
D16*
X167105000Y-79875000D02*
G75*
G03*
X167105000Y-79875000I-100000J0D01*
G01*
D13*
%TO.C,U1*%
X180340000Y-72100000D02*
X178540000Y-72100000D01*
X180340000Y-72100000D02*
X181140000Y-72100000D01*
X180340000Y-75220000D02*
X181140000Y-75220000D01*
X180340000Y-75220000D02*
X179540000Y-75220000D01*
%TO.C,J5*%
X113200000Y-92715000D02*
X112750000Y-93115000D01*
X118800000Y-87565000D02*
X116000000Y-87565000D01*
X116000000Y-95565000D02*
X114450000Y-95565000D01*
X112750000Y-93115000D02*
X112750000Y-92315000D01*
X116000000Y-87565000D02*
X116000000Y-87265000D01*
X112750000Y-92315000D02*
X113200000Y-92715000D01*
X116000000Y-87265000D02*
X114450000Y-87265000D01*
X116000000Y-95565000D02*
X116000000Y-95265000D01*
X118800000Y-95265000D02*
X116000000Y-95265000D01*
%TO.C,J4*%
X200660000Y-110430000D02*
X201990000Y-110430000D01*
X199390000Y-110430000D02*
X199390000Y-113090000D01*
X118050000Y-110430000D02*
X118050000Y-113090000D01*
X201990000Y-110430000D02*
X201990000Y-111760000D01*
X199390000Y-113090000D02*
X118050000Y-113090000D01*
X199390000Y-110430000D02*
X118050000Y-110430000D01*
%TO.C,U2*%
X187960000Y-87920000D02*
X187160000Y-87920000D01*
X187960000Y-84800000D02*
X188760000Y-84800000D01*
X187960000Y-87920000D02*
X188760000Y-87920000D01*
X187960000Y-84800000D02*
X186160000Y-84800000D01*
%TO.C,D3*%
X168680000Y-72810000D02*
X168680000Y-74510000D01*
X168680000Y-74510000D02*
X171230000Y-74510000D01*
X168680000Y-72810000D02*
X171230000Y-72810000D01*
%TO.C,J3*%
X199390000Y-100270000D02*
X199390000Y-102930000D01*
X201990000Y-102930000D02*
X200660000Y-102930000D01*
X118050000Y-100270000D02*
X118050000Y-102930000D01*
X199390000Y-100270000D02*
X118050000Y-100270000D01*
X201990000Y-101600000D02*
X201990000Y-102930000D01*
X199390000Y-102930000D02*
X118050000Y-102930000D01*
%TO.C,LED1*%
X136412500Y-75240000D02*
X136412500Y-77160000D01*
X139097500Y-75240000D02*
X136412500Y-75240000D01*
X136412500Y-77160000D02*
X139097500Y-77160000D01*
%TO.C,D2*%
X183735000Y-70160000D02*
X183735000Y-72080000D01*
X183735000Y-72080000D02*
X186420000Y-72080000D01*
X186420000Y-70160000D02*
X183735000Y-70160000D01*
%TO.C,L1*%
X188359622Y-80720000D02*
X187560378Y-80720000D01*
X188359622Y-81840000D02*
X187560378Y-81840000D01*
D15*
%TO.C,FTDI(UART)1*%
X134540000Y-80515000D02*
X134540000Y-76965000D01*
X124540000Y-80515000D02*
X124540000Y-76965000D01*
X124540000Y-80515000D02*
X124540000Y-76965000D01*
X134540000Y-80515000D02*
X134540000Y-76965000D01*
D16*
X123885000Y-81490000D02*
G75*
G03*
X123885000Y-81490000I-100000J0D01*
G01*
D13*
%TO.C,Q1*%
X182190000Y-94510000D02*
X182190000Y-90910000D01*
X182178478Y-90871522D02*
G75*
G03*
X177740000Y-92710000I-1838478J-1838478D01*
G01*
X177739999Y-92710000D02*
G75*
G03*
X182178478Y-94548478I2600001J0D01*
G01*
%TD*%
%LPC*%
D17*
%TO.C,LDR1*%
X160340000Y-96520000D03*
X159700000Y-96520000D03*
%TD*%
D18*
%TO.C,BT1*%
X133650000Y-137540000D03*
D19*
X125320000Y-121540000D03*
D18*
X188850000Y-121540000D03*
D20*
X121920000Y-129540000D03*
X200580000Y-129540000D03*
%TD*%
D21*
%TO.C,TSensor*%
X131665000Y-70825800D03*
X132935000Y-70825800D03*
X134205000Y-70825800D03*
X135475000Y-70825800D03*
X135475000Y-65644200D03*
X134205000Y-65644200D03*
X132935000Y-65644200D03*
X131665000Y-65644200D03*
%TD*%
D22*
%TO.C,R5*%
X190500000Y-70800000D03*
X190500000Y-71440000D03*
%TD*%
D23*
%TO.C,R17*%
X136610000Y-78740000D03*
X137250000Y-78740000D03*
%TD*%
D24*
%TO.C,R7*%
X152400000Y-68900000D03*
X152400000Y-68260000D03*
%TD*%
D23*
%TO.C,R1*%
X187640000Y-76200000D03*
X188280000Y-76200000D03*
%TD*%
D25*
%TO.C,D1*%
X172720000Y-82217500D03*
X172720000Y-80342500D03*
%TD*%
D23*
%TO.C,R14*%
X146655000Y-91440000D03*
X147295000Y-91440000D03*
%TD*%
D24*
%TO.C,R4*%
X175260000Y-89220000D03*
X175260000Y-88580000D03*
%TD*%
D26*
%TO.C,J2*%
X200660000Y-60960000D03*
D27*
X198120000Y-60960000D03*
X195580000Y-60960000D03*
X193040000Y-60960000D03*
X190500000Y-60960000D03*
X187960000Y-60960000D03*
X185420000Y-60960000D03*
X182880000Y-60960000D03*
X180340000Y-60960000D03*
X177800000Y-60960000D03*
X175260000Y-60960000D03*
X172720000Y-60960000D03*
X170180000Y-60960000D03*
X167640000Y-60960000D03*
X165100000Y-60960000D03*
X162560000Y-60960000D03*
X160020000Y-60960000D03*
X157480000Y-60960000D03*
X154940000Y-60960000D03*
X152400000Y-60960000D03*
X149860000Y-60960000D03*
X147320000Y-60960000D03*
X144780000Y-60960000D03*
X142240000Y-60960000D03*
X139700000Y-60960000D03*
X137160000Y-60960000D03*
X134620000Y-60960000D03*
X132080000Y-60960000D03*
X129540000Y-60960000D03*
X127000000Y-60960000D03*
X124460000Y-60960000D03*
X121920000Y-60960000D03*
X119380000Y-60960000D03*
%TD*%
D23*
%TO.C,R19*%
X133955000Y-91440000D03*
X134595000Y-91440000D03*
%TD*%
D28*
%TO.C,D4*%
X136222500Y-96520000D03*
X138097500Y-96520000D03*
%TD*%
D23*
%TO.C,R6*%
X154620000Y-73660000D03*
X155260000Y-73660000D03*
%TD*%
D24*
%TO.C,C3*%
X144780000Y-79060000D03*
X144780000Y-78420000D03*
%TD*%
D17*
%TO.C,R3*%
X175580000Y-76200000D03*
X174940000Y-76200000D03*
%TD*%
D23*
%TO.C,R20*%
X136495000Y-91440000D03*
X137135000Y-91440000D03*
%TD*%
D29*
%TO.C,EEPROM1*%
X182245000Y-78805000D03*
X180975000Y-78805000D03*
X179705000Y-78805000D03*
X178435000Y-78805000D03*
X178435000Y-83755000D03*
X179705000Y-83755000D03*
X180975000Y-83755000D03*
X182245000Y-83755000D03*
%TD*%
D30*
%TO.C,SW2*%
X165810000Y-87495000D03*
D31*
X159310000Y-87495000D03*
X165810000Y-82995000D03*
X159310000Y-82995000D03*
%TD*%
D23*
%TO.C,R9*%
X139380000Y-66040000D03*
X140020000Y-66040000D03*
%TD*%
D32*
%TO.C,C2*%
X148910000Y-78740000D03*
X150810000Y-78740000D03*
%TD*%
D26*
%TO.C,J1*%
X200660000Y-50800000D03*
D27*
X198120000Y-50800000D03*
X195580000Y-50800000D03*
X193040000Y-50800000D03*
X190500000Y-50800000D03*
X187960000Y-50800000D03*
X185420000Y-50800000D03*
X182880000Y-50800000D03*
X180340000Y-50800000D03*
X177800000Y-50800000D03*
X175260000Y-50800000D03*
X172720000Y-50800000D03*
X170180000Y-50800000D03*
X167640000Y-50800000D03*
X165100000Y-50800000D03*
X162560000Y-50800000D03*
X160020000Y-50800000D03*
X157480000Y-50800000D03*
X154940000Y-50800000D03*
X152400000Y-50800000D03*
X149860000Y-50800000D03*
X147320000Y-50800000D03*
X144780000Y-50800000D03*
X142240000Y-50800000D03*
X139700000Y-50800000D03*
X137160000Y-50800000D03*
X134620000Y-50800000D03*
X132080000Y-50800000D03*
X129540000Y-50800000D03*
X127000000Y-50800000D03*
X124460000Y-50800000D03*
X121920000Y-50800000D03*
X119380000Y-50800000D03*
%TD*%
D17*
%TO.C,R10*%
X142560000Y-72870000D03*
X141920000Y-72870000D03*
%TD*%
D23*
%TO.C,LDR2*%
X162240000Y-66040000D03*
X162880000Y-66040000D03*
%TD*%
D30*
%TO.C,SW1*%
X165810000Y-79875000D03*
D31*
X159310000Y-79875000D03*
X165810000Y-75375000D03*
X159310000Y-75375000D03*
%TD*%
D33*
%TO.C,U1*%
X179202500Y-72710000D03*
X179202500Y-73660000D03*
X179202500Y-74610000D03*
X181477500Y-74610000D03*
X181477500Y-72710000D03*
%TD*%
D34*
%TO.C,J5*%
X114300000Y-92715000D03*
X114300000Y-92065000D03*
X114300000Y-91415000D03*
X114300000Y-90765000D03*
X114300000Y-90115000D03*
D35*
X114180000Y-93835000D03*
D36*
X115500000Y-94365000D03*
D37*
X114200000Y-94265000D03*
D35*
X114180000Y-88995000D03*
D38*
X117180000Y-94145000D03*
D39*
X116250000Y-88665000D03*
D36*
X115500000Y-88415000D03*
D40*
X117450000Y-90455000D03*
D38*
X117180000Y-88685000D03*
D40*
X117450000Y-92375000D03*
D39*
X116250000Y-94145000D03*
D37*
X114180000Y-88515000D03*
%TD*%
D17*
%TO.C,R2*%
X188280000Y-78740000D03*
X187640000Y-78740000D03*
%TD*%
D26*
%TO.C,J4*%
X200660000Y-111760000D03*
D27*
X198120000Y-111760000D03*
X195580000Y-111760000D03*
X193040000Y-111760000D03*
X190500000Y-111760000D03*
X187960000Y-111760000D03*
X185420000Y-111760000D03*
X182880000Y-111760000D03*
X180340000Y-111760000D03*
X177800000Y-111760000D03*
X175260000Y-111760000D03*
X172720000Y-111760000D03*
X170180000Y-111760000D03*
X167640000Y-111760000D03*
X165100000Y-111760000D03*
X162560000Y-111760000D03*
X160020000Y-111760000D03*
X157480000Y-111760000D03*
X154940000Y-111760000D03*
X152400000Y-111760000D03*
X149860000Y-111760000D03*
X147320000Y-111760000D03*
X144780000Y-111760000D03*
X142240000Y-111760000D03*
X139700000Y-111760000D03*
X137160000Y-111760000D03*
X134620000Y-111760000D03*
X132080000Y-111760000D03*
X129540000Y-111760000D03*
X127000000Y-111760000D03*
X124460000Y-111760000D03*
X121920000Y-111760000D03*
X119380000Y-111760000D03*
%TD*%
D17*
%TO.C,R11*%
X145100000Y-68580000D03*
X144460000Y-68580000D03*
%TD*%
D33*
%TO.C,U2*%
X186822500Y-85410000D03*
X186822500Y-86360000D03*
X186822500Y-87310000D03*
X189097500Y-87310000D03*
X189097500Y-86360000D03*
X189097500Y-85410000D03*
%TD*%
D41*
%TO.C,D3*%
X169130000Y-73660000D03*
X171230000Y-73660000D03*
%TD*%
D23*
%TO.C,C1*%
X192720000Y-71120000D03*
X193360000Y-71120000D03*
%TD*%
%TO.C,C4*%
X141575000Y-91440000D03*
X142215000Y-91440000D03*
%TD*%
D26*
%TO.C,J3*%
X200660000Y-101600000D03*
D27*
X198120000Y-101600000D03*
X195580000Y-101600000D03*
X193040000Y-101600000D03*
X190500000Y-101600000D03*
X187960000Y-101600000D03*
X185420000Y-101600000D03*
X182880000Y-101600000D03*
X180340000Y-101600000D03*
X177800000Y-101600000D03*
X175260000Y-101600000D03*
X172720000Y-101600000D03*
X170180000Y-101600000D03*
X167640000Y-101600000D03*
X165100000Y-101600000D03*
X162560000Y-101600000D03*
X160020000Y-101600000D03*
X157480000Y-101600000D03*
X154940000Y-101600000D03*
X152400000Y-101600000D03*
X149860000Y-101600000D03*
X147320000Y-101600000D03*
X144780000Y-101600000D03*
X142240000Y-101600000D03*
X139700000Y-101600000D03*
X137160000Y-101600000D03*
X134620000Y-101600000D03*
X132080000Y-101600000D03*
X129540000Y-101600000D03*
X127000000Y-101600000D03*
X124460000Y-101600000D03*
X121920000Y-101600000D03*
X119380000Y-101600000D03*
%TD*%
D28*
%TO.C,LED1*%
X137160000Y-76200000D03*
X139035000Y-76200000D03*
%TD*%
D23*
%TO.C,R15*%
X139035000Y-91440000D03*
X139675000Y-91440000D03*
%TD*%
%TO.C,R13*%
X141600000Y-76200000D03*
X142240000Y-76200000D03*
%TD*%
%TO.C,R16*%
X136840000Y-81280000D03*
X137480000Y-81280000D03*
%TD*%
D28*
%TO.C,D2*%
X184482500Y-71120000D03*
X186357500Y-71120000D03*
%TD*%
D23*
%TO.C,R8*%
X147000000Y-73660000D03*
X147640000Y-73660000D03*
%TD*%
D42*
%TO.C,L1*%
X189022500Y-81280000D03*
X186897500Y-81280000D03*
%TD*%
D43*
%TO.C,FTDI(UART)1*%
X125095000Y-81490000D03*
X126365000Y-81490000D03*
X127635000Y-81490000D03*
X128905000Y-81490000D03*
X130175000Y-81490000D03*
X131445000Y-81490000D03*
X132715000Y-81490000D03*
X133985000Y-81490000D03*
X133985000Y-75990000D03*
X132715000Y-75990000D03*
X131445000Y-75990000D03*
X130175000Y-75990000D03*
X128905000Y-75990000D03*
X127635000Y-75990000D03*
X126365000Y-75990000D03*
X125095000Y-75990000D03*
%TD*%
D23*
%TO.C,R18*%
X144115000Y-91440000D03*
X144755000Y-91440000D03*
%TD*%
D44*
%TO.C,Q1*%
X180340000Y-93980000D03*
D45*
X179070000Y-92710000D03*
X180340000Y-91440000D03*
%TD*%
D22*
%TO.C,R12*%
X127000000Y-68605000D03*
X127000000Y-69245000D03*
%TD*%
M02*
