M48
; DRILL file {KiCad (6.0.2)} date Sat Mar 19 17:29:21 2022
; FORMAT={-:-/ absolute / inch / decimal}
; #@! TF.CreationDate,2022-03-19T17:29:21+02:00
; #@! TF.GenerationSoftware,Kicad,Pcbnew,(6.0.2)
; #@! TF.FileFunction,Plated,1,2,PTH
FMAT,2
INCH
; #@! TA.AperFunction,Plated,PTH,ViaDrill
T1C0.0157
; #@! TA.AperFunction,Plated,PTH,ComponentDrill
T2C0.0256
; #@! TA.AperFunction,Plated,PTH,ComponentDrill
T3C0.0276
; #@! TA.AperFunction,Plated,PTH,ComponentDrill
T4C0.0295
; #@! TA.AperFunction,Plated,PTH,ComponentDrill
T5C0.0390
; #@! TA.AperFunction,Plated,PTH,ComponentDrill
T6C0.0394
%
G90
G05
T1
X3.8Y-3.3
X3.8Y-3.4
X3.8Y-3.5
X3.9Y-4.5
X4.0Y-4.3
X4.3Y-3.7
X4.305Y-3.9892
X4.35Y-4.225
X4.35Y-4.5
X4.4Y-3.9
X4.4Y-4.0
X4.4Y-4.3
X4.43Y-3.17
X4.43Y-3.36
X4.5Y-3.3
X4.5Y-3.4
X4.5Y-3.5
X4.5Y-3.6
X4.6Y-3.7285
X4.6Y-4.1
X4.8Y-4.3
X4.8715Y-3.4924
X4.9248Y-3.9152
X4.97Y-3.1639
X5.0Y-3.4841
X5.0Y-3.5411
X5.0Y-4.2
X5.03Y-3.59
X5.06Y-3.63
X5.1Y-3.4841
X5.12Y-3.56
X5.26Y-3.73
X5.275Y-3.35
X5.35Y-3.475
X5.4Y-3.8001
X5.4Y-3.5411
X5.4Y-3.6285
X5.4735Y-3.8287
X5.5Y-4.0
X5.5995Y-4.0005
X5.6Y-3.763
X5.7013Y-3.9715
X5.72Y-3.32
X5.8Y-3.3
X5.9Y-3.1285
X6.1Y-3.6
X6.2Y-3.9
X6.2Y-4.0
X6.55Y-3.79
T4
X4.6Y-4.0
X4.65Y-3.95
X4.7Y-4.0
T5
X5.4114Y-3.172
X5.4114Y-3.428
X5.5886Y-3.172
X5.5886Y-3.428
X5.7114Y-4.072
X5.7114Y-4.328
X5.8886Y-4.072
X5.8886Y-4.328
X6.172Y-3.5114
X6.172Y-3.6886
X6.428Y-3.5114
X6.428Y-3.6886
T6
X3.9Y-2.6
X3.9Y-3.0
X3.9Y-4.6
X3.9Y-5.0
X4.0Y-2.6
X4.0Y-3.0
X4.0Y-4.6
X4.0Y-5.0
X4.1Y-2.6
X4.1Y-3.0
X4.1Y-4.6
X4.1Y-5.0
X4.2Y-2.6
X4.2Y-3.0
X4.2Y-4.6
X4.2Y-5.0
X4.3Y-2.6
X4.3Y-3.0
X4.3Y-4.6
X4.3Y-5.0
X4.4Y-2.6
X4.4Y-3.0
X4.4Y-4.6
X4.4Y-5.0
X4.5Y-2.6
X4.5Y-3.0
X4.5Y-4.6
X4.5Y-5.0
X4.6Y-2.6
X4.6Y-3.0
X4.6Y-4.6
X4.6Y-5.0
X4.7Y-2.6
X4.7Y-3.0
X4.7Y-4.6
X4.7Y-5.0
X4.8Y-2.6
X4.8Y-3.0
X4.8Y-4.6
X4.8Y-5.0
X4.9Y-2.6
X4.9Y-3.0
X4.9Y-4.6
X4.9Y-5.0
X5.0Y-2.6
X5.0Y-3.0
X5.0Y-4.6
X5.0Y-5.0
X5.1Y-2.6
X5.1Y-3.0
X5.1Y-4.6
X5.1Y-5.0
X5.2Y-2.6
X5.2Y-3.0
X5.2Y-4.6
X5.2Y-5.0
X5.3Y-2.6
X5.3Y-3.0
X5.3Y-4.6
X5.3Y-5.0
X5.4Y-2.6
X5.4Y-3.0
X5.4Y-4.6
X5.4Y-5.0
X5.5Y-2.6
X5.5Y-3.0
X5.5Y-4.6
X5.5Y-5.0
X5.6Y-2.6
X5.6Y-3.0
X5.6Y-4.6
X5.6Y-5.0
X5.7Y-2.6
X5.7Y-3.0
X5.7Y-4.6
X5.7Y-5.0
X5.8Y-2.6
X5.8Y-3.0
X5.8Y-4.6
X5.8Y-5.0
X5.9Y-2.6
X5.9Y-3.0
X5.9Y-4.6
X5.9Y-5.0
X6.0Y-2.6
X6.0Y-3.0
X6.0Y-4.6
X6.0Y-5.0
X6.1Y-2.6
X6.1Y-3.0
X6.1Y-4.6
X6.1Y-5.0
X6.2Y-2.6
X6.2Y-3.0
X6.2Y-4.6
X6.2Y-5.0
X6.3Y-2.6
X6.3Y-3.0
X6.3Y-4.6
X6.3Y-5.0
X6.4Y-2.6
X6.4Y-3.0
X6.4Y-4.6
X6.4Y-5.0
X6.5Y-2.6
X6.5Y-3.0
X6.5Y-4.6
X6.5Y-5.0
X6.6Y-2.6
X6.6Y-3.0
X6.6Y-4.6
X6.6Y-5.0
X6.7Y-2.6
X6.7Y-3.0
X6.7Y-4.6
X6.7Y-5.0
X6.8Y-2.6
X6.8Y-3.0
X6.8Y-4.6
X6.8Y-5.0
X6.9Y-2.6
X6.9Y-3.0
X6.9Y-4.6
X6.9Y-5.0
X7.0Y-2.6
X7.0Y-3.0
X7.0Y-4.6
X7.0Y-5.0
X7.1Y-2.6
X7.1Y-3.0
X7.1Y-4.6
X7.1Y-5.0
T2
G00X3.9031Y-4.0047
M15
G01X3.8874Y-4.0047
M16
G05
G00X3.9031Y-4.1953
M15
G01X3.8874Y-4.1953
M16
G05
G00X3.9337Y-3.2057
M15
G01X3.9179Y-3.2057
M16
G05
G00X3.9337Y-3.3963
M15
G01X3.9179Y-3.3963
M16
G05
T3
G00X4.0232Y-3.9925
M15
G01X4.0035Y-3.9925
M16
G05
G00X4.0232Y-4.2075
M15
G01X4.0035Y-4.2075
M16
G05
G00X4.0537Y-3.1935
M15
G01X4.0341Y-3.1935
M16
G05
G00X4.0537Y-3.4085
M15
G01X4.0341Y-3.4085
M16
G05
T0
M30
