%TF.GenerationSoftware,KiCad,Pcbnew,(6.0.2)*%
%TF.CreationDate,2022-03-19T17:29:51+02:00*%
%TF.ProjectId,main,6d61696e-2e6b-4696-9361-645f70636258,rev?*%
%TF.SameCoordinates,Original*%
%TF.FileFunction,Legend,Top*%
%TF.FilePolarity,Positive*%
%FSLAX46Y46*%
G04 Gerber Fmt 4.6, Leading zero omitted, Abs format (unit mm)*
G04 Created by KiCad (PCBNEW (6.0.2)) date 2022-03-19 17:29:51*
%MOMM*%
%LPD*%
G01*
G04 APERTURE LIST*
%ADD10C,0.100000*%
%ADD11C,0.150000*%
%ADD12C,0.300000*%
%ADD13C,0.400000*%
%TA.AperFunction,Profile*%
%ADD14C,0.150000*%
%TD*%
%ADD15C,0.125000*%
%ADD16C,0.120000*%
%ADD17C,0.127000*%
%ADD18C,0.200000*%
%ADD19C,0.152400*%
G04 APERTURE END LIST*
D10*
D11*
X177002200Y-166007200D02*
X177002200Y-198007200D01*
X285002200Y-198007200D01*
X285002200Y-166007200D01*
X177002200Y-166007200D01*
D10*
D11*
X10000000Y-10000000D02*
X10000000Y-200007200D01*
X287002200Y-200007200D01*
X287002200Y-10000000D01*
X10000000Y-10000000D01*
D10*
D11*
X12000000Y-12000000D02*
X12000000Y-198007200D01*
X285002200Y-198007200D01*
X285002200Y-12000000D01*
X12000000Y-12000000D01*
D10*
D11*
X60000000Y-12000000D02*
X60000000Y-10000000D01*
D10*
D11*
X110000000Y-12000000D02*
X110000000Y-10000000D01*
D10*
D11*
X160000000Y-12000000D02*
X160000000Y-10000000D01*
D10*
D11*
X210000000Y-12000000D02*
X210000000Y-10000000D01*
D10*
D11*
X260000000Y-12000000D02*
X260000000Y-10000000D01*
D10*
D11*
X36065476Y-11588095D02*
X35322619Y-11588095D01*
X35694047Y-11588095D02*
X35694047Y-10288095D01*
X35570238Y-10473809D01*
X35446428Y-10597619D01*
X35322619Y-10659523D01*
D10*
D11*
X85322619Y-10411904D02*
X85384523Y-10350000D01*
X85508333Y-10288095D01*
X85817857Y-10288095D01*
X85941666Y-10350000D01*
X86003571Y-10411904D01*
X86065476Y-10535714D01*
X86065476Y-10659523D01*
X86003571Y-10845238D01*
X85260714Y-11588095D01*
X86065476Y-11588095D01*
D10*
D11*
X135260714Y-10288095D02*
X136065476Y-10288095D01*
X135632142Y-10783333D01*
X135817857Y-10783333D01*
X135941666Y-10845238D01*
X136003571Y-10907142D01*
X136065476Y-11030952D01*
X136065476Y-11340476D01*
X136003571Y-11464285D01*
X135941666Y-11526190D01*
X135817857Y-11588095D01*
X135446428Y-11588095D01*
X135322619Y-11526190D01*
X135260714Y-11464285D01*
D10*
D11*
X185941666Y-10721428D02*
X185941666Y-11588095D01*
X185632142Y-10226190D02*
X185322619Y-11154761D01*
X186127380Y-11154761D01*
D10*
D11*
X236003571Y-10288095D02*
X235384523Y-10288095D01*
X235322619Y-10907142D01*
X235384523Y-10845238D01*
X235508333Y-10783333D01*
X235817857Y-10783333D01*
X235941666Y-10845238D01*
X236003571Y-10907142D01*
X236065476Y-11030952D01*
X236065476Y-11340476D01*
X236003571Y-11464285D01*
X235941666Y-11526190D01*
X235817857Y-11588095D01*
X235508333Y-11588095D01*
X235384523Y-11526190D01*
X235322619Y-11464285D01*
D10*
D11*
X285941666Y-10288095D02*
X285694047Y-10288095D01*
X285570238Y-10350000D01*
X285508333Y-10411904D01*
X285384523Y-10597619D01*
X285322619Y-10845238D01*
X285322619Y-11340476D01*
X285384523Y-11464285D01*
X285446428Y-11526190D01*
X285570238Y-11588095D01*
X285817857Y-11588095D01*
X285941666Y-11526190D01*
X286003571Y-11464285D01*
X286065476Y-11340476D01*
X286065476Y-11030952D01*
X286003571Y-10907142D01*
X285941666Y-10845238D01*
X285817857Y-10783333D01*
X285570238Y-10783333D01*
X285446428Y-10845238D01*
X285384523Y-10907142D01*
X285322619Y-11030952D01*
D10*
D11*
X60000000Y-198007200D02*
X60000000Y-200007200D01*
D10*
D11*
X110000000Y-198007200D02*
X110000000Y-200007200D01*
D10*
D11*
X160000000Y-198007200D02*
X160000000Y-200007200D01*
D10*
D11*
X210000000Y-198007200D02*
X210000000Y-200007200D01*
D10*
D11*
X260000000Y-198007200D02*
X260000000Y-200007200D01*
D10*
D11*
X36065476Y-199595295D02*
X35322619Y-199595295D01*
X35694047Y-199595295D02*
X35694047Y-198295295D01*
X35570238Y-198481009D01*
X35446428Y-198604819D01*
X35322619Y-198666723D01*
D10*
D11*
X85322619Y-198419104D02*
X85384523Y-198357200D01*
X85508333Y-198295295D01*
X85817857Y-198295295D01*
X85941666Y-198357200D01*
X86003571Y-198419104D01*
X86065476Y-198542914D01*
X86065476Y-198666723D01*
X86003571Y-198852438D01*
X85260714Y-199595295D01*
X86065476Y-199595295D01*
D10*
D11*
X135260714Y-198295295D02*
X136065476Y-198295295D01*
X135632142Y-198790533D01*
X135817857Y-198790533D01*
X135941666Y-198852438D01*
X136003571Y-198914342D01*
X136065476Y-199038152D01*
X136065476Y-199347676D01*
X136003571Y-199471485D01*
X135941666Y-199533390D01*
X135817857Y-199595295D01*
X135446428Y-199595295D01*
X135322619Y-199533390D01*
X135260714Y-199471485D01*
D10*
D11*
X185941666Y-198728628D02*
X185941666Y-199595295D01*
X185632142Y-198233390D02*
X185322619Y-199161961D01*
X186127380Y-199161961D01*
D10*
D11*
X236003571Y-198295295D02*
X235384523Y-198295295D01*
X235322619Y-198914342D01*
X235384523Y-198852438D01*
X235508333Y-198790533D01*
X235817857Y-198790533D01*
X235941666Y-198852438D01*
X236003571Y-198914342D01*
X236065476Y-199038152D01*
X236065476Y-199347676D01*
X236003571Y-199471485D01*
X235941666Y-199533390D01*
X235817857Y-199595295D01*
X235508333Y-199595295D01*
X235384523Y-199533390D01*
X235322619Y-199471485D01*
D10*
D11*
X285941666Y-198295295D02*
X285694047Y-198295295D01*
X285570238Y-198357200D01*
X285508333Y-198419104D01*
X285384523Y-198604819D01*
X285322619Y-198852438D01*
X285322619Y-199347676D01*
X285384523Y-199471485D01*
X285446428Y-199533390D01*
X285570238Y-199595295D01*
X285817857Y-199595295D01*
X285941666Y-199533390D01*
X286003571Y-199471485D01*
X286065476Y-199347676D01*
X286065476Y-199038152D01*
X286003571Y-198914342D01*
X285941666Y-198852438D01*
X285817857Y-198790533D01*
X285570238Y-198790533D01*
X285446428Y-198852438D01*
X285384523Y-198914342D01*
X285322619Y-199038152D01*
D10*
D11*
X10000000Y-60000000D02*
X12000000Y-60000000D01*
D10*
D11*
X10000000Y-110000000D02*
X12000000Y-110000000D01*
D10*
D11*
X10000000Y-160000000D02*
X12000000Y-160000000D01*
D10*
D11*
X10690476Y-35216666D02*
X11309523Y-35216666D01*
X10566666Y-35588095D02*
X11000000Y-34288095D01*
X11433333Y-35588095D01*
D10*
D11*
X11092857Y-84907142D02*
X11278571Y-84969047D01*
X11340476Y-85030952D01*
X11402380Y-85154761D01*
X11402380Y-85340476D01*
X11340476Y-85464285D01*
X11278571Y-85526190D01*
X11154761Y-85588095D01*
X10659523Y-85588095D01*
X10659523Y-84288095D01*
X11092857Y-84288095D01*
X11216666Y-84350000D01*
X11278571Y-84411904D01*
X11340476Y-84535714D01*
X11340476Y-84659523D01*
X11278571Y-84783333D01*
X11216666Y-84845238D01*
X11092857Y-84907142D01*
X10659523Y-84907142D01*
D10*
D11*
X11402380Y-135464285D02*
X11340476Y-135526190D01*
X11154761Y-135588095D01*
X11030952Y-135588095D01*
X10845238Y-135526190D01*
X10721428Y-135402380D01*
X10659523Y-135278571D01*
X10597619Y-135030952D01*
X10597619Y-134845238D01*
X10659523Y-134597619D01*
X10721428Y-134473809D01*
X10845238Y-134350000D01*
X11030952Y-134288095D01*
X11154761Y-134288095D01*
X11340476Y-134350000D01*
X11402380Y-134411904D01*
D10*
D11*
X10659523Y-185588095D02*
X10659523Y-184288095D01*
X10969047Y-184288095D01*
X11154761Y-184350000D01*
X11278571Y-184473809D01*
X11340476Y-184597619D01*
X11402380Y-184845238D01*
X11402380Y-185030952D01*
X11340476Y-185278571D01*
X11278571Y-185402380D01*
X11154761Y-185526190D01*
X10969047Y-185588095D01*
X10659523Y-185588095D01*
D10*
D11*
X287002200Y-60000000D02*
X285002200Y-60000000D01*
D10*
D11*
X287002200Y-110000000D02*
X285002200Y-110000000D01*
D10*
D11*
X287002200Y-160000000D02*
X285002200Y-160000000D01*
D10*
D11*
X285692676Y-35216666D02*
X286311723Y-35216666D01*
X285568866Y-35588095D02*
X286002200Y-34288095D01*
X286435533Y-35588095D01*
D10*
D11*
X286095057Y-84907142D02*
X286280771Y-84969047D01*
X286342676Y-85030952D01*
X286404580Y-85154761D01*
X286404580Y-85340476D01*
X286342676Y-85464285D01*
X286280771Y-85526190D01*
X286156961Y-85588095D01*
X285661723Y-85588095D01*
X285661723Y-84288095D01*
X286095057Y-84288095D01*
X286218866Y-84350000D01*
X286280771Y-84411904D01*
X286342676Y-84535714D01*
X286342676Y-84659523D01*
X286280771Y-84783333D01*
X286218866Y-84845238D01*
X286095057Y-84907142D01*
X285661723Y-84907142D01*
D10*
D11*
X286404580Y-135464285D02*
X286342676Y-135526190D01*
X286156961Y-135588095D01*
X286033152Y-135588095D01*
X285847438Y-135526190D01*
X285723628Y-135402380D01*
X285661723Y-135278571D01*
X285599819Y-135030952D01*
X285599819Y-134845238D01*
X285661723Y-134597619D01*
X285723628Y-134473809D01*
X285847438Y-134350000D01*
X286033152Y-134288095D01*
X286156961Y-134288095D01*
X286342676Y-134350000D01*
X286404580Y-134411904D01*
D10*
D11*
X285661723Y-185588095D02*
X285661723Y-184288095D01*
X285971247Y-184288095D01*
X286156961Y-184350000D01*
X286280771Y-184473809D01*
X286342676Y-184597619D01*
X286404580Y-184845238D01*
X286404580Y-185030952D01*
X286342676Y-185278571D01*
X286280771Y-185402380D01*
X286156961Y-185526190D01*
X285971247Y-185588095D01*
X285661723Y-185588095D01*
D10*
D11*
X200434342Y-193785771D02*
X200434342Y-192285771D01*
X200791485Y-192285771D01*
X201005771Y-192357200D01*
X201148628Y-192500057D01*
X201220057Y-192642914D01*
X201291485Y-192928628D01*
X201291485Y-193142914D01*
X201220057Y-193428628D01*
X201148628Y-193571485D01*
X201005771Y-193714342D01*
X200791485Y-193785771D01*
X200434342Y-193785771D01*
X202577200Y-193785771D02*
X202577200Y-193000057D01*
X202505771Y-192857200D01*
X202362914Y-192785771D01*
X202077200Y-192785771D01*
X201934342Y-192857200D01*
X202577200Y-193714342D02*
X202434342Y-193785771D01*
X202077200Y-193785771D01*
X201934342Y-193714342D01*
X201862914Y-193571485D01*
X201862914Y-193428628D01*
X201934342Y-193285771D01*
X202077200Y-193214342D01*
X202434342Y-193214342D01*
X202577200Y-193142914D01*
X203077200Y-192785771D02*
X203648628Y-192785771D01*
X203291485Y-192285771D02*
X203291485Y-193571485D01*
X203362914Y-193714342D01*
X203505771Y-193785771D01*
X203648628Y-193785771D01*
X204720057Y-193714342D02*
X204577200Y-193785771D01*
X204291485Y-193785771D01*
X204148628Y-193714342D01*
X204077200Y-193571485D01*
X204077200Y-193000057D01*
X204148628Y-192857200D01*
X204291485Y-192785771D01*
X204577200Y-192785771D01*
X204720057Y-192857200D01*
X204791485Y-193000057D01*
X204791485Y-193142914D01*
X204077200Y-193285771D01*
X205434342Y-193642914D02*
X205505771Y-193714342D01*
X205434342Y-193785771D01*
X205362914Y-193714342D01*
X205434342Y-193642914D01*
X205434342Y-193785771D01*
X205434342Y-192857200D02*
X205505771Y-192928628D01*
X205434342Y-193000057D01*
X205362914Y-192928628D01*
X205434342Y-192857200D01*
X205434342Y-193000057D01*
D10*
D11*
X177002200Y-194507200D02*
X285002200Y-194507200D01*
D10*
D11*
X178434342Y-196585771D02*
X178434342Y-195085771D01*
X179291485Y-196585771D02*
X178648628Y-195728628D01*
X179291485Y-195085771D02*
X178434342Y-195942914D01*
X179934342Y-196585771D02*
X179934342Y-195585771D01*
X179934342Y-195085771D02*
X179862914Y-195157200D01*
X179934342Y-195228628D01*
X180005771Y-195157200D01*
X179934342Y-195085771D01*
X179934342Y-195228628D01*
X181505771Y-196442914D02*
X181434342Y-196514342D01*
X181220057Y-196585771D01*
X181077200Y-196585771D01*
X180862914Y-196514342D01*
X180720057Y-196371485D01*
X180648628Y-196228628D01*
X180577200Y-195942914D01*
X180577200Y-195728628D01*
X180648628Y-195442914D01*
X180720057Y-195300057D01*
X180862914Y-195157200D01*
X181077200Y-195085771D01*
X181220057Y-195085771D01*
X181434342Y-195157200D01*
X181505771Y-195228628D01*
X182791485Y-196585771D02*
X182791485Y-195800057D01*
X182720057Y-195657200D01*
X182577200Y-195585771D01*
X182291485Y-195585771D01*
X182148628Y-195657200D01*
X182791485Y-196514342D02*
X182648628Y-196585771D01*
X182291485Y-196585771D01*
X182148628Y-196514342D01*
X182077200Y-196371485D01*
X182077200Y-196228628D01*
X182148628Y-196085771D01*
X182291485Y-196014342D01*
X182648628Y-196014342D01*
X182791485Y-195942914D01*
X184148628Y-196585771D02*
X184148628Y-195085771D01*
X184148628Y-196514342D02*
X184005771Y-196585771D01*
X183720057Y-196585771D01*
X183577200Y-196514342D01*
X183505771Y-196442914D01*
X183434342Y-196300057D01*
X183434342Y-195871485D01*
X183505771Y-195728628D01*
X183577200Y-195657200D01*
X183720057Y-195585771D01*
X184005771Y-195585771D01*
X184148628Y-195657200D01*
X186005771Y-195800057D02*
X186505771Y-195800057D01*
X186720057Y-196585771D02*
X186005771Y-196585771D01*
X186005771Y-195085771D01*
X186720057Y-195085771D01*
X187362914Y-196442914D02*
X187434342Y-196514342D01*
X187362914Y-196585771D01*
X187291485Y-196514342D01*
X187362914Y-196442914D01*
X187362914Y-196585771D01*
X188077200Y-196585771D02*
X188077200Y-195085771D01*
X188434342Y-195085771D01*
X188648628Y-195157200D01*
X188791485Y-195300057D01*
X188862914Y-195442914D01*
X188934342Y-195728628D01*
X188934342Y-195942914D01*
X188862914Y-196228628D01*
X188791485Y-196371485D01*
X188648628Y-196514342D01*
X188434342Y-196585771D01*
X188077200Y-196585771D01*
X189577200Y-196442914D02*
X189648628Y-196514342D01*
X189577200Y-196585771D01*
X189505771Y-196514342D01*
X189577200Y-196442914D01*
X189577200Y-196585771D01*
X190220057Y-196157200D02*
X190934342Y-196157200D01*
X190077200Y-196585771D02*
X190577200Y-195085771D01*
X191077200Y-196585771D01*
X191577200Y-196442914D02*
X191648628Y-196514342D01*
X191577200Y-196585771D01*
X191505771Y-196514342D01*
X191577200Y-196442914D01*
X191577200Y-196585771D01*
X194577200Y-195585771D02*
X194577200Y-197085771D01*
X194577200Y-195657200D02*
X194720057Y-195585771D01*
X195005771Y-195585771D01*
X195148628Y-195657200D01*
X195220057Y-195728628D01*
X195291485Y-195871485D01*
X195291485Y-196300057D01*
X195220057Y-196442914D01*
X195148628Y-196514342D01*
X195005771Y-196585771D01*
X194720057Y-196585771D01*
X194577200Y-196514342D01*
X196577200Y-196514342D02*
X196434342Y-196585771D01*
X196148628Y-196585771D01*
X196005771Y-196514342D01*
X195934342Y-196442914D01*
X195862914Y-196300057D01*
X195862914Y-195871485D01*
X195934342Y-195728628D01*
X196005771Y-195657200D01*
X196148628Y-195585771D01*
X196434342Y-195585771D01*
X196577200Y-195657200D01*
X197220057Y-196585771D02*
X197220057Y-195085771D01*
X197220057Y-195657200D02*
X197362914Y-195585771D01*
X197648628Y-195585771D01*
X197791485Y-195657200D01*
X197862914Y-195728628D01*
X197934342Y-195871485D01*
X197934342Y-196300057D01*
X197862914Y-196442914D01*
X197791485Y-196514342D01*
X197648628Y-196585771D01*
X197362914Y-196585771D01*
X197220057Y-196514342D01*
X198577200Y-195585771D02*
X198577200Y-196585771D01*
X198577200Y-195728628D02*
X198648628Y-195657200D01*
X198791485Y-195585771D01*
X199005771Y-195585771D01*
X199148628Y-195657200D01*
X199220057Y-195800057D01*
X199220057Y-196585771D01*
X200505771Y-196514342D02*
X200362914Y-196585771D01*
X200077200Y-196585771D01*
X199934342Y-196514342D01*
X199862914Y-196371485D01*
X199862914Y-195800057D01*
X199934342Y-195657200D01*
X200077200Y-195585771D01*
X200362914Y-195585771D01*
X200505771Y-195657200D01*
X200577200Y-195800057D01*
X200577200Y-195942914D01*
X199862914Y-196085771D01*
X201077200Y-195585771D02*
X201362914Y-196585771D01*
X201648628Y-195871485D01*
X201934342Y-196585771D01*
X202220057Y-195585771D01*
X204362914Y-197157200D02*
X204291485Y-197085771D01*
X204148628Y-196871485D01*
X204077200Y-196728628D01*
X204005771Y-196514342D01*
X203934342Y-196157200D01*
X203934342Y-195871485D01*
X204005771Y-195514342D01*
X204077200Y-195300057D01*
X204148628Y-195157200D01*
X204291485Y-194942914D01*
X204362914Y-194871485D01*
X205577200Y-195085771D02*
X205291485Y-195085771D01*
X205148628Y-195157200D01*
X205077200Y-195228628D01*
X204934342Y-195442914D01*
X204862914Y-195728628D01*
X204862914Y-196300057D01*
X204934342Y-196442914D01*
X205005771Y-196514342D01*
X205148628Y-196585771D01*
X205434342Y-196585771D01*
X205577200Y-196514342D01*
X205648628Y-196442914D01*
X205720057Y-196300057D01*
X205720057Y-195942914D01*
X205648628Y-195800057D01*
X205577200Y-195728628D01*
X205434342Y-195657200D01*
X205148628Y-195657200D01*
X205005771Y-195728628D01*
X204934342Y-195800057D01*
X204862914Y-195942914D01*
X206362914Y-196442914D02*
X206434342Y-196514342D01*
X206362914Y-196585771D01*
X206291485Y-196514342D01*
X206362914Y-196442914D01*
X206362914Y-196585771D01*
X207362914Y-195085771D02*
X207505771Y-195085771D01*
X207648628Y-195157200D01*
X207720057Y-195228628D01*
X207791485Y-195371485D01*
X207862914Y-195657200D01*
X207862914Y-196014342D01*
X207791485Y-196300057D01*
X207720057Y-196442914D01*
X207648628Y-196514342D01*
X207505771Y-196585771D01*
X207362914Y-196585771D01*
X207220057Y-196514342D01*
X207148628Y-196442914D01*
X207077200Y-196300057D01*
X207005771Y-196014342D01*
X207005771Y-195657200D01*
X207077200Y-195371485D01*
X207148628Y-195228628D01*
X207220057Y-195157200D01*
X207362914Y-195085771D01*
X208505771Y-196442914D02*
X208577200Y-196514342D01*
X208505771Y-196585771D01*
X208434342Y-196514342D01*
X208505771Y-196442914D01*
X208505771Y-196585771D01*
X209148628Y-195228628D02*
X209220057Y-195157200D01*
X209362914Y-195085771D01*
X209720057Y-195085771D01*
X209862914Y-195157200D01*
X209934342Y-195228628D01*
X210005771Y-195371485D01*
X210005771Y-195514342D01*
X209934342Y-195728628D01*
X209077200Y-196585771D01*
X210005771Y-196585771D01*
X210505771Y-197157200D02*
X210577200Y-197085771D01*
X210720057Y-196871485D01*
X210791485Y-196728628D01*
X210862914Y-196514342D01*
X210934342Y-196157200D01*
X210934342Y-195871485D01*
X210862914Y-195514342D01*
X210791485Y-195300057D01*
X210720057Y-195157200D01*
X210577200Y-194942914D01*
X210505771Y-194871485D01*
D10*
D11*
X177002200Y-191507200D02*
X285002200Y-191507200D01*
D10*
D12*
X264411485Y-193785771D02*
X263911485Y-193071485D01*
X263554342Y-193785771D02*
X263554342Y-192285771D01*
X264125771Y-192285771D01*
X264268628Y-192357200D01*
X264340057Y-192428628D01*
X264411485Y-192571485D01*
X264411485Y-192785771D01*
X264340057Y-192928628D01*
X264268628Y-193000057D01*
X264125771Y-193071485D01*
X263554342Y-193071485D01*
X265625771Y-193714342D02*
X265482914Y-193785771D01*
X265197200Y-193785771D01*
X265054342Y-193714342D01*
X264982914Y-193571485D01*
X264982914Y-193000057D01*
X265054342Y-192857200D01*
X265197200Y-192785771D01*
X265482914Y-192785771D01*
X265625771Y-192857200D01*
X265697200Y-193000057D01*
X265697200Y-193142914D01*
X264982914Y-193285771D01*
X266197200Y-192785771D02*
X266554342Y-193785771D01*
X266911485Y-192785771D01*
X267482914Y-193642914D02*
X267554342Y-193714342D01*
X267482914Y-193785771D01*
X267411485Y-193714342D01*
X267482914Y-193642914D01*
X267482914Y-193785771D01*
X267482914Y-192857200D02*
X267554342Y-192928628D01*
X267482914Y-193000057D01*
X267411485Y-192928628D01*
X267482914Y-192857200D01*
X267482914Y-193000057D01*
D10*
D11*
X178362914Y-193714342D02*
X178577200Y-193785771D01*
X178934342Y-193785771D01*
X179077200Y-193714342D01*
X179148628Y-193642914D01*
X179220057Y-193500057D01*
X179220057Y-193357200D01*
X179148628Y-193214342D01*
X179077200Y-193142914D01*
X178934342Y-193071485D01*
X178648628Y-193000057D01*
X178505771Y-192928628D01*
X178434342Y-192857200D01*
X178362914Y-192714342D01*
X178362914Y-192571485D01*
X178434342Y-192428628D01*
X178505771Y-192357200D01*
X178648628Y-192285771D01*
X179005771Y-192285771D01*
X179220057Y-192357200D01*
X179862914Y-193785771D02*
X179862914Y-192785771D01*
X179862914Y-192285771D02*
X179791485Y-192357200D01*
X179862914Y-192428628D01*
X179934342Y-192357200D01*
X179862914Y-192285771D01*
X179862914Y-192428628D01*
X180434342Y-192785771D02*
X181220057Y-192785771D01*
X180434342Y-193785771D01*
X181220057Y-193785771D01*
X182362914Y-193714342D02*
X182220057Y-193785771D01*
X181934342Y-193785771D01*
X181791485Y-193714342D01*
X181720057Y-193571485D01*
X181720057Y-193000057D01*
X181791485Y-192857200D01*
X181934342Y-192785771D01*
X182220057Y-192785771D01*
X182362914Y-192857200D01*
X182434342Y-193000057D01*
X182434342Y-193142914D01*
X181720057Y-193285771D01*
X183077200Y-193642914D02*
X183148628Y-193714342D01*
X183077200Y-193785771D01*
X183005771Y-193714342D01*
X183077200Y-193642914D01*
X183077200Y-193785771D01*
X183077200Y-192857200D02*
X183148628Y-192928628D01*
X183077200Y-193000057D01*
X183005771Y-192928628D01*
X183077200Y-192857200D01*
X183077200Y-193000057D01*
X184862914Y-193357200D02*
X185577200Y-193357200D01*
X184720057Y-193785771D02*
X185220057Y-192285771D01*
X185720057Y-193785771D01*
X186862914Y-192785771D02*
X186862914Y-193785771D01*
X186505771Y-192214342D02*
X186148628Y-193285771D01*
X187077200Y-193285771D01*
D10*
D11*
X263434342Y-196585771D02*
X263434342Y-195085771D01*
X264791485Y-196585771D02*
X264791485Y-195085771D01*
X264791485Y-196514342D02*
X264648628Y-196585771D01*
X264362914Y-196585771D01*
X264220057Y-196514342D01*
X264148628Y-196442914D01*
X264077200Y-196300057D01*
X264077200Y-195871485D01*
X264148628Y-195728628D01*
X264220057Y-195657200D01*
X264362914Y-195585771D01*
X264648628Y-195585771D01*
X264791485Y-195657200D01*
X265505771Y-196442914D02*
X265577200Y-196514342D01*
X265505771Y-196585771D01*
X265434342Y-196514342D01*
X265505771Y-196442914D01*
X265505771Y-196585771D01*
X265505771Y-195657200D02*
X265577200Y-195728628D01*
X265505771Y-195800057D01*
X265434342Y-195728628D01*
X265505771Y-195657200D01*
X265505771Y-195800057D01*
X268148628Y-196585771D02*
X267291485Y-196585771D01*
X267720057Y-196585771D02*
X267720057Y-195085771D01*
X267577200Y-195300057D01*
X267434342Y-195442914D01*
X267291485Y-195514342D01*
X269862914Y-195014342D02*
X268577200Y-196942914D01*
X271148628Y-196585771D02*
X270291485Y-196585771D01*
X270720057Y-196585771D02*
X270720057Y-195085771D01*
X270577200Y-195300057D01*
X270434342Y-195442914D01*
X270291485Y-195514342D01*
D10*
D11*
X177002200Y-187507200D02*
X285002200Y-187507200D01*
D10*
D13*
X178714580Y-188211961D02*
X179857438Y-188211961D01*
X179036009Y-190211961D02*
X179286009Y-188211961D01*
X180274104Y-190211961D02*
X180440771Y-188878628D01*
X180524104Y-188211961D02*
X180416961Y-188307200D01*
X180500295Y-188402438D01*
X180607438Y-188307200D01*
X180524104Y-188211961D01*
X180500295Y-188402438D01*
X181107438Y-188878628D02*
X181869342Y-188878628D01*
X181476485Y-188211961D02*
X181262200Y-189926247D01*
X181333628Y-190116723D01*
X181512200Y-190211961D01*
X181702676Y-190211961D01*
X182655057Y-190211961D02*
X182476485Y-190116723D01*
X182405057Y-189926247D01*
X182619342Y-188211961D01*
X184190771Y-190116723D02*
X183988390Y-190211961D01*
X183607438Y-190211961D01*
X183428866Y-190116723D01*
X183357438Y-189926247D01*
X183452676Y-189164342D01*
X183571723Y-188973866D01*
X183774104Y-188878628D01*
X184155057Y-188878628D01*
X184333628Y-188973866D01*
X184405057Y-189164342D01*
X184381247Y-189354819D01*
X183405057Y-189545295D01*
X185155057Y-190021485D02*
X185238390Y-190116723D01*
X185131247Y-190211961D01*
X185047914Y-190116723D01*
X185155057Y-190021485D01*
X185131247Y-190211961D01*
X185286009Y-188973866D02*
X185369342Y-189069104D01*
X185262200Y-189164342D01*
X185178866Y-189069104D01*
X185286009Y-188973866D01*
X185262200Y-189164342D01*
D10*
D11*
X178934342Y-185600057D02*
X178434342Y-185600057D01*
X178434342Y-186385771D02*
X178434342Y-184885771D01*
X179148628Y-184885771D01*
X179720057Y-186385771D02*
X179720057Y-185385771D01*
X179720057Y-184885771D02*
X179648628Y-184957200D01*
X179720057Y-185028628D01*
X179791485Y-184957200D01*
X179720057Y-184885771D01*
X179720057Y-185028628D01*
X180648628Y-186385771D02*
X180505771Y-186314342D01*
X180434342Y-186171485D01*
X180434342Y-184885771D01*
X181791485Y-186314342D02*
X181648628Y-186385771D01*
X181362914Y-186385771D01*
X181220057Y-186314342D01*
X181148628Y-186171485D01*
X181148628Y-185600057D01*
X181220057Y-185457200D01*
X181362914Y-185385771D01*
X181648628Y-185385771D01*
X181791485Y-185457200D01*
X181862914Y-185600057D01*
X181862914Y-185742914D01*
X181148628Y-185885771D01*
X182505771Y-186242914D02*
X182577200Y-186314342D01*
X182505771Y-186385771D01*
X182434342Y-186314342D01*
X182505771Y-186242914D01*
X182505771Y-186385771D01*
X182505771Y-185457200D02*
X182577200Y-185528628D01*
X182505771Y-185600057D01*
X182434342Y-185528628D01*
X182505771Y-185457200D01*
X182505771Y-185600057D01*
X184362914Y-186385771D02*
X184362914Y-185385771D01*
X184362914Y-185528628D02*
X184434342Y-185457200D01*
X184577200Y-185385771D01*
X184791485Y-185385771D01*
X184934342Y-185457200D01*
X185005771Y-185600057D01*
X185005771Y-186385771D01*
X185005771Y-185600057D02*
X185077200Y-185457200D01*
X185220057Y-185385771D01*
X185434342Y-185385771D01*
X185577200Y-185457200D01*
X185648628Y-185600057D01*
X185648628Y-186385771D01*
X187005771Y-186385771D02*
X187005771Y-185600057D01*
X186934342Y-185457200D01*
X186791485Y-185385771D01*
X186505771Y-185385771D01*
X186362914Y-185457200D01*
X187005771Y-186314342D02*
X186862914Y-186385771D01*
X186505771Y-186385771D01*
X186362914Y-186314342D01*
X186291485Y-186171485D01*
X186291485Y-186028628D01*
X186362914Y-185885771D01*
X186505771Y-185814342D01*
X186862914Y-185814342D01*
X187005771Y-185742914D01*
X187720057Y-186385771D02*
X187720057Y-185385771D01*
X187720057Y-184885771D02*
X187648628Y-184957200D01*
X187720057Y-185028628D01*
X187791485Y-184957200D01*
X187720057Y-184885771D01*
X187720057Y-185028628D01*
X188434342Y-185385771D02*
X188434342Y-186385771D01*
X188434342Y-185528628D02*
X188505771Y-185457200D01*
X188648628Y-185385771D01*
X188862914Y-185385771D01*
X189005771Y-185457200D01*
X189077200Y-185600057D01*
X189077200Y-186385771D01*
X189791485Y-186242914D02*
X189862914Y-186314342D01*
X189791485Y-186385771D01*
X189720057Y-186314342D01*
X189791485Y-186242914D01*
X189791485Y-186385771D01*
X190505771Y-186385771D02*
X190505771Y-184885771D01*
X190648628Y-185814342D02*
X191077200Y-186385771D01*
X191077200Y-185385771D02*
X190505771Y-185957200D01*
X191720057Y-186385771D02*
X191720057Y-185385771D01*
X191720057Y-184885771D02*
X191648628Y-184957200D01*
X191720057Y-185028628D01*
X191791485Y-184957200D01*
X191720057Y-184885771D01*
X191720057Y-185028628D01*
X193077200Y-186314342D02*
X192934342Y-186385771D01*
X192648628Y-186385771D01*
X192505771Y-186314342D01*
X192434342Y-186242914D01*
X192362914Y-186100057D01*
X192362914Y-185671485D01*
X192434342Y-185528628D01*
X192505771Y-185457200D01*
X192648628Y-185385771D01*
X192934342Y-185385771D01*
X193077200Y-185457200D01*
X194362914Y-186385771D02*
X194362914Y-185600057D01*
X194291485Y-185457200D01*
X194148628Y-185385771D01*
X193862914Y-185385771D01*
X193720057Y-185457200D01*
X194362914Y-186314342D02*
X194220057Y-186385771D01*
X193862914Y-186385771D01*
X193720057Y-186314342D01*
X193648628Y-186171485D01*
X193648628Y-186028628D01*
X193720057Y-185885771D01*
X193862914Y-185814342D01*
X194220057Y-185814342D01*
X194362914Y-185742914D01*
X195720057Y-186385771D02*
X195720057Y-184885771D01*
X195720057Y-186314342D02*
X195577200Y-186385771D01*
X195291485Y-186385771D01*
X195148628Y-186314342D01*
X195077200Y-186242914D01*
X195005771Y-186100057D01*
X195005771Y-185671485D01*
X195077200Y-185528628D01*
X195148628Y-185457200D01*
X195291485Y-185385771D01*
X195577200Y-185385771D01*
X195720057Y-185457200D01*
X196077200Y-186528628D02*
X197220057Y-186528628D01*
X197577200Y-185385771D02*
X197577200Y-186885771D01*
X197577200Y-185457200D02*
X197720057Y-185385771D01*
X198005771Y-185385771D01*
X198148628Y-185457200D01*
X198220057Y-185528628D01*
X198291485Y-185671485D01*
X198291485Y-186100057D01*
X198220057Y-186242914D01*
X198148628Y-186314342D01*
X198005771Y-186385771D01*
X197720057Y-186385771D01*
X197577200Y-186314342D01*
X199577200Y-186314342D02*
X199434342Y-186385771D01*
X199148628Y-186385771D01*
X199005771Y-186314342D01*
X198934342Y-186242914D01*
X198862914Y-186100057D01*
X198862914Y-185671485D01*
X198934342Y-185528628D01*
X199005771Y-185457200D01*
X199148628Y-185385771D01*
X199434342Y-185385771D01*
X199577200Y-185457200D01*
X200220057Y-186385771D02*
X200220057Y-184885771D01*
X200220057Y-185457200D02*
X200362914Y-185385771D01*
X200648628Y-185385771D01*
X200791485Y-185457200D01*
X200862914Y-185528628D01*
X200934342Y-185671485D01*
X200934342Y-186100057D01*
X200862914Y-186242914D01*
X200791485Y-186314342D01*
X200648628Y-186385771D01*
X200362914Y-186385771D01*
X200220057Y-186314342D01*
D10*
D11*
X177002200Y-181507200D02*
X285002200Y-181507200D01*
D10*
D11*
X178362914Y-183614342D02*
X178577200Y-183685771D01*
X178934342Y-183685771D01*
X179077200Y-183614342D01*
X179148628Y-183542914D01*
X179220057Y-183400057D01*
X179220057Y-183257200D01*
X179148628Y-183114342D01*
X179077200Y-183042914D01*
X178934342Y-182971485D01*
X178648628Y-182900057D01*
X178505771Y-182828628D01*
X178434342Y-182757200D01*
X178362914Y-182614342D01*
X178362914Y-182471485D01*
X178434342Y-182328628D01*
X178505771Y-182257200D01*
X178648628Y-182185771D01*
X179005771Y-182185771D01*
X179220057Y-182257200D01*
X179862914Y-183685771D02*
X179862914Y-182185771D01*
X180505771Y-183685771D02*
X180505771Y-182900057D01*
X180434342Y-182757200D01*
X180291485Y-182685771D01*
X180077200Y-182685771D01*
X179934342Y-182757200D01*
X179862914Y-182828628D01*
X181791485Y-183614342D02*
X181648628Y-183685771D01*
X181362914Y-183685771D01*
X181220057Y-183614342D01*
X181148628Y-183471485D01*
X181148628Y-182900057D01*
X181220057Y-182757200D01*
X181362914Y-182685771D01*
X181648628Y-182685771D01*
X181791485Y-182757200D01*
X181862914Y-182900057D01*
X181862914Y-183042914D01*
X181148628Y-183185771D01*
X183077200Y-183614342D02*
X182934342Y-183685771D01*
X182648628Y-183685771D01*
X182505771Y-183614342D01*
X182434342Y-183471485D01*
X182434342Y-182900057D01*
X182505771Y-182757200D01*
X182648628Y-182685771D01*
X182934342Y-182685771D01*
X183077200Y-182757200D01*
X183148628Y-182900057D01*
X183148628Y-183042914D01*
X182434342Y-183185771D01*
X183577200Y-182685771D02*
X184148628Y-182685771D01*
X183791485Y-182185771D02*
X183791485Y-183471485D01*
X183862914Y-183614342D01*
X184005771Y-183685771D01*
X184148628Y-183685771D01*
X184648628Y-183542914D02*
X184720057Y-183614342D01*
X184648628Y-183685771D01*
X184577200Y-183614342D01*
X184648628Y-183542914D01*
X184648628Y-183685771D01*
X184648628Y-182757200D02*
X184720057Y-182828628D01*
X184648628Y-182900057D01*
X184577200Y-182828628D01*
X184648628Y-182757200D01*
X184648628Y-182900057D01*
D10*
D12*
D10*
D11*
D10*
D11*
D10*
D11*
D10*
D11*
D10*
D11*
X197002200Y-191507200D02*
X197002200Y-194507200D01*
D10*
D11*
X261002200Y-191507200D02*
X261002200Y-198007200D01*
D10*
X173990000Y-91440000D02*
X184150000Y-91440000D01*
X184150000Y-91440000D02*
X184150000Y-101600000D01*
X184150000Y-101600000D02*
X173990000Y-101600000D01*
X173990000Y-101600000D02*
X173990000Y-91440000D01*
D14*
X189700000Y-58420000D02*
X189700000Y-158420000D01*
X89700000Y-58420000D02*
X189700000Y-58420000D01*
X89700000Y-58420000D02*
X89700000Y-158420000D01*
X89700000Y-158420000D02*
X189700000Y-158420000D01*
D12*
X176546190Y-95424761D02*
X176546190Y-97043809D01*
X176641428Y-97234285D01*
X176736666Y-97329523D01*
X176927142Y-97424761D01*
X177308095Y-97424761D01*
X177498571Y-97329523D01*
X177593809Y-97234285D01*
X177689047Y-97043809D01*
X177689047Y-95424761D01*
X178546190Y-97329523D02*
X178831904Y-97424761D01*
X179308095Y-97424761D01*
X179498571Y-97329523D01*
X179593809Y-97234285D01*
X179689047Y-97043809D01*
X179689047Y-96853333D01*
X179593809Y-96662857D01*
X179498571Y-96567619D01*
X179308095Y-96472380D01*
X178927142Y-96377142D01*
X178736666Y-96281904D01*
X178641428Y-96186666D01*
X178546190Y-95996190D01*
X178546190Y-95805714D01*
X178641428Y-95615238D01*
X178736666Y-95520000D01*
X178927142Y-95424761D01*
X179403333Y-95424761D01*
X179689047Y-95520000D01*
X181212857Y-96377142D02*
X181498571Y-96472380D01*
X181593809Y-96567619D01*
X181689047Y-96758095D01*
X181689047Y-97043809D01*
X181593809Y-97234285D01*
X181498571Y-97329523D01*
X181308095Y-97424761D01*
X180546190Y-97424761D01*
X180546190Y-95424761D01*
X181212857Y-95424761D01*
X181403333Y-95520000D01*
X181498571Y-95615238D01*
X181593809Y-95805714D01*
X181593809Y-95996190D01*
X181498571Y-96186666D01*
X181403333Y-96281904D01*
X181212857Y-96377142D01*
X180546190Y-96377142D01*
D15*
%TO.C,J6*%
X105390190Y-88860095D02*
X105794952Y-88860095D01*
X105842571Y-88836285D01*
X105866380Y-88812476D01*
X105890190Y-88764857D01*
X105890190Y-88669619D01*
X105866380Y-88622000D01*
X105842571Y-88598190D01*
X105794952Y-88574380D01*
X105390190Y-88574380D01*
X105747333Y-88360095D02*
X105747333Y-88122000D01*
X105890190Y-88407714D02*
X105390190Y-88241047D01*
X105890190Y-88074380D01*
X105890190Y-87622000D02*
X105652095Y-87788666D01*
X105890190Y-87907714D02*
X105390190Y-87907714D01*
X105390190Y-87717238D01*
X105414000Y-87669619D01*
X105437809Y-87645809D01*
X105485428Y-87622000D01*
X105556857Y-87622000D01*
X105604476Y-87645809D01*
X105628285Y-87669619D01*
X105652095Y-87717238D01*
X105652095Y-87907714D01*
X105390190Y-87479142D02*
X105390190Y-87193428D01*
X105890190Y-87336285D02*
X105390190Y-87336285D01*
X105390190Y-86645809D02*
X105794952Y-86645809D01*
X105842571Y-86622000D01*
X105866380Y-86598190D01*
X105890190Y-86550571D01*
X105890190Y-86455333D01*
X105866380Y-86407714D01*
X105842571Y-86383904D01*
X105794952Y-86360095D01*
X105390190Y-86360095D01*
X105866380Y-86145809D02*
X105890190Y-86074380D01*
X105890190Y-85955333D01*
X105866380Y-85907714D01*
X105842571Y-85883904D01*
X105794952Y-85860095D01*
X105747333Y-85860095D01*
X105699714Y-85883904D01*
X105675904Y-85907714D01*
X105652095Y-85955333D01*
X105628285Y-86050571D01*
X105604476Y-86098190D01*
X105580666Y-86122000D01*
X105533047Y-86145809D01*
X105485428Y-86145809D01*
X105437809Y-86122000D01*
X105414000Y-86098190D01*
X105390190Y-86050571D01*
X105390190Y-85931523D01*
X105414000Y-85860095D01*
X105628285Y-85479142D02*
X105652095Y-85407714D01*
X105675904Y-85383904D01*
X105723523Y-85360095D01*
X105794952Y-85360095D01*
X105842571Y-85383904D01*
X105866380Y-85407714D01*
X105890190Y-85455333D01*
X105890190Y-85645809D01*
X105390190Y-85645809D01*
X105390190Y-85479142D01*
X105414000Y-85431523D01*
X105437809Y-85407714D01*
X105485428Y-85383904D01*
X105533047Y-85383904D01*
X105580666Y-85407714D01*
X105604476Y-85431523D01*
X105628285Y-85479142D01*
X105628285Y-85645809D01*
%TO.C,J5*%
X105128190Y-108267238D02*
X104628190Y-108267238D01*
X104628190Y-108076761D01*
X104652000Y-108029142D01*
X104675809Y-108005333D01*
X104723428Y-107981523D01*
X104794857Y-107981523D01*
X104842476Y-108005333D01*
X104866285Y-108029142D01*
X104890095Y-108076761D01*
X104890095Y-108267238D01*
X104628190Y-107672000D02*
X104628190Y-107576761D01*
X104652000Y-107529142D01*
X104699619Y-107481523D01*
X104794857Y-107457714D01*
X104961523Y-107457714D01*
X105056761Y-107481523D01*
X105104380Y-107529142D01*
X105128190Y-107576761D01*
X105128190Y-107672000D01*
X105104380Y-107719619D01*
X105056761Y-107767238D01*
X104961523Y-107791047D01*
X104794857Y-107791047D01*
X104699619Y-107767238D01*
X104652000Y-107719619D01*
X104628190Y-107672000D01*
X104628190Y-107291047D02*
X105128190Y-107172000D01*
X104771047Y-107076761D01*
X105128190Y-106981523D01*
X104628190Y-106862476D01*
X104866285Y-106672000D02*
X104866285Y-106505333D01*
X105128190Y-106433904D02*
X105128190Y-106672000D01*
X104628190Y-106672000D01*
X104628190Y-106433904D01*
X105128190Y-105933904D02*
X104890095Y-106100571D01*
X105128190Y-106219619D02*
X104628190Y-106219619D01*
X104628190Y-106029142D01*
X104652000Y-105981523D01*
X104675809Y-105957714D01*
X104723428Y-105933904D01*
X104794857Y-105933904D01*
X104842476Y-105957714D01*
X104866285Y-105981523D01*
X104890095Y-106029142D01*
X104890095Y-106219619D01*
X104628190Y-105338666D02*
X105032952Y-105338666D01*
X105080571Y-105314857D01*
X105104380Y-105291047D01*
X105128190Y-105243428D01*
X105128190Y-105148190D01*
X105104380Y-105100571D01*
X105080571Y-105076761D01*
X105032952Y-105052952D01*
X104628190Y-105052952D01*
X105104380Y-104838666D02*
X105128190Y-104767238D01*
X105128190Y-104648190D01*
X105104380Y-104600571D01*
X105080571Y-104576761D01*
X105032952Y-104552952D01*
X104985333Y-104552952D01*
X104937714Y-104576761D01*
X104913904Y-104600571D01*
X104890095Y-104648190D01*
X104866285Y-104743428D01*
X104842476Y-104791047D01*
X104818666Y-104814857D01*
X104771047Y-104838666D01*
X104723428Y-104838666D01*
X104675809Y-104814857D01*
X104652000Y-104791047D01*
X104628190Y-104743428D01*
X104628190Y-104624380D01*
X104652000Y-104552952D01*
X104866285Y-104172000D02*
X104890095Y-104100571D01*
X104913904Y-104076761D01*
X104961523Y-104052952D01*
X105032952Y-104052952D01*
X105080571Y-104076761D01*
X105104380Y-104100571D01*
X105128190Y-104148190D01*
X105128190Y-104338666D01*
X104628190Y-104338666D01*
X104628190Y-104172000D01*
X104652000Y-104124380D01*
X104675809Y-104100571D01*
X104723428Y-104076761D01*
X104771047Y-104076761D01*
X104818666Y-104100571D01*
X104842476Y-104124380D01*
X104866285Y-104172000D01*
X104866285Y-104338666D01*
D11*
%TO.C,LDR1*%
X163933333Y-111196380D02*
X163457142Y-111196380D01*
X163457142Y-110196380D01*
X164266666Y-111196380D02*
X164266666Y-110196380D01*
X164504761Y-110196380D01*
X164647619Y-110244000D01*
X164742857Y-110339238D01*
X164790476Y-110434476D01*
X164838095Y-110624952D01*
X164838095Y-110767809D01*
X164790476Y-110958285D01*
X164742857Y-111053523D01*
X164647619Y-111148761D01*
X164504761Y-111196380D01*
X164266666Y-111196380D01*
X165838095Y-111196380D02*
X165504761Y-110720190D01*
X165266666Y-111196380D02*
X165266666Y-110196380D01*
X165647619Y-110196380D01*
X165742857Y-110244000D01*
X165790476Y-110291619D01*
X165838095Y-110386857D01*
X165838095Y-110529714D01*
X165790476Y-110624952D01*
X165742857Y-110672571D01*
X165647619Y-110720190D01*
X165266666Y-110720190D01*
X166790476Y-111196380D02*
X166219047Y-111196380D01*
X166504761Y-111196380D02*
X166504761Y-110196380D01*
X166409523Y-110339238D01*
X166314285Y-110434476D01*
X166219047Y-110482095D01*
%TO.C,SW1*%
X160703142Y-95505260D02*
X160793234Y-95535290D01*
X160943387Y-95535290D01*
X161003448Y-95505260D01*
X161033479Y-95475229D01*
X161063510Y-95415168D01*
X161063510Y-95355107D01*
X161033479Y-95295045D01*
X161003448Y-95265015D01*
X160943387Y-95234984D01*
X160823265Y-95204954D01*
X160763203Y-95174923D01*
X160733173Y-95144892D01*
X160703142Y-95084831D01*
X160703142Y-95024770D01*
X160733173Y-94964709D01*
X160763203Y-94934678D01*
X160823265Y-94904647D01*
X160973418Y-94904647D01*
X161063510Y-94934678D01*
X161273724Y-94904647D02*
X161423877Y-95535290D01*
X161544000Y-95084831D01*
X161664122Y-95535290D01*
X161814275Y-94904647D01*
X162384857Y-95535290D02*
X162024489Y-95535290D01*
X162204673Y-95535290D02*
X162204673Y-94904647D01*
X162144612Y-94994739D01*
X162084551Y-95054800D01*
X162024489Y-95084831D01*
%TO.C,J2*%
X182562380Y-76533333D02*
X183276666Y-76533333D01*
X183419523Y-76580952D01*
X183514761Y-76676190D01*
X183562380Y-76819047D01*
X183562380Y-76914285D01*
X182657619Y-76104761D02*
X182610000Y-76057142D01*
X182562380Y-75961904D01*
X182562380Y-75723809D01*
X182610000Y-75628571D01*
X182657619Y-75580952D01*
X182752857Y-75533333D01*
X182848095Y-75533333D01*
X182990952Y-75580952D01*
X183562380Y-76152380D01*
X183562380Y-75533333D01*
D10*
%TO.C,TempSensor1*%
X126018952Y-88039333D02*
X126018952Y-87810761D01*
X126418952Y-87925047D02*
X126018952Y-87925047D01*
X126399904Y-87525047D02*
X126418952Y-87563142D01*
X126418952Y-87639333D01*
X126399904Y-87677428D01*
X126361809Y-87696476D01*
X126209428Y-87696476D01*
X126171333Y-87677428D01*
X126152285Y-87639333D01*
X126152285Y-87563142D01*
X126171333Y-87525047D01*
X126209428Y-87506000D01*
X126247523Y-87506000D01*
X126285619Y-87696476D01*
X126418952Y-87334571D02*
X126152285Y-87334571D01*
X126190380Y-87334571D02*
X126171333Y-87315523D01*
X126152285Y-87277428D01*
X126152285Y-87220285D01*
X126171333Y-87182190D01*
X126209428Y-87163142D01*
X126418952Y-87163142D01*
X126209428Y-87163142D02*
X126171333Y-87144095D01*
X126152285Y-87106000D01*
X126152285Y-87048857D01*
X126171333Y-87010761D01*
X126209428Y-86991714D01*
X126418952Y-86991714D01*
X126152285Y-86801238D02*
X126552285Y-86801238D01*
X126171333Y-86801238D02*
X126152285Y-86763142D01*
X126152285Y-86686952D01*
X126171333Y-86648857D01*
X126190380Y-86629809D01*
X126228476Y-86610761D01*
X126342761Y-86610761D01*
X126380857Y-86629809D01*
X126399904Y-86648857D01*
X126418952Y-86686952D01*
X126418952Y-86763142D01*
X126399904Y-86801238D01*
X126399904Y-86458380D02*
X126418952Y-86401238D01*
X126418952Y-86306000D01*
X126399904Y-86267904D01*
X126380857Y-86248857D01*
X126342761Y-86229809D01*
X126304666Y-86229809D01*
X126266571Y-86248857D01*
X126247523Y-86267904D01*
X126228476Y-86306000D01*
X126209428Y-86382190D01*
X126190380Y-86420285D01*
X126171333Y-86439333D01*
X126133238Y-86458380D01*
X126095142Y-86458380D01*
X126057047Y-86439333D01*
X126038000Y-86420285D01*
X126018952Y-86382190D01*
X126018952Y-86286952D01*
X126038000Y-86229809D01*
X126399904Y-85906000D02*
X126418952Y-85944095D01*
X126418952Y-86020285D01*
X126399904Y-86058380D01*
X126361809Y-86077428D01*
X126209428Y-86077428D01*
X126171333Y-86058380D01*
X126152285Y-86020285D01*
X126152285Y-85944095D01*
X126171333Y-85906000D01*
X126209428Y-85886952D01*
X126247523Y-85886952D01*
X126285619Y-86077428D01*
X126152285Y-85715523D02*
X126418952Y-85715523D01*
X126190380Y-85715523D02*
X126171333Y-85696476D01*
X126152285Y-85658380D01*
X126152285Y-85601238D01*
X126171333Y-85563142D01*
X126209428Y-85544095D01*
X126418952Y-85544095D01*
X126399904Y-85372666D02*
X126418952Y-85334571D01*
X126418952Y-85258380D01*
X126399904Y-85220285D01*
X126361809Y-85201238D01*
X126342761Y-85201238D01*
X126304666Y-85220285D01*
X126285619Y-85258380D01*
X126285619Y-85315523D01*
X126266571Y-85353619D01*
X126228476Y-85372666D01*
X126209428Y-85372666D01*
X126171333Y-85353619D01*
X126152285Y-85315523D01*
X126152285Y-85258380D01*
X126171333Y-85220285D01*
X126418952Y-84972666D02*
X126399904Y-85010761D01*
X126380857Y-85029809D01*
X126342761Y-85048857D01*
X126228476Y-85048857D01*
X126190380Y-85029809D01*
X126171333Y-85010761D01*
X126152285Y-84972666D01*
X126152285Y-84915523D01*
X126171333Y-84877428D01*
X126190380Y-84858380D01*
X126228476Y-84839333D01*
X126342761Y-84839333D01*
X126380857Y-84858380D01*
X126399904Y-84877428D01*
X126418952Y-84915523D01*
X126418952Y-84972666D01*
X126418952Y-84667904D02*
X126152285Y-84667904D01*
X126228476Y-84667904D02*
X126190380Y-84648857D01*
X126171333Y-84629809D01*
X126152285Y-84591714D01*
X126152285Y-84553619D01*
X126418952Y-84210761D02*
X126418952Y-84439333D01*
X126418952Y-84325047D02*
X126018952Y-84325047D01*
X126076095Y-84363142D01*
X126114190Y-84401238D01*
X126133238Y-84439333D01*
D11*
%TO.C,LED1*%
X146502380Y-95099047D02*
X146502380Y-95575238D01*
X145502380Y-95575238D01*
X145978571Y-94765714D02*
X145978571Y-94432380D01*
X146502380Y-94289523D02*
X146502380Y-94765714D01*
X145502380Y-94765714D01*
X145502380Y-94289523D01*
X146502380Y-93860952D02*
X145502380Y-93860952D01*
X145502380Y-93622857D01*
X145550000Y-93480000D01*
X145645238Y-93384761D01*
X145740476Y-93337142D01*
X145930952Y-93289523D01*
X146073809Y-93289523D01*
X146264285Y-93337142D01*
X146359523Y-93384761D01*
X146454761Y-93480000D01*
X146502380Y-93622857D01*
X146502380Y-93860952D01*
X146502380Y-92337142D02*
X146502380Y-92908571D01*
X146502380Y-92622857D02*
X145502380Y-92622857D01*
X145645238Y-92718095D01*
X145740476Y-92813333D01*
X145788095Y-92908571D01*
%TO.C,J1*%
X182122380Y-66373333D02*
X182836666Y-66373333D01*
X182979523Y-66420952D01*
X183074761Y-66516190D01*
X183122380Y-66659047D01*
X183122380Y-66754285D01*
X183122380Y-65373333D02*
X183122380Y-65944761D01*
X183122380Y-65659047D02*
X182122380Y-65659047D01*
X182265238Y-65754285D01*
X182360476Y-65849523D01*
X182408095Y-65944761D01*
%TO.C,J4*%
X182122380Y-127333333D02*
X182836666Y-127333333D01*
X182979523Y-127380952D01*
X183074761Y-127476190D01*
X183122380Y-127619047D01*
X183122380Y-127714285D01*
X182455714Y-126428571D02*
X183122380Y-126428571D01*
X182074761Y-126666666D02*
X182789047Y-126904761D01*
X182789047Y-126285714D01*
%TO.C,R1*%
X131602380Y-134531666D02*
X131126190Y-134865000D01*
X131602380Y-135103095D02*
X130602380Y-135103095D01*
X130602380Y-134722142D01*
X130650000Y-134626904D01*
X130697619Y-134579285D01*
X130792857Y-134531666D01*
X130935714Y-134531666D01*
X131030952Y-134579285D01*
X131078571Y-134626904D01*
X131126190Y-134722142D01*
X131126190Y-135103095D01*
X131602380Y-133579285D02*
X131602380Y-134150714D01*
X131602380Y-133865000D02*
X130602380Y-133865000D01*
X130745238Y-133960238D01*
X130840476Y-134055476D01*
X130888095Y-134150714D01*
%TO.C,J3*%
X182562380Y-117173333D02*
X183276666Y-117173333D01*
X183419523Y-117220952D01*
X183514761Y-117316190D01*
X183562380Y-117459047D01*
X183562380Y-117554285D01*
X182562380Y-116792380D02*
X182562380Y-116173333D01*
X182943333Y-116506666D01*
X182943333Y-116363809D01*
X182990952Y-116268571D01*
X183038571Y-116220952D01*
X183133809Y-116173333D01*
X183371904Y-116173333D01*
X183467142Y-116220952D01*
X183514761Y-116268571D01*
X183562380Y-116363809D01*
X183562380Y-116649523D01*
X183514761Y-116744761D01*
X183467142Y-116792380D01*
%TO.C,BT1*%
X138982029Y-130696315D02*
X139124886Y-130743934D01*
X139172505Y-130791553D01*
X139220124Y-130886791D01*
X139220124Y-131029648D01*
X139172505Y-131124886D01*
X139124886Y-131172505D01*
X139029648Y-131220124D01*
X138648696Y-131220124D01*
X138648696Y-130220124D01*
X138982029Y-130220124D01*
X139077267Y-130267744D01*
X139124886Y-130315363D01*
X139172505Y-130410601D01*
X139172505Y-130505839D01*
X139124886Y-130601077D01*
X139077267Y-130648696D01*
X138982029Y-130696315D01*
X138648696Y-130696315D01*
X139505839Y-130220124D02*
X140077267Y-130220124D01*
X139791553Y-131220124D02*
X139791553Y-130220124D01*
X140934410Y-131220124D02*
X140362982Y-131220124D01*
X140648696Y-131220124D02*
X140648696Y-130220124D01*
X140553458Y-130362982D01*
X140458220Y-130458220D01*
X140362982Y-130505839D01*
%TO.C,SW2*%
X143765260Y-82882857D02*
X143795290Y-82792765D01*
X143795290Y-82642612D01*
X143765260Y-82582551D01*
X143735229Y-82552520D01*
X143675168Y-82522489D01*
X143615107Y-82522489D01*
X143555045Y-82552520D01*
X143525015Y-82582551D01*
X143494984Y-82642612D01*
X143464954Y-82762734D01*
X143434923Y-82822796D01*
X143404892Y-82852826D01*
X143344831Y-82882857D01*
X143284770Y-82882857D01*
X143224709Y-82852826D01*
X143194678Y-82822796D01*
X143164647Y-82762734D01*
X143164647Y-82612581D01*
X143194678Y-82522489D01*
X143164647Y-82312275D02*
X143795290Y-82162122D01*
X143344831Y-82042000D01*
X143795290Y-81921877D01*
X143164647Y-81771724D01*
X143224709Y-81561510D02*
X143194678Y-81531479D01*
X143164647Y-81471418D01*
X143164647Y-81321265D01*
X143194678Y-81261203D01*
X143224709Y-81231173D01*
X143284770Y-81201142D01*
X143344831Y-81201142D01*
X143434923Y-81231173D01*
X143795290Y-81591540D01*
X143795290Y-81201142D01*
%TO.C,LDR2*%
X150979333Y-85542380D02*
X150503142Y-85542380D01*
X150503142Y-84542380D01*
X151312666Y-85542380D02*
X151312666Y-84542380D01*
X151550761Y-84542380D01*
X151693619Y-84590000D01*
X151788857Y-84685238D01*
X151836476Y-84780476D01*
X151884095Y-84970952D01*
X151884095Y-85113809D01*
X151836476Y-85304285D01*
X151788857Y-85399523D01*
X151693619Y-85494761D01*
X151550761Y-85542380D01*
X151312666Y-85542380D01*
X152884095Y-85542380D02*
X152550761Y-85066190D01*
X152312666Y-85542380D02*
X152312666Y-84542380D01*
X152693619Y-84542380D01*
X152788857Y-84590000D01*
X152836476Y-84637619D01*
X152884095Y-84732857D01*
X152884095Y-84875714D01*
X152836476Y-84970952D01*
X152788857Y-85018571D01*
X152693619Y-85066190D01*
X152312666Y-85066190D01*
X153265047Y-84637619D02*
X153312666Y-84590000D01*
X153407904Y-84542380D01*
X153646000Y-84542380D01*
X153741238Y-84590000D01*
X153788857Y-84637619D01*
X153836476Y-84732857D01*
X153836476Y-84828095D01*
X153788857Y-84970952D01*
X153217428Y-85542380D01*
X153836476Y-85542380D01*
%TO.C,SW3*%
X151639260Y-110314857D02*
X151669290Y-110224765D01*
X151669290Y-110074612D01*
X151639260Y-110014551D01*
X151609229Y-109984520D01*
X151549168Y-109954489D01*
X151489107Y-109954489D01*
X151429045Y-109984520D01*
X151399015Y-110014551D01*
X151368984Y-110074612D01*
X151338954Y-110194734D01*
X151308923Y-110254796D01*
X151278892Y-110284826D01*
X151218831Y-110314857D01*
X151158770Y-110314857D01*
X151098709Y-110284826D01*
X151068678Y-110254796D01*
X151038647Y-110194734D01*
X151038647Y-110044581D01*
X151068678Y-109954489D01*
X151038647Y-109744275D02*
X151669290Y-109594122D01*
X151218831Y-109474000D01*
X151669290Y-109353877D01*
X151038647Y-109203724D01*
X151038647Y-109023540D02*
X151038647Y-108633142D01*
X151278892Y-108843357D01*
X151278892Y-108753265D01*
X151308923Y-108693203D01*
X151338954Y-108663173D01*
X151399015Y-108633142D01*
X151549168Y-108633142D01*
X151609229Y-108663173D01*
X151639260Y-108693203D01*
X151669290Y-108753265D01*
X151669290Y-108933448D01*
X151639260Y-108993510D01*
X151609229Y-109023540D01*
D16*
%TO.C,U2*%
X126020000Y-106680000D02*
X126020000Y-104880000D01*
X122900000Y-106680000D02*
X122900000Y-107480000D01*
X126020000Y-106680000D02*
X126020000Y-107480000D01*
X122900000Y-106680000D02*
X122900000Y-105880000D01*
D17*
%TO.C,FTDI(UART)1*%
X117605000Y-81360000D02*
X121155000Y-81360000D01*
X117605000Y-91360000D02*
X121155000Y-91360000D01*
X117605000Y-81360000D02*
X121155000Y-81360000D01*
X117605000Y-91360000D02*
X121155000Y-91360000D01*
D18*
X116730000Y-80605000D02*
G75*
G03*
X116730000Y-80605000I-100000J0D01*
G01*
D16*
%TO.C,U1*%
X121920000Y-98080000D02*
X122720000Y-98080000D01*
X121920000Y-98080000D02*
X121120000Y-98080000D01*
X121920000Y-94960000D02*
X120120000Y-94960000D01*
X121920000Y-94960000D02*
X122720000Y-94960000D01*
%TO.C,D2*%
X118380000Y-110180000D02*
X121065000Y-110180000D01*
X121065000Y-108260000D02*
X118380000Y-108260000D01*
X121065000Y-110180000D02*
X121065000Y-108260000D01*
%TO.C,J6*%
X98735000Y-85145000D02*
X98285000Y-85545000D01*
X104335000Y-79995000D02*
X101535000Y-79995000D01*
X101535000Y-87995000D02*
X101535000Y-87695000D01*
X98285000Y-84745000D02*
X98735000Y-85145000D01*
X101535000Y-79995000D02*
X101535000Y-79695000D01*
X101535000Y-79695000D02*
X99985000Y-79695000D01*
X101535000Y-87995000D02*
X99985000Y-87995000D01*
X104335000Y-87695000D02*
X101535000Y-87695000D01*
X98285000Y-85545000D02*
X98285000Y-84745000D01*
%TO.C,J5*%
X100760000Y-100290000D02*
X100760000Y-99990000D01*
X103560000Y-100290000D02*
X100760000Y-100290000D01*
X103560000Y-107990000D02*
X100760000Y-107990000D01*
X100760000Y-108290000D02*
X100760000Y-107990000D01*
X97510000Y-105040000D02*
X97960000Y-105440000D01*
X97510000Y-105840000D02*
X97510000Y-105040000D01*
X100760000Y-99990000D02*
X99210000Y-99990000D01*
X100760000Y-108290000D02*
X99210000Y-108290000D01*
X97960000Y-105440000D02*
X97510000Y-105840000D01*
D17*
%TO.C,EEPROM1*%
X127030000Y-98520000D02*
X127030000Y-94520000D01*
X132050000Y-98520000D02*
X132050000Y-94520000D01*
D18*
X127165000Y-100965000D02*
G75*
G03*
X127165000Y-100965000I-100000J0D01*
G01*
%TO.C,SW1*%
X164565000Y-93690000D02*
G75*
G03*
X164565000Y-93690000I-100000J0D01*
G01*
D17*
X161775000Y-91440000D02*
G75*
G03*
X161775000Y-91440000I-1755000J0D01*
G01*
X163015000Y-92590000D02*
X163015000Y-90290000D01*
X157020000Y-92590000D02*
X157020000Y-90290000D01*
X157720000Y-88445000D02*
X162320000Y-88445000D01*
X162220000Y-94435000D02*
X157720000Y-94435000D01*
D16*
%TO.C,J2*%
X181670000Y-77530000D02*
X180340000Y-77530000D01*
X179070000Y-74870000D02*
X97730000Y-74870000D01*
X179070000Y-74870000D02*
X179070000Y-77530000D01*
X97730000Y-74870000D02*
X97730000Y-77530000D01*
X181670000Y-76200000D02*
X181670000Y-77530000D01*
X179070000Y-77530000D02*
X97730000Y-77530000D01*
D19*
%TO.C,TempSensor1*%
X132029200Y-85496400D02*
X132029200Y-82143600D01*
X127050800Y-82143600D02*
X127050800Y-83515200D01*
X127050800Y-83515200D02*
X127050800Y-84124800D01*
X127050800Y-84124800D02*
X127050800Y-85496400D01*
X127050800Y-84124800D02*
G75*
G03*
X127050800Y-83515200I0J304800D01*
G01*
D16*
%TO.C,LED1*%
X146708550Y-95076050D02*
X149393550Y-95076050D01*
X149393550Y-93156050D02*
X146708550Y-93156050D01*
X146708550Y-93156050D02*
X146708550Y-95076050D01*
%TO.C,J1*%
X180340000Y-64710000D02*
X181670000Y-64710000D01*
X179070000Y-67370000D02*
X97730000Y-67370000D01*
X179070000Y-64710000D02*
X179070000Y-67370000D01*
X181670000Y-64710000D02*
X181670000Y-66040000D01*
X97730000Y-64710000D02*
X97730000Y-67370000D01*
X179070000Y-64710000D02*
X97730000Y-64710000D01*
%TO.C,J4*%
X180340000Y-125670000D02*
X181670000Y-125670000D01*
X179070000Y-125670000D02*
X179070000Y-128330000D01*
X97730000Y-125670000D02*
X97730000Y-128330000D01*
X181670000Y-125670000D02*
X181670000Y-127000000D01*
X179070000Y-128330000D02*
X97730000Y-128330000D01*
X179070000Y-125670000D02*
X97730000Y-125670000D01*
%TO.C,D1*%
X108260000Y-110905000D02*
X110180000Y-110905000D01*
X110180000Y-110905000D02*
X110180000Y-108220000D01*
X108260000Y-108220000D02*
X108260000Y-110905000D01*
%TO.C,J3*%
X179070000Y-115510000D02*
X179070000Y-118170000D01*
X181670000Y-118170000D02*
X180340000Y-118170000D01*
X97730000Y-115510000D02*
X97730000Y-118170000D01*
X179070000Y-115510000D02*
X97730000Y-115510000D01*
X181670000Y-116840000D02*
X181670000Y-118170000D01*
X179070000Y-118170000D02*
X97730000Y-118170000D01*
%TO.C,D3*%
X138015000Y-90480000D02*
X138015000Y-92400000D01*
X138015000Y-92400000D02*
X140700000Y-92400000D01*
X140700000Y-90480000D02*
X138015000Y-90480000D01*
%TO.C,BT1*%
X96017744Y-136267744D02*
X98517744Y-136267744D01*
X178407744Y-152707744D02*
X101127744Y-152707744D01*
X178407744Y-131827744D02*
X101127744Y-131827744D01*
X178407744Y-138827744D02*
X178407744Y-131847744D01*
X101127744Y-152707744D02*
X101127744Y-145707744D01*
X101127744Y-138827744D02*
X96767744Y-138827744D01*
X97267744Y-137517744D02*
X97267744Y-135017744D01*
X101127744Y-131827744D02*
X101127744Y-138827744D01*
X178407744Y-145707744D02*
X178407744Y-152707744D01*
X183517744Y-136267744D02*
X181017744Y-136267744D01*
D18*
%TO.C,SW2*%
X142050000Y-79375000D02*
G75*
G03*
X142050000Y-79375000I-100000J0D01*
G01*
D17*
X141455000Y-83820000D02*
G75*
G03*
X141455000Y-83820000I-1755000J0D01*
G01*
X142695000Y-81620000D02*
X142695000Y-86120000D01*
X136705000Y-86120000D02*
X136705000Y-81520000D01*
X140850000Y-86820000D02*
X138550000Y-86820000D01*
X140850000Y-80825000D02*
X138550000Y-80825000D01*
D16*
%TO.C,Q1*%
X116310000Y-103450000D02*
X119910000Y-103450000D01*
X119948478Y-103438478D02*
G75*
G03*
X118110000Y-99000000I-1838478J1838478D01*
G01*
X118110000Y-98999999D02*
G75*
G03*
X116271522Y-103438478I0J-2600001D01*
G01*
D17*
%TO.C,SW3*%
X146170000Y-103680000D02*
X148470000Y-103680000D01*
X144325000Y-108880000D02*
X144325000Y-104380000D01*
X150315000Y-104380000D02*
X150315000Y-108980000D01*
X146170000Y-109675000D02*
X148470000Y-109675000D01*
X149075000Y-106680000D02*
G75*
G03*
X149075000Y-106680000I-1755000J0D01*
G01*
D18*
X145170000Y-111125000D02*
G75*
G03*
X145170000Y-111125000I-100000J0D01*
G01*
D16*
%TO.C,VoltageRegulator1*%
X103805000Y-89515000D02*
X105305000Y-89515000D01*
X105305000Y-89515000D02*
X105305000Y-89785000D01*
X105305000Y-96415000D02*
X105305000Y-96145000D01*
X105305000Y-96145000D02*
X108135000Y-96145000D01*
X103805000Y-96415000D02*
X105305000Y-96415000D01*
X105305000Y-89785000D02*
X106405000Y-89785000D01*
%TD*%
M02*
