%FSLAX45Y45*%
G04 Gerber Fmt 4.5, Leading zero omitted, Abs format (unit mm)*
G04 Created by KiCad (PCBNEW (6.0.2)) date 2022-04-12 17:31:43*
%MOMM*%
%LPD*%
G01*
G04 APERTURE LIST*
%TA.AperFunction,Profile*%
%ADD10C,0.100000*%
%TD*%
%ADD11C,0.200000*%
%ADD12C,0.239000*%
%ADD13C,0.345000*%
G04 APERTURE END LIST*
D10*
X10828000Y-4144000D02*
X20828000Y-4144000D01*
X20828000Y-4144000D02*
X20828000Y-14144000D01*
X20828000Y-14144000D02*
X10828000Y-14144000D01*
X10828000Y-14144000D02*
X10828000Y-4144000D01*
D11*
D12*
X12412500Y-12034500D02*
X12651500Y-12273500D01*
X12651500Y-12034500D02*
X12412500Y-12273500D01*
D13*
X13537500Y-13754000D02*
G75*
G03*
X13537500Y-13754000I-172500J0D01*
G01*
X19057500Y-12154000D02*
G75*
G03*
X19057500Y-12154000I-172500J0D01*
G01*
D11*
X11080619Y-14459476D02*
X11080619Y-14259476D01*
X11128238Y-14259476D01*
X11156810Y-14269000D01*
X11175857Y-14288048D01*
X11185381Y-14307095D01*
X11194905Y-14345190D01*
X11194905Y-14373762D01*
X11185381Y-14411857D01*
X11175857Y-14430905D01*
X11156810Y-14449952D01*
X11128238Y-14459476D01*
X11080619Y-14459476D01*
X11280619Y-14459476D02*
X11280619Y-14326143D01*
X11280619Y-14364238D02*
X11290143Y-14345190D01*
X11299667Y-14335667D01*
X11318714Y-14326143D01*
X11337762Y-14326143D01*
X11404428Y-14459476D02*
X11404428Y-14326143D01*
X11404428Y-14259476D02*
X11394905Y-14269000D01*
X11404428Y-14278524D01*
X11413952Y-14269000D01*
X11404428Y-14259476D01*
X11404428Y-14278524D01*
X11528238Y-14459476D02*
X11509190Y-14449952D01*
X11499667Y-14430905D01*
X11499667Y-14259476D01*
X11633000Y-14459476D02*
X11613952Y-14449952D01*
X11604428Y-14430905D01*
X11604428Y-14259476D01*
X11861571Y-14459476D02*
X11861571Y-14259476D01*
X11928238Y-14402333D01*
X11994905Y-14259476D01*
X11994905Y-14459476D01*
X12175857Y-14459476D02*
X12175857Y-14354714D01*
X12166333Y-14335667D01*
X12147286Y-14326143D01*
X12109190Y-14326143D01*
X12090143Y-14335667D01*
X12175857Y-14449952D02*
X12156809Y-14459476D01*
X12109190Y-14459476D01*
X12090143Y-14449952D01*
X12080619Y-14430905D01*
X12080619Y-14411857D01*
X12090143Y-14392809D01*
X12109190Y-14383286D01*
X12156809Y-14383286D01*
X12175857Y-14373762D01*
X12271095Y-14326143D02*
X12271095Y-14526143D01*
X12271095Y-14335667D02*
X12290143Y-14326143D01*
X12328238Y-14326143D01*
X12347286Y-14335667D01*
X12356809Y-14345190D01*
X12366333Y-14364238D01*
X12366333Y-14421381D01*
X12356809Y-14440428D01*
X12347286Y-14449952D01*
X12328238Y-14459476D01*
X12290143Y-14459476D01*
X12271095Y-14449952D01*
X12452048Y-14440428D02*
X12461571Y-14449952D01*
X12452048Y-14459476D01*
X12442524Y-14449952D01*
X12452048Y-14440428D01*
X12452048Y-14459476D01*
X12452048Y-14335667D02*
X12461571Y-14345190D01*
X12452048Y-14354714D01*
X12442524Y-14345190D01*
X12452048Y-14335667D01*
X12452048Y-14354714D01*
X10623000Y-14689000D02*
X10823000Y-14889000D01*
X10823000Y-14689000D02*
X10623000Y-14889000D01*
X11071095Y-14698524D02*
X11080619Y-14689000D01*
X11099667Y-14679476D01*
X11147286Y-14679476D01*
X11166333Y-14689000D01*
X11175857Y-14698524D01*
X11185381Y-14717571D01*
X11185381Y-14736619D01*
X11175857Y-14765190D01*
X11061571Y-14879476D01*
X11185381Y-14879476D01*
X11271095Y-14860428D02*
X11280619Y-14869952D01*
X11271095Y-14879476D01*
X11261571Y-14869952D01*
X11271095Y-14860428D01*
X11271095Y-14879476D01*
X11347286Y-14679476D02*
X11471095Y-14679476D01*
X11404428Y-14755667D01*
X11433000Y-14755667D01*
X11452048Y-14765190D01*
X11461571Y-14774714D01*
X11471095Y-14793762D01*
X11471095Y-14841381D01*
X11461571Y-14860428D01*
X11452048Y-14869952D01*
X11433000Y-14879476D01*
X11375857Y-14879476D01*
X11356809Y-14869952D01*
X11347286Y-14860428D01*
X11566333Y-14879476D02*
X11604428Y-14879476D01*
X11623476Y-14869952D01*
X11633000Y-14860428D01*
X11652048Y-14831857D01*
X11661571Y-14793762D01*
X11661571Y-14717571D01*
X11652048Y-14698524D01*
X11642524Y-14689000D01*
X11623476Y-14679476D01*
X11585381Y-14679476D01*
X11566333Y-14689000D01*
X11556809Y-14698524D01*
X11547286Y-14717571D01*
X11547286Y-14765190D01*
X11556809Y-14784238D01*
X11566333Y-14793762D01*
X11585381Y-14803286D01*
X11623476Y-14803286D01*
X11642524Y-14793762D01*
X11652048Y-14784238D01*
X11661571Y-14765190D01*
X11785381Y-14679476D02*
X11804428Y-14679476D01*
X11823476Y-14689000D01*
X11833000Y-14698524D01*
X11842524Y-14717571D01*
X11852048Y-14755667D01*
X11852048Y-14803286D01*
X11842524Y-14841381D01*
X11833000Y-14860428D01*
X11823476Y-14869952D01*
X11804428Y-14879476D01*
X11785381Y-14879476D01*
X11766333Y-14869952D01*
X11756809Y-14860428D01*
X11747286Y-14841381D01*
X11737762Y-14803286D01*
X11737762Y-14755667D01*
X11747286Y-14717571D01*
X11756809Y-14698524D01*
X11766333Y-14689000D01*
X11785381Y-14679476D01*
X11937762Y-14879476D02*
X11937762Y-14746143D01*
X11937762Y-14765190D02*
X11947286Y-14755667D01*
X11966333Y-14746143D01*
X11994905Y-14746143D01*
X12013952Y-14755667D01*
X12023476Y-14774714D01*
X12023476Y-14879476D01*
X12023476Y-14774714D02*
X12033000Y-14755667D01*
X12052048Y-14746143D01*
X12080619Y-14746143D01*
X12099667Y-14755667D01*
X12109190Y-14774714D01*
X12109190Y-14879476D01*
X12204428Y-14879476D02*
X12204428Y-14746143D01*
X12204428Y-14765190D02*
X12213952Y-14755667D01*
X12233000Y-14746143D01*
X12261571Y-14746143D01*
X12280619Y-14755667D01*
X12290143Y-14774714D01*
X12290143Y-14879476D01*
X12290143Y-14774714D02*
X12299667Y-14755667D01*
X12318714Y-14746143D01*
X12347286Y-14746143D01*
X12366333Y-14755667D01*
X12375857Y-14774714D01*
X12375857Y-14879476D01*
X12766333Y-14669952D02*
X12594905Y-14927095D01*
X13023476Y-14679476D02*
X13042524Y-14679476D01*
X13061571Y-14689000D01*
X13071095Y-14698524D01*
X13080619Y-14717571D01*
X13090143Y-14755667D01*
X13090143Y-14803286D01*
X13080619Y-14841381D01*
X13071095Y-14860428D01*
X13061571Y-14869952D01*
X13042524Y-14879476D01*
X13023476Y-14879476D01*
X13004428Y-14869952D01*
X12994905Y-14860428D01*
X12985381Y-14841381D01*
X12975857Y-14803286D01*
X12975857Y-14755667D01*
X12985381Y-14717571D01*
X12994905Y-14698524D01*
X13004428Y-14689000D01*
X13023476Y-14679476D01*
X13175857Y-14860428D02*
X13185381Y-14869952D01*
X13175857Y-14879476D01*
X13166333Y-14869952D01*
X13175857Y-14860428D01*
X13175857Y-14879476D01*
X13309190Y-14679476D02*
X13328238Y-14679476D01*
X13347286Y-14689000D01*
X13356809Y-14698524D01*
X13366333Y-14717571D01*
X13375857Y-14755667D01*
X13375857Y-14803286D01*
X13366333Y-14841381D01*
X13356809Y-14860428D01*
X13347286Y-14869952D01*
X13328238Y-14879476D01*
X13309190Y-14879476D01*
X13290143Y-14869952D01*
X13280619Y-14860428D01*
X13271095Y-14841381D01*
X13261571Y-14803286D01*
X13261571Y-14755667D01*
X13271095Y-14717571D01*
X13280619Y-14698524D01*
X13290143Y-14689000D01*
X13309190Y-14679476D01*
X13471095Y-14879476D02*
X13509190Y-14879476D01*
X13528238Y-14869952D01*
X13537762Y-14860428D01*
X13556809Y-14831857D01*
X13566333Y-14793762D01*
X13566333Y-14717571D01*
X13556809Y-14698524D01*
X13547286Y-14689000D01*
X13528238Y-14679476D01*
X13490143Y-14679476D01*
X13471095Y-14689000D01*
X13461571Y-14698524D01*
X13452048Y-14717571D01*
X13452048Y-14765190D01*
X13461571Y-14784238D01*
X13471095Y-14793762D01*
X13490143Y-14803286D01*
X13528238Y-14803286D01*
X13547286Y-14793762D01*
X13556809Y-14784238D01*
X13566333Y-14765190D01*
X13737762Y-14746143D02*
X13737762Y-14879476D01*
X13690143Y-14669952D02*
X13642524Y-14812809D01*
X13766333Y-14812809D01*
X13947286Y-14879476D02*
X13833000Y-14879476D01*
X13890143Y-14879476D02*
X13890143Y-14679476D01*
X13871095Y-14708048D01*
X13852048Y-14727095D01*
X13833000Y-14736619D01*
X14023476Y-14679476D02*
X14023476Y-14717571D01*
X14099667Y-14679476D02*
X14099667Y-14717571D01*
X14394905Y-14955667D02*
X14385381Y-14946143D01*
X14366333Y-14917571D01*
X14356809Y-14898524D01*
X14347286Y-14869952D01*
X14337762Y-14822333D01*
X14337762Y-14784238D01*
X14347286Y-14736619D01*
X14356809Y-14708048D01*
X14366333Y-14689000D01*
X14385381Y-14660428D01*
X14394905Y-14650905D01*
X14575857Y-14879476D02*
X14461571Y-14879476D01*
X14518714Y-14879476D02*
X14518714Y-14679476D01*
X14499667Y-14708048D01*
X14480619Y-14727095D01*
X14461571Y-14736619D01*
X14813952Y-14879476D02*
X14813952Y-14679476D01*
X14899667Y-14879476D02*
X14899667Y-14774714D01*
X14890143Y-14755667D01*
X14871095Y-14746143D01*
X14842524Y-14746143D01*
X14823476Y-14755667D01*
X14813952Y-14765190D01*
X15023476Y-14879476D02*
X15004428Y-14869952D01*
X14994905Y-14860428D01*
X14985381Y-14841381D01*
X14985381Y-14784238D01*
X14994905Y-14765190D01*
X15004428Y-14755667D01*
X15023476Y-14746143D01*
X15052048Y-14746143D01*
X15071095Y-14755667D01*
X15080619Y-14765190D01*
X15090143Y-14784238D01*
X15090143Y-14841381D01*
X15080619Y-14860428D01*
X15071095Y-14869952D01*
X15052048Y-14879476D01*
X15023476Y-14879476D01*
X15204428Y-14879476D02*
X15185381Y-14869952D01*
X15175857Y-14850905D01*
X15175857Y-14679476D01*
X15356809Y-14869952D02*
X15337762Y-14879476D01*
X15299667Y-14879476D01*
X15280619Y-14869952D01*
X15271095Y-14850905D01*
X15271095Y-14774714D01*
X15280619Y-14755667D01*
X15299667Y-14746143D01*
X15337762Y-14746143D01*
X15356809Y-14755667D01*
X15366333Y-14774714D01*
X15366333Y-14793762D01*
X15271095Y-14812809D01*
X15433000Y-14955667D02*
X15442524Y-14946143D01*
X15461571Y-14917571D01*
X15471095Y-14898524D01*
X15480619Y-14869952D01*
X15490143Y-14822333D01*
X15490143Y-14784238D01*
X15480619Y-14736619D01*
X15471095Y-14708048D01*
X15461571Y-14689000D01*
X15442524Y-14660428D01*
X15433000Y-14650905D01*
X15794905Y-14955667D02*
X15785381Y-14946143D01*
X15766333Y-14917571D01*
X15756809Y-14898524D01*
X15747286Y-14869952D01*
X15737762Y-14822333D01*
X15737762Y-14784238D01*
X15747286Y-14736619D01*
X15756809Y-14708048D01*
X15766333Y-14689000D01*
X15785381Y-14660428D01*
X15794905Y-14650905D01*
X15871095Y-14746143D02*
X15871095Y-14879476D01*
X15871095Y-14765190D02*
X15880619Y-14755667D01*
X15899667Y-14746143D01*
X15928238Y-14746143D01*
X15947286Y-14755667D01*
X15956809Y-14774714D01*
X15956809Y-14879476D01*
X16080619Y-14879476D02*
X16061571Y-14869952D01*
X16052048Y-14860428D01*
X16042524Y-14841381D01*
X16042524Y-14784238D01*
X16052048Y-14765190D01*
X16061571Y-14755667D01*
X16080619Y-14746143D01*
X16109190Y-14746143D01*
X16128238Y-14755667D01*
X16137762Y-14765190D01*
X16147286Y-14784238D01*
X16147286Y-14841381D01*
X16137762Y-14860428D01*
X16128238Y-14869952D01*
X16109190Y-14879476D01*
X16080619Y-14879476D01*
X16204428Y-14746143D02*
X16280619Y-14746143D01*
X16233000Y-14679476D02*
X16233000Y-14850905D01*
X16242524Y-14869952D01*
X16261571Y-14879476D01*
X16280619Y-14879476D01*
X16499667Y-14746143D02*
X16499667Y-14946143D01*
X16499667Y-14755667D02*
X16518714Y-14746143D01*
X16556809Y-14746143D01*
X16575857Y-14755667D01*
X16585381Y-14765190D01*
X16594905Y-14784238D01*
X16594905Y-14841381D01*
X16585381Y-14860428D01*
X16575857Y-14869952D01*
X16556809Y-14879476D01*
X16518714Y-14879476D01*
X16499667Y-14869952D01*
X16709190Y-14879476D02*
X16690143Y-14869952D01*
X16680619Y-14850905D01*
X16680619Y-14679476D01*
X16871095Y-14879476D02*
X16871095Y-14774714D01*
X16861571Y-14755667D01*
X16842524Y-14746143D01*
X16804429Y-14746143D01*
X16785381Y-14755667D01*
X16871095Y-14869952D02*
X16852048Y-14879476D01*
X16804429Y-14879476D01*
X16785381Y-14869952D01*
X16775857Y-14850905D01*
X16775857Y-14831857D01*
X16785381Y-14812809D01*
X16804429Y-14803286D01*
X16852048Y-14803286D01*
X16871095Y-14793762D01*
X16937762Y-14746143D02*
X17013952Y-14746143D01*
X16966333Y-14679476D02*
X16966333Y-14850905D01*
X16975857Y-14869952D01*
X16994905Y-14879476D01*
X17013952Y-14879476D01*
X17156810Y-14869952D02*
X17137762Y-14879476D01*
X17099667Y-14879476D01*
X17080619Y-14869952D01*
X17071095Y-14850905D01*
X17071095Y-14774714D01*
X17080619Y-14755667D01*
X17099667Y-14746143D01*
X17137762Y-14746143D01*
X17156810Y-14755667D01*
X17166333Y-14774714D01*
X17166333Y-14793762D01*
X17071095Y-14812809D01*
X17337762Y-14879476D02*
X17337762Y-14679476D01*
X17337762Y-14869952D02*
X17318714Y-14879476D01*
X17280619Y-14879476D01*
X17261571Y-14869952D01*
X17252048Y-14860428D01*
X17242524Y-14841381D01*
X17242524Y-14784238D01*
X17252048Y-14765190D01*
X17261571Y-14755667D01*
X17280619Y-14746143D01*
X17318714Y-14746143D01*
X17337762Y-14755667D01*
X17413952Y-14955667D02*
X17423476Y-14946143D01*
X17442524Y-14917571D01*
X17452048Y-14898524D01*
X17461571Y-14869952D01*
X17471095Y-14822333D01*
X17471095Y-14784238D01*
X17461571Y-14736619D01*
X17452048Y-14708048D01*
X17442524Y-14689000D01*
X17423476Y-14660428D01*
X17413952Y-14650905D01*
X10823000Y-15109000D02*
G75*
G03*
X10823000Y-15109000I-100000J0D01*
G01*
X11061571Y-14999476D02*
X11185381Y-14999476D01*
X11118714Y-15075667D01*
X11147286Y-15075667D01*
X11166333Y-15085190D01*
X11175857Y-15094714D01*
X11185381Y-15113762D01*
X11185381Y-15161381D01*
X11175857Y-15180428D01*
X11166333Y-15189952D01*
X11147286Y-15199476D01*
X11090143Y-15199476D01*
X11071095Y-15189952D01*
X11061571Y-15180428D01*
X11271095Y-15180428D02*
X11280619Y-15189952D01*
X11271095Y-15199476D01*
X11261571Y-15189952D01*
X11271095Y-15180428D01*
X11271095Y-15199476D01*
X11452048Y-15066143D02*
X11452048Y-15199476D01*
X11404428Y-14989952D02*
X11356809Y-15132809D01*
X11480619Y-15132809D01*
X11652048Y-14999476D02*
X11556809Y-14999476D01*
X11547286Y-15094714D01*
X11556809Y-15085190D01*
X11575857Y-15075667D01*
X11623476Y-15075667D01*
X11642524Y-15085190D01*
X11652048Y-15094714D01*
X11661571Y-15113762D01*
X11661571Y-15161381D01*
X11652048Y-15180428D01*
X11642524Y-15189952D01*
X11623476Y-15199476D01*
X11575857Y-15199476D01*
X11556809Y-15189952D01*
X11547286Y-15180428D01*
X11785381Y-14999476D02*
X11804428Y-14999476D01*
X11823476Y-15009000D01*
X11833000Y-15018524D01*
X11842524Y-15037571D01*
X11852048Y-15075667D01*
X11852048Y-15123286D01*
X11842524Y-15161381D01*
X11833000Y-15180428D01*
X11823476Y-15189952D01*
X11804428Y-15199476D01*
X11785381Y-15199476D01*
X11766333Y-15189952D01*
X11756809Y-15180428D01*
X11747286Y-15161381D01*
X11737762Y-15123286D01*
X11737762Y-15075667D01*
X11747286Y-15037571D01*
X11756809Y-15018524D01*
X11766333Y-15009000D01*
X11785381Y-14999476D01*
X11937762Y-15199476D02*
X11937762Y-15066143D01*
X11937762Y-15085190D02*
X11947286Y-15075667D01*
X11966333Y-15066143D01*
X11994905Y-15066143D01*
X12013952Y-15075667D01*
X12023476Y-15094714D01*
X12023476Y-15199476D01*
X12023476Y-15094714D02*
X12033000Y-15075667D01*
X12052048Y-15066143D01*
X12080619Y-15066143D01*
X12099667Y-15075667D01*
X12109190Y-15094714D01*
X12109190Y-15199476D01*
X12204428Y-15199476D02*
X12204428Y-15066143D01*
X12204428Y-15085190D02*
X12213952Y-15075667D01*
X12233000Y-15066143D01*
X12261571Y-15066143D01*
X12280619Y-15075667D01*
X12290143Y-15094714D01*
X12290143Y-15199476D01*
X12290143Y-15094714D02*
X12299667Y-15075667D01*
X12318714Y-15066143D01*
X12347286Y-15066143D01*
X12366333Y-15075667D01*
X12375857Y-15094714D01*
X12375857Y-15199476D01*
X12766333Y-14989952D02*
X12594905Y-15247095D01*
X13023476Y-14999476D02*
X13042524Y-14999476D01*
X13061571Y-15009000D01*
X13071095Y-15018524D01*
X13080619Y-15037571D01*
X13090143Y-15075667D01*
X13090143Y-15123286D01*
X13080619Y-15161381D01*
X13071095Y-15180428D01*
X13061571Y-15189952D01*
X13042524Y-15199476D01*
X13023476Y-15199476D01*
X13004428Y-15189952D01*
X12994905Y-15180428D01*
X12985381Y-15161381D01*
X12975857Y-15123286D01*
X12975857Y-15075667D01*
X12985381Y-15037571D01*
X12994905Y-15018524D01*
X13004428Y-15009000D01*
X13023476Y-14999476D01*
X13175857Y-15180428D02*
X13185381Y-15189952D01*
X13175857Y-15199476D01*
X13166333Y-15189952D01*
X13175857Y-15180428D01*
X13175857Y-15199476D01*
X13375857Y-15199476D02*
X13261571Y-15199476D01*
X13318714Y-15199476D02*
X13318714Y-14999476D01*
X13299667Y-15028048D01*
X13280619Y-15047095D01*
X13261571Y-15056619D01*
X13442524Y-14999476D02*
X13566333Y-14999476D01*
X13499667Y-15075667D01*
X13528238Y-15075667D01*
X13547286Y-15085190D01*
X13556809Y-15094714D01*
X13566333Y-15113762D01*
X13566333Y-15161381D01*
X13556809Y-15180428D01*
X13547286Y-15189952D01*
X13528238Y-15199476D01*
X13471095Y-15199476D01*
X13452048Y-15189952D01*
X13442524Y-15180428D01*
X13747286Y-14999476D02*
X13652048Y-14999476D01*
X13642524Y-15094714D01*
X13652048Y-15085190D01*
X13671095Y-15075667D01*
X13718714Y-15075667D01*
X13737762Y-15085190D01*
X13747286Y-15094714D01*
X13756809Y-15113762D01*
X13756809Y-15161381D01*
X13747286Y-15180428D01*
X13737762Y-15189952D01*
X13718714Y-15199476D01*
X13671095Y-15199476D01*
X13652048Y-15189952D01*
X13642524Y-15180428D01*
X13871095Y-15085190D02*
X13852048Y-15075667D01*
X13842524Y-15066143D01*
X13833000Y-15047095D01*
X13833000Y-15037571D01*
X13842524Y-15018524D01*
X13852048Y-15009000D01*
X13871095Y-14999476D01*
X13909190Y-14999476D01*
X13928238Y-15009000D01*
X13937762Y-15018524D01*
X13947286Y-15037571D01*
X13947286Y-15047095D01*
X13937762Y-15066143D01*
X13928238Y-15075667D01*
X13909190Y-15085190D01*
X13871095Y-15085190D01*
X13852048Y-15094714D01*
X13842524Y-15104238D01*
X13833000Y-15123286D01*
X13833000Y-15161381D01*
X13842524Y-15180428D01*
X13852048Y-15189952D01*
X13871095Y-15199476D01*
X13909190Y-15199476D01*
X13928238Y-15189952D01*
X13937762Y-15180428D01*
X13947286Y-15161381D01*
X13947286Y-15123286D01*
X13937762Y-15104238D01*
X13928238Y-15094714D01*
X13909190Y-15085190D01*
X14023476Y-14999476D02*
X14023476Y-15037571D01*
X14099667Y-14999476D02*
X14099667Y-15037571D01*
X14394905Y-15275667D02*
X14385381Y-15266143D01*
X14366333Y-15237571D01*
X14356809Y-15218524D01*
X14347286Y-15189952D01*
X14337762Y-15142333D01*
X14337762Y-15104238D01*
X14347286Y-15056619D01*
X14356809Y-15028048D01*
X14366333Y-15009000D01*
X14385381Y-14980428D01*
X14394905Y-14970905D01*
X14461571Y-15018524D02*
X14471095Y-15009000D01*
X14490143Y-14999476D01*
X14537762Y-14999476D01*
X14556809Y-15009000D01*
X14566333Y-15018524D01*
X14575857Y-15037571D01*
X14575857Y-15056619D01*
X14566333Y-15085190D01*
X14452048Y-15199476D01*
X14575857Y-15199476D01*
X14813952Y-15199476D02*
X14813952Y-14999476D01*
X14899667Y-15199476D02*
X14899667Y-15094714D01*
X14890143Y-15075667D01*
X14871095Y-15066143D01*
X14842524Y-15066143D01*
X14823476Y-15075667D01*
X14813952Y-15085190D01*
X15023476Y-15199476D02*
X15004428Y-15189952D01*
X14994905Y-15180428D01*
X14985381Y-15161381D01*
X14985381Y-15104238D01*
X14994905Y-15085190D01*
X15004428Y-15075667D01*
X15023476Y-15066143D01*
X15052048Y-15066143D01*
X15071095Y-15075667D01*
X15080619Y-15085190D01*
X15090143Y-15104238D01*
X15090143Y-15161381D01*
X15080619Y-15180428D01*
X15071095Y-15189952D01*
X15052048Y-15199476D01*
X15023476Y-15199476D01*
X15204428Y-15199476D02*
X15185381Y-15189952D01*
X15175857Y-15170905D01*
X15175857Y-14999476D01*
X15356809Y-15189952D02*
X15337762Y-15199476D01*
X15299667Y-15199476D01*
X15280619Y-15189952D01*
X15271095Y-15170905D01*
X15271095Y-15094714D01*
X15280619Y-15075667D01*
X15299667Y-15066143D01*
X15337762Y-15066143D01*
X15356809Y-15075667D01*
X15366333Y-15094714D01*
X15366333Y-15113762D01*
X15271095Y-15132809D01*
X15442524Y-15189952D02*
X15461571Y-15199476D01*
X15499667Y-15199476D01*
X15518714Y-15189952D01*
X15528238Y-15170905D01*
X15528238Y-15161381D01*
X15518714Y-15142333D01*
X15499667Y-15132809D01*
X15471095Y-15132809D01*
X15452048Y-15123286D01*
X15442524Y-15104238D01*
X15442524Y-15094714D01*
X15452048Y-15075667D01*
X15471095Y-15066143D01*
X15499667Y-15066143D01*
X15518714Y-15075667D01*
X15594905Y-15275667D02*
X15604428Y-15266143D01*
X15623476Y-15237571D01*
X15633000Y-15218524D01*
X15642524Y-15189952D01*
X15652048Y-15142333D01*
X15652048Y-15104238D01*
X15642524Y-15056619D01*
X15633000Y-15028048D01*
X15623476Y-15009000D01*
X15604428Y-14980428D01*
X15594905Y-14970905D01*
X15956809Y-15275667D02*
X15947286Y-15266143D01*
X15928238Y-15237571D01*
X15918714Y-15218524D01*
X15909190Y-15189952D01*
X15899667Y-15142333D01*
X15899667Y-15104238D01*
X15909190Y-15056619D01*
X15918714Y-15028048D01*
X15928238Y-15009000D01*
X15947286Y-14980428D01*
X15956809Y-14970905D01*
X16033000Y-15066143D02*
X16033000Y-15199476D01*
X16033000Y-15085190D02*
X16042524Y-15075667D01*
X16061571Y-15066143D01*
X16090143Y-15066143D01*
X16109190Y-15075667D01*
X16118714Y-15094714D01*
X16118714Y-15199476D01*
X16242524Y-15199476D02*
X16223476Y-15189952D01*
X16213952Y-15180428D01*
X16204428Y-15161381D01*
X16204428Y-15104238D01*
X16213952Y-15085190D01*
X16223476Y-15075667D01*
X16242524Y-15066143D01*
X16271095Y-15066143D01*
X16290143Y-15075667D01*
X16299667Y-15085190D01*
X16309190Y-15104238D01*
X16309190Y-15161381D01*
X16299667Y-15180428D01*
X16290143Y-15189952D01*
X16271095Y-15199476D01*
X16242524Y-15199476D01*
X16366333Y-15066143D02*
X16442524Y-15066143D01*
X16394905Y-14999476D02*
X16394905Y-15170905D01*
X16404428Y-15189952D01*
X16423476Y-15199476D01*
X16442524Y-15199476D01*
X16661571Y-15066143D02*
X16661571Y-15266143D01*
X16661571Y-15075667D02*
X16680619Y-15066143D01*
X16718714Y-15066143D01*
X16737762Y-15075667D01*
X16747286Y-15085190D01*
X16756809Y-15104238D01*
X16756809Y-15161381D01*
X16747286Y-15180428D01*
X16737762Y-15189952D01*
X16718714Y-15199476D01*
X16680619Y-15199476D01*
X16661571Y-15189952D01*
X16871095Y-15199476D02*
X16852048Y-15189952D01*
X16842524Y-15170905D01*
X16842524Y-14999476D01*
X17033000Y-15199476D02*
X17033000Y-15094714D01*
X17023476Y-15075667D01*
X17004429Y-15066143D01*
X16966333Y-15066143D01*
X16947286Y-15075667D01*
X17033000Y-15189952D02*
X17013952Y-15199476D01*
X16966333Y-15199476D01*
X16947286Y-15189952D01*
X16937762Y-15170905D01*
X16937762Y-15151857D01*
X16947286Y-15132809D01*
X16966333Y-15123286D01*
X17013952Y-15123286D01*
X17033000Y-15113762D01*
X17099667Y-15066143D02*
X17175857Y-15066143D01*
X17128238Y-14999476D02*
X17128238Y-15170905D01*
X17137762Y-15189952D01*
X17156810Y-15199476D01*
X17175857Y-15199476D01*
X17318714Y-15189952D02*
X17299667Y-15199476D01*
X17261571Y-15199476D01*
X17242524Y-15189952D01*
X17233000Y-15170905D01*
X17233000Y-15094714D01*
X17242524Y-15075667D01*
X17261571Y-15066143D01*
X17299667Y-15066143D01*
X17318714Y-15075667D01*
X17328238Y-15094714D01*
X17328238Y-15113762D01*
X17233000Y-15132809D01*
X17499667Y-15199476D02*
X17499667Y-14999476D01*
X17499667Y-15189952D02*
X17480619Y-15199476D01*
X17442524Y-15199476D01*
X17423476Y-15189952D01*
X17413952Y-15180428D01*
X17404429Y-15161381D01*
X17404429Y-15104238D01*
X17413952Y-15085190D01*
X17423476Y-15075667D01*
X17442524Y-15066143D01*
X17480619Y-15066143D01*
X17499667Y-15075667D01*
X17575857Y-15275667D02*
X17585381Y-15266143D01*
X17604429Y-15237571D01*
X17613952Y-15218524D01*
X17623476Y-15189952D01*
X17633000Y-15142333D01*
X17633000Y-15104238D01*
X17623476Y-15056619D01*
X17613952Y-15028048D01*
X17604429Y-15009000D01*
X17585381Y-14980428D01*
X17575857Y-14970905D01*
M02*
