%FSLAX45Y45*%
G04 Gerber Fmt 4.5, Leading zero omitted, Abs format (unit mm)*
G04 Created by KiCad (PCBNEW (6.0.2)) date 2022-04-12 17:31:43*
%MOMM*%
%LPD*%
G01*
G04 APERTURE LIST*
%TA.AperFunction,Profile*%
%ADD10C,0.100000*%
%TD*%
%ADD11C,0.200000*%
%ADD12C,0.040000*%
%ADD13C,0.065000*%
%ADD14C,0.070000*%
%ADD15C,0.075000*%
%ADD16C,0.099000*%
%ADD17C,0.100000*%
G04 APERTURE END LIST*
D10*
X10828000Y-4144000D02*
X20828000Y-4144000D01*
X20828000Y-4144000D02*
X20828000Y-14144000D01*
X20828000Y-14144000D02*
X10828000Y-14144000D01*
X10828000Y-14144000D02*
X10828000Y-4144000D01*
D11*
D12*
X11410000Y-8616000D02*
X11450000Y-8656000D01*
X11450000Y-8616000D02*
X11410000Y-8656000D01*
X11664000Y-8362000D02*
X11704000Y-8402000D01*
X11704000Y-8362000D02*
X11664000Y-8402000D01*
X11918000Y-12172000D02*
X11958000Y-12212000D01*
X11958000Y-12172000D02*
X11918000Y-12212000D01*
X12172000Y-8362000D02*
X12212000Y-8402000D01*
X12212000Y-8362000D02*
X12172000Y-8402000D01*
X12172000Y-8870000D02*
X12212000Y-8910000D01*
X12212000Y-8870000D02*
X12172000Y-8910000D01*
X12519000Y-8752000D02*
X12559000Y-8792000D01*
X12559000Y-8752000D02*
X12519000Y-8792000D01*
X12934000Y-7092000D02*
X12974000Y-7132000D01*
X12974000Y-7092000D02*
X12934000Y-7132000D01*
X12934000Y-9378000D02*
X12974000Y-9418000D01*
X12974000Y-9378000D02*
X12934000Y-9418000D01*
X13188000Y-6330000D02*
X13228000Y-6370000D01*
X13228000Y-6330000D02*
X13188000Y-6370000D01*
X13188000Y-8362000D02*
X13228000Y-8402000D01*
X13228000Y-8362000D02*
X13188000Y-8402000D01*
X13188000Y-9378000D02*
X13228000Y-9418000D01*
X13228000Y-9378000D02*
X13188000Y-9418000D01*
X13442000Y-7346000D02*
X13482000Y-7386000D01*
X13482000Y-7346000D02*
X13442000Y-7386000D01*
X13442000Y-8616000D02*
X13482000Y-8656000D01*
X13482000Y-8616000D02*
X13442000Y-8656000D01*
X13442000Y-8870000D02*
X13482000Y-8910000D01*
X13482000Y-8870000D02*
X13442000Y-8910000D01*
X13442000Y-9378000D02*
X13482000Y-9418000D01*
X13482000Y-9378000D02*
X13442000Y-9418000D01*
X13696000Y-6330000D02*
X13736000Y-6370000D01*
X13736000Y-6330000D02*
X13696000Y-6370000D01*
X13696000Y-7092000D02*
X13736000Y-7132000D01*
X13736000Y-7092000D02*
X13696000Y-7132000D01*
X13696000Y-9378000D02*
X13736000Y-9418000D01*
X13736000Y-9378000D02*
X13696000Y-9418000D01*
X13696000Y-9886000D02*
X13736000Y-9926000D01*
X13736000Y-9886000D02*
X13696000Y-9926000D01*
X13950000Y-7854000D02*
X13990000Y-7894000D01*
X13990000Y-7854000D02*
X13950000Y-7894000D01*
X13950000Y-8870000D02*
X13990000Y-8910000D01*
X13990000Y-8870000D02*
X13950000Y-8910000D01*
X13950000Y-9632000D02*
X13990000Y-9672000D01*
X13990000Y-9632000D02*
X13950000Y-9672000D01*
X13950000Y-9886000D02*
X13990000Y-9926000D01*
X13990000Y-9886000D02*
X13950000Y-9926000D01*
X14204000Y-6857998D02*
X14244000Y-6897998D01*
X14244000Y-6857998D02*
X14204000Y-6897998D01*
X14204000Y-8616000D02*
X14244000Y-8656000D01*
X14244000Y-8616000D02*
X14204000Y-8656000D01*
X14458000Y-7600000D02*
X14498000Y-7640000D01*
X14498000Y-7600000D02*
X14458000Y-7640000D01*
X14458000Y-8870000D02*
X14498000Y-8910000D01*
X14498000Y-8870000D02*
X14458000Y-8910000D01*
X14966000Y-9124000D02*
X15006000Y-9164000D01*
X15006000Y-9124000D02*
X14966000Y-9164000D01*
X15220000Y-7346000D02*
X15260000Y-7386000D01*
X15260000Y-7346000D02*
X15220000Y-7386000D01*
X15220000Y-7854000D02*
X15260000Y-7894000D01*
X15260000Y-7854000D02*
X15220000Y-7894000D01*
X15220000Y-8362000D02*
X15260000Y-8402000D01*
X15260000Y-8362000D02*
X15220000Y-8402000D01*
X15442000Y-6806000D02*
X15482000Y-6846000D01*
X15482000Y-6806000D02*
X15442000Y-6846000D01*
X15474000Y-7854000D02*
X15514000Y-7894000D01*
X15514000Y-7854000D02*
X15474000Y-7894000D01*
X15728000Y-7164450D02*
X15768000Y-7204450D01*
X15768000Y-7164450D02*
X15728000Y-7204450D01*
X15728000Y-8108000D02*
X15768000Y-8148000D01*
X15768000Y-8108000D02*
X15728000Y-8148000D01*
X15728000Y-9378000D02*
X15768000Y-9418000D01*
X15768000Y-9378000D02*
X15728000Y-9418000D01*
X15728000Y-9632000D02*
X15768000Y-9672000D01*
X15768000Y-9632000D02*
X15728000Y-9672000D01*
X15982000Y-9124000D02*
X16022000Y-9164000D01*
X16022000Y-9124000D02*
X15982000Y-9164000D01*
X16490000Y-6584000D02*
X16530000Y-6624000D01*
X16530000Y-6584000D02*
X16490000Y-6624000D01*
X16744000Y-6584000D02*
X16784000Y-6624000D01*
X16784000Y-6584000D02*
X16744000Y-6624000D01*
X16998000Y-7854000D02*
X17038000Y-7894000D01*
X17038000Y-7854000D02*
X16998000Y-7894000D01*
X16998000Y-9378000D02*
X17038000Y-9418000D01*
X17038000Y-9378000D02*
X16998000Y-9418000D01*
X16998000Y-9886000D02*
X17038000Y-9926000D01*
X17038000Y-9886000D02*
X16998000Y-9926000D01*
X17252000Y-8909301D02*
X17292000Y-8949301D01*
X17292000Y-8909301D02*
X17252000Y-8949301D01*
X17506000Y-7346000D02*
X17546000Y-7386000D01*
X17546000Y-7346000D02*
X17506000Y-7386000D01*
X17506000Y-9124000D02*
X17546000Y-9164000D01*
X17546000Y-9124000D02*
X17506000Y-9164000D01*
X17506000Y-9378000D02*
X17546000Y-9418000D01*
X17546000Y-9378000D02*
X17506000Y-9418000D01*
X17760000Y-7346000D02*
X17800000Y-7386000D01*
X17800000Y-7346000D02*
X17760000Y-7386000D01*
X17760000Y-8616000D02*
X17800000Y-8656000D01*
X17800000Y-8616000D02*
X17760000Y-8656000D01*
X18014000Y-7600000D02*
X18054000Y-7640000D01*
X18054000Y-7600000D02*
X18014000Y-7640000D01*
X18014000Y-8616000D02*
X18054000Y-8656000D01*
X18054000Y-8616000D02*
X18014000Y-8656000D01*
X18014000Y-8870000D02*
X18054000Y-8910000D01*
X18054000Y-8870000D02*
X18014000Y-8910000D01*
X18522000Y-7346000D02*
X18562000Y-7386000D01*
X18562000Y-7346000D02*
X18522000Y-7386000D01*
X18522000Y-8616000D02*
X18562000Y-8656000D01*
X18562000Y-8616000D02*
X18522000Y-8656000D01*
X19030000Y-7346000D02*
X19070000Y-7386000D01*
X19070000Y-7346000D02*
X19030000Y-7386000D01*
X19030000Y-7600000D02*
X19070000Y-7640000D01*
X19070000Y-7600000D02*
X19030000Y-7640000D01*
X19030000Y-7854000D02*
X19070000Y-7894000D01*
X19070000Y-7854000D02*
X19030000Y-7894000D01*
X19284000Y-7854000D02*
X19324000Y-7894000D01*
X19324000Y-7854000D02*
X19284000Y-7894000D01*
X19538000Y-7092000D02*
X19578000Y-7132000D01*
X19578000Y-7092000D02*
X19538000Y-7132000D01*
D13*
X11450500Y-8899500D02*
G75*
G03*
X11450500Y-8899500I-32500J0D01*
G01*
D11*
X11438000Y-8877000D02*
X11398000Y-8877000D01*
X11438000Y-8922000D02*
X11398000Y-8922000D01*
X11398000Y-8877000D02*
G75*
G03*
X11398000Y-8922000I0J-22500D01*
G01*
X11438000Y-8922000D02*
G75*
G03*
X11438000Y-8877000I0J22500D01*
G01*
D13*
X11450500Y-9383500D02*
G75*
G03*
X11450500Y-9383500I-32500J0D01*
G01*
D11*
X11438000Y-9361000D02*
X11398000Y-9361000D01*
X11438000Y-9406000D02*
X11398000Y-9406000D01*
X11398000Y-9361000D02*
G75*
G03*
X11398000Y-9406000I0J-22500D01*
G01*
X11438000Y-9406000D02*
G75*
G03*
X11438000Y-9361000I0J22500D01*
G01*
D14*
X11718000Y-8833500D02*
X11718000Y-8903500D01*
X11683000Y-8868500D02*
X11753000Y-8868500D01*
D11*
X11743000Y-8843500D02*
X11693000Y-8843500D01*
X11743000Y-8893500D02*
X11693000Y-8893500D01*
X11693000Y-8843500D02*
G75*
G03*
X11693000Y-8893500I0J-25000D01*
G01*
X11743000Y-8893500D02*
G75*
G03*
X11743000Y-8843500I0J25000D01*
G01*
D14*
X11718000Y-9379500D02*
X11718000Y-9449500D01*
X11683000Y-9414500D02*
X11753000Y-9414500D01*
D11*
X11743000Y-9389500D02*
X11693000Y-9389500D01*
X11743000Y-9439500D02*
X11693000Y-9439500D01*
X11693000Y-9389500D02*
G75*
G03*
X11693000Y-9439500I0J-25000D01*
G01*
X11743000Y-9439500D02*
G75*
G03*
X11743000Y-9389500I0J25000D01*
G01*
D15*
X17933517Y-9297517D02*
X17933517Y-9244483D01*
X17880483Y-9244483D01*
X17880483Y-9297517D01*
X17933517Y-9297517D01*
X18060517Y-9170517D02*
X18060517Y-9117483D01*
X18007483Y-9117483D01*
X18007483Y-9170517D01*
X18060517Y-9170517D01*
X18060517Y-9424517D02*
X18060517Y-9371483D01*
X18007483Y-9371483D01*
X18007483Y-9424517D01*
X18060517Y-9424517D01*
D16*
X15931000Y-7587000D02*
X15980500Y-7537500D01*
X15931000Y-7488000D01*
X15881500Y-7537500D01*
X15931000Y-7587000D01*
X15931000Y-8037000D02*
X15980500Y-7987500D01*
X15931000Y-7938000D01*
X15881500Y-7987500D01*
X15931000Y-8037000D01*
X15931000Y-8349000D02*
X15980500Y-8299500D01*
X15931000Y-8250000D01*
X15881500Y-8299500D01*
X15931000Y-8349000D01*
X15931000Y-8799000D02*
X15980500Y-8749500D01*
X15931000Y-8700000D01*
X15881500Y-8749500D01*
X15931000Y-8799000D01*
X16581000Y-7587000D02*
X16630500Y-7537500D01*
X16581000Y-7488000D01*
X16531500Y-7537500D01*
X16581000Y-7587000D01*
X16581000Y-8037000D02*
X16630500Y-7987500D01*
X16581000Y-7938000D01*
X16531500Y-7987500D01*
X16581000Y-8037000D01*
X16581000Y-8349000D02*
X16630500Y-8299500D01*
X16581000Y-8250000D01*
X16531500Y-8299500D01*
X16581000Y-8349000D01*
X16581000Y-8799000D02*
X16630500Y-8749500D01*
X16581000Y-8700000D01*
X16531500Y-8749500D01*
X16581000Y-8799000D01*
D17*
X11888000Y-5030000D02*
X11988000Y-5130000D01*
X11988000Y-5030000D02*
X11888000Y-5130000D01*
X11988000Y-5080000D02*
G75*
G03*
X11988000Y-5080000I-50000J0D01*
G01*
X11888000Y-6046000D02*
X11988000Y-6146000D01*
X11988000Y-6046000D02*
X11888000Y-6146000D01*
X11988000Y-6096000D02*
G75*
G03*
X11988000Y-6096000I-50000J0D01*
G01*
X11888000Y-10110000D02*
X11988000Y-10210000D01*
X11988000Y-10110000D02*
X11888000Y-10210000D01*
X11988000Y-10160000D02*
G75*
G03*
X11988000Y-10160000I-50000J0D01*
G01*
X11888000Y-11126000D02*
X11988000Y-11226000D01*
X11988000Y-11126000D02*
X11888000Y-11226000D01*
X11988000Y-11176000D02*
G75*
G03*
X11988000Y-11176000I-50000J0D01*
G01*
X12142000Y-5030000D02*
X12242000Y-5130000D01*
X12242000Y-5030000D02*
X12142000Y-5130000D01*
X12242000Y-5080000D02*
G75*
G03*
X12242000Y-5080000I-50000J0D01*
G01*
X12142000Y-6046000D02*
X12242000Y-6146000D01*
X12242000Y-6046000D02*
X12142000Y-6146000D01*
X12242000Y-6096000D02*
G75*
G03*
X12242000Y-6096000I-50000J0D01*
G01*
X12142000Y-10110000D02*
X12242000Y-10210000D01*
X12242000Y-10110000D02*
X12142000Y-10210000D01*
X12242000Y-10160000D02*
G75*
G03*
X12242000Y-10160000I-50000J0D01*
G01*
X12142000Y-11126000D02*
X12242000Y-11226000D01*
X12242000Y-11126000D02*
X12142000Y-11226000D01*
X12242000Y-11176000D02*
G75*
G03*
X12242000Y-11176000I-50000J0D01*
G01*
X12396000Y-5030000D02*
X12496000Y-5130000D01*
X12496000Y-5030000D02*
X12396000Y-5130000D01*
X12496000Y-5080000D02*
G75*
G03*
X12496000Y-5080000I-50000J0D01*
G01*
X12396000Y-6046000D02*
X12496000Y-6146000D01*
X12496000Y-6046000D02*
X12396000Y-6146000D01*
X12496000Y-6096000D02*
G75*
G03*
X12496000Y-6096000I-50000J0D01*
G01*
X12396000Y-10110000D02*
X12496000Y-10210000D01*
X12496000Y-10110000D02*
X12396000Y-10210000D01*
X12496000Y-10160000D02*
G75*
G03*
X12496000Y-10160000I-50000J0D01*
G01*
X12396000Y-11126000D02*
X12496000Y-11226000D01*
X12496000Y-11126000D02*
X12396000Y-11226000D01*
X12496000Y-11176000D02*
G75*
G03*
X12496000Y-11176000I-50000J0D01*
G01*
X12650000Y-5030000D02*
X12750000Y-5130000D01*
X12750000Y-5030000D02*
X12650000Y-5130000D01*
X12750000Y-5080000D02*
G75*
G03*
X12750000Y-5080000I-50000J0D01*
G01*
X12650000Y-6046000D02*
X12750000Y-6146000D01*
X12750000Y-6046000D02*
X12650000Y-6146000D01*
X12750000Y-6096000D02*
G75*
G03*
X12750000Y-6096000I-50000J0D01*
G01*
X12650000Y-10110000D02*
X12750000Y-10210000D01*
X12750000Y-10110000D02*
X12650000Y-10210000D01*
X12750000Y-10160000D02*
G75*
G03*
X12750000Y-10160000I-50000J0D01*
G01*
X12650000Y-11126000D02*
X12750000Y-11226000D01*
X12750000Y-11126000D02*
X12650000Y-11226000D01*
X12750000Y-11176000D02*
G75*
G03*
X12750000Y-11176000I-50000J0D01*
G01*
X12904000Y-5030000D02*
X13004000Y-5130000D01*
X13004000Y-5030000D02*
X12904000Y-5130000D01*
X13004000Y-5080000D02*
G75*
G03*
X13004000Y-5080000I-50000J0D01*
G01*
X12904000Y-6046000D02*
X13004000Y-6146000D01*
X13004000Y-6046000D02*
X12904000Y-6146000D01*
X13004000Y-6096000D02*
G75*
G03*
X13004000Y-6096000I-50000J0D01*
G01*
X12904000Y-10110000D02*
X13004000Y-10210000D01*
X13004000Y-10110000D02*
X12904000Y-10210000D01*
X13004000Y-10160000D02*
G75*
G03*
X13004000Y-10160000I-50000J0D01*
G01*
X12904000Y-11126000D02*
X13004000Y-11226000D01*
X13004000Y-11126000D02*
X12904000Y-11226000D01*
X13004000Y-11176000D02*
G75*
G03*
X13004000Y-11176000I-50000J0D01*
G01*
X13158000Y-5030000D02*
X13258000Y-5130000D01*
X13258000Y-5030000D02*
X13158000Y-5130000D01*
X13258000Y-5080000D02*
G75*
G03*
X13258000Y-5080000I-50000J0D01*
G01*
X13158000Y-6046000D02*
X13258000Y-6146000D01*
X13258000Y-6046000D02*
X13158000Y-6146000D01*
X13258000Y-6096000D02*
G75*
G03*
X13258000Y-6096000I-50000J0D01*
G01*
X13158000Y-10110000D02*
X13258000Y-10210000D01*
X13258000Y-10110000D02*
X13158000Y-10210000D01*
X13258000Y-10160000D02*
G75*
G03*
X13258000Y-10160000I-50000J0D01*
G01*
X13158000Y-11126000D02*
X13258000Y-11226000D01*
X13258000Y-11126000D02*
X13158000Y-11226000D01*
X13258000Y-11176000D02*
G75*
G03*
X13258000Y-11176000I-50000J0D01*
G01*
X13412000Y-5030000D02*
X13512000Y-5130000D01*
X13512000Y-5030000D02*
X13412000Y-5130000D01*
X13512000Y-5080000D02*
G75*
G03*
X13512000Y-5080000I-50000J0D01*
G01*
X13412000Y-6046000D02*
X13512000Y-6146000D01*
X13512000Y-6046000D02*
X13412000Y-6146000D01*
X13512000Y-6096000D02*
G75*
G03*
X13512000Y-6096000I-50000J0D01*
G01*
X13412000Y-10110000D02*
X13512000Y-10210000D01*
X13512000Y-10110000D02*
X13412000Y-10210000D01*
X13512000Y-10160000D02*
G75*
G03*
X13512000Y-10160000I-50000J0D01*
G01*
X13412000Y-11126000D02*
X13512000Y-11226000D01*
X13512000Y-11126000D02*
X13412000Y-11226000D01*
X13512000Y-11176000D02*
G75*
G03*
X13512000Y-11176000I-50000J0D01*
G01*
X13666000Y-5030000D02*
X13766000Y-5130000D01*
X13766000Y-5030000D02*
X13666000Y-5130000D01*
X13766000Y-5080000D02*
G75*
G03*
X13766000Y-5080000I-50000J0D01*
G01*
X13666000Y-6046000D02*
X13766000Y-6146000D01*
X13766000Y-6046000D02*
X13666000Y-6146000D01*
X13766000Y-6096000D02*
G75*
G03*
X13766000Y-6096000I-50000J0D01*
G01*
X13666000Y-10110000D02*
X13766000Y-10210000D01*
X13766000Y-10110000D02*
X13666000Y-10210000D01*
X13766000Y-10160000D02*
G75*
G03*
X13766000Y-10160000I-50000J0D01*
G01*
X13666000Y-11126000D02*
X13766000Y-11226000D01*
X13766000Y-11126000D02*
X13666000Y-11226000D01*
X13766000Y-11176000D02*
G75*
G03*
X13766000Y-11176000I-50000J0D01*
G01*
X13920000Y-5030000D02*
X14020000Y-5130000D01*
X14020000Y-5030000D02*
X13920000Y-5130000D01*
X14020000Y-5080000D02*
G75*
G03*
X14020000Y-5080000I-50000J0D01*
G01*
X13920000Y-6046000D02*
X14020000Y-6146000D01*
X14020000Y-6046000D02*
X13920000Y-6146000D01*
X14020000Y-6096000D02*
G75*
G03*
X14020000Y-6096000I-50000J0D01*
G01*
X13920000Y-10110000D02*
X14020000Y-10210000D01*
X14020000Y-10110000D02*
X13920000Y-10210000D01*
X14020000Y-10160000D02*
G75*
G03*
X14020000Y-10160000I-50000J0D01*
G01*
X13920000Y-11126000D02*
X14020000Y-11226000D01*
X14020000Y-11126000D02*
X13920000Y-11226000D01*
X14020000Y-11176000D02*
G75*
G03*
X14020000Y-11176000I-50000J0D01*
G01*
X14174000Y-5030000D02*
X14274000Y-5130000D01*
X14274000Y-5030000D02*
X14174000Y-5130000D01*
X14274000Y-5080000D02*
G75*
G03*
X14274000Y-5080000I-50000J0D01*
G01*
X14174000Y-6046000D02*
X14274000Y-6146000D01*
X14274000Y-6046000D02*
X14174000Y-6146000D01*
X14274000Y-6096000D02*
G75*
G03*
X14274000Y-6096000I-50000J0D01*
G01*
X14174000Y-10110000D02*
X14274000Y-10210000D01*
X14274000Y-10110000D02*
X14174000Y-10210000D01*
X14274000Y-10160000D02*
G75*
G03*
X14274000Y-10160000I-50000J0D01*
G01*
X14174000Y-11126000D02*
X14274000Y-11226000D01*
X14274000Y-11126000D02*
X14174000Y-11226000D01*
X14274000Y-11176000D02*
G75*
G03*
X14274000Y-11176000I-50000J0D01*
G01*
X14428000Y-5030000D02*
X14528000Y-5130000D01*
X14528000Y-5030000D02*
X14428000Y-5130000D01*
X14528000Y-5080000D02*
G75*
G03*
X14528000Y-5080000I-50000J0D01*
G01*
X14428000Y-6046000D02*
X14528000Y-6146000D01*
X14528000Y-6046000D02*
X14428000Y-6146000D01*
X14528000Y-6096000D02*
G75*
G03*
X14528000Y-6096000I-50000J0D01*
G01*
X14428000Y-10110000D02*
X14528000Y-10210000D01*
X14528000Y-10110000D02*
X14428000Y-10210000D01*
X14528000Y-10160000D02*
G75*
G03*
X14528000Y-10160000I-50000J0D01*
G01*
X14428000Y-11126000D02*
X14528000Y-11226000D01*
X14528000Y-11126000D02*
X14428000Y-11226000D01*
X14528000Y-11176000D02*
G75*
G03*
X14528000Y-11176000I-50000J0D01*
G01*
X14682000Y-5030000D02*
X14782000Y-5130000D01*
X14782000Y-5030000D02*
X14682000Y-5130000D01*
X14782000Y-5080000D02*
G75*
G03*
X14782000Y-5080000I-50000J0D01*
G01*
X14682000Y-6046000D02*
X14782000Y-6146000D01*
X14782000Y-6046000D02*
X14682000Y-6146000D01*
X14782000Y-6096000D02*
G75*
G03*
X14782000Y-6096000I-50000J0D01*
G01*
X14682000Y-10110000D02*
X14782000Y-10210000D01*
X14782000Y-10110000D02*
X14682000Y-10210000D01*
X14782000Y-10160000D02*
G75*
G03*
X14782000Y-10160000I-50000J0D01*
G01*
X14682000Y-11126000D02*
X14782000Y-11226000D01*
X14782000Y-11126000D02*
X14682000Y-11226000D01*
X14782000Y-11176000D02*
G75*
G03*
X14782000Y-11176000I-50000J0D01*
G01*
X14936000Y-5030000D02*
X15036000Y-5130000D01*
X15036000Y-5030000D02*
X14936000Y-5130000D01*
X15036000Y-5080000D02*
G75*
G03*
X15036000Y-5080000I-50000J0D01*
G01*
X14936000Y-6046000D02*
X15036000Y-6146000D01*
X15036000Y-6046000D02*
X14936000Y-6146000D01*
X15036000Y-6096000D02*
G75*
G03*
X15036000Y-6096000I-50000J0D01*
G01*
X14936000Y-10110000D02*
X15036000Y-10210000D01*
X15036000Y-10110000D02*
X14936000Y-10210000D01*
X15036000Y-10160000D02*
G75*
G03*
X15036000Y-10160000I-50000J0D01*
G01*
X14936000Y-11126000D02*
X15036000Y-11226000D01*
X15036000Y-11126000D02*
X14936000Y-11226000D01*
X15036000Y-11176000D02*
G75*
G03*
X15036000Y-11176000I-50000J0D01*
G01*
X15190000Y-5030000D02*
X15290000Y-5130000D01*
X15290000Y-5030000D02*
X15190000Y-5130000D01*
X15290000Y-5080000D02*
G75*
G03*
X15290000Y-5080000I-50000J0D01*
G01*
X15190000Y-6046000D02*
X15290000Y-6146000D01*
X15290000Y-6046000D02*
X15190000Y-6146000D01*
X15290000Y-6096000D02*
G75*
G03*
X15290000Y-6096000I-50000J0D01*
G01*
X15190000Y-10110000D02*
X15290000Y-10210000D01*
X15290000Y-10110000D02*
X15190000Y-10210000D01*
X15290000Y-10160000D02*
G75*
G03*
X15290000Y-10160000I-50000J0D01*
G01*
X15190000Y-11126000D02*
X15290000Y-11226000D01*
X15290000Y-11126000D02*
X15190000Y-11226000D01*
X15290000Y-11176000D02*
G75*
G03*
X15290000Y-11176000I-50000J0D01*
G01*
X15444000Y-5030000D02*
X15544000Y-5130000D01*
X15544000Y-5030000D02*
X15444000Y-5130000D01*
X15544000Y-5080000D02*
G75*
G03*
X15544000Y-5080000I-50000J0D01*
G01*
X15444000Y-6046000D02*
X15544000Y-6146000D01*
X15544000Y-6046000D02*
X15444000Y-6146000D01*
X15544000Y-6096000D02*
G75*
G03*
X15544000Y-6096000I-50000J0D01*
G01*
X15444000Y-10110000D02*
X15544000Y-10210000D01*
X15544000Y-10110000D02*
X15444000Y-10210000D01*
X15544000Y-10160000D02*
G75*
G03*
X15544000Y-10160000I-50000J0D01*
G01*
X15444000Y-11126000D02*
X15544000Y-11226000D01*
X15544000Y-11126000D02*
X15444000Y-11226000D01*
X15544000Y-11176000D02*
G75*
G03*
X15544000Y-11176000I-50000J0D01*
G01*
X15698000Y-5030000D02*
X15798000Y-5130000D01*
X15798000Y-5030000D02*
X15698000Y-5130000D01*
X15798000Y-5080000D02*
G75*
G03*
X15798000Y-5080000I-50000J0D01*
G01*
X15698000Y-6046000D02*
X15798000Y-6146000D01*
X15798000Y-6046000D02*
X15698000Y-6146000D01*
X15798000Y-6096000D02*
G75*
G03*
X15798000Y-6096000I-50000J0D01*
G01*
X15698000Y-10110000D02*
X15798000Y-10210000D01*
X15798000Y-10110000D02*
X15698000Y-10210000D01*
X15798000Y-10160000D02*
G75*
G03*
X15798000Y-10160000I-50000J0D01*
G01*
X15698000Y-11126000D02*
X15798000Y-11226000D01*
X15798000Y-11126000D02*
X15698000Y-11226000D01*
X15798000Y-11176000D02*
G75*
G03*
X15798000Y-11176000I-50000J0D01*
G01*
X15952000Y-5030000D02*
X16052000Y-5130000D01*
X16052000Y-5030000D02*
X15952000Y-5130000D01*
X16052000Y-5080000D02*
G75*
G03*
X16052000Y-5080000I-50000J0D01*
G01*
X15952000Y-6046000D02*
X16052000Y-6146000D01*
X16052000Y-6046000D02*
X15952000Y-6146000D01*
X16052000Y-6096000D02*
G75*
G03*
X16052000Y-6096000I-50000J0D01*
G01*
X15952000Y-10110000D02*
X16052000Y-10210000D01*
X16052000Y-10110000D02*
X15952000Y-10210000D01*
X16052000Y-10160000D02*
G75*
G03*
X16052000Y-10160000I-50000J0D01*
G01*
X15952000Y-11126000D02*
X16052000Y-11226000D01*
X16052000Y-11126000D02*
X15952000Y-11226000D01*
X16052000Y-11176000D02*
G75*
G03*
X16052000Y-11176000I-50000J0D01*
G01*
X16206000Y-5030000D02*
X16306000Y-5130000D01*
X16306000Y-5030000D02*
X16206000Y-5130000D01*
X16306000Y-5080000D02*
G75*
G03*
X16306000Y-5080000I-50000J0D01*
G01*
X16206000Y-6046000D02*
X16306000Y-6146000D01*
X16306000Y-6046000D02*
X16206000Y-6146000D01*
X16306000Y-6096000D02*
G75*
G03*
X16306000Y-6096000I-50000J0D01*
G01*
X16206000Y-10110000D02*
X16306000Y-10210000D01*
X16306000Y-10110000D02*
X16206000Y-10210000D01*
X16306000Y-10160000D02*
G75*
G03*
X16306000Y-10160000I-50000J0D01*
G01*
X16206000Y-11126000D02*
X16306000Y-11226000D01*
X16306000Y-11126000D02*
X16206000Y-11226000D01*
X16306000Y-11176000D02*
G75*
G03*
X16306000Y-11176000I-50000J0D01*
G01*
X16460000Y-5030000D02*
X16560000Y-5130000D01*
X16560000Y-5030000D02*
X16460000Y-5130000D01*
X16560000Y-5080000D02*
G75*
G03*
X16560000Y-5080000I-50000J0D01*
G01*
X16460000Y-6046000D02*
X16560000Y-6146000D01*
X16560000Y-6046000D02*
X16460000Y-6146000D01*
X16560000Y-6096000D02*
G75*
G03*
X16560000Y-6096000I-50000J0D01*
G01*
X16460000Y-10110000D02*
X16560000Y-10210000D01*
X16560000Y-10110000D02*
X16460000Y-10210000D01*
X16560000Y-10160000D02*
G75*
G03*
X16560000Y-10160000I-50000J0D01*
G01*
X16460000Y-11126000D02*
X16560000Y-11226000D01*
X16560000Y-11126000D02*
X16460000Y-11226000D01*
X16560000Y-11176000D02*
G75*
G03*
X16560000Y-11176000I-50000J0D01*
G01*
X16714000Y-5030000D02*
X16814000Y-5130000D01*
X16814000Y-5030000D02*
X16714000Y-5130000D01*
X16814000Y-5080000D02*
G75*
G03*
X16814000Y-5080000I-50000J0D01*
G01*
X16714000Y-6046000D02*
X16814000Y-6146000D01*
X16814000Y-6046000D02*
X16714000Y-6146000D01*
X16814000Y-6096000D02*
G75*
G03*
X16814000Y-6096000I-50000J0D01*
G01*
X16714000Y-10110000D02*
X16814000Y-10210000D01*
X16814000Y-10110000D02*
X16714000Y-10210000D01*
X16814000Y-10160000D02*
G75*
G03*
X16814000Y-10160000I-50000J0D01*
G01*
X16714000Y-11126000D02*
X16814000Y-11226000D01*
X16814000Y-11126000D02*
X16714000Y-11226000D01*
X16814000Y-11176000D02*
G75*
G03*
X16814000Y-11176000I-50000J0D01*
G01*
X16968000Y-5030000D02*
X17068000Y-5130000D01*
X17068000Y-5030000D02*
X16968000Y-5130000D01*
X17068000Y-5080000D02*
G75*
G03*
X17068000Y-5080000I-50000J0D01*
G01*
X16968000Y-6046000D02*
X17068000Y-6146000D01*
X17068000Y-6046000D02*
X16968000Y-6146000D01*
X17068000Y-6096000D02*
G75*
G03*
X17068000Y-6096000I-50000J0D01*
G01*
X16968000Y-10110000D02*
X17068000Y-10210000D01*
X17068000Y-10110000D02*
X16968000Y-10210000D01*
X17068000Y-10160000D02*
G75*
G03*
X17068000Y-10160000I-50000J0D01*
G01*
X16968000Y-11126000D02*
X17068000Y-11226000D01*
X17068000Y-11126000D02*
X16968000Y-11226000D01*
X17068000Y-11176000D02*
G75*
G03*
X17068000Y-11176000I-50000J0D01*
G01*
X17222000Y-5030000D02*
X17322000Y-5130000D01*
X17322000Y-5030000D02*
X17222000Y-5130000D01*
X17322000Y-5080000D02*
G75*
G03*
X17322000Y-5080000I-50000J0D01*
G01*
X17222000Y-6046000D02*
X17322000Y-6146000D01*
X17322000Y-6046000D02*
X17222000Y-6146000D01*
X17322000Y-6096000D02*
G75*
G03*
X17322000Y-6096000I-50000J0D01*
G01*
X17222000Y-10110000D02*
X17322000Y-10210000D01*
X17322000Y-10110000D02*
X17222000Y-10210000D01*
X17322000Y-10160000D02*
G75*
G03*
X17322000Y-10160000I-50000J0D01*
G01*
X17222000Y-11126000D02*
X17322000Y-11226000D01*
X17322000Y-11126000D02*
X17222000Y-11226000D01*
X17322000Y-11176000D02*
G75*
G03*
X17322000Y-11176000I-50000J0D01*
G01*
X17476000Y-5030000D02*
X17576000Y-5130000D01*
X17576000Y-5030000D02*
X17476000Y-5130000D01*
X17576000Y-5080000D02*
G75*
G03*
X17576000Y-5080000I-50000J0D01*
G01*
X17476000Y-6046000D02*
X17576000Y-6146000D01*
X17576000Y-6046000D02*
X17476000Y-6146000D01*
X17576000Y-6096000D02*
G75*
G03*
X17576000Y-6096000I-50000J0D01*
G01*
X17476000Y-10110000D02*
X17576000Y-10210000D01*
X17576000Y-10110000D02*
X17476000Y-10210000D01*
X17576000Y-10160000D02*
G75*
G03*
X17576000Y-10160000I-50000J0D01*
G01*
X17476000Y-11126000D02*
X17576000Y-11226000D01*
X17576000Y-11126000D02*
X17476000Y-11226000D01*
X17576000Y-11176000D02*
G75*
G03*
X17576000Y-11176000I-50000J0D01*
G01*
X17730000Y-5030000D02*
X17830000Y-5130000D01*
X17830000Y-5030000D02*
X17730000Y-5130000D01*
X17830000Y-5080000D02*
G75*
G03*
X17830000Y-5080000I-50000J0D01*
G01*
X17730000Y-6046000D02*
X17830000Y-6146000D01*
X17830000Y-6046000D02*
X17730000Y-6146000D01*
X17830000Y-6096000D02*
G75*
G03*
X17830000Y-6096000I-50000J0D01*
G01*
X17730000Y-10110000D02*
X17830000Y-10210000D01*
X17830000Y-10110000D02*
X17730000Y-10210000D01*
X17830000Y-10160000D02*
G75*
G03*
X17830000Y-10160000I-50000J0D01*
G01*
X17730000Y-11126000D02*
X17830000Y-11226000D01*
X17830000Y-11126000D02*
X17730000Y-11226000D01*
X17830000Y-11176000D02*
G75*
G03*
X17830000Y-11176000I-50000J0D01*
G01*
X17984000Y-5030000D02*
X18084000Y-5130000D01*
X18084000Y-5030000D02*
X17984000Y-5130000D01*
X18084000Y-5080000D02*
G75*
G03*
X18084000Y-5080000I-50000J0D01*
G01*
X17984000Y-6046000D02*
X18084000Y-6146000D01*
X18084000Y-6046000D02*
X17984000Y-6146000D01*
X18084000Y-6096000D02*
G75*
G03*
X18084000Y-6096000I-50000J0D01*
G01*
X17984000Y-10110000D02*
X18084000Y-10210000D01*
X18084000Y-10110000D02*
X17984000Y-10210000D01*
X18084000Y-10160000D02*
G75*
G03*
X18084000Y-10160000I-50000J0D01*
G01*
X17984000Y-11126000D02*
X18084000Y-11226000D01*
X18084000Y-11126000D02*
X17984000Y-11226000D01*
X18084000Y-11176000D02*
G75*
G03*
X18084000Y-11176000I-50000J0D01*
G01*
X18238000Y-5030000D02*
X18338000Y-5130000D01*
X18338000Y-5030000D02*
X18238000Y-5130000D01*
X18338000Y-5080000D02*
G75*
G03*
X18338000Y-5080000I-50000J0D01*
G01*
X18238000Y-6046000D02*
X18338000Y-6146000D01*
X18338000Y-6046000D02*
X18238000Y-6146000D01*
X18338000Y-6096000D02*
G75*
G03*
X18338000Y-6096000I-50000J0D01*
G01*
X18238000Y-10110000D02*
X18338000Y-10210000D01*
X18338000Y-10110000D02*
X18238000Y-10210000D01*
X18338000Y-10160000D02*
G75*
G03*
X18338000Y-10160000I-50000J0D01*
G01*
X18238000Y-11126000D02*
X18338000Y-11226000D01*
X18338000Y-11126000D02*
X18238000Y-11226000D01*
X18338000Y-11176000D02*
G75*
G03*
X18338000Y-11176000I-50000J0D01*
G01*
X18492000Y-5030000D02*
X18592000Y-5130000D01*
X18592000Y-5030000D02*
X18492000Y-5130000D01*
X18592000Y-5080000D02*
G75*
G03*
X18592000Y-5080000I-50000J0D01*
G01*
X18492000Y-6046000D02*
X18592000Y-6146000D01*
X18592000Y-6046000D02*
X18492000Y-6146000D01*
X18592000Y-6096000D02*
G75*
G03*
X18592000Y-6096000I-50000J0D01*
G01*
X18492000Y-10110000D02*
X18592000Y-10210000D01*
X18592000Y-10110000D02*
X18492000Y-10210000D01*
X18592000Y-10160000D02*
G75*
G03*
X18592000Y-10160000I-50000J0D01*
G01*
X18492000Y-11126000D02*
X18592000Y-11226000D01*
X18592000Y-11126000D02*
X18492000Y-11226000D01*
X18592000Y-11176000D02*
G75*
G03*
X18592000Y-11176000I-50000J0D01*
G01*
X18746000Y-5030000D02*
X18846000Y-5130000D01*
X18846000Y-5030000D02*
X18746000Y-5130000D01*
X18846000Y-5080000D02*
G75*
G03*
X18846000Y-5080000I-50000J0D01*
G01*
X18746000Y-6046000D02*
X18846000Y-6146000D01*
X18846000Y-6046000D02*
X18746000Y-6146000D01*
X18846000Y-6096000D02*
G75*
G03*
X18846000Y-6096000I-50000J0D01*
G01*
X18746000Y-10110000D02*
X18846000Y-10210000D01*
X18846000Y-10110000D02*
X18746000Y-10210000D01*
X18846000Y-10160000D02*
G75*
G03*
X18846000Y-10160000I-50000J0D01*
G01*
X18746000Y-11126000D02*
X18846000Y-11226000D01*
X18846000Y-11126000D02*
X18746000Y-11226000D01*
X18846000Y-11176000D02*
G75*
G03*
X18846000Y-11176000I-50000J0D01*
G01*
X19000000Y-5030000D02*
X19100000Y-5130000D01*
X19100000Y-5030000D02*
X19000000Y-5130000D01*
X19100000Y-5080000D02*
G75*
G03*
X19100000Y-5080000I-50000J0D01*
G01*
X19000000Y-6046000D02*
X19100000Y-6146000D01*
X19100000Y-6046000D02*
X19000000Y-6146000D01*
X19100000Y-6096000D02*
G75*
G03*
X19100000Y-6096000I-50000J0D01*
G01*
X19000000Y-10110000D02*
X19100000Y-10210000D01*
X19100000Y-10110000D02*
X19000000Y-10210000D01*
X19100000Y-10160000D02*
G75*
G03*
X19100000Y-10160000I-50000J0D01*
G01*
X19000000Y-11126000D02*
X19100000Y-11226000D01*
X19100000Y-11126000D02*
X19000000Y-11226000D01*
X19100000Y-11176000D02*
G75*
G03*
X19100000Y-11176000I-50000J0D01*
G01*
X19254000Y-5030000D02*
X19354000Y-5130000D01*
X19354000Y-5030000D02*
X19254000Y-5130000D01*
X19354000Y-5080000D02*
G75*
G03*
X19354000Y-5080000I-50000J0D01*
G01*
X19254000Y-6046000D02*
X19354000Y-6146000D01*
X19354000Y-6046000D02*
X19254000Y-6146000D01*
X19354000Y-6096000D02*
G75*
G03*
X19354000Y-6096000I-50000J0D01*
G01*
X19254000Y-10110000D02*
X19354000Y-10210000D01*
X19354000Y-10110000D02*
X19254000Y-10210000D01*
X19354000Y-10160000D02*
G75*
G03*
X19354000Y-10160000I-50000J0D01*
G01*
X19254000Y-11126000D02*
X19354000Y-11226000D01*
X19354000Y-11126000D02*
X19254000Y-11226000D01*
X19354000Y-11176000D02*
G75*
G03*
X19354000Y-11176000I-50000J0D01*
G01*
X19508000Y-5030000D02*
X19608000Y-5130000D01*
X19608000Y-5030000D02*
X19508000Y-5130000D01*
X19608000Y-5080000D02*
G75*
G03*
X19608000Y-5080000I-50000J0D01*
G01*
X19508000Y-6046000D02*
X19608000Y-6146000D01*
X19608000Y-6046000D02*
X19508000Y-6146000D01*
X19608000Y-6096000D02*
G75*
G03*
X19608000Y-6096000I-50000J0D01*
G01*
X19508000Y-10110000D02*
X19608000Y-10210000D01*
X19608000Y-10110000D02*
X19508000Y-10210000D01*
X19608000Y-10160000D02*
G75*
G03*
X19608000Y-10160000I-50000J0D01*
G01*
X19508000Y-11126000D02*
X19608000Y-11226000D01*
X19608000Y-11126000D02*
X19508000Y-11226000D01*
X19608000Y-11176000D02*
G75*
G03*
X19608000Y-11176000I-50000J0D01*
G01*
X19762000Y-5030000D02*
X19862000Y-5130000D01*
X19862000Y-5030000D02*
X19762000Y-5130000D01*
X19862000Y-5080000D02*
G75*
G03*
X19862000Y-5080000I-50000J0D01*
G01*
X19762000Y-6046000D02*
X19862000Y-6146000D01*
X19862000Y-6046000D02*
X19762000Y-6146000D01*
X19862000Y-6096000D02*
G75*
G03*
X19862000Y-6096000I-50000J0D01*
G01*
X19762000Y-10110000D02*
X19862000Y-10210000D01*
X19862000Y-10110000D02*
X19762000Y-10210000D01*
X19862000Y-10160000D02*
G75*
G03*
X19862000Y-10160000I-50000J0D01*
G01*
X19762000Y-11126000D02*
X19862000Y-11226000D01*
X19862000Y-11126000D02*
X19762000Y-11226000D01*
X19862000Y-11176000D02*
G75*
G03*
X19862000Y-11176000I-50000J0D01*
G01*
X20016000Y-5030000D02*
X20116000Y-5130000D01*
X20116000Y-5030000D02*
X20016000Y-5130000D01*
X20116000Y-5080000D02*
G75*
G03*
X20116000Y-5080000I-50000J0D01*
G01*
X20016000Y-6046000D02*
X20116000Y-6146000D01*
X20116000Y-6046000D02*
X20016000Y-6146000D01*
X20116000Y-6096000D02*
G75*
G03*
X20116000Y-6096000I-50000J0D01*
G01*
X20016000Y-10110000D02*
X20116000Y-10210000D01*
X20116000Y-10110000D02*
X20016000Y-10210000D01*
X20116000Y-10160000D02*
G75*
G03*
X20116000Y-10160000I-50000J0D01*
G01*
X20016000Y-11126000D02*
X20116000Y-11226000D01*
X20116000Y-11126000D02*
X20016000Y-11226000D01*
X20116000Y-11176000D02*
G75*
G03*
X20116000Y-11176000I-50000J0D01*
G01*
D11*
X11080619Y-14459476D02*
X11080619Y-14259476D01*
X11128238Y-14259476D01*
X11156810Y-14269000D01*
X11175857Y-14288048D01*
X11185381Y-14307095D01*
X11194905Y-14345190D01*
X11194905Y-14373762D01*
X11185381Y-14411857D01*
X11175857Y-14430905D01*
X11156810Y-14449952D01*
X11128238Y-14459476D01*
X11080619Y-14459476D01*
X11280619Y-14459476D02*
X11280619Y-14326143D01*
X11280619Y-14364238D02*
X11290143Y-14345190D01*
X11299667Y-14335667D01*
X11318714Y-14326143D01*
X11337762Y-14326143D01*
X11404428Y-14459476D02*
X11404428Y-14326143D01*
X11404428Y-14259476D02*
X11394905Y-14269000D01*
X11404428Y-14278524D01*
X11413952Y-14269000D01*
X11404428Y-14259476D01*
X11404428Y-14278524D01*
X11528238Y-14459476D02*
X11509190Y-14449952D01*
X11499667Y-14430905D01*
X11499667Y-14259476D01*
X11633000Y-14459476D02*
X11613952Y-14449952D01*
X11604428Y-14430905D01*
X11604428Y-14259476D01*
X11861571Y-14459476D02*
X11861571Y-14259476D01*
X11928238Y-14402333D01*
X11994905Y-14259476D01*
X11994905Y-14459476D01*
X12175857Y-14459476D02*
X12175857Y-14354714D01*
X12166333Y-14335667D01*
X12147286Y-14326143D01*
X12109190Y-14326143D01*
X12090143Y-14335667D01*
X12175857Y-14449952D02*
X12156809Y-14459476D01*
X12109190Y-14459476D01*
X12090143Y-14449952D01*
X12080619Y-14430905D01*
X12080619Y-14411857D01*
X12090143Y-14392809D01*
X12109190Y-14383286D01*
X12156809Y-14383286D01*
X12175857Y-14373762D01*
X12271095Y-14326143D02*
X12271095Y-14526143D01*
X12271095Y-14335667D02*
X12290143Y-14326143D01*
X12328238Y-14326143D01*
X12347286Y-14335667D01*
X12356809Y-14345190D01*
X12366333Y-14364238D01*
X12366333Y-14421381D01*
X12356809Y-14440428D01*
X12347286Y-14449952D01*
X12328238Y-14459476D01*
X12290143Y-14459476D01*
X12271095Y-14449952D01*
X12452048Y-14440428D02*
X12461571Y-14449952D01*
X12452048Y-14459476D01*
X12442524Y-14449952D01*
X12452048Y-14440428D01*
X12452048Y-14459476D01*
X12452048Y-14335667D02*
X12461571Y-14345190D01*
X12452048Y-14354714D01*
X12442524Y-14345190D01*
X12452048Y-14335667D01*
X12452048Y-14354714D01*
D12*
X10783000Y-14769000D02*
X10823000Y-14809000D01*
X10823000Y-14769000D02*
X10783000Y-14809000D01*
D11*
X11118714Y-14679476D02*
X11137762Y-14679476D01*
X11156810Y-14689000D01*
X11166333Y-14698524D01*
X11175857Y-14717571D01*
X11185381Y-14755667D01*
X11185381Y-14803286D01*
X11175857Y-14841381D01*
X11166333Y-14860428D01*
X11156810Y-14869952D01*
X11137762Y-14879476D01*
X11118714Y-14879476D01*
X11099667Y-14869952D01*
X11090143Y-14860428D01*
X11080619Y-14841381D01*
X11071095Y-14803286D01*
X11071095Y-14755667D01*
X11080619Y-14717571D01*
X11090143Y-14698524D01*
X11099667Y-14689000D01*
X11118714Y-14679476D01*
X11271095Y-14860428D02*
X11280619Y-14869952D01*
X11271095Y-14879476D01*
X11261571Y-14869952D01*
X11271095Y-14860428D01*
X11271095Y-14879476D01*
X11452048Y-14746143D02*
X11452048Y-14879476D01*
X11404428Y-14669952D02*
X11356809Y-14812809D01*
X11480619Y-14812809D01*
X11594905Y-14679476D02*
X11613952Y-14679476D01*
X11633000Y-14689000D01*
X11642524Y-14698524D01*
X11652048Y-14717571D01*
X11661571Y-14755667D01*
X11661571Y-14803286D01*
X11652048Y-14841381D01*
X11642524Y-14860428D01*
X11633000Y-14869952D01*
X11613952Y-14879476D01*
X11594905Y-14879476D01*
X11575857Y-14869952D01*
X11566333Y-14860428D01*
X11556809Y-14841381D01*
X11547286Y-14803286D01*
X11547286Y-14755667D01*
X11556809Y-14717571D01*
X11566333Y-14698524D01*
X11575857Y-14689000D01*
X11594905Y-14679476D01*
X11785381Y-14679476D02*
X11804428Y-14679476D01*
X11823476Y-14689000D01*
X11833000Y-14698524D01*
X11842524Y-14717571D01*
X11852048Y-14755667D01*
X11852048Y-14803286D01*
X11842524Y-14841381D01*
X11833000Y-14860428D01*
X11823476Y-14869952D01*
X11804428Y-14879476D01*
X11785381Y-14879476D01*
X11766333Y-14869952D01*
X11756809Y-14860428D01*
X11747286Y-14841381D01*
X11737762Y-14803286D01*
X11737762Y-14755667D01*
X11747286Y-14717571D01*
X11756809Y-14698524D01*
X11766333Y-14689000D01*
X11785381Y-14679476D01*
X11937762Y-14879476D02*
X11937762Y-14746143D01*
X11937762Y-14765190D02*
X11947286Y-14755667D01*
X11966333Y-14746143D01*
X11994905Y-14746143D01*
X12013952Y-14755667D01*
X12023476Y-14774714D01*
X12023476Y-14879476D01*
X12023476Y-14774714D02*
X12033000Y-14755667D01*
X12052048Y-14746143D01*
X12080619Y-14746143D01*
X12099667Y-14755667D01*
X12109190Y-14774714D01*
X12109190Y-14879476D01*
X12204428Y-14879476D02*
X12204428Y-14746143D01*
X12204428Y-14765190D02*
X12213952Y-14755667D01*
X12233000Y-14746143D01*
X12261571Y-14746143D01*
X12280619Y-14755667D01*
X12290143Y-14774714D01*
X12290143Y-14879476D01*
X12290143Y-14774714D02*
X12299667Y-14755667D01*
X12318714Y-14746143D01*
X12347286Y-14746143D01*
X12366333Y-14755667D01*
X12375857Y-14774714D01*
X12375857Y-14879476D01*
X12766333Y-14669952D02*
X12594905Y-14927095D01*
X13023476Y-14679476D02*
X13042524Y-14679476D01*
X13061571Y-14689000D01*
X13071095Y-14698524D01*
X13080619Y-14717571D01*
X13090143Y-14755667D01*
X13090143Y-14803286D01*
X13080619Y-14841381D01*
X13071095Y-14860428D01*
X13061571Y-14869952D01*
X13042524Y-14879476D01*
X13023476Y-14879476D01*
X13004428Y-14869952D01*
X12994905Y-14860428D01*
X12985381Y-14841381D01*
X12975857Y-14803286D01*
X12975857Y-14755667D01*
X12985381Y-14717571D01*
X12994905Y-14698524D01*
X13004428Y-14689000D01*
X13023476Y-14679476D01*
X13175857Y-14860428D02*
X13185381Y-14869952D01*
X13175857Y-14879476D01*
X13166333Y-14869952D01*
X13175857Y-14860428D01*
X13175857Y-14879476D01*
X13309190Y-14679476D02*
X13328238Y-14679476D01*
X13347286Y-14689000D01*
X13356809Y-14698524D01*
X13366333Y-14717571D01*
X13375857Y-14755667D01*
X13375857Y-14803286D01*
X13366333Y-14841381D01*
X13356809Y-14860428D01*
X13347286Y-14869952D01*
X13328238Y-14879476D01*
X13309190Y-14879476D01*
X13290143Y-14869952D01*
X13280619Y-14860428D01*
X13271095Y-14841381D01*
X13261571Y-14803286D01*
X13261571Y-14755667D01*
X13271095Y-14717571D01*
X13280619Y-14698524D01*
X13290143Y-14689000D01*
X13309190Y-14679476D01*
X13566333Y-14879476D02*
X13452048Y-14879476D01*
X13509190Y-14879476D02*
X13509190Y-14679476D01*
X13490143Y-14708048D01*
X13471095Y-14727095D01*
X13452048Y-14736619D01*
X13747286Y-14679476D02*
X13652048Y-14679476D01*
X13642524Y-14774714D01*
X13652048Y-14765190D01*
X13671095Y-14755667D01*
X13718714Y-14755667D01*
X13737762Y-14765190D01*
X13747286Y-14774714D01*
X13756809Y-14793762D01*
X13756809Y-14841381D01*
X13747286Y-14860428D01*
X13737762Y-14869952D01*
X13718714Y-14879476D01*
X13671095Y-14879476D01*
X13652048Y-14869952D01*
X13642524Y-14860428D01*
X13823476Y-14679476D02*
X13956809Y-14679476D01*
X13871095Y-14879476D01*
X14023476Y-14679476D02*
X14023476Y-14717571D01*
X14099667Y-14679476D02*
X14099667Y-14717571D01*
X14394905Y-14955667D02*
X14385381Y-14946143D01*
X14366333Y-14917571D01*
X14356809Y-14898524D01*
X14347286Y-14869952D01*
X14337762Y-14822333D01*
X14337762Y-14784238D01*
X14347286Y-14736619D01*
X14356809Y-14708048D01*
X14366333Y-14689000D01*
X14385381Y-14660428D01*
X14394905Y-14650905D01*
X14566333Y-14679476D02*
X14471095Y-14679476D01*
X14461571Y-14774714D01*
X14471095Y-14765190D01*
X14490143Y-14755667D01*
X14537762Y-14755667D01*
X14556809Y-14765190D01*
X14566333Y-14774714D01*
X14575857Y-14793762D01*
X14575857Y-14841381D01*
X14566333Y-14860428D01*
X14556809Y-14869952D01*
X14537762Y-14879476D01*
X14490143Y-14879476D01*
X14471095Y-14869952D01*
X14461571Y-14860428D01*
X14671095Y-14879476D02*
X14709190Y-14879476D01*
X14728238Y-14869952D01*
X14737762Y-14860428D01*
X14756809Y-14831857D01*
X14766333Y-14793762D01*
X14766333Y-14717571D01*
X14756809Y-14698524D01*
X14747286Y-14689000D01*
X14728238Y-14679476D01*
X14690143Y-14679476D01*
X14671095Y-14689000D01*
X14661571Y-14698524D01*
X14652048Y-14717571D01*
X14652048Y-14765190D01*
X14661571Y-14784238D01*
X14671095Y-14793762D01*
X14690143Y-14803286D01*
X14728238Y-14803286D01*
X14747286Y-14793762D01*
X14756809Y-14784238D01*
X14766333Y-14765190D01*
X15004428Y-14879476D02*
X15004428Y-14679476D01*
X15090143Y-14879476D02*
X15090143Y-14774714D01*
X15080619Y-14755667D01*
X15061571Y-14746143D01*
X15033000Y-14746143D01*
X15013952Y-14755667D01*
X15004428Y-14765190D01*
X15213952Y-14879476D02*
X15194905Y-14869952D01*
X15185381Y-14860428D01*
X15175857Y-14841381D01*
X15175857Y-14784238D01*
X15185381Y-14765190D01*
X15194905Y-14755667D01*
X15213952Y-14746143D01*
X15242524Y-14746143D01*
X15261571Y-14755667D01*
X15271095Y-14765190D01*
X15280619Y-14784238D01*
X15280619Y-14841381D01*
X15271095Y-14860428D01*
X15261571Y-14869952D01*
X15242524Y-14879476D01*
X15213952Y-14879476D01*
X15394905Y-14879476D02*
X15375857Y-14869952D01*
X15366333Y-14850905D01*
X15366333Y-14679476D01*
X15547286Y-14869952D02*
X15528238Y-14879476D01*
X15490143Y-14879476D01*
X15471095Y-14869952D01*
X15461571Y-14850905D01*
X15461571Y-14774714D01*
X15471095Y-14755667D01*
X15490143Y-14746143D01*
X15528238Y-14746143D01*
X15547286Y-14755667D01*
X15556809Y-14774714D01*
X15556809Y-14793762D01*
X15461571Y-14812809D01*
X15633000Y-14869952D02*
X15652048Y-14879476D01*
X15690143Y-14879476D01*
X15709190Y-14869952D01*
X15718714Y-14850905D01*
X15718714Y-14841381D01*
X15709190Y-14822333D01*
X15690143Y-14812809D01*
X15661571Y-14812809D01*
X15642524Y-14803286D01*
X15633000Y-14784238D01*
X15633000Y-14774714D01*
X15642524Y-14755667D01*
X15661571Y-14746143D01*
X15690143Y-14746143D01*
X15709190Y-14755667D01*
X15785381Y-14955667D02*
X15794905Y-14946143D01*
X15813952Y-14917571D01*
X15823476Y-14898524D01*
X15833000Y-14869952D01*
X15842524Y-14822333D01*
X15842524Y-14784238D01*
X15833000Y-14736619D01*
X15823476Y-14708048D01*
X15813952Y-14689000D01*
X15794905Y-14660428D01*
X15785381Y-14650905D01*
D13*
X10823000Y-15053000D02*
G75*
G03*
X10823000Y-15053000I-32500J0D01*
G01*
D11*
X11118714Y-14943476D02*
X11137762Y-14943476D01*
X11156810Y-14953000D01*
X11166333Y-14962524D01*
X11175857Y-14981571D01*
X11185381Y-15019667D01*
X11185381Y-15067286D01*
X11175857Y-15105381D01*
X11166333Y-15124428D01*
X11156810Y-15133952D01*
X11137762Y-15143476D01*
X11118714Y-15143476D01*
X11099667Y-15133952D01*
X11090143Y-15124428D01*
X11080619Y-15105381D01*
X11071095Y-15067286D01*
X11071095Y-15019667D01*
X11080619Y-14981571D01*
X11090143Y-14962524D01*
X11099667Y-14953000D01*
X11118714Y-14943476D01*
X11271095Y-15124428D02*
X11280619Y-15133952D01*
X11271095Y-15143476D01*
X11261571Y-15133952D01*
X11271095Y-15124428D01*
X11271095Y-15143476D01*
X11452048Y-14943476D02*
X11413952Y-14943476D01*
X11394905Y-14953000D01*
X11385381Y-14962524D01*
X11366333Y-14991095D01*
X11356809Y-15029190D01*
X11356809Y-15105381D01*
X11366333Y-15124428D01*
X11375857Y-15133952D01*
X11394905Y-15143476D01*
X11433000Y-15143476D01*
X11452048Y-15133952D01*
X11461571Y-15124428D01*
X11471095Y-15105381D01*
X11471095Y-15057762D01*
X11461571Y-15038714D01*
X11452048Y-15029190D01*
X11433000Y-15019667D01*
X11394905Y-15019667D01*
X11375857Y-15029190D01*
X11366333Y-15038714D01*
X11356809Y-15057762D01*
X11652048Y-14943476D02*
X11556809Y-14943476D01*
X11547286Y-15038714D01*
X11556809Y-15029190D01*
X11575857Y-15019667D01*
X11623476Y-15019667D01*
X11642524Y-15029190D01*
X11652048Y-15038714D01*
X11661571Y-15057762D01*
X11661571Y-15105381D01*
X11652048Y-15124428D01*
X11642524Y-15133952D01*
X11623476Y-15143476D01*
X11575857Y-15143476D01*
X11556809Y-15133952D01*
X11547286Y-15124428D01*
X11785381Y-14943476D02*
X11804428Y-14943476D01*
X11823476Y-14953000D01*
X11833000Y-14962524D01*
X11842524Y-14981571D01*
X11852048Y-15019667D01*
X11852048Y-15067286D01*
X11842524Y-15105381D01*
X11833000Y-15124428D01*
X11823476Y-15133952D01*
X11804428Y-15143476D01*
X11785381Y-15143476D01*
X11766333Y-15133952D01*
X11756809Y-15124428D01*
X11747286Y-15105381D01*
X11737762Y-15067286D01*
X11737762Y-15019667D01*
X11747286Y-14981571D01*
X11756809Y-14962524D01*
X11766333Y-14953000D01*
X11785381Y-14943476D01*
X11937762Y-15143476D02*
X11937762Y-15010143D01*
X11937762Y-15029190D02*
X11947286Y-15019667D01*
X11966333Y-15010143D01*
X11994905Y-15010143D01*
X12013952Y-15019667D01*
X12023476Y-15038714D01*
X12023476Y-15143476D01*
X12023476Y-15038714D02*
X12033000Y-15019667D01*
X12052048Y-15010143D01*
X12080619Y-15010143D01*
X12099667Y-15019667D01*
X12109190Y-15038714D01*
X12109190Y-15143476D01*
X12204428Y-15143476D02*
X12204428Y-15010143D01*
X12204428Y-15029190D02*
X12213952Y-15019667D01*
X12233000Y-15010143D01*
X12261571Y-15010143D01*
X12280619Y-15019667D01*
X12290143Y-15038714D01*
X12290143Y-15143476D01*
X12290143Y-15038714D02*
X12299667Y-15019667D01*
X12318714Y-15010143D01*
X12347286Y-15010143D01*
X12366333Y-15019667D01*
X12375857Y-15038714D01*
X12375857Y-15143476D01*
X12766333Y-14933952D02*
X12594905Y-15191095D01*
X13023476Y-14943476D02*
X13042524Y-14943476D01*
X13061571Y-14953000D01*
X13071095Y-14962524D01*
X13080619Y-14981571D01*
X13090143Y-15019667D01*
X13090143Y-15067286D01*
X13080619Y-15105381D01*
X13071095Y-15124428D01*
X13061571Y-15133952D01*
X13042524Y-15143476D01*
X13023476Y-15143476D01*
X13004428Y-15133952D01*
X12994905Y-15124428D01*
X12985381Y-15105381D01*
X12975857Y-15067286D01*
X12975857Y-15019667D01*
X12985381Y-14981571D01*
X12994905Y-14962524D01*
X13004428Y-14953000D01*
X13023476Y-14943476D01*
X13175857Y-15124428D02*
X13185381Y-15133952D01*
X13175857Y-15143476D01*
X13166333Y-15133952D01*
X13175857Y-15124428D01*
X13175857Y-15143476D01*
X13309190Y-14943476D02*
X13328238Y-14943476D01*
X13347286Y-14953000D01*
X13356809Y-14962524D01*
X13366333Y-14981571D01*
X13375857Y-15019667D01*
X13375857Y-15067286D01*
X13366333Y-15105381D01*
X13356809Y-15124428D01*
X13347286Y-15133952D01*
X13328238Y-15143476D01*
X13309190Y-15143476D01*
X13290143Y-15133952D01*
X13280619Y-15124428D01*
X13271095Y-15105381D01*
X13261571Y-15067286D01*
X13261571Y-15019667D01*
X13271095Y-14981571D01*
X13280619Y-14962524D01*
X13290143Y-14953000D01*
X13309190Y-14943476D01*
X13452048Y-14962524D02*
X13461571Y-14953000D01*
X13480619Y-14943476D01*
X13528238Y-14943476D01*
X13547286Y-14953000D01*
X13556809Y-14962524D01*
X13566333Y-14981571D01*
X13566333Y-15000619D01*
X13556809Y-15029190D01*
X13442524Y-15143476D01*
X13566333Y-15143476D01*
X13747286Y-14943476D02*
X13652048Y-14943476D01*
X13642524Y-15038714D01*
X13652048Y-15029190D01*
X13671095Y-15019667D01*
X13718714Y-15019667D01*
X13737762Y-15029190D01*
X13747286Y-15038714D01*
X13756809Y-15057762D01*
X13756809Y-15105381D01*
X13747286Y-15124428D01*
X13737762Y-15133952D01*
X13718714Y-15143476D01*
X13671095Y-15143476D01*
X13652048Y-15133952D01*
X13642524Y-15124428D01*
X13928238Y-14943476D02*
X13890143Y-14943476D01*
X13871095Y-14953000D01*
X13861571Y-14962524D01*
X13842524Y-14991095D01*
X13833000Y-15029190D01*
X13833000Y-15105381D01*
X13842524Y-15124428D01*
X13852048Y-15133952D01*
X13871095Y-15143476D01*
X13909190Y-15143476D01*
X13928238Y-15133952D01*
X13937762Y-15124428D01*
X13947286Y-15105381D01*
X13947286Y-15057762D01*
X13937762Y-15038714D01*
X13928238Y-15029190D01*
X13909190Y-15019667D01*
X13871095Y-15019667D01*
X13852048Y-15029190D01*
X13842524Y-15038714D01*
X13833000Y-15057762D01*
X14023476Y-14943476D02*
X14023476Y-14981571D01*
X14099667Y-14943476D02*
X14099667Y-14981571D01*
X14394905Y-15219667D02*
X14385381Y-15210143D01*
X14366333Y-15181571D01*
X14356809Y-15162524D01*
X14347286Y-15133952D01*
X14337762Y-15086333D01*
X14337762Y-15048238D01*
X14347286Y-15000619D01*
X14356809Y-14972048D01*
X14366333Y-14953000D01*
X14385381Y-14924428D01*
X14394905Y-14914905D01*
X14509190Y-14943476D02*
X14528238Y-14943476D01*
X14547286Y-14953000D01*
X14556809Y-14962524D01*
X14566333Y-14981571D01*
X14575857Y-15019667D01*
X14575857Y-15067286D01*
X14566333Y-15105381D01*
X14556809Y-15124428D01*
X14547286Y-15133952D01*
X14528238Y-15143476D01*
X14509190Y-15143476D01*
X14490143Y-15133952D01*
X14480619Y-15124428D01*
X14471095Y-15105381D01*
X14461571Y-15067286D01*
X14461571Y-15019667D01*
X14471095Y-14981571D01*
X14480619Y-14962524D01*
X14490143Y-14953000D01*
X14509190Y-14943476D01*
X14813952Y-15143476D02*
X14813952Y-14943476D01*
X14899667Y-15143476D02*
X14899667Y-15038714D01*
X14890143Y-15019667D01*
X14871095Y-15010143D01*
X14842524Y-15010143D01*
X14823476Y-15019667D01*
X14813952Y-15029190D01*
X15023476Y-15143476D02*
X15004428Y-15133952D01*
X14994905Y-15124428D01*
X14985381Y-15105381D01*
X14985381Y-15048238D01*
X14994905Y-15029190D01*
X15004428Y-15019667D01*
X15023476Y-15010143D01*
X15052048Y-15010143D01*
X15071095Y-15019667D01*
X15080619Y-15029190D01*
X15090143Y-15048238D01*
X15090143Y-15105381D01*
X15080619Y-15124428D01*
X15071095Y-15133952D01*
X15052048Y-15143476D01*
X15023476Y-15143476D01*
X15204428Y-15143476D02*
X15185381Y-15133952D01*
X15175857Y-15114905D01*
X15175857Y-14943476D01*
X15356809Y-15133952D02*
X15337762Y-15143476D01*
X15299667Y-15143476D01*
X15280619Y-15133952D01*
X15271095Y-15114905D01*
X15271095Y-15038714D01*
X15280619Y-15019667D01*
X15299667Y-15010143D01*
X15337762Y-15010143D01*
X15356809Y-15019667D01*
X15366333Y-15038714D01*
X15366333Y-15057762D01*
X15271095Y-15076809D01*
X15442524Y-15133952D02*
X15461571Y-15143476D01*
X15499667Y-15143476D01*
X15518714Y-15133952D01*
X15528238Y-15114905D01*
X15528238Y-15105381D01*
X15518714Y-15086333D01*
X15499667Y-15076809D01*
X15471095Y-15076809D01*
X15452048Y-15067286D01*
X15442524Y-15048238D01*
X15442524Y-15038714D01*
X15452048Y-15019667D01*
X15471095Y-15010143D01*
X15499667Y-15010143D01*
X15518714Y-15019667D01*
X15766333Y-15067286D02*
X15918714Y-15067286D01*
X15842524Y-15143476D02*
X15842524Y-14991095D01*
X16156809Y-14962524D02*
X16166333Y-14953000D01*
X16185381Y-14943476D01*
X16233000Y-14943476D01*
X16252048Y-14953000D01*
X16261571Y-14962524D01*
X16271095Y-14981571D01*
X16271095Y-15000619D01*
X16261571Y-15029190D01*
X16147286Y-15143476D01*
X16271095Y-15143476D01*
X16499667Y-15133952D02*
X16518714Y-15143476D01*
X16556809Y-15143476D01*
X16575857Y-15133952D01*
X16585381Y-15114905D01*
X16585381Y-15105381D01*
X16575857Y-15086333D01*
X16556809Y-15076809D01*
X16528238Y-15076809D01*
X16509190Y-15067286D01*
X16499667Y-15048238D01*
X16499667Y-15038714D01*
X16509190Y-15019667D01*
X16528238Y-15010143D01*
X16556809Y-15010143D01*
X16575857Y-15019667D01*
X16699667Y-15143476D02*
X16680619Y-15133952D01*
X16671095Y-15114905D01*
X16671095Y-14943476D01*
X16804429Y-15143476D02*
X16785381Y-15133952D01*
X16775857Y-15124428D01*
X16766333Y-15105381D01*
X16766333Y-15048238D01*
X16775857Y-15029190D01*
X16785381Y-15019667D01*
X16804429Y-15010143D01*
X16833000Y-15010143D01*
X16852048Y-15019667D01*
X16861571Y-15029190D01*
X16871095Y-15048238D01*
X16871095Y-15105381D01*
X16861571Y-15124428D01*
X16852048Y-15133952D01*
X16833000Y-15143476D01*
X16804429Y-15143476D01*
X16928238Y-15010143D02*
X17004429Y-15010143D01*
X16956810Y-14943476D02*
X16956810Y-15114905D01*
X16966333Y-15133952D01*
X16985381Y-15143476D01*
X17004429Y-15143476D01*
X17061571Y-15133952D02*
X17080619Y-15143476D01*
X17118714Y-15143476D01*
X17137762Y-15133952D01*
X17147286Y-15114905D01*
X17147286Y-15105381D01*
X17137762Y-15086333D01*
X17118714Y-15076809D01*
X17090143Y-15076809D01*
X17071095Y-15067286D01*
X17061571Y-15048238D01*
X17061571Y-15038714D01*
X17071095Y-15019667D01*
X17090143Y-15010143D01*
X17118714Y-15010143D01*
X17137762Y-15019667D01*
X17213952Y-15219667D02*
X17223476Y-15210143D01*
X17242524Y-15181571D01*
X17252048Y-15162524D01*
X17261571Y-15133952D01*
X17271095Y-15086333D01*
X17271095Y-15048238D01*
X17261571Y-15000619D01*
X17252048Y-14972048D01*
X17242524Y-14953000D01*
X17223476Y-14924428D01*
X17213952Y-14914905D01*
D14*
X10788000Y-15282000D02*
X10788000Y-15352000D01*
X10753000Y-15317000D02*
X10823000Y-15317000D01*
D11*
X11118714Y-15207476D02*
X11137762Y-15207476D01*
X11156810Y-15217000D01*
X11166333Y-15226524D01*
X11175857Y-15245571D01*
X11185381Y-15283667D01*
X11185381Y-15331286D01*
X11175857Y-15369381D01*
X11166333Y-15388428D01*
X11156810Y-15397952D01*
X11137762Y-15407476D01*
X11118714Y-15407476D01*
X11099667Y-15397952D01*
X11090143Y-15388428D01*
X11080619Y-15369381D01*
X11071095Y-15331286D01*
X11071095Y-15283667D01*
X11080619Y-15245571D01*
X11090143Y-15226524D01*
X11099667Y-15217000D01*
X11118714Y-15207476D01*
X11271095Y-15388428D02*
X11280619Y-15397952D01*
X11271095Y-15407476D01*
X11261571Y-15397952D01*
X11271095Y-15388428D01*
X11271095Y-15407476D01*
X11347286Y-15207476D02*
X11480619Y-15207476D01*
X11394905Y-15407476D01*
X11594905Y-15207476D02*
X11613952Y-15207476D01*
X11633000Y-15217000D01*
X11642524Y-15226524D01*
X11652048Y-15245571D01*
X11661571Y-15283667D01*
X11661571Y-15331286D01*
X11652048Y-15369381D01*
X11642524Y-15388428D01*
X11633000Y-15397952D01*
X11613952Y-15407476D01*
X11594905Y-15407476D01*
X11575857Y-15397952D01*
X11566333Y-15388428D01*
X11556809Y-15369381D01*
X11547286Y-15331286D01*
X11547286Y-15283667D01*
X11556809Y-15245571D01*
X11566333Y-15226524D01*
X11575857Y-15217000D01*
X11594905Y-15207476D01*
X11785381Y-15207476D02*
X11804428Y-15207476D01*
X11823476Y-15217000D01*
X11833000Y-15226524D01*
X11842524Y-15245571D01*
X11852048Y-15283667D01*
X11852048Y-15331286D01*
X11842524Y-15369381D01*
X11833000Y-15388428D01*
X11823476Y-15397952D01*
X11804428Y-15407476D01*
X11785381Y-15407476D01*
X11766333Y-15397952D01*
X11756809Y-15388428D01*
X11747286Y-15369381D01*
X11737762Y-15331286D01*
X11737762Y-15283667D01*
X11747286Y-15245571D01*
X11756809Y-15226524D01*
X11766333Y-15217000D01*
X11785381Y-15207476D01*
X11937762Y-15407476D02*
X11937762Y-15274143D01*
X11937762Y-15293190D02*
X11947286Y-15283667D01*
X11966333Y-15274143D01*
X11994905Y-15274143D01*
X12013952Y-15283667D01*
X12023476Y-15302714D01*
X12023476Y-15407476D01*
X12023476Y-15302714D02*
X12033000Y-15283667D01*
X12052048Y-15274143D01*
X12080619Y-15274143D01*
X12099667Y-15283667D01*
X12109190Y-15302714D01*
X12109190Y-15407476D01*
X12204428Y-15407476D02*
X12204428Y-15274143D01*
X12204428Y-15293190D02*
X12213952Y-15283667D01*
X12233000Y-15274143D01*
X12261571Y-15274143D01*
X12280619Y-15283667D01*
X12290143Y-15302714D01*
X12290143Y-15407476D01*
X12290143Y-15302714D02*
X12299667Y-15283667D01*
X12318714Y-15274143D01*
X12347286Y-15274143D01*
X12366333Y-15283667D01*
X12375857Y-15302714D01*
X12375857Y-15407476D01*
X12766333Y-15197952D02*
X12594905Y-15455095D01*
X13023476Y-15207476D02*
X13042524Y-15207476D01*
X13061571Y-15217000D01*
X13071095Y-15226524D01*
X13080619Y-15245571D01*
X13090143Y-15283667D01*
X13090143Y-15331286D01*
X13080619Y-15369381D01*
X13071095Y-15388428D01*
X13061571Y-15397952D01*
X13042524Y-15407476D01*
X13023476Y-15407476D01*
X13004428Y-15397952D01*
X12994905Y-15388428D01*
X12985381Y-15369381D01*
X12975857Y-15331286D01*
X12975857Y-15283667D01*
X12985381Y-15245571D01*
X12994905Y-15226524D01*
X13004428Y-15217000D01*
X13023476Y-15207476D01*
X13175857Y-15388428D02*
X13185381Y-15397952D01*
X13175857Y-15407476D01*
X13166333Y-15397952D01*
X13175857Y-15388428D01*
X13175857Y-15407476D01*
X13309190Y-15207476D02*
X13328238Y-15207476D01*
X13347286Y-15217000D01*
X13356809Y-15226524D01*
X13366333Y-15245571D01*
X13375857Y-15283667D01*
X13375857Y-15331286D01*
X13366333Y-15369381D01*
X13356809Y-15388428D01*
X13347286Y-15397952D01*
X13328238Y-15407476D01*
X13309190Y-15407476D01*
X13290143Y-15397952D01*
X13280619Y-15388428D01*
X13271095Y-15369381D01*
X13261571Y-15331286D01*
X13261571Y-15283667D01*
X13271095Y-15245571D01*
X13280619Y-15226524D01*
X13290143Y-15217000D01*
X13309190Y-15207476D01*
X13452048Y-15226524D02*
X13461571Y-15217000D01*
X13480619Y-15207476D01*
X13528238Y-15207476D01*
X13547286Y-15217000D01*
X13556809Y-15226524D01*
X13566333Y-15245571D01*
X13566333Y-15264619D01*
X13556809Y-15293190D01*
X13442524Y-15407476D01*
X13566333Y-15407476D01*
X13633000Y-15207476D02*
X13766333Y-15207476D01*
X13680619Y-15407476D01*
X13928238Y-15207476D02*
X13890143Y-15207476D01*
X13871095Y-15217000D01*
X13861571Y-15226524D01*
X13842524Y-15255095D01*
X13833000Y-15293190D01*
X13833000Y-15369381D01*
X13842524Y-15388428D01*
X13852048Y-15397952D01*
X13871095Y-15407476D01*
X13909190Y-15407476D01*
X13928238Y-15397952D01*
X13937762Y-15388428D01*
X13947286Y-15369381D01*
X13947286Y-15321762D01*
X13937762Y-15302714D01*
X13928238Y-15293190D01*
X13909190Y-15283667D01*
X13871095Y-15283667D01*
X13852048Y-15293190D01*
X13842524Y-15302714D01*
X13833000Y-15321762D01*
X14023476Y-15207476D02*
X14023476Y-15245571D01*
X14099667Y-15207476D02*
X14099667Y-15245571D01*
X14394905Y-15483667D02*
X14385381Y-15474143D01*
X14366333Y-15445571D01*
X14356809Y-15426524D01*
X14347286Y-15397952D01*
X14337762Y-15350333D01*
X14337762Y-15312238D01*
X14347286Y-15264619D01*
X14356809Y-15236048D01*
X14366333Y-15217000D01*
X14385381Y-15188428D01*
X14394905Y-15178905D01*
X14509190Y-15207476D02*
X14528238Y-15207476D01*
X14547286Y-15217000D01*
X14556809Y-15226524D01*
X14566333Y-15245571D01*
X14575857Y-15283667D01*
X14575857Y-15331286D01*
X14566333Y-15369381D01*
X14556809Y-15388428D01*
X14547286Y-15397952D01*
X14528238Y-15407476D01*
X14509190Y-15407476D01*
X14490143Y-15397952D01*
X14480619Y-15388428D01*
X14471095Y-15369381D01*
X14461571Y-15331286D01*
X14461571Y-15283667D01*
X14471095Y-15245571D01*
X14480619Y-15226524D01*
X14490143Y-15217000D01*
X14509190Y-15207476D01*
X14813952Y-15407476D02*
X14813952Y-15207476D01*
X14899667Y-15407476D02*
X14899667Y-15302714D01*
X14890143Y-15283667D01*
X14871095Y-15274143D01*
X14842524Y-15274143D01*
X14823476Y-15283667D01*
X14813952Y-15293190D01*
X15023476Y-15407476D02*
X15004428Y-15397952D01*
X14994905Y-15388428D01*
X14985381Y-15369381D01*
X14985381Y-15312238D01*
X14994905Y-15293190D01*
X15004428Y-15283667D01*
X15023476Y-15274143D01*
X15052048Y-15274143D01*
X15071095Y-15283667D01*
X15080619Y-15293190D01*
X15090143Y-15312238D01*
X15090143Y-15369381D01*
X15080619Y-15388428D01*
X15071095Y-15397952D01*
X15052048Y-15407476D01*
X15023476Y-15407476D01*
X15204428Y-15407476D02*
X15185381Y-15397952D01*
X15175857Y-15378905D01*
X15175857Y-15207476D01*
X15356809Y-15397952D02*
X15337762Y-15407476D01*
X15299667Y-15407476D01*
X15280619Y-15397952D01*
X15271095Y-15378905D01*
X15271095Y-15302714D01*
X15280619Y-15283667D01*
X15299667Y-15274143D01*
X15337762Y-15274143D01*
X15356809Y-15283667D01*
X15366333Y-15302714D01*
X15366333Y-15321762D01*
X15271095Y-15340809D01*
X15442524Y-15397952D02*
X15461571Y-15407476D01*
X15499667Y-15407476D01*
X15518714Y-15397952D01*
X15528238Y-15378905D01*
X15528238Y-15369381D01*
X15518714Y-15350333D01*
X15499667Y-15340809D01*
X15471095Y-15340809D01*
X15452048Y-15331286D01*
X15442524Y-15312238D01*
X15442524Y-15302714D01*
X15452048Y-15283667D01*
X15471095Y-15274143D01*
X15499667Y-15274143D01*
X15518714Y-15283667D01*
X15766333Y-15331286D02*
X15918714Y-15331286D01*
X15842524Y-15407476D02*
X15842524Y-15255095D01*
X16156809Y-15226524D02*
X16166333Y-15217000D01*
X16185381Y-15207476D01*
X16233000Y-15207476D01*
X16252048Y-15217000D01*
X16261571Y-15226524D01*
X16271095Y-15245571D01*
X16271095Y-15264619D01*
X16261571Y-15293190D01*
X16147286Y-15407476D01*
X16271095Y-15407476D01*
X16499667Y-15397952D02*
X16518714Y-15407476D01*
X16556809Y-15407476D01*
X16575857Y-15397952D01*
X16585381Y-15378905D01*
X16585381Y-15369381D01*
X16575857Y-15350333D01*
X16556809Y-15340809D01*
X16528238Y-15340809D01*
X16509190Y-15331286D01*
X16499667Y-15312238D01*
X16499667Y-15302714D01*
X16509190Y-15283667D01*
X16528238Y-15274143D01*
X16556809Y-15274143D01*
X16575857Y-15283667D01*
X16699667Y-15407476D02*
X16680619Y-15397952D01*
X16671095Y-15378905D01*
X16671095Y-15207476D01*
X16804429Y-15407476D02*
X16785381Y-15397952D01*
X16775857Y-15388428D01*
X16766333Y-15369381D01*
X16766333Y-15312238D01*
X16775857Y-15293190D01*
X16785381Y-15283667D01*
X16804429Y-15274143D01*
X16833000Y-15274143D01*
X16852048Y-15283667D01*
X16861571Y-15293190D01*
X16871095Y-15312238D01*
X16871095Y-15369381D01*
X16861571Y-15388428D01*
X16852048Y-15397952D01*
X16833000Y-15407476D01*
X16804429Y-15407476D01*
X16928238Y-15274143D02*
X17004429Y-15274143D01*
X16956810Y-15207476D02*
X16956810Y-15378905D01*
X16966333Y-15397952D01*
X16985381Y-15407476D01*
X17004429Y-15407476D01*
X17061571Y-15397952D02*
X17080619Y-15407476D01*
X17118714Y-15407476D01*
X17137762Y-15397952D01*
X17147286Y-15378905D01*
X17147286Y-15369381D01*
X17137762Y-15350333D01*
X17118714Y-15340809D01*
X17090143Y-15340809D01*
X17071095Y-15331286D01*
X17061571Y-15312238D01*
X17061571Y-15302714D01*
X17071095Y-15283667D01*
X17090143Y-15274143D01*
X17118714Y-15274143D01*
X17137762Y-15283667D01*
X17213952Y-15483667D02*
X17223476Y-15474143D01*
X17242524Y-15445571D01*
X17252048Y-15426524D01*
X17261571Y-15397952D01*
X17271095Y-15350333D01*
X17271095Y-15312238D01*
X17261571Y-15264619D01*
X17252048Y-15236048D01*
X17242524Y-15217000D01*
X17223476Y-15188428D01*
X17213952Y-15178905D01*
D15*
X10812017Y-15607517D02*
X10812017Y-15554483D01*
X10758983Y-15554483D01*
X10758983Y-15607517D01*
X10812017Y-15607517D01*
D11*
X11118714Y-15471476D02*
X11137762Y-15471476D01*
X11156810Y-15481000D01*
X11166333Y-15490524D01*
X11175857Y-15509571D01*
X11185381Y-15547667D01*
X11185381Y-15595286D01*
X11175857Y-15633381D01*
X11166333Y-15652428D01*
X11156810Y-15661952D01*
X11137762Y-15671476D01*
X11118714Y-15671476D01*
X11099667Y-15661952D01*
X11090143Y-15652428D01*
X11080619Y-15633381D01*
X11071095Y-15595286D01*
X11071095Y-15547667D01*
X11080619Y-15509571D01*
X11090143Y-15490524D01*
X11099667Y-15481000D01*
X11118714Y-15471476D01*
X11271095Y-15652428D02*
X11280619Y-15661952D01*
X11271095Y-15671476D01*
X11261571Y-15661952D01*
X11271095Y-15652428D01*
X11271095Y-15671476D01*
X11347286Y-15471476D02*
X11480619Y-15471476D01*
X11394905Y-15671476D01*
X11652048Y-15471476D02*
X11556809Y-15471476D01*
X11547286Y-15566714D01*
X11556809Y-15557190D01*
X11575857Y-15547667D01*
X11623476Y-15547667D01*
X11642524Y-15557190D01*
X11652048Y-15566714D01*
X11661571Y-15585762D01*
X11661571Y-15633381D01*
X11652048Y-15652428D01*
X11642524Y-15661952D01*
X11623476Y-15671476D01*
X11575857Y-15671476D01*
X11556809Y-15661952D01*
X11547286Y-15652428D01*
X11785381Y-15471476D02*
X11804428Y-15471476D01*
X11823476Y-15481000D01*
X11833000Y-15490524D01*
X11842524Y-15509571D01*
X11852048Y-15547667D01*
X11852048Y-15595286D01*
X11842524Y-15633381D01*
X11833000Y-15652428D01*
X11823476Y-15661952D01*
X11804428Y-15671476D01*
X11785381Y-15671476D01*
X11766333Y-15661952D01*
X11756809Y-15652428D01*
X11747286Y-15633381D01*
X11737762Y-15595286D01*
X11737762Y-15547667D01*
X11747286Y-15509571D01*
X11756809Y-15490524D01*
X11766333Y-15481000D01*
X11785381Y-15471476D01*
X11937762Y-15671476D02*
X11937762Y-15538143D01*
X11937762Y-15557190D02*
X11947286Y-15547667D01*
X11966333Y-15538143D01*
X11994905Y-15538143D01*
X12013952Y-15547667D01*
X12023476Y-15566714D01*
X12023476Y-15671476D01*
X12023476Y-15566714D02*
X12033000Y-15547667D01*
X12052048Y-15538143D01*
X12080619Y-15538143D01*
X12099667Y-15547667D01*
X12109190Y-15566714D01*
X12109190Y-15671476D01*
X12204428Y-15671476D02*
X12204428Y-15538143D01*
X12204428Y-15557190D02*
X12213952Y-15547667D01*
X12233000Y-15538143D01*
X12261571Y-15538143D01*
X12280619Y-15547667D01*
X12290143Y-15566714D01*
X12290143Y-15671476D01*
X12290143Y-15566714D02*
X12299667Y-15547667D01*
X12318714Y-15538143D01*
X12347286Y-15538143D01*
X12366333Y-15547667D01*
X12375857Y-15566714D01*
X12375857Y-15671476D01*
X12766333Y-15461952D02*
X12594905Y-15719095D01*
X13023476Y-15471476D02*
X13042524Y-15471476D01*
X13061571Y-15481000D01*
X13071095Y-15490524D01*
X13080619Y-15509571D01*
X13090143Y-15547667D01*
X13090143Y-15595286D01*
X13080619Y-15633381D01*
X13071095Y-15652428D01*
X13061571Y-15661952D01*
X13042524Y-15671476D01*
X13023476Y-15671476D01*
X13004428Y-15661952D01*
X12994905Y-15652428D01*
X12985381Y-15633381D01*
X12975857Y-15595286D01*
X12975857Y-15547667D01*
X12985381Y-15509571D01*
X12994905Y-15490524D01*
X13004428Y-15481000D01*
X13023476Y-15471476D01*
X13175857Y-15652428D02*
X13185381Y-15661952D01*
X13175857Y-15671476D01*
X13166333Y-15661952D01*
X13175857Y-15652428D01*
X13175857Y-15671476D01*
X13309190Y-15471476D02*
X13328238Y-15471476D01*
X13347286Y-15481000D01*
X13356809Y-15490524D01*
X13366333Y-15509571D01*
X13375857Y-15547667D01*
X13375857Y-15595286D01*
X13366333Y-15633381D01*
X13356809Y-15652428D01*
X13347286Y-15661952D01*
X13328238Y-15671476D01*
X13309190Y-15671476D01*
X13290143Y-15661952D01*
X13280619Y-15652428D01*
X13271095Y-15633381D01*
X13261571Y-15595286D01*
X13261571Y-15547667D01*
X13271095Y-15509571D01*
X13280619Y-15490524D01*
X13290143Y-15481000D01*
X13309190Y-15471476D01*
X13452048Y-15490524D02*
X13461571Y-15481000D01*
X13480619Y-15471476D01*
X13528238Y-15471476D01*
X13547286Y-15481000D01*
X13556809Y-15490524D01*
X13566333Y-15509571D01*
X13566333Y-15528619D01*
X13556809Y-15557190D01*
X13442524Y-15671476D01*
X13566333Y-15671476D01*
X13661571Y-15671476D02*
X13699667Y-15671476D01*
X13718714Y-15661952D01*
X13728238Y-15652428D01*
X13747286Y-15623857D01*
X13756809Y-15585762D01*
X13756809Y-15509571D01*
X13747286Y-15490524D01*
X13737762Y-15481000D01*
X13718714Y-15471476D01*
X13680619Y-15471476D01*
X13661571Y-15481000D01*
X13652048Y-15490524D01*
X13642524Y-15509571D01*
X13642524Y-15557190D01*
X13652048Y-15576238D01*
X13661571Y-15585762D01*
X13680619Y-15595286D01*
X13718714Y-15595286D01*
X13737762Y-15585762D01*
X13747286Y-15576238D01*
X13756809Y-15557190D01*
X13937762Y-15471476D02*
X13842524Y-15471476D01*
X13833000Y-15566714D01*
X13842524Y-15557190D01*
X13861571Y-15547667D01*
X13909190Y-15547667D01*
X13928238Y-15557190D01*
X13937762Y-15566714D01*
X13947286Y-15585762D01*
X13947286Y-15633381D01*
X13937762Y-15652428D01*
X13928238Y-15661952D01*
X13909190Y-15671476D01*
X13861571Y-15671476D01*
X13842524Y-15661952D01*
X13833000Y-15652428D01*
X14023476Y-15471476D02*
X14023476Y-15509571D01*
X14099667Y-15471476D02*
X14099667Y-15509571D01*
X14394905Y-15747667D02*
X14385381Y-15738143D01*
X14366333Y-15709571D01*
X14356809Y-15690524D01*
X14347286Y-15661952D01*
X14337762Y-15614333D01*
X14337762Y-15576238D01*
X14347286Y-15528619D01*
X14356809Y-15500048D01*
X14366333Y-15481000D01*
X14385381Y-15452428D01*
X14394905Y-15442905D01*
X14452048Y-15471476D02*
X14575857Y-15471476D01*
X14509190Y-15547667D01*
X14537762Y-15547667D01*
X14556809Y-15557190D01*
X14566333Y-15566714D01*
X14575857Y-15585762D01*
X14575857Y-15633381D01*
X14566333Y-15652428D01*
X14556809Y-15661952D01*
X14537762Y-15671476D01*
X14480619Y-15671476D01*
X14461571Y-15661952D01*
X14452048Y-15652428D01*
X14813952Y-15671476D02*
X14813952Y-15471476D01*
X14899667Y-15671476D02*
X14899667Y-15566714D01*
X14890143Y-15547667D01*
X14871095Y-15538143D01*
X14842524Y-15538143D01*
X14823476Y-15547667D01*
X14813952Y-15557190D01*
X15023476Y-15671476D02*
X15004428Y-15661952D01*
X14994905Y-15652428D01*
X14985381Y-15633381D01*
X14985381Y-15576238D01*
X14994905Y-15557190D01*
X15004428Y-15547667D01*
X15023476Y-15538143D01*
X15052048Y-15538143D01*
X15071095Y-15547667D01*
X15080619Y-15557190D01*
X15090143Y-15576238D01*
X15090143Y-15633381D01*
X15080619Y-15652428D01*
X15071095Y-15661952D01*
X15052048Y-15671476D01*
X15023476Y-15671476D01*
X15204428Y-15671476D02*
X15185381Y-15661952D01*
X15175857Y-15642905D01*
X15175857Y-15471476D01*
X15356809Y-15661952D02*
X15337762Y-15671476D01*
X15299667Y-15671476D01*
X15280619Y-15661952D01*
X15271095Y-15642905D01*
X15271095Y-15566714D01*
X15280619Y-15547667D01*
X15299667Y-15538143D01*
X15337762Y-15538143D01*
X15356809Y-15547667D01*
X15366333Y-15566714D01*
X15366333Y-15585762D01*
X15271095Y-15604809D01*
X15442524Y-15661952D02*
X15461571Y-15671476D01*
X15499667Y-15671476D01*
X15518714Y-15661952D01*
X15528238Y-15642905D01*
X15528238Y-15633381D01*
X15518714Y-15614333D01*
X15499667Y-15604809D01*
X15471095Y-15604809D01*
X15452048Y-15595286D01*
X15442524Y-15576238D01*
X15442524Y-15566714D01*
X15452048Y-15547667D01*
X15471095Y-15538143D01*
X15499667Y-15538143D01*
X15518714Y-15547667D01*
X15594905Y-15747667D02*
X15604428Y-15738143D01*
X15623476Y-15709571D01*
X15633000Y-15690524D01*
X15642524Y-15661952D01*
X15652048Y-15614333D01*
X15652048Y-15576238D01*
X15642524Y-15528619D01*
X15633000Y-15500048D01*
X15623476Y-15481000D01*
X15604428Y-15452428D01*
X15594905Y-15442905D01*
D16*
X10773500Y-15894500D02*
X10823000Y-15845000D01*
X10773500Y-15795500D01*
X10724000Y-15845000D01*
X10773500Y-15894500D01*
D11*
X11118714Y-15735476D02*
X11137762Y-15735476D01*
X11156810Y-15745000D01*
X11166333Y-15754524D01*
X11175857Y-15773571D01*
X11185381Y-15811667D01*
X11185381Y-15859286D01*
X11175857Y-15897381D01*
X11166333Y-15916428D01*
X11156810Y-15925952D01*
X11137762Y-15935476D01*
X11118714Y-15935476D01*
X11099667Y-15925952D01*
X11090143Y-15916428D01*
X11080619Y-15897381D01*
X11071095Y-15859286D01*
X11071095Y-15811667D01*
X11080619Y-15773571D01*
X11090143Y-15754524D01*
X11099667Y-15745000D01*
X11118714Y-15735476D01*
X11271095Y-15916428D02*
X11280619Y-15925952D01*
X11271095Y-15935476D01*
X11261571Y-15925952D01*
X11271095Y-15916428D01*
X11271095Y-15935476D01*
X11375857Y-15935476D02*
X11413952Y-15935476D01*
X11433000Y-15925952D01*
X11442524Y-15916428D01*
X11461571Y-15887857D01*
X11471095Y-15849762D01*
X11471095Y-15773571D01*
X11461571Y-15754524D01*
X11452048Y-15745000D01*
X11433000Y-15735476D01*
X11394905Y-15735476D01*
X11375857Y-15745000D01*
X11366333Y-15754524D01*
X11356809Y-15773571D01*
X11356809Y-15821190D01*
X11366333Y-15840238D01*
X11375857Y-15849762D01*
X11394905Y-15859286D01*
X11433000Y-15859286D01*
X11452048Y-15849762D01*
X11461571Y-15840238D01*
X11471095Y-15821190D01*
X11566333Y-15935476D02*
X11604428Y-15935476D01*
X11623476Y-15925952D01*
X11633000Y-15916428D01*
X11652048Y-15887857D01*
X11661571Y-15849762D01*
X11661571Y-15773571D01*
X11652048Y-15754524D01*
X11642524Y-15745000D01*
X11623476Y-15735476D01*
X11585381Y-15735476D01*
X11566333Y-15745000D01*
X11556809Y-15754524D01*
X11547286Y-15773571D01*
X11547286Y-15821190D01*
X11556809Y-15840238D01*
X11566333Y-15849762D01*
X11585381Y-15859286D01*
X11623476Y-15859286D01*
X11642524Y-15849762D01*
X11652048Y-15840238D01*
X11661571Y-15821190D01*
X11785381Y-15735476D02*
X11804428Y-15735476D01*
X11823476Y-15745000D01*
X11833000Y-15754524D01*
X11842524Y-15773571D01*
X11852048Y-15811667D01*
X11852048Y-15859286D01*
X11842524Y-15897381D01*
X11833000Y-15916428D01*
X11823476Y-15925952D01*
X11804428Y-15935476D01*
X11785381Y-15935476D01*
X11766333Y-15925952D01*
X11756809Y-15916428D01*
X11747286Y-15897381D01*
X11737762Y-15859286D01*
X11737762Y-15811667D01*
X11747286Y-15773571D01*
X11756809Y-15754524D01*
X11766333Y-15745000D01*
X11785381Y-15735476D01*
X11937762Y-15935476D02*
X11937762Y-15802143D01*
X11937762Y-15821190D02*
X11947286Y-15811667D01*
X11966333Y-15802143D01*
X11994905Y-15802143D01*
X12013952Y-15811667D01*
X12023476Y-15830714D01*
X12023476Y-15935476D01*
X12023476Y-15830714D02*
X12033000Y-15811667D01*
X12052048Y-15802143D01*
X12080619Y-15802143D01*
X12099667Y-15811667D01*
X12109190Y-15830714D01*
X12109190Y-15935476D01*
X12204428Y-15935476D02*
X12204428Y-15802143D01*
X12204428Y-15821190D02*
X12213952Y-15811667D01*
X12233000Y-15802143D01*
X12261571Y-15802143D01*
X12280619Y-15811667D01*
X12290143Y-15830714D01*
X12290143Y-15935476D01*
X12290143Y-15830714D02*
X12299667Y-15811667D01*
X12318714Y-15802143D01*
X12347286Y-15802143D01*
X12366333Y-15811667D01*
X12375857Y-15830714D01*
X12375857Y-15935476D01*
X12766333Y-15725952D02*
X12594905Y-15983095D01*
X13023476Y-15735476D02*
X13042524Y-15735476D01*
X13061571Y-15745000D01*
X13071095Y-15754524D01*
X13080619Y-15773571D01*
X13090143Y-15811667D01*
X13090143Y-15859286D01*
X13080619Y-15897381D01*
X13071095Y-15916428D01*
X13061571Y-15925952D01*
X13042524Y-15935476D01*
X13023476Y-15935476D01*
X13004428Y-15925952D01*
X12994905Y-15916428D01*
X12985381Y-15897381D01*
X12975857Y-15859286D01*
X12975857Y-15811667D01*
X12985381Y-15773571D01*
X12994905Y-15754524D01*
X13004428Y-15745000D01*
X13023476Y-15735476D01*
X13175857Y-15916428D02*
X13185381Y-15925952D01*
X13175857Y-15935476D01*
X13166333Y-15925952D01*
X13175857Y-15916428D01*
X13175857Y-15935476D01*
X13309190Y-15735476D02*
X13328238Y-15735476D01*
X13347286Y-15745000D01*
X13356809Y-15754524D01*
X13366333Y-15773571D01*
X13375857Y-15811667D01*
X13375857Y-15859286D01*
X13366333Y-15897381D01*
X13356809Y-15916428D01*
X13347286Y-15925952D01*
X13328238Y-15935476D01*
X13309190Y-15935476D01*
X13290143Y-15925952D01*
X13280619Y-15916428D01*
X13271095Y-15897381D01*
X13261571Y-15859286D01*
X13261571Y-15811667D01*
X13271095Y-15773571D01*
X13280619Y-15754524D01*
X13290143Y-15745000D01*
X13309190Y-15735476D01*
X13442524Y-15735476D02*
X13566333Y-15735476D01*
X13499667Y-15811667D01*
X13528238Y-15811667D01*
X13547286Y-15821190D01*
X13556809Y-15830714D01*
X13566333Y-15849762D01*
X13566333Y-15897381D01*
X13556809Y-15916428D01*
X13547286Y-15925952D01*
X13528238Y-15935476D01*
X13471095Y-15935476D01*
X13452048Y-15925952D01*
X13442524Y-15916428D01*
X13661571Y-15935476D02*
X13699667Y-15935476D01*
X13718714Y-15925952D01*
X13728238Y-15916428D01*
X13747286Y-15887857D01*
X13756809Y-15849762D01*
X13756809Y-15773571D01*
X13747286Y-15754524D01*
X13737762Y-15745000D01*
X13718714Y-15735476D01*
X13680619Y-15735476D01*
X13661571Y-15745000D01*
X13652048Y-15754524D01*
X13642524Y-15773571D01*
X13642524Y-15821190D01*
X13652048Y-15840238D01*
X13661571Y-15849762D01*
X13680619Y-15859286D01*
X13718714Y-15859286D01*
X13737762Y-15849762D01*
X13747286Y-15840238D01*
X13756809Y-15821190D01*
X13880619Y-15735476D02*
X13899667Y-15735476D01*
X13918714Y-15745000D01*
X13928238Y-15754524D01*
X13937762Y-15773571D01*
X13947286Y-15811667D01*
X13947286Y-15859286D01*
X13937762Y-15897381D01*
X13928238Y-15916428D01*
X13918714Y-15925952D01*
X13899667Y-15935476D01*
X13880619Y-15935476D01*
X13861571Y-15925952D01*
X13852048Y-15916428D01*
X13842524Y-15897381D01*
X13833000Y-15859286D01*
X13833000Y-15811667D01*
X13842524Y-15773571D01*
X13852048Y-15754524D01*
X13861571Y-15745000D01*
X13880619Y-15735476D01*
X14023476Y-15735476D02*
X14023476Y-15773571D01*
X14099667Y-15735476D02*
X14099667Y-15773571D01*
X14394905Y-16011667D02*
X14385381Y-16002143D01*
X14366333Y-15973571D01*
X14356809Y-15954524D01*
X14347286Y-15925952D01*
X14337762Y-15878333D01*
X14337762Y-15840238D01*
X14347286Y-15792619D01*
X14356809Y-15764048D01*
X14366333Y-15745000D01*
X14385381Y-15716428D01*
X14394905Y-15706905D01*
X14499667Y-15821190D02*
X14480619Y-15811667D01*
X14471095Y-15802143D01*
X14461571Y-15783095D01*
X14461571Y-15773571D01*
X14471095Y-15754524D01*
X14480619Y-15745000D01*
X14499667Y-15735476D01*
X14537762Y-15735476D01*
X14556809Y-15745000D01*
X14566333Y-15754524D01*
X14575857Y-15773571D01*
X14575857Y-15783095D01*
X14566333Y-15802143D01*
X14556809Y-15811667D01*
X14537762Y-15821190D01*
X14499667Y-15821190D01*
X14480619Y-15830714D01*
X14471095Y-15840238D01*
X14461571Y-15859286D01*
X14461571Y-15897381D01*
X14471095Y-15916428D01*
X14480619Y-15925952D01*
X14499667Y-15935476D01*
X14537762Y-15935476D01*
X14556809Y-15925952D01*
X14566333Y-15916428D01*
X14575857Y-15897381D01*
X14575857Y-15859286D01*
X14566333Y-15840238D01*
X14556809Y-15830714D01*
X14537762Y-15821190D01*
X14813952Y-15935476D02*
X14813952Y-15735476D01*
X14899667Y-15935476D02*
X14899667Y-15830714D01*
X14890143Y-15811667D01*
X14871095Y-15802143D01*
X14842524Y-15802143D01*
X14823476Y-15811667D01*
X14813952Y-15821190D01*
X15023476Y-15935476D02*
X15004428Y-15925952D01*
X14994905Y-15916428D01*
X14985381Y-15897381D01*
X14985381Y-15840238D01*
X14994905Y-15821190D01*
X15004428Y-15811667D01*
X15023476Y-15802143D01*
X15052048Y-15802143D01*
X15071095Y-15811667D01*
X15080619Y-15821190D01*
X15090143Y-15840238D01*
X15090143Y-15897381D01*
X15080619Y-15916428D01*
X15071095Y-15925952D01*
X15052048Y-15935476D01*
X15023476Y-15935476D01*
X15204428Y-15935476D02*
X15185381Y-15925952D01*
X15175857Y-15906905D01*
X15175857Y-15735476D01*
X15356809Y-15925952D02*
X15337762Y-15935476D01*
X15299667Y-15935476D01*
X15280619Y-15925952D01*
X15271095Y-15906905D01*
X15271095Y-15830714D01*
X15280619Y-15811667D01*
X15299667Y-15802143D01*
X15337762Y-15802143D01*
X15356809Y-15811667D01*
X15366333Y-15830714D01*
X15366333Y-15849762D01*
X15271095Y-15868809D01*
X15442524Y-15925952D02*
X15461571Y-15935476D01*
X15499667Y-15935476D01*
X15518714Y-15925952D01*
X15528238Y-15906905D01*
X15528238Y-15897381D01*
X15518714Y-15878333D01*
X15499667Y-15868809D01*
X15471095Y-15868809D01*
X15452048Y-15859286D01*
X15442524Y-15840238D01*
X15442524Y-15830714D01*
X15452048Y-15811667D01*
X15471095Y-15802143D01*
X15499667Y-15802143D01*
X15518714Y-15811667D01*
X15594905Y-16011667D02*
X15604428Y-16002143D01*
X15623476Y-15973571D01*
X15633000Y-15954524D01*
X15642524Y-15925952D01*
X15652048Y-15878333D01*
X15652048Y-15840238D01*
X15642524Y-15792619D01*
X15633000Y-15764048D01*
X15623476Y-15745000D01*
X15604428Y-15716428D01*
X15594905Y-15706905D01*
D17*
X10723000Y-16059000D02*
X10823000Y-16159000D01*
X10823000Y-16059000D02*
X10723000Y-16159000D01*
X10823000Y-16109000D02*
G75*
G03*
X10823000Y-16109000I-50000J0D01*
G01*
D11*
X11185381Y-16199476D02*
X11071095Y-16199476D01*
X11128238Y-16199476D02*
X11128238Y-15999476D01*
X11109190Y-16028048D01*
X11090143Y-16047095D01*
X11071095Y-16056619D01*
X11271095Y-16180428D02*
X11280619Y-16189952D01*
X11271095Y-16199476D01*
X11261571Y-16189952D01*
X11271095Y-16180428D01*
X11271095Y-16199476D01*
X11404428Y-15999476D02*
X11423476Y-15999476D01*
X11442524Y-16009000D01*
X11452048Y-16018524D01*
X11461571Y-16037571D01*
X11471095Y-16075667D01*
X11471095Y-16123286D01*
X11461571Y-16161381D01*
X11452048Y-16180428D01*
X11442524Y-16189952D01*
X11423476Y-16199476D01*
X11404428Y-16199476D01*
X11385381Y-16189952D01*
X11375857Y-16180428D01*
X11366333Y-16161381D01*
X11356809Y-16123286D01*
X11356809Y-16075667D01*
X11366333Y-16037571D01*
X11375857Y-16018524D01*
X11385381Y-16009000D01*
X11404428Y-15999476D01*
X11594905Y-15999476D02*
X11613952Y-15999476D01*
X11633000Y-16009000D01*
X11642524Y-16018524D01*
X11652048Y-16037571D01*
X11661571Y-16075667D01*
X11661571Y-16123286D01*
X11652048Y-16161381D01*
X11642524Y-16180428D01*
X11633000Y-16189952D01*
X11613952Y-16199476D01*
X11594905Y-16199476D01*
X11575857Y-16189952D01*
X11566333Y-16180428D01*
X11556809Y-16161381D01*
X11547286Y-16123286D01*
X11547286Y-16075667D01*
X11556809Y-16037571D01*
X11566333Y-16018524D01*
X11575857Y-16009000D01*
X11594905Y-15999476D01*
X11785381Y-15999476D02*
X11804428Y-15999476D01*
X11823476Y-16009000D01*
X11833000Y-16018524D01*
X11842524Y-16037571D01*
X11852048Y-16075667D01*
X11852048Y-16123286D01*
X11842524Y-16161381D01*
X11833000Y-16180428D01*
X11823476Y-16189952D01*
X11804428Y-16199476D01*
X11785381Y-16199476D01*
X11766333Y-16189952D01*
X11756809Y-16180428D01*
X11747286Y-16161381D01*
X11737762Y-16123286D01*
X11737762Y-16075667D01*
X11747286Y-16037571D01*
X11756809Y-16018524D01*
X11766333Y-16009000D01*
X11785381Y-15999476D01*
X11937762Y-16199476D02*
X11937762Y-16066143D01*
X11937762Y-16085190D02*
X11947286Y-16075667D01*
X11966333Y-16066143D01*
X11994905Y-16066143D01*
X12013952Y-16075667D01*
X12023476Y-16094714D01*
X12023476Y-16199476D01*
X12023476Y-16094714D02*
X12033000Y-16075667D01*
X12052048Y-16066143D01*
X12080619Y-16066143D01*
X12099667Y-16075667D01*
X12109190Y-16094714D01*
X12109190Y-16199476D01*
X12204428Y-16199476D02*
X12204428Y-16066143D01*
X12204428Y-16085190D02*
X12213952Y-16075667D01*
X12233000Y-16066143D01*
X12261571Y-16066143D01*
X12280619Y-16075667D01*
X12290143Y-16094714D01*
X12290143Y-16199476D01*
X12290143Y-16094714D02*
X12299667Y-16075667D01*
X12318714Y-16066143D01*
X12347286Y-16066143D01*
X12366333Y-16075667D01*
X12375857Y-16094714D01*
X12375857Y-16199476D01*
X12766333Y-15989952D02*
X12594905Y-16247095D01*
X13023476Y-15999476D02*
X13042524Y-15999476D01*
X13061571Y-16009000D01*
X13071095Y-16018524D01*
X13080619Y-16037571D01*
X13090143Y-16075667D01*
X13090143Y-16123286D01*
X13080619Y-16161381D01*
X13071095Y-16180428D01*
X13061571Y-16189952D01*
X13042524Y-16199476D01*
X13023476Y-16199476D01*
X13004428Y-16189952D01*
X12994905Y-16180428D01*
X12985381Y-16161381D01*
X12975857Y-16123286D01*
X12975857Y-16075667D01*
X12985381Y-16037571D01*
X12994905Y-16018524D01*
X13004428Y-16009000D01*
X13023476Y-15999476D01*
X13175857Y-16180428D02*
X13185381Y-16189952D01*
X13175857Y-16199476D01*
X13166333Y-16189952D01*
X13175857Y-16180428D01*
X13175857Y-16199476D01*
X13309190Y-15999476D02*
X13328238Y-15999476D01*
X13347286Y-16009000D01*
X13356809Y-16018524D01*
X13366333Y-16037571D01*
X13375857Y-16075667D01*
X13375857Y-16123286D01*
X13366333Y-16161381D01*
X13356809Y-16180428D01*
X13347286Y-16189952D01*
X13328238Y-16199476D01*
X13309190Y-16199476D01*
X13290143Y-16189952D01*
X13280619Y-16180428D01*
X13271095Y-16161381D01*
X13261571Y-16123286D01*
X13261571Y-16075667D01*
X13271095Y-16037571D01*
X13280619Y-16018524D01*
X13290143Y-16009000D01*
X13309190Y-15999476D01*
X13442524Y-15999476D02*
X13566333Y-15999476D01*
X13499667Y-16075667D01*
X13528238Y-16075667D01*
X13547286Y-16085190D01*
X13556809Y-16094714D01*
X13566333Y-16113762D01*
X13566333Y-16161381D01*
X13556809Y-16180428D01*
X13547286Y-16189952D01*
X13528238Y-16199476D01*
X13471095Y-16199476D01*
X13452048Y-16189952D01*
X13442524Y-16180428D01*
X13661571Y-16199476D02*
X13699667Y-16199476D01*
X13718714Y-16189952D01*
X13728238Y-16180428D01*
X13747286Y-16151857D01*
X13756809Y-16113762D01*
X13756809Y-16037571D01*
X13747286Y-16018524D01*
X13737762Y-16009000D01*
X13718714Y-15999476D01*
X13680619Y-15999476D01*
X13661571Y-16009000D01*
X13652048Y-16018524D01*
X13642524Y-16037571D01*
X13642524Y-16085190D01*
X13652048Y-16104238D01*
X13661571Y-16113762D01*
X13680619Y-16123286D01*
X13718714Y-16123286D01*
X13737762Y-16113762D01*
X13747286Y-16104238D01*
X13756809Y-16085190D01*
X13928238Y-16066143D02*
X13928238Y-16199476D01*
X13880619Y-15989952D02*
X13833000Y-16132809D01*
X13956809Y-16132809D01*
X14023476Y-15999476D02*
X14023476Y-16037571D01*
X14099667Y-15999476D02*
X14099667Y-16037571D01*
X14394905Y-16275667D02*
X14385381Y-16266143D01*
X14366333Y-16237571D01*
X14356809Y-16218524D01*
X14347286Y-16189952D01*
X14337762Y-16142333D01*
X14337762Y-16104238D01*
X14347286Y-16056619D01*
X14356809Y-16028048D01*
X14366333Y-16009000D01*
X14385381Y-15980428D01*
X14394905Y-15970905D01*
X14575857Y-16199476D02*
X14461571Y-16199476D01*
X14518714Y-16199476D02*
X14518714Y-15999476D01*
X14499667Y-16028048D01*
X14480619Y-16047095D01*
X14461571Y-16056619D01*
X14642524Y-15999476D02*
X14766333Y-15999476D01*
X14699667Y-16075667D01*
X14728238Y-16075667D01*
X14747286Y-16085190D01*
X14756809Y-16094714D01*
X14766333Y-16113762D01*
X14766333Y-16161381D01*
X14756809Y-16180428D01*
X14747286Y-16189952D01*
X14728238Y-16199476D01*
X14671095Y-16199476D01*
X14652048Y-16189952D01*
X14642524Y-16180428D01*
X14842524Y-16018524D02*
X14852048Y-16009000D01*
X14871095Y-15999476D01*
X14918714Y-15999476D01*
X14937762Y-16009000D01*
X14947286Y-16018524D01*
X14956809Y-16037571D01*
X14956809Y-16056619D01*
X14947286Y-16085190D01*
X14833000Y-16199476D01*
X14956809Y-16199476D01*
X15194905Y-16199476D02*
X15194905Y-15999476D01*
X15280619Y-16199476D02*
X15280619Y-16094714D01*
X15271095Y-16075667D01*
X15252048Y-16066143D01*
X15223476Y-16066143D01*
X15204428Y-16075667D01*
X15194905Y-16085190D01*
X15404428Y-16199476D02*
X15385381Y-16189952D01*
X15375857Y-16180428D01*
X15366333Y-16161381D01*
X15366333Y-16104238D01*
X15375857Y-16085190D01*
X15385381Y-16075667D01*
X15404428Y-16066143D01*
X15433000Y-16066143D01*
X15452048Y-16075667D01*
X15461571Y-16085190D01*
X15471095Y-16104238D01*
X15471095Y-16161381D01*
X15461571Y-16180428D01*
X15452048Y-16189952D01*
X15433000Y-16199476D01*
X15404428Y-16199476D01*
X15585381Y-16199476D02*
X15566333Y-16189952D01*
X15556809Y-16170905D01*
X15556809Y-15999476D01*
X15737762Y-16189952D02*
X15718714Y-16199476D01*
X15680619Y-16199476D01*
X15661571Y-16189952D01*
X15652048Y-16170905D01*
X15652048Y-16094714D01*
X15661571Y-16075667D01*
X15680619Y-16066143D01*
X15718714Y-16066143D01*
X15737762Y-16075667D01*
X15747286Y-16094714D01*
X15747286Y-16113762D01*
X15652048Y-16132809D01*
X15823476Y-16189952D02*
X15842524Y-16199476D01*
X15880619Y-16199476D01*
X15899667Y-16189952D01*
X15909190Y-16170905D01*
X15909190Y-16161381D01*
X15899667Y-16142333D01*
X15880619Y-16132809D01*
X15852048Y-16132809D01*
X15833000Y-16123286D01*
X15823476Y-16104238D01*
X15823476Y-16094714D01*
X15833000Y-16075667D01*
X15852048Y-16066143D01*
X15880619Y-16066143D01*
X15899667Y-16075667D01*
X15975857Y-16275667D02*
X15985381Y-16266143D01*
X16004428Y-16237571D01*
X16013952Y-16218524D01*
X16023476Y-16189952D01*
X16033000Y-16142333D01*
X16033000Y-16104238D01*
X16023476Y-16056619D01*
X16013952Y-16028048D01*
X16004428Y-16009000D01*
X15985381Y-15980428D01*
X15975857Y-15970905D01*
M02*
