%TF.GenerationSoftware,KiCad,Pcbnew,(6.0.2)*%
%TF.CreationDate,2022-03-19T17:29:51+02:00*%
%TF.ProjectId,main,6d61696e-2e6b-4696-9361-645f70636258,rev?*%
%TF.SameCoordinates,Original*%
%TF.FileFunction,Copper,L1,Top*%
%TF.FilePolarity,Positive*%
%FSLAX46Y46*%
G04 Gerber Fmt 4.6, Leading zero omitted, Abs format (unit mm)*
G04 Created by KiCad (PCBNEW (6.0.2)) date 2022-03-19 17:29:51*
%MOMM*%
%LPD*%
G01*
G04 APERTURE LIST*
G04 Aperture macros list*
%AMRoundRect*
0 Rectangle with rounded corners*
0 $1 Rounding radius*
0 $2 $3 $4 $5 $6 $7 $8 $9 X,Y pos of 4 corners*
0 Add a 4 corners polygon primitive as box body*
4,1,4,$2,$3,$4,$5,$6,$7,$8,$9,$2,$3,0*
0 Add four circle primitives for the rounded corners*
1,1,$1+$1,$2,$3*
1,1,$1+$1,$4,$5*
1,1,$1+$1,$6,$7*
1,1,$1+$1,$8,$9*
0 Add four rect primitives between the rounded corners*
20,1,$1+$1,$2,$3,$4,$5,0*
20,1,$1+$1,$4,$5,$6,$7,0*
20,1,$1+$1,$6,$7,$8,$9,0*
20,1,$1+$1,$8,$9,$2,$3,0*%
G04 Aperture macros list end*
%ADD10C,0.100000*%
%ADD11C,0.150000*%
%ADD12C,0.300000*%
%ADD13C,0.400000*%
%TA.AperFunction,Profile*%
%ADD14C,0.150000*%
%TD*%
%TA.AperFunction,SMDPad,CuDef*%
%ADD15RoundRect,0.100000X-0.130000X-0.100000X0.130000X-0.100000X0.130000X0.100000X-0.130000X0.100000X0*%
%TD*%
%TA.AperFunction,SMDPad,CuDef*%
%ADD16RoundRect,0.150000X-0.150000X0.512500X-0.150000X-0.512500X0.150000X-0.512500X0.150000X0.512500X0*%
%TD*%
%TA.AperFunction,SMDPad,CuDef*%
%ADD17RoundRect,0.100000X0.130000X0.100000X-0.130000X0.100000X-0.130000X-0.100000X0.130000X-0.100000X0*%
%TD*%
%TA.AperFunction,SMDPad,CuDef*%
%ADD18RoundRect,0.049600X-0.605400X-0.260400X0.605400X-0.260400X0.605400X0.260400X-0.605400X0.260400X0*%
%TD*%
%TA.AperFunction,SMDPad,CuDef*%
%ADD19RoundRect,0.150000X-0.512500X-0.150000X0.512500X-0.150000X0.512500X0.150000X-0.512500X0.150000X0*%
%TD*%
%TA.AperFunction,SMDPad,CuDef*%
%ADD20RoundRect,0.243750X0.243750X0.456250X-0.243750X0.456250X-0.243750X-0.456250X0.243750X-0.456250X0*%
%TD*%
%TA.AperFunction,SMDPad,CuDef*%
%ADD21R,1.650000X0.400000*%
%TD*%
%TA.AperFunction,SMDPad,CuDef*%
%ADD22R,0.700000X1.825000*%
%TD*%
%TA.AperFunction,ComponentPad*%
%ADD23O,1.700000X1.350000*%
%TD*%
%TA.AperFunction,ComponentPad*%
%ADD24O,1.500000X1.100000*%
%TD*%
%TA.AperFunction,SMDPad,CuDef*%
%ADD25R,2.500000X1.430000*%
%TD*%
%TA.AperFunction,SMDPad,CuDef*%
%ADD26R,2.000000X1.350000*%
%TD*%
%TA.AperFunction,SMDPad,CuDef*%
%ADD27R,1.500000X2.000000*%
%TD*%
%TA.AperFunction,SMDPad,CuDef*%
%ADD28RoundRect,0.100000X0.100000X-0.130000X0.100000X0.130000X-0.100000X0.130000X-0.100000X-0.130000X0*%
%TD*%
%TA.AperFunction,SMDPad,CuDef*%
%ADD29RoundRect,0.039900X0.245100X-0.945100X0.245100X0.945100X-0.245100X0.945100X-0.245100X-0.945100X0*%
%TD*%
%TA.AperFunction,ComponentPad*%
%ADD30C,1.498000*%
%TD*%
%TA.AperFunction,ComponentPad*%
%ADD31R,1.498000X1.498000*%
%TD*%
%TA.AperFunction,ComponentPad*%
%ADD32R,1.700000X1.700000*%
%TD*%
%TA.AperFunction,ComponentPad*%
%ADD33O,1.700000X1.700000*%
%TD*%
%TA.AperFunction,SMDPad,CuDef*%
%ADD34R,0.533400X1.701800*%
%TD*%
%TA.AperFunction,SMDPad,CuDef*%
%ADD35RoundRect,0.243750X-0.243750X-0.456250X0.243750X-0.456250X0.243750X0.456250X-0.243750X0.456250X0*%
%TD*%
%TA.AperFunction,SMDPad,CuDef*%
%ADD36RoundRect,0.100000X-0.100000X0.130000X-0.100000X-0.130000X0.100000X-0.130000X0.100000X0.130000X0*%
%TD*%
%TA.AperFunction,SMDPad,CuDef*%
%ADD37RoundRect,0.243750X0.456250X-0.243750X0.456250X0.243750X-0.456250X0.243750X-0.456250X-0.243750X0*%
%TD*%
%TA.AperFunction,SMDPad,CuDef*%
%ADD38R,7.340000X6.350000*%
%TD*%
%TA.AperFunction,ComponentPad*%
%ADD39R,1.300000X1.300000*%
%TD*%
%TA.AperFunction,ComponentPad*%
%ADD40C,1.300000*%
%TD*%
%TA.AperFunction,SMDPad,CuDef*%
%ADD41R,2.200000X1.200000*%
%TD*%
%TA.AperFunction,SMDPad,CuDef*%
%ADD42R,6.400000X5.800000*%
%TD*%
%TA.AperFunction,ViaPad*%
%ADD43C,0.800000*%
%TD*%
%TA.AperFunction,Conductor*%
%ADD44C,0.250000*%
%TD*%
%TA.AperFunction,Conductor*%
%ADD45C,0.200000*%
%TD*%
G04 APERTURE END LIST*
D10*
D11*
X177002200Y-166007200D02*
X177002200Y-198007200D01*
X285002200Y-198007200D01*
X285002200Y-166007200D01*
X177002200Y-166007200D01*
D10*
D11*
X10000000Y-10000000D02*
X10000000Y-200007200D01*
X287002200Y-200007200D01*
X287002200Y-10000000D01*
X10000000Y-10000000D01*
D10*
D11*
X12000000Y-12000000D02*
X12000000Y-198007200D01*
X285002200Y-198007200D01*
X285002200Y-12000000D01*
X12000000Y-12000000D01*
D10*
D11*
X60000000Y-12000000D02*
X60000000Y-10000000D01*
D10*
D11*
X110000000Y-12000000D02*
X110000000Y-10000000D01*
D10*
D11*
X160000000Y-12000000D02*
X160000000Y-10000000D01*
D10*
D11*
X210000000Y-12000000D02*
X210000000Y-10000000D01*
D10*
D11*
X260000000Y-12000000D02*
X260000000Y-10000000D01*
D10*
D11*
X36065476Y-11588095D02*
X35322619Y-11588095D01*
X35694047Y-11588095D02*
X35694047Y-10288095D01*
X35570238Y-10473809D01*
X35446428Y-10597619D01*
X35322619Y-10659523D01*
D10*
D11*
X85322619Y-10411904D02*
X85384523Y-10350000D01*
X85508333Y-10288095D01*
X85817857Y-10288095D01*
X85941666Y-10350000D01*
X86003571Y-10411904D01*
X86065476Y-10535714D01*
X86065476Y-10659523D01*
X86003571Y-10845238D01*
X85260714Y-11588095D01*
X86065476Y-11588095D01*
D10*
D11*
X135260714Y-10288095D02*
X136065476Y-10288095D01*
X135632142Y-10783333D01*
X135817857Y-10783333D01*
X135941666Y-10845238D01*
X136003571Y-10907142D01*
X136065476Y-11030952D01*
X136065476Y-11340476D01*
X136003571Y-11464285D01*
X135941666Y-11526190D01*
X135817857Y-11588095D01*
X135446428Y-11588095D01*
X135322619Y-11526190D01*
X135260714Y-11464285D01*
D10*
D11*
X185941666Y-10721428D02*
X185941666Y-11588095D01*
X185632142Y-10226190D02*
X185322619Y-11154761D01*
X186127380Y-11154761D01*
D10*
D11*
X236003571Y-10288095D02*
X235384523Y-10288095D01*
X235322619Y-10907142D01*
X235384523Y-10845238D01*
X235508333Y-10783333D01*
X235817857Y-10783333D01*
X235941666Y-10845238D01*
X236003571Y-10907142D01*
X236065476Y-11030952D01*
X236065476Y-11340476D01*
X236003571Y-11464285D01*
X235941666Y-11526190D01*
X235817857Y-11588095D01*
X235508333Y-11588095D01*
X235384523Y-11526190D01*
X235322619Y-11464285D01*
D10*
D11*
X285941666Y-10288095D02*
X285694047Y-10288095D01*
X285570238Y-10350000D01*
X285508333Y-10411904D01*
X285384523Y-10597619D01*
X285322619Y-10845238D01*
X285322619Y-11340476D01*
X285384523Y-11464285D01*
X285446428Y-11526190D01*
X285570238Y-11588095D01*
X285817857Y-11588095D01*
X285941666Y-11526190D01*
X286003571Y-11464285D01*
X286065476Y-11340476D01*
X286065476Y-11030952D01*
X286003571Y-10907142D01*
X285941666Y-10845238D01*
X285817857Y-10783333D01*
X285570238Y-10783333D01*
X285446428Y-10845238D01*
X285384523Y-10907142D01*
X285322619Y-11030952D01*
D10*
D11*
X60000000Y-198007200D02*
X60000000Y-200007200D01*
D10*
D11*
X110000000Y-198007200D02*
X110000000Y-200007200D01*
D10*
D11*
X160000000Y-198007200D02*
X160000000Y-200007200D01*
D10*
D11*
X210000000Y-198007200D02*
X210000000Y-200007200D01*
D10*
D11*
X260000000Y-198007200D02*
X260000000Y-200007200D01*
D10*
D11*
X36065476Y-199595295D02*
X35322619Y-199595295D01*
X35694047Y-199595295D02*
X35694047Y-198295295D01*
X35570238Y-198481009D01*
X35446428Y-198604819D01*
X35322619Y-198666723D01*
D10*
D11*
X85322619Y-198419104D02*
X85384523Y-198357200D01*
X85508333Y-198295295D01*
X85817857Y-198295295D01*
X85941666Y-198357200D01*
X86003571Y-198419104D01*
X86065476Y-198542914D01*
X86065476Y-198666723D01*
X86003571Y-198852438D01*
X85260714Y-199595295D01*
X86065476Y-199595295D01*
D10*
D11*
X135260714Y-198295295D02*
X136065476Y-198295295D01*
X135632142Y-198790533D01*
X135817857Y-198790533D01*
X135941666Y-198852438D01*
X136003571Y-198914342D01*
X136065476Y-199038152D01*
X136065476Y-199347676D01*
X136003571Y-199471485D01*
X135941666Y-199533390D01*
X135817857Y-199595295D01*
X135446428Y-199595295D01*
X135322619Y-199533390D01*
X135260714Y-199471485D01*
D10*
D11*
X185941666Y-198728628D02*
X185941666Y-199595295D01*
X185632142Y-198233390D02*
X185322619Y-199161961D01*
X186127380Y-199161961D01*
D10*
D11*
X236003571Y-198295295D02*
X235384523Y-198295295D01*
X235322619Y-198914342D01*
X235384523Y-198852438D01*
X235508333Y-198790533D01*
X235817857Y-198790533D01*
X235941666Y-198852438D01*
X236003571Y-198914342D01*
X236065476Y-199038152D01*
X236065476Y-199347676D01*
X236003571Y-199471485D01*
X235941666Y-199533390D01*
X235817857Y-199595295D01*
X235508333Y-199595295D01*
X235384523Y-199533390D01*
X235322619Y-199471485D01*
D10*
D11*
X285941666Y-198295295D02*
X285694047Y-198295295D01*
X285570238Y-198357200D01*
X285508333Y-198419104D01*
X285384523Y-198604819D01*
X285322619Y-198852438D01*
X285322619Y-199347676D01*
X285384523Y-199471485D01*
X285446428Y-199533390D01*
X285570238Y-199595295D01*
X285817857Y-199595295D01*
X285941666Y-199533390D01*
X286003571Y-199471485D01*
X286065476Y-199347676D01*
X286065476Y-199038152D01*
X286003571Y-198914342D01*
X285941666Y-198852438D01*
X285817857Y-198790533D01*
X285570238Y-198790533D01*
X285446428Y-198852438D01*
X285384523Y-198914342D01*
X285322619Y-199038152D01*
D10*
D11*
X10000000Y-60000000D02*
X12000000Y-60000000D01*
D10*
D11*
X10000000Y-110000000D02*
X12000000Y-110000000D01*
D10*
D11*
X10000000Y-160000000D02*
X12000000Y-160000000D01*
D10*
D11*
X10690476Y-35216666D02*
X11309523Y-35216666D01*
X10566666Y-35588095D02*
X11000000Y-34288095D01*
X11433333Y-35588095D01*
D10*
D11*
X11092857Y-84907142D02*
X11278571Y-84969047D01*
X11340476Y-85030952D01*
X11402380Y-85154761D01*
X11402380Y-85340476D01*
X11340476Y-85464285D01*
X11278571Y-85526190D01*
X11154761Y-85588095D01*
X10659523Y-85588095D01*
X10659523Y-84288095D01*
X11092857Y-84288095D01*
X11216666Y-84350000D01*
X11278571Y-84411904D01*
X11340476Y-84535714D01*
X11340476Y-84659523D01*
X11278571Y-84783333D01*
X11216666Y-84845238D01*
X11092857Y-84907142D01*
X10659523Y-84907142D01*
D10*
D11*
X11402380Y-135464285D02*
X11340476Y-135526190D01*
X11154761Y-135588095D01*
X11030952Y-135588095D01*
X10845238Y-135526190D01*
X10721428Y-135402380D01*
X10659523Y-135278571D01*
X10597619Y-135030952D01*
X10597619Y-134845238D01*
X10659523Y-134597619D01*
X10721428Y-134473809D01*
X10845238Y-134350000D01*
X11030952Y-134288095D01*
X11154761Y-134288095D01*
X11340476Y-134350000D01*
X11402380Y-134411904D01*
D10*
D11*
X10659523Y-185588095D02*
X10659523Y-184288095D01*
X10969047Y-184288095D01*
X11154761Y-184350000D01*
X11278571Y-184473809D01*
X11340476Y-184597619D01*
X11402380Y-184845238D01*
X11402380Y-185030952D01*
X11340476Y-185278571D01*
X11278571Y-185402380D01*
X11154761Y-185526190D01*
X10969047Y-185588095D01*
X10659523Y-185588095D01*
D10*
D11*
X287002200Y-60000000D02*
X285002200Y-60000000D01*
D10*
D11*
X287002200Y-110000000D02*
X285002200Y-110000000D01*
D10*
D11*
X287002200Y-160000000D02*
X285002200Y-160000000D01*
D10*
D11*
X285692676Y-35216666D02*
X286311723Y-35216666D01*
X285568866Y-35588095D02*
X286002200Y-34288095D01*
X286435533Y-35588095D01*
D10*
D11*
X286095057Y-84907142D02*
X286280771Y-84969047D01*
X286342676Y-85030952D01*
X286404580Y-85154761D01*
X286404580Y-85340476D01*
X286342676Y-85464285D01*
X286280771Y-85526190D01*
X286156961Y-85588095D01*
X285661723Y-85588095D01*
X285661723Y-84288095D01*
X286095057Y-84288095D01*
X286218866Y-84350000D01*
X286280771Y-84411904D01*
X286342676Y-84535714D01*
X286342676Y-84659523D01*
X286280771Y-84783333D01*
X286218866Y-84845238D01*
X286095057Y-84907142D01*
X285661723Y-84907142D01*
D10*
D11*
X286404580Y-135464285D02*
X286342676Y-135526190D01*
X286156961Y-135588095D01*
X286033152Y-135588095D01*
X285847438Y-135526190D01*
X285723628Y-135402380D01*
X285661723Y-135278571D01*
X285599819Y-135030952D01*
X285599819Y-134845238D01*
X285661723Y-134597619D01*
X285723628Y-134473809D01*
X285847438Y-134350000D01*
X286033152Y-134288095D01*
X286156961Y-134288095D01*
X286342676Y-134350000D01*
X286404580Y-134411904D01*
D10*
D11*
X285661723Y-185588095D02*
X285661723Y-184288095D01*
X285971247Y-184288095D01*
X286156961Y-184350000D01*
X286280771Y-184473809D01*
X286342676Y-184597619D01*
X286404580Y-184845238D01*
X286404580Y-185030952D01*
X286342676Y-185278571D01*
X286280771Y-185402380D01*
X286156961Y-185526190D01*
X285971247Y-185588095D01*
X285661723Y-185588095D01*
D10*
D11*
X200434342Y-193785771D02*
X200434342Y-192285771D01*
X200791485Y-192285771D01*
X201005771Y-192357200D01*
X201148628Y-192500057D01*
X201220057Y-192642914D01*
X201291485Y-192928628D01*
X201291485Y-193142914D01*
X201220057Y-193428628D01*
X201148628Y-193571485D01*
X201005771Y-193714342D01*
X200791485Y-193785771D01*
X200434342Y-193785771D01*
X202577200Y-193785771D02*
X202577200Y-193000057D01*
X202505771Y-192857200D01*
X202362914Y-192785771D01*
X202077200Y-192785771D01*
X201934342Y-192857200D01*
X202577200Y-193714342D02*
X202434342Y-193785771D01*
X202077200Y-193785771D01*
X201934342Y-193714342D01*
X201862914Y-193571485D01*
X201862914Y-193428628D01*
X201934342Y-193285771D01*
X202077200Y-193214342D01*
X202434342Y-193214342D01*
X202577200Y-193142914D01*
X203077200Y-192785771D02*
X203648628Y-192785771D01*
X203291485Y-192285771D02*
X203291485Y-193571485D01*
X203362914Y-193714342D01*
X203505771Y-193785771D01*
X203648628Y-193785771D01*
X204720057Y-193714342D02*
X204577200Y-193785771D01*
X204291485Y-193785771D01*
X204148628Y-193714342D01*
X204077200Y-193571485D01*
X204077200Y-193000057D01*
X204148628Y-192857200D01*
X204291485Y-192785771D01*
X204577200Y-192785771D01*
X204720057Y-192857200D01*
X204791485Y-193000057D01*
X204791485Y-193142914D01*
X204077200Y-193285771D01*
X205434342Y-193642914D02*
X205505771Y-193714342D01*
X205434342Y-193785771D01*
X205362914Y-193714342D01*
X205434342Y-193642914D01*
X205434342Y-193785771D01*
X205434342Y-192857200D02*
X205505771Y-192928628D01*
X205434342Y-193000057D01*
X205362914Y-192928628D01*
X205434342Y-192857200D01*
X205434342Y-193000057D01*
D10*
D11*
X177002200Y-194507200D02*
X285002200Y-194507200D01*
D10*
D11*
X178434342Y-196585771D02*
X178434342Y-195085771D01*
X179291485Y-196585771D02*
X178648628Y-195728628D01*
X179291485Y-195085771D02*
X178434342Y-195942914D01*
X179934342Y-196585771D02*
X179934342Y-195585771D01*
X179934342Y-195085771D02*
X179862914Y-195157200D01*
X179934342Y-195228628D01*
X180005771Y-195157200D01*
X179934342Y-195085771D01*
X179934342Y-195228628D01*
X181505771Y-196442914D02*
X181434342Y-196514342D01*
X181220057Y-196585771D01*
X181077200Y-196585771D01*
X180862914Y-196514342D01*
X180720057Y-196371485D01*
X180648628Y-196228628D01*
X180577200Y-195942914D01*
X180577200Y-195728628D01*
X180648628Y-195442914D01*
X180720057Y-195300057D01*
X180862914Y-195157200D01*
X181077200Y-195085771D01*
X181220057Y-195085771D01*
X181434342Y-195157200D01*
X181505771Y-195228628D01*
X182791485Y-196585771D02*
X182791485Y-195800057D01*
X182720057Y-195657200D01*
X182577200Y-195585771D01*
X182291485Y-195585771D01*
X182148628Y-195657200D01*
X182791485Y-196514342D02*
X182648628Y-196585771D01*
X182291485Y-196585771D01*
X182148628Y-196514342D01*
X182077200Y-196371485D01*
X182077200Y-196228628D01*
X182148628Y-196085771D01*
X182291485Y-196014342D01*
X182648628Y-196014342D01*
X182791485Y-195942914D01*
X184148628Y-196585771D02*
X184148628Y-195085771D01*
X184148628Y-196514342D02*
X184005771Y-196585771D01*
X183720057Y-196585771D01*
X183577200Y-196514342D01*
X183505771Y-196442914D01*
X183434342Y-196300057D01*
X183434342Y-195871485D01*
X183505771Y-195728628D01*
X183577200Y-195657200D01*
X183720057Y-195585771D01*
X184005771Y-195585771D01*
X184148628Y-195657200D01*
X186005771Y-195800057D02*
X186505771Y-195800057D01*
X186720057Y-196585771D02*
X186005771Y-196585771D01*
X186005771Y-195085771D01*
X186720057Y-195085771D01*
X187362914Y-196442914D02*
X187434342Y-196514342D01*
X187362914Y-196585771D01*
X187291485Y-196514342D01*
X187362914Y-196442914D01*
X187362914Y-196585771D01*
X188077200Y-196585771D02*
X188077200Y-195085771D01*
X188434342Y-195085771D01*
X188648628Y-195157200D01*
X188791485Y-195300057D01*
X188862914Y-195442914D01*
X188934342Y-195728628D01*
X188934342Y-195942914D01*
X188862914Y-196228628D01*
X188791485Y-196371485D01*
X188648628Y-196514342D01*
X188434342Y-196585771D01*
X188077200Y-196585771D01*
X189577200Y-196442914D02*
X189648628Y-196514342D01*
X189577200Y-196585771D01*
X189505771Y-196514342D01*
X189577200Y-196442914D01*
X189577200Y-196585771D01*
X190220057Y-196157200D02*
X190934342Y-196157200D01*
X190077200Y-196585771D02*
X190577200Y-195085771D01*
X191077200Y-196585771D01*
X191577200Y-196442914D02*
X191648628Y-196514342D01*
X191577200Y-196585771D01*
X191505771Y-196514342D01*
X191577200Y-196442914D01*
X191577200Y-196585771D01*
X194577200Y-195585771D02*
X194577200Y-197085771D01*
X194577200Y-195657200D02*
X194720057Y-195585771D01*
X195005771Y-195585771D01*
X195148628Y-195657200D01*
X195220057Y-195728628D01*
X195291485Y-195871485D01*
X195291485Y-196300057D01*
X195220057Y-196442914D01*
X195148628Y-196514342D01*
X195005771Y-196585771D01*
X194720057Y-196585771D01*
X194577200Y-196514342D01*
X196577200Y-196514342D02*
X196434342Y-196585771D01*
X196148628Y-196585771D01*
X196005771Y-196514342D01*
X195934342Y-196442914D01*
X195862914Y-196300057D01*
X195862914Y-195871485D01*
X195934342Y-195728628D01*
X196005771Y-195657200D01*
X196148628Y-195585771D01*
X196434342Y-195585771D01*
X196577200Y-195657200D01*
X197220057Y-196585771D02*
X197220057Y-195085771D01*
X197220057Y-195657200D02*
X197362914Y-195585771D01*
X197648628Y-195585771D01*
X197791485Y-195657200D01*
X197862914Y-195728628D01*
X197934342Y-195871485D01*
X197934342Y-196300057D01*
X197862914Y-196442914D01*
X197791485Y-196514342D01*
X197648628Y-196585771D01*
X197362914Y-196585771D01*
X197220057Y-196514342D01*
X198577200Y-195585771D02*
X198577200Y-196585771D01*
X198577200Y-195728628D02*
X198648628Y-195657200D01*
X198791485Y-195585771D01*
X199005771Y-195585771D01*
X199148628Y-195657200D01*
X199220057Y-195800057D01*
X199220057Y-196585771D01*
X200505771Y-196514342D02*
X200362914Y-196585771D01*
X200077200Y-196585771D01*
X199934342Y-196514342D01*
X199862914Y-196371485D01*
X199862914Y-195800057D01*
X199934342Y-195657200D01*
X200077200Y-195585771D01*
X200362914Y-195585771D01*
X200505771Y-195657200D01*
X200577200Y-195800057D01*
X200577200Y-195942914D01*
X199862914Y-196085771D01*
X201077200Y-195585771D02*
X201362914Y-196585771D01*
X201648628Y-195871485D01*
X201934342Y-196585771D01*
X202220057Y-195585771D01*
X204362914Y-197157200D02*
X204291485Y-197085771D01*
X204148628Y-196871485D01*
X204077200Y-196728628D01*
X204005771Y-196514342D01*
X203934342Y-196157200D01*
X203934342Y-195871485D01*
X204005771Y-195514342D01*
X204077200Y-195300057D01*
X204148628Y-195157200D01*
X204291485Y-194942914D01*
X204362914Y-194871485D01*
X205577200Y-195085771D02*
X205291485Y-195085771D01*
X205148628Y-195157200D01*
X205077200Y-195228628D01*
X204934342Y-195442914D01*
X204862914Y-195728628D01*
X204862914Y-196300057D01*
X204934342Y-196442914D01*
X205005771Y-196514342D01*
X205148628Y-196585771D01*
X205434342Y-196585771D01*
X205577200Y-196514342D01*
X205648628Y-196442914D01*
X205720057Y-196300057D01*
X205720057Y-195942914D01*
X205648628Y-195800057D01*
X205577200Y-195728628D01*
X205434342Y-195657200D01*
X205148628Y-195657200D01*
X205005771Y-195728628D01*
X204934342Y-195800057D01*
X204862914Y-195942914D01*
X206362914Y-196442914D02*
X206434342Y-196514342D01*
X206362914Y-196585771D01*
X206291485Y-196514342D01*
X206362914Y-196442914D01*
X206362914Y-196585771D01*
X207362914Y-195085771D02*
X207505771Y-195085771D01*
X207648628Y-195157200D01*
X207720057Y-195228628D01*
X207791485Y-195371485D01*
X207862914Y-195657200D01*
X207862914Y-196014342D01*
X207791485Y-196300057D01*
X207720057Y-196442914D01*
X207648628Y-196514342D01*
X207505771Y-196585771D01*
X207362914Y-196585771D01*
X207220057Y-196514342D01*
X207148628Y-196442914D01*
X207077200Y-196300057D01*
X207005771Y-196014342D01*
X207005771Y-195657200D01*
X207077200Y-195371485D01*
X207148628Y-195228628D01*
X207220057Y-195157200D01*
X207362914Y-195085771D01*
X208505771Y-196442914D02*
X208577200Y-196514342D01*
X208505771Y-196585771D01*
X208434342Y-196514342D01*
X208505771Y-196442914D01*
X208505771Y-196585771D01*
X209148628Y-195228628D02*
X209220057Y-195157200D01*
X209362914Y-195085771D01*
X209720057Y-195085771D01*
X209862914Y-195157200D01*
X209934342Y-195228628D01*
X210005771Y-195371485D01*
X210005771Y-195514342D01*
X209934342Y-195728628D01*
X209077200Y-196585771D01*
X210005771Y-196585771D01*
X210505771Y-197157200D02*
X210577200Y-197085771D01*
X210720057Y-196871485D01*
X210791485Y-196728628D01*
X210862914Y-196514342D01*
X210934342Y-196157200D01*
X210934342Y-195871485D01*
X210862914Y-195514342D01*
X210791485Y-195300057D01*
X210720057Y-195157200D01*
X210577200Y-194942914D01*
X210505771Y-194871485D01*
D10*
D11*
X177002200Y-191507200D02*
X285002200Y-191507200D01*
D10*
D12*
X264411485Y-193785771D02*
X263911485Y-193071485D01*
X263554342Y-193785771D02*
X263554342Y-192285771D01*
X264125771Y-192285771D01*
X264268628Y-192357200D01*
X264340057Y-192428628D01*
X264411485Y-192571485D01*
X264411485Y-192785771D01*
X264340057Y-192928628D01*
X264268628Y-193000057D01*
X264125771Y-193071485D01*
X263554342Y-193071485D01*
X265625771Y-193714342D02*
X265482914Y-193785771D01*
X265197200Y-193785771D01*
X265054342Y-193714342D01*
X264982914Y-193571485D01*
X264982914Y-193000057D01*
X265054342Y-192857200D01*
X265197200Y-192785771D01*
X265482914Y-192785771D01*
X265625771Y-192857200D01*
X265697200Y-193000057D01*
X265697200Y-193142914D01*
X264982914Y-193285771D01*
X266197200Y-192785771D02*
X266554342Y-193785771D01*
X266911485Y-192785771D01*
X267482914Y-193642914D02*
X267554342Y-193714342D01*
X267482914Y-193785771D01*
X267411485Y-193714342D01*
X267482914Y-193642914D01*
X267482914Y-193785771D01*
X267482914Y-192857200D02*
X267554342Y-192928628D01*
X267482914Y-193000057D01*
X267411485Y-192928628D01*
X267482914Y-192857200D01*
X267482914Y-193000057D01*
D10*
D11*
X178362914Y-193714342D02*
X178577200Y-193785771D01*
X178934342Y-193785771D01*
X179077200Y-193714342D01*
X179148628Y-193642914D01*
X179220057Y-193500057D01*
X179220057Y-193357200D01*
X179148628Y-193214342D01*
X179077200Y-193142914D01*
X178934342Y-193071485D01*
X178648628Y-193000057D01*
X178505771Y-192928628D01*
X178434342Y-192857200D01*
X178362914Y-192714342D01*
X178362914Y-192571485D01*
X178434342Y-192428628D01*
X178505771Y-192357200D01*
X178648628Y-192285771D01*
X179005771Y-192285771D01*
X179220057Y-192357200D01*
X179862914Y-193785771D02*
X179862914Y-192785771D01*
X179862914Y-192285771D02*
X179791485Y-192357200D01*
X179862914Y-192428628D01*
X179934342Y-192357200D01*
X179862914Y-192285771D01*
X179862914Y-192428628D01*
X180434342Y-192785771D02*
X181220057Y-192785771D01*
X180434342Y-193785771D01*
X181220057Y-193785771D01*
X182362914Y-193714342D02*
X182220057Y-193785771D01*
X181934342Y-193785771D01*
X181791485Y-193714342D01*
X181720057Y-193571485D01*
X181720057Y-193000057D01*
X181791485Y-192857200D01*
X181934342Y-192785771D01*
X182220057Y-192785771D01*
X182362914Y-192857200D01*
X182434342Y-193000057D01*
X182434342Y-193142914D01*
X181720057Y-193285771D01*
X183077200Y-193642914D02*
X183148628Y-193714342D01*
X183077200Y-193785771D01*
X183005771Y-193714342D01*
X183077200Y-193642914D01*
X183077200Y-193785771D01*
X183077200Y-192857200D02*
X183148628Y-192928628D01*
X183077200Y-193000057D01*
X183005771Y-192928628D01*
X183077200Y-192857200D01*
X183077200Y-193000057D01*
X184862914Y-193357200D02*
X185577200Y-193357200D01*
X184720057Y-193785771D02*
X185220057Y-192285771D01*
X185720057Y-193785771D01*
X186862914Y-192785771D02*
X186862914Y-193785771D01*
X186505771Y-192214342D02*
X186148628Y-193285771D01*
X187077200Y-193285771D01*
D10*
D11*
X263434342Y-196585771D02*
X263434342Y-195085771D01*
X264791485Y-196585771D02*
X264791485Y-195085771D01*
X264791485Y-196514342D02*
X264648628Y-196585771D01*
X264362914Y-196585771D01*
X264220057Y-196514342D01*
X264148628Y-196442914D01*
X264077200Y-196300057D01*
X264077200Y-195871485D01*
X264148628Y-195728628D01*
X264220057Y-195657200D01*
X264362914Y-195585771D01*
X264648628Y-195585771D01*
X264791485Y-195657200D01*
X265505771Y-196442914D02*
X265577200Y-196514342D01*
X265505771Y-196585771D01*
X265434342Y-196514342D01*
X265505771Y-196442914D01*
X265505771Y-196585771D01*
X265505771Y-195657200D02*
X265577200Y-195728628D01*
X265505771Y-195800057D01*
X265434342Y-195728628D01*
X265505771Y-195657200D01*
X265505771Y-195800057D01*
X268148628Y-196585771D02*
X267291485Y-196585771D01*
X267720057Y-196585771D02*
X267720057Y-195085771D01*
X267577200Y-195300057D01*
X267434342Y-195442914D01*
X267291485Y-195514342D01*
X269862914Y-195014342D02*
X268577200Y-196942914D01*
X271148628Y-196585771D02*
X270291485Y-196585771D01*
X270720057Y-196585771D02*
X270720057Y-195085771D01*
X270577200Y-195300057D01*
X270434342Y-195442914D01*
X270291485Y-195514342D01*
D10*
D11*
X177002200Y-187507200D02*
X285002200Y-187507200D01*
D10*
D13*
X178714580Y-188211961D02*
X179857438Y-188211961D01*
X179036009Y-190211961D02*
X179286009Y-188211961D01*
X180274104Y-190211961D02*
X180440771Y-188878628D01*
X180524104Y-188211961D02*
X180416961Y-188307200D01*
X180500295Y-188402438D01*
X180607438Y-188307200D01*
X180524104Y-188211961D01*
X180500295Y-188402438D01*
X181107438Y-188878628D02*
X181869342Y-188878628D01*
X181476485Y-188211961D02*
X181262200Y-189926247D01*
X181333628Y-190116723D01*
X181512200Y-190211961D01*
X181702676Y-190211961D01*
X182655057Y-190211961D02*
X182476485Y-190116723D01*
X182405057Y-189926247D01*
X182619342Y-188211961D01*
X184190771Y-190116723D02*
X183988390Y-190211961D01*
X183607438Y-190211961D01*
X183428866Y-190116723D01*
X183357438Y-189926247D01*
X183452676Y-189164342D01*
X183571723Y-188973866D01*
X183774104Y-188878628D01*
X184155057Y-188878628D01*
X184333628Y-188973866D01*
X184405057Y-189164342D01*
X184381247Y-189354819D01*
X183405057Y-189545295D01*
X185155057Y-190021485D02*
X185238390Y-190116723D01*
X185131247Y-190211961D01*
X185047914Y-190116723D01*
X185155057Y-190021485D01*
X185131247Y-190211961D01*
X185286009Y-188973866D02*
X185369342Y-189069104D01*
X185262200Y-189164342D01*
X185178866Y-189069104D01*
X185286009Y-188973866D01*
X185262200Y-189164342D01*
D10*
D11*
X178934342Y-185600057D02*
X178434342Y-185600057D01*
X178434342Y-186385771D02*
X178434342Y-184885771D01*
X179148628Y-184885771D01*
X179720057Y-186385771D02*
X179720057Y-185385771D01*
X179720057Y-184885771D02*
X179648628Y-184957200D01*
X179720057Y-185028628D01*
X179791485Y-184957200D01*
X179720057Y-184885771D01*
X179720057Y-185028628D01*
X180648628Y-186385771D02*
X180505771Y-186314342D01*
X180434342Y-186171485D01*
X180434342Y-184885771D01*
X181791485Y-186314342D02*
X181648628Y-186385771D01*
X181362914Y-186385771D01*
X181220057Y-186314342D01*
X181148628Y-186171485D01*
X181148628Y-185600057D01*
X181220057Y-185457200D01*
X181362914Y-185385771D01*
X181648628Y-185385771D01*
X181791485Y-185457200D01*
X181862914Y-185600057D01*
X181862914Y-185742914D01*
X181148628Y-185885771D01*
X182505771Y-186242914D02*
X182577200Y-186314342D01*
X182505771Y-186385771D01*
X182434342Y-186314342D01*
X182505771Y-186242914D01*
X182505771Y-186385771D01*
X182505771Y-185457200D02*
X182577200Y-185528628D01*
X182505771Y-185600057D01*
X182434342Y-185528628D01*
X182505771Y-185457200D01*
X182505771Y-185600057D01*
X184362914Y-186385771D02*
X184362914Y-185385771D01*
X184362914Y-185528628D02*
X184434342Y-185457200D01*
X184577200Y-185385771D01*
X184791485Y-185385771D01*
X184934342Y-185457200D01*
X185005771Y-185600057D01*
X185005771Y-186385771D01*
X185005771Y-185600057D02*
X185077200Y-185457200D01*
X185220057Y-185385771D01*
X185434342Y-185385771D01*
X185577200Y-185457200D01*
X185648628Y-185600057D01*
X185648628Y-186385771D01*
X187005771Y-186385771D02*
X187005771Y-185600057D01*
X186934342Y-185457200D01*
X186791485Y-185385771D01*
X186505771Y-185385771D01*
X186362914Y-185457200D01*
X187005771Y-186314342D02*
X186862914Y-186385771D01*
X186505771Y-186385771D01*
X186362914Y-186314342D01*
X186291485Y-186171485D01*
X186291485Y-186028628D01*
X186362914Y-185885771D01*
X186505771Y-185814342D01*
X186862914Y-185814342D01*
X187005771Y-185742914D01*
X187720057Y-186385771D02*
X187720057Y-185385771D01*
X187720057Y-184885771D02*
X187648628Y-184957200D01*
X187720057Y-185028628D01*
X187791485Y-184957200D01*
X187720057Y-184885771D01*
X187720057Y-185028628D01*
X188434342Y-185385771D02*
X188434342Y-186385771D01*
X188434342Y-185528628D02*
X188505771Y-185457200D01*
X188648628Y-185385771D01*
X188862914Y-185385771D01*
X189005771Y-185457200D01*
X189077200Y-185600057D01*
X189077200Y-186385771D01*
X189791485Y-186242914D02*
X189862914Y-186314342D01*
X189791485Y-186385771D01*
X189720057Y-186314342D01*
X189791485Y-186242914D01*
X189791485Y-186385771D01*
X190505771Y-186385771D02*
X190505771Y-184885771D01*
X190648628Y-185814342D02*
X191077200Y-186385771D01*
X191077200Y-185385771D02*
X190505771Y-185957200D01*
X191720057Y-186385771D02*
X191720057Y-185385771D01*
X191720057Y-184885771D02*
X191648628Y-184957200D01*
X191720057Y-185028628D01*
X191791485Y-184957200D01*
X191720057Y-184885771D01*
X191720057Y-185028628D01*
X193077200Y-186314342D02*
X192934342Y-186385771D01*
X192648628Y-186385771D01*
X192505771Y-186314342D01*
X192434342Y-186242914D01*
X192362914Y-186100057D01*
X192362914Y-185671485D01*
X192434342Y-185528628D01*
X192505771Y-185457200D01*
X192648628Y-185385771D01*
X192934342Y-185385771D01*
X193077200Y-185457200D01*
X194362914Y-186385771D02*
X194362914Y-185600057D01*
X194291485Y-185457200D01*
X194148628Y-185385771D01*
X193862914Y-185385771D01*
X193720057Y-185457200D01*
X194362914Y-186314342D02*
X194220057Y-186385771D01*
X193862914Y-186385771D01*
X193720057Y-186314342D01*
X193648628Y-186171485D01*
X193648628Y-186028628D01*
X193720057Y-185885771D01*
X193862914Y-185814342D01*
X194220057Y-185814342D01*
X194362914Y-185742914D01*
X195720057Y-186385771D02*
X195720057Y-184885771D01*
X195720057Y-186314342D02*
X195577200Y-186385771D01*
X195291485Y-186385771D01*
X195148628Y-186314342D01*
X195077200Y-186242914D01*
X195005771Y-186100057D01*
X195005771Y-185671485D01*
X195077200Y-185528628D01*
X195148628Y-185457200D01*
X195291485Y-185385771D01*
X195577200Y-185385771D01*
X195720057Y-185457200D01*
X196077200Y-186528628D02*
X197220057Y-186528628D01*
X197577200Y-185385771D02*
X197577200Y-186885771D01*
X197577200Y-185457200D02*
X197720057Y-185385771D01*
X198005771Y-185385771D01*
X198148628Y-185457200D01*
X198220057Y-185528628D01*
X198291485Y-185671485D01*
X198291485Y-186100057D01*
X198220057Y-186242914D01*
X198148628Y-186314342D01*
X198005771Y-186385771D01*
X197720057Y-186385771D01*
X197577200Y-186314342D01*
X199577200Y-186314342D02*
X199434342Y-186385771D01*
X199148628Y-186385771D01*
X199005771Y-186314342D01*
X198934342Y-186242914D01*
X198862914Y-186100057D01*
X198862914Y-185671485D01*
X198934342Y-185528628D01*
X199005771Y-185457200D01*
X199148628Y-185385771D01*
X199434342Y-185385771D01*
X199577200Y-185457200D01*
X200220057Y-186385771D02*
X200220057Y-184885771D01*
X200220057Y-185457200D02*
X200362914Y-185385771D01*
X200648628Y-185385771D01*
X200791485Y-185457200D01*
X200862914Y-185528628D01*
X200934342Y-185671485D01*
X200934342Y-186100057D01*
X200862914Y-186242914D01*
X200791485Y-186314342D01*
X200648628Y-186385771D01*
X200362914Y-186385771D01*
X200220057Y-186314342D01*
D10*
D11*
X177002200Y-181507200D02*
X285002200Y-181507200D01*
D10*
D11*
X178362914Y-183614342D02*
X178577200Y-183685771D01*
X178934342Y-183685771D01*
X179077200Y-183614342D01*
X179148628Y-183542914D01*
X179220057Y-183400057D01*
X179220057Y-183257200D01*
X179148628Y-183114342D01*
X179077200Y-183042914D01*
X178934342Y-182971485D01*
X178648628Y-182900057D01*
X178505771Y-182828628D01*
X178434342Y-182757200D01*
X178362914Y-182614342D01*
X178362914Y-182471485D01*
X178434342Y-182328628D01*
X178505771Y-182257200D01*
X178648628Y-182185771D01*
X179005771Y-182185771D01*
X179220057Y-182257200D01*
X179862914Y-183685771D02*
X179862914Y-182185771D01*
X180505771Y-183685771D02*
X180505771Y-182900057D01*
X180434342Y-182757200D01*
X180291485Y-182685771D01*
X180077200Y-182685771D01*
X179934342Y-182757200D01*
X179862914Y-182828628D01*
X181791485Y-183614342D02*
X181648628Y-183685771D01*
X181362914Y-183685771D01*
X181220057Y-183614342D01*
X181148628Y-183471485D01*
X181148628Y-182900057D01*
X181220057Y-182757200D01*
X181362914Y-182685771D01*
X181648628Y-182685771D01*
X181791485Y-182757200D01*
X181862914Y-182900057D01*
X181862914Y-183042914D01*
X181148628Y-183185771D01*
X183077200Y-183614342D02*
X182934342Y-183685771D01*
X182648628Y-183685771D01*
X182505771Y-183614342D01*
X182434342Y-183471485D01*
X182434342Y-182900057D01*
X182505771Y-182757200D01*
X182648628Y-182685771D01*
X182934342Y-182685771D01*
X183077200Y-182757200D01*
X183148628Y-182900057D01*
X183148628Y-183042914D01*
X182434342Y-183185771D01*
X183577200Y-182685771D02*
X184148628Y-182685771D01*
X183791485Y-182185771D02*
X183791485Y-183471485D01*
X183862914Y-183614342D01*
X184005771Y-183685771D01*
X184148628Y-183685771D01*
X184648628Y-183542914D02*
X184720057Y-183614342D01*
X184648628Y-183685771D01*
X184577200Y-183614342D01*
X184648628Y-183542914D01*
X184648628Y-183685771D01*
X184648628Y-182757200D02*
X184720057Y-182828628D01*
X184648628Y-182900057D01*
X184577200Y-182828628D01*
X184648628Y-182757200D01*
X184648628Y-182900057D01*
D10*
D12*
D10*
D11*
D10*
D11*
D10*
D11*
D10*
D11*
D10*
D11*
X197002200Y-191507200D02*
X197002200Y-194507200D01*
D10*
D11*
X261002200Y-191507200D02*
X261002200Y-198007200D01*
D14*
X189700000Y-58420000D02*
X189700000Y-158420000D01*
X89700000Y-58420000D02*
X189700000Y-58420000D01*
X89700000Y-58420000D02*
X89700000Y-158420000D01*
X89700000Y-158420000D02*
X189700000Y-158420000D01*
D15*
%TO.P,R10,2*%
%TO.N,/PC0*%
X147640000Y-78740000D03*
%TO.P,R10,1*%
%TO.N,+5V*%
X147000000Y-78740000D03*
%TD*%
D16*
%TO.P,U2,1,STAT*%
%TO.N,Net-(D2-Pad1)*%
X125410000Y-105542500D03*
%TO.P,U2,2,VSS*%
%TO.N,GND*%
X124460000Y-105542500D03*
%TO.P,U2,3,VBAT*%
%TO.N,Net-(BT1-Pad1)*%
X123510000Y-105542500D03*
%TO.P,U2,4,VDD*%
%TO.N,Net-(C2-Pad1)*%
X123510000Y-107817500D03*
%TO.P,U2,5,PROG*%
%TO.N,Net-(R1-Pad1)*%
X125410000Y-107817500D03*
%TD*%
D17*
%TO.P,R14,2*%
%TO.N,Net-(LED1-Pad2)*%
X159700000Y-83820000D03*
%TO.P,R14,1*%
%TO.N,+5V*%
X160340000Y-83820000D03*
%TD*%
D18*
%TO.P,FTDI(UART)1,1,GND*%
%TO.N,GND*%
X116630000Y-81915000D03*
%TO.P,FTDI(UART)1,2,TXD*%
%TO.N,/PA2*%
X116630000Y-83185000D03*
%TO.P,FTDI(UART)1,3,RXD*%
%TO.N,/PA3*%
X116630000Y-84455000D03*
%TO.P,FTDI(UART)1,4,V3*%
%TO.N,Net-(C5-Pad1)*%
X116630000Y-85725000D03*
%TO.P,FTDI(UART)1,5,UD+*%
%TO.N,USB D+*%
X116630000Y-86995000D03*
%TO.P,FTDI(UART)1,6,UD-*%
%TO.N,USB D-*%
X116630000Y-88265000D03*
%TO.P,FTDI(UART)1,7,NC*%
%TO.N,unconnected-(FTDI(UART)1-Pad7)*%
X116630000Y-89535000D03*
%TO.P,FTDI(UART)1,8,NC*%
%TO.N,unconnected-(FTDI(UART)1-Pad8)*%
X116630000Y-90805000D03*
%TO.P,FTDI(UART)1,9,~{CTS}*%
%TO.N,unconnected-(FTDI(UART)1-Pad9)*%
X122130000Y-90805000D03*
%TO.P,FTDI(UART)1,10,~{DSR}*%
%TO.N,unconnected-(FTDI(UART)1-Pad10)*%
X122130000Y-89535000D03*
%TO.P,FTDI(UART)1,11,~{RI}*%
%TO.N,unconnected-(FTDI(UART)1-Pad11)*%
X122130000Y-88265000D03*
%TO.P,FTDI(UART)1,12,~{DCD}*%
%TO.N,unconnected-(FTDI(UART)1-Pad12)*%
X122130000Y-86995000D03*
%TO.P,FTDI(UART)1,13,~{DTR}*%
%TO.N,Net-(FTDI(UART)1-Pad13)*%
X122130000Y-85725000D03*
%TO.P,FTDI(UART)1,14,~{RTS}*%
%TO.N,unconnected-(FTDI(UART)1-Pad14)*%
X122130000Y-84455000D03*
%TO.P,FTDI(UART)1,15,R232*%
%TO.N,+5V*%
X122130000Y-83185000D03*
%TO.P,FTDI(UART)1,16,VCC*%
X122130000Y-81915000D03*
%TD*%
D15*
%TO.P,C2,2*%
%TO.N,GND*%
X129860000Y-111760000D03*
%TO.P,C2,1*%
%TO.N,Net-(C2-Pad1)*%
X129220000Y-111760000D03*
%TD*%
D19*
%TO.P,U1,1,+*%
%TO.N,Net-(Q1-Pad1)*%
X120782500Y-95570000D03*
%TO.P,U1,2,-*%
%TO.N,Net-(R4-Pad2)*%
X120782500Y-96520000D03*
%TO.P,U1,3*%
%TO.N,OPAMP OUT*%
X120782500Y-97470000D03*
%TO.P,U1,4,V+*%
%TO.N,Net-(BT1-Pad1)*%
X123057500Y-97470000D03*
%TO.P,U1,5,V-*%
%TO.N,GND*%
X123057500Y-95570000D03*
%TD*%
D20*
%TO.P,D2,1,K*%
%TO.N,Net-(D2-Pad1)*%
X120317500Y-109220000D03*
%TO.P,D2,2,A*%
%TO.N,Net-(D2-Pad2)*%
X118442500Y-109220000D03*
%TD*%
D21*
%TO.P,J6,1,VBUS*%
%TO.N,Net-(D3-Pad1)*%
X99835000Y-85145000D03*
%TO.P,J6,2,D-*%
%TO.N,USB D-*%
X99835000Y-84495000D03*
%TO.P,J6,3,D+*%
%TO.N,USB D+*%
X99835000Y-83845000D03*
%TO.P,J6,4,ID*%
%TO.N,unconnected-(J6-Pad4)*%
X99835000Y-83195000D03*
%TO.P,J6,5,GND*%
%TO.N,GND*%
X99835000Y-82545000D03*
D22*
%TO.P,J6,6,Shield*%
X101035000Y-86795000D03*
D23*
X102715000Y-86575000D03*
D24*
X99715000Y-86265000D03*
D25*
X102985000Y-84805000D03*
D26*
X101785000Y-86575000D03*
D23*
X102715000Y-81115000D03*
D27*
X99735000Y-86695000D03*
D22*
X101035000Y-80845000D03*
D24*
X99715000Y-81425000D03*
D27*
X99715000Y-80945000D03*
D25*
X102985000Y-82885000D03*
D26*
X101785000Y-81095000D03*
%TD*%
D21*
%TO.P,J5,1,VBUS*%
%TO.N,Net-(C2-Pad1)*%
X99060000Y-105440000D03*
%TO.P,J5,2,D-*%
%TO.N,unconnected-(J5-Pad2)*%
X99060000Y-104790000D03*
%TO.P,J5,3,D+*%
%TO.N,unconnected-(J5-Pad3)*%
X99060000Y-104140000D03*
%TO.P,J5,4,ID*%
%TO.N,unconnected-(J5-Pad4)*%
X99060000Y-103490000D03*
%TO.P,J5,5,GND*%
%TO.N,GND*%
X99060000Y-102840000D03*
D23*
%TO.P,J5,6,Shield*%
X101940000Y-101410000D03*
D26*
X101010000Y-106870000D03*
D22*
X100260000Y-107090000D03*
D23*
X101940000Y-106870000D03*
D27*
X98960000Y-106990000D03*
D22*
X100260000Y-101140000D03*
D25*
X102210000Y-105100000D03*
D24*
X98940000Y-101720000D03*
D27*
X98940000Y-101240000D03*
D24*
X98940000Y-106560000D03*
D26*
X101010000Y-101390000D03*
D25*
X102210000Y-103180000D03*
%TD*%
D28*
%TO.P,R18,2*%
%TO.N,GND*%
X134620000Y-88580000D03*
%TO.P,R18,1*%
%TO.N,Net-(FTDI(UART)1-Pad13)*%
X134620000Y-89220000D03*
%TD*%
D17*
%TO.P,R16,2*%
%TO.N,Net-(R16-Pad2)*%
X136840000Y-93980000D03*
%TO.P,R16,1*%
%TO.N,Net-(D3-Pad2)*%
X137480000Y-93980000D03*
%TD*%
D15*
%TO.P,C1,2*%
%TO.N,GND*%
X107000000Y-101600000D03*
%TO.P,C1,1*%
%TO.N,OPAMP OUT*%
X106360000Y-101600000D03*
%TD*%
D29*
%TO.P,EEPROM1,1,A0*%
%TO.N,GND*%
X127635000Y-98995000D03*
%TO.P,EEPROM1,2,A1*%
X128905000Y-98995000D03*
%TO.P,EEPROM1,3,A2*%
X130175000Y-98995000D03*
%TO.P,EEPROM1,4,GND*%
X131445000Y-98995000D03*
%TO.P,EEPROM1,5,SDA*%
%TO.N,/Sensing/I2CBUS*%
X131445000Y-94045000D03*
%TO.P,EEPROM1,6,SCL*%
%TO.N,/Sensing/CLK*%
X130175000Y-94045000D03*
%TO.P,EEPROM1,7,WP*%
%TO.N,/microcontroller_interfacing/GND = Normal R{slash}W operations*%
X128905000Y-94045000D03*
%TO.P,EEPROM1,8,VCC*%
%TO.N,+5V*%
X127635000Y-94045000D03*
%TD*%
D15*
%TO.P,LDR1,2*%
%TO.N,GND*%
X165420000Y-111760000D03*
%TO.P,LDR1,1*%
%TO.N,/PC1*%
X164780000Y-111760000D03*
%TD*%
D30*
%TO.P,SW1,4*%
%TO.N,N/C*%
X156770000Y-89190000D03*
%TO.P,SW1,3*%
X163270000Y-89190000D03*
%TO.P,SW1,2,2*%
%TO.N,Net-(R9-Pad2)*%
X156770000Y-93690000D03*
D31*
%TO.P,SW1,1,1*%
%TO.N,+5V*%
X163270000Y-93690000D03*
%TD*%
D32*
%TO.P,J2,1,Pin_1*%
%TO.N,+3V0*%
X180340000Y-76200000D03*
D33*
%TO.P,J2,2,Pin_2*%
%TO.N,GND*%
X177800000Y-76200000D03*
%TO.P,J2,3,Pin_3*%
%TO.N,/VBAT*%
X175260000Y-76200000D03*
%TO.P,J2,4,Pin_4*%
%TO.N,/PC13*%
X172720000Y-76200000D03*
%TO.P,J2,5,Pin_5*%
%TO.N,/PC14*%
X170180000Y-76200000D03*
%TO.P,J2,6,Pin_6*%
%TO.N,/PC15*%
X167640000Y-76200000D03*
%TO.P,J2,7,Pin_7*%
%TO.N,/PF0*%
X165100000Y-76200000D03*
%TO.P,J2,8,Pin_8*%
%TO.N,/PF1*%
X162560000Y-76200000D03*
%TO.P,J2,9,Pin_9*%
%TO.N,GND*%
X160020000Y-76200000D03*
%TO.P,J2,10,Pin_10*%
%TO.N,/NRST*%
X157480000Y-76200000D03*
%TO.P,J2,11,Pin_11*%
%TO.N,/PC0*%
X154940000Y-76200000D03*
%TO.P,J2,12,Pin_12*%
%TO.N,/PC1*%
X152400000Y-76200000D03*
%TO.P,J2,13,Pin_13*%
%TO.N,/PC2*%
X149860000Y-76200000D03*
%TO.P,J2,14,Pin_14*%
%TO.N,/PC3*%
X147320000Y-76200000D03*
%TO.P,J2,15,Pin_15*%
%TO.N,/PA0*%
X144780000Y-76200000D03*
%TO.P,J2,16,Pin_16*%
%TO.N,/PA1*%
X142240000Y-76200000D03*
%TO.P,J2,17,Pin_17*%
%TO.N,/PA2*%
X139700000Y-76200000D03*
%TO.P,J2,18,Pin_18*%
%TO.N,/PA3*%
X137160000Y-76200000D03*
%TO.P,J2,19,Pin_19*%
%TO.N,/PF4*%
X134620000Y-76200000D03*
%TO.P,J2,20,Pin_20*%
%TO.N,/PF5*%
X132080000Y-76200000D03*
%TO.P,J2,21,Pin_21*%
%TO.N,/PA4*%
X129540000Y-76200000D03*
%TO.P,J2,22,Pin_22*%
%TO.N,/PA5*%
X127000000Y-76200000D03*
%TO.P,J2,23,Pin_23*%
%TO.N,/PA6*%
X124460000Y-76200000D03*
%TO.P,J2,24,Pin_24*%
%TO.N,/PA7*%
X121920000Y-76200000D03*
%TO.P,J2,25,Pin_25*%
%TO.N,/PC4*%
X119380000Y-76200000D03*
%TO.P,J2,26,Pin_26*%
%TO.N,/PC5*%
X116840000Y-76200000D03*
%TO.P,J2,27,Pin_27*%
%TO.N,/PB0*%
X114300000Y-76200000D03*
%TO.P,J2,28,Pin_28*%
%TO.N,/PB1*%
X111760000Y-76200000D03*
%TO.P,J2,29,Pin_29*%
%TO.N,/PB2*%
X109220000Y-76200000D03*
%TO.P,J2,30,Pin_30*%
%TO.N,/PB10*%
X106680000Y-76200000D03*
%TO.P,J2,31,Pin_31*%
%TO.N,/PB11*%
X104140000Y-76200000D03*
%TO.P,J2,32,Pin_32*%
%TO.N,/PB12*%
X101600000Y-76200000D03*
%TO.P,J2,33,Pin_33*%
%TO.N,GND*%
X99060000Y-76200000D03*
%TD*%
D15*
%TO.P,R12,2*%
%TO.N,/Sensing/I2CBUS*%
X125125000Y-83820000D03*
%TO.P,R12,1*%
%TO.N,+5V*%
X124485000Y-83820000D03*
%TD*%
D34*
%TO.P,TempSensor1,1,SDA*%
%TO.N,/Sensing/I2CBUS*%
X127635000Y-86410800D03*
%TO.P,TempSensor1,2,SCL*%
%TO.N,/Sensing/CLK*%
X128905000Y-86410800D03*
%TO.P,TempSensor1,3,O.S.*%
%TO.N,/Sensing/I2CBUS*%
X130175000Y-86410800D03*
%TO.P,TempSensor1,4,GND*%
%TO.N,GND*%
X131445000Y-86410800D03*
%TO.P,TempSensor1,5,A2*%
%TO.N,/PC5*%
X131445000Y-81229200D03*
%TO.P,TempSensor1,6,A1*%
%TO.N,/PB0*%
X130175000Y-81229200D03*
%TO.P,TempSensor1,7,A0*%
%TO.N,/PB1*%
X128905000Y-81229200D03*
%TO.P,TempSensor1,8,+Vs*%
%TO.N,+5V*%
X127635000Y-81229200D03*
%TD*%
D15*
%TO.P,R17,2*%
%TO.N,GND*%
X137480000Y-99060000D03*
%TO.P,R17,1*%
%TO.N,Net-(R16-Pad2)*%
X136840000Y-99060000D03*
%TD*%
D35*
%TO.P,LED1,1,K*%
%TO.N,GND*%
X147456050Y-94116050D03*
%TO.P,LED1,2,A*%
%TO.N,Net-(LED1-Pad2)*%
X149331050Y-94116050D03*
%TD*%
D15*
%TO.P,R9,2*%
%TO.N,Net-(R9-Pad2)*%
X152720000Y-93980000D03*
%TO.P,R9,1*%
%TO.N,/PC4*%
X152080000Y-93980000D03*
%TD*%
D32*
%TO.P,J1,1,Pin_1*%
%TO.N,+3V0*%
X180340000Y-66040000D03*
D33*
%TO.P,J1,2,Pin_2*%
%TO.N,GND*%
X177800000Y-66040000D03*
%TO.P,J1,3,Pin_3*%
%TO.N,/VBAT*%
X175260000Y-66040000D03*
%TO.P,J1,4,Pin_4*%
%TO.N,/PC13*%
X172720000Y-66040000D03*
%TO.P,J1,5,Pin_5*%
%TO.N,/PC14*%
X170180000Y-66040000D03*
%TO.P,J1,6,Pin_6*%
%TO.N,/PC15*%
X167640000Y-66040000D03*
%TO.P,J1,7,Pin_7*%
%TO.N,/PF0*%
X165100000Y-66040000D03*
%TO.P,J1,8,Pin_8*%
%TO.N,/PF1*%
X162560000Y-66040000D03*
%TO.P,J1,9,Pin_9*%
%TO.N,GND*%
X160020000Y-66040000D03*
%TO.P,J1,10,Pin_10*%
%TO.N,/NRST*%
X157480000Y-66040000D03*
%TO.P,J1,11,Pin_11*%
%TO.N,/PC0*%
X154940000Y-66040000D03*
%TO.P,J1,12,Pin_12*%
%TO.N,/PC1*%
X152400000Y-66040000D03*
%TO.P,J1,13,Pin_13*%
%TO.N,/PC2*%
X149860000Y-66040000D03*
%TO.P,J1,14,Pin_14*%
%TO.N,/PC3*%
X147320000Y-66040000D03*
%TO.P,J1,15,Pin_15*%
%TO.N,/PA0*%
X144780000Y-66040000D03*
%TO.P,J1,16,Pin_16*%
%TO.N,/PA1*%
X142240000Y-66040000D03*
%TO.P,J1,17,Pin_17*%
%TO.N,/PA2*%
X139700000Y-66040000D03*
%TO.P,J1,18,Pin_18*%
%TO.N,/PA3*%
X137160000Y-66040000D03*
%TO.P,J1,19,Pin_19*%
%TO.N,/PF4*%
X134620000Y-66040000D03*
%TO.P,J1,20,Pin_20*%
%TO.N,/PF5*%
X132080000Y-66040000D03*
%TO.P,J1,21,Pin_21*%
%TO.N,/PA4*%
X129540000Y-66040000D03*
%TO.P,J1,22,Pin_22*%
%TO.N,/PA5*%
X127000000Y-66040000D03*
%TO.P,J1,23,Pin_23*%
%TO.N,/PA6*%
X124460000Y-66040000D03*
%TO.P,J1,24,Pin_24*%
%TO.N,/PA7*%
X121920000Y-66040000D03*
%TO.P,J1,25,Pin_25*%
%TO.N,/PC4*%
X119380000Y-66040000D03*
%TO.P,J1,26,Pin_26*%
%TO.N,/PC5*%
X116840000Y-66040000D03*
%TO.P,J1,27,Pin_27*%
%TO.N,/PB0*%
X114300000Y-66040000D03*
%TO.P,J1,28,Pin_28*%
%TO.N,/PB1*%
X111760000Y-66040000D03*
%TO.P,J1,29,Pin_29*%
%TO.N,/PB2*%
X109220000Y-66040000D03*
%TO.P,J1,30,Pin_30*%
%TO.N,/PB10*%
X106680000Y-66040000D03*
%TO.P,J1,31,Pin_31*%
%TO.N,/PB11*%
X104140000Y-66040000D03*
%TO.P,J1,32,Pin_32*%
%TO.N,/PB12*%
X101600000Y-66040000D03*
%TO.P,J1,33,Pin_33*%
%TO.N,GND*%
X99060000Y-66040000D03*
%TD*%
D36*
%TO.P,R6,2*%
%TO.N,Net-(BT1-Pad1)*%
X121920000Y-101920000D03*
%TO.P,R6,1*%
%TO.N,Net-(Q1-Pad3)*%
X121920000Y-101280000D03*
%TD*%
D28*
%TO.P,R4,2*%
%TO.N,Net-(R4-Pad2)*%
X111760000Y-96200000D03*
%TO.P,R4,1*%
%TO.N,OPAMP OUT*%
X111760000Y-96840000D03*
%TD*%
D36*
%TO.P,R3,2*%
%TO.N,Net-(D1-Pad2)*%
X109220000Y-104460000D03*
%TO.P,R3,1*%
%TO.N,Net-(BT1-Pad1)*%
X109220000Y-103820000D03*
%TD*%
D15*
%TO.P,C5,2*%
%TO.N,+5V*%
X138020000Y-95730000D03*
%TO.P,C5,1*%
%TO.N,Net-(C5-Pad1)*%
X137380000Y-95730000D03*
%TD*%
D17*
%TO.P,R19,2*%
%TO.N,GND*%
X139725000Y-99060000D03*
%TO.P,R19,1*%
%TO.N,/microcontroller_interfacing/GND = Normal R{slash}W operations*%
X140365000Y-99060000D03*
%TD*%
D15*
%TO.P,R13,2*%
%TO.N,/Sensing/CLK*%
X124780000Y-91440000D03*
%TO.P,R13,1*%
%TO.N,+5V*%
X124140000Y-91440000D03*
%TD*%
D32*
%TO.P,J4,1,Pin_1*%
%TO.N,+5V*%
X180340000Y-127000000D03*
D33*
%TO.P,J4,2,Pin_2*%
%TO.N,GND*%
X177800000Y-127000000D03*
%TO.P,J4,3,Pin_3*%
%TO.N,/PB9*%
X175260000Y-127000000D03*
%TO.P,J4,4,Pin_4*%
%TO.N,/PB8*%
X172720000Y-127000000D03*
%TO.P,J4,5,Pin_5*%
%TO.N,VDD*%
X170180000Y-127000000D03*
%TO.P,J4,6,Pin_6*%
%TO.N,/BOOT*%
X167640000Y-127000000D03*
%TO.P,J4,7,Pin_7*%
%TO.N,/PB7*%
X165100000Y-127000000D03*
%TO.P,J4,8,Pin_8*%
%TO.N,/PB6*%
X162560000Y-127000000D03*
%TO.P,J4,9,Pin_9*%
%TO.N,/PB5*%
X160020000Y-127000000D03*
%TO.P,J4,10,Pin_10*%
%TO.N,/PB4*%
X157480000Y-127000000D03*
%TO.P,J4,11,Pin_11*%
%TO.N,/PB3*%
X154940000Y-127000000D03*
%TO.P,J4,12,Pin_12*%
%TO.N,/PD2*%
X152400000Y-127000000D03*
%TO.P,J4,13,Pin_13*%
%TO.N,/PC12*%
X149860000Y-127000000D03*
%TO.P,J4,14,Pin_14*%
%TO.N,/PC11*%
X147320000Y-127000000D03*
%TO.P,J4,15,Pin_15*%
%TO.N,/PC10*%
X144780000Y-127000000D03*
%TO.P,J4,16,Pin_16*%
%TO.N,/PA15*%
X142240000Y-127000000D03*
%TO.P,J4,17,Pin_17*%
%TO.N,/PA14*%
X139700000Y-127000000D03*
%TO.P,J4,18,Pin_18*%
%TO.N,/PF7*%
X137160000Y-127000000D03*
%TO.P,J4,19,Pin_19*%
%TO.N,/PF6*%
X134620000Y-127000000D03*
%TO.P,J4,20,Pin_20*%
%TO.N,/PA13*%
X132080000Y-127000000D03*
%TO.P,J4,21,Pin_21*%
%TO.N,/PA12*%
X129540000Y-127000000D03*
%TO.P,J4,22,Pin_22*%
%TO.N,/PA11*%
X127000000Y-127000000D03*
%TO.P,J4,23,Pin_23*%
%TO.N,/PA10*%
X124460000Y-127000000D03*
%TO.P,J4,24,Pin_24*%
%TO.N,/PA9*%
X121920000Y-127000000D03*
%TO.P,J4,25,Pin_25*%
%TO.N,/PA8*%
X119380000Y-127000000D03*
%TO.P,J4,26,Pin_26*%
%TO.N,/PC9*%
X116840000Y-127000000D03*
%TO.P,J4,27,Pin_27*%
%TO.N,/PC8*%
X114300000Y-127000000D03*
%TO.P,J4,28,Pin_28*%
%TO.N,/PC7*%
X111760000Y-127000000D03*
%TO.P,J4,29,Pin_29*%
%TO.N,/PC6*%
X109220000Y-127000000D03*
%TO.P,J4,30,Pin_30*%
%TO.N,/PB15*%
X106680000Y-127000000D03*
%TO.P,J4,31,Pin_31*%
%TO.N,/PB14*%
X104140000Y-127000000D03*
%TO.P,J4,32,Pin_32*%
%TO.N,/PB13*%
X101600000Y-127000000D03*
%TO.P,J4,33,Pin_33*%
%TO.N,GND*%
X99060000Y-127000000D03*
%TD*%
D17*
%TO.P,R15,2*%
%TO.N,Net-(D3-Pad2)*%
X140142000Y-92964000D03*
%TO.P,R15,1*%
%TO.N,/microcontroller_interfacing/USB PWR (5V)*%
X140782000Y-92964000D03*
%TD*%
D15*
%TO.P,C4,2*%
%TO.N,GND*%
X142560000Y-99060000D03*
%TO.P,C4,1*%
%TO.N,+5V*%
X141920000Y-99060000D03*
%TD*%
D28*
%TO.P,R1,2*%
%TO.N,GND*%
X129540000Y-106360000D03*
%TO.P,R1,1*%
%TO.N,Net-(R1-Pad1)*%
X129540000Y-107000000D03*
%TD*%
D37*
%TO.P,D1,1,K*%
%TO.N,Net-(D1-Pad1)*%
X109220000Y-110157500D03*
%TO.P,D1,2,A*%
%TO.N,Net-(D1-Pad2)*%
X109220000Y-108282500D03*
%TD*%
D36*
%TO.P,C3,2*%
%TO.N,GND*%
X134620000Y-101920000D03*
%TO.P,C3,1*%
%TO.N,+5V*%
X134620000Y-101280000D03*
%TD*%
D32*
%TO.P,J3,1,Pin_1*%
%TO.N,+5V*%
X180340000Y-116840000D03*
D33*
%TO.P,J3,2,Pin_2*%
%TO.N,GND*%
X177800000Y-116840000D03*
%TO.P,J3,3,Pin_3*%
%TO.N,/PB9*%
X175260000Y-116840000D03*
%TO.P,J3,4,Pin_4*%
%TO.N,/PB8*%
X172720000Y-116840000D03*
%TO.P,J3,5,Pin_5*%
%TO.N,VDD*%
X170180000Y-116840000D03*
%TO.P,J3,6,Pin_6*%
%TO.N,/BOOT*%
X167640000Y-116840000D03*
%TO.P,J3,7,Pin_7*%
%TO.N,/PB7*%
X165100000Y-116840000D03*
%TO.P,J3,8,Pin_8*%
%TO.N,/PB6*%
X162560000Y-116840000D03*
%TO.P,J3,9,Pin_9*%
%TO.N,/PB5*%
X160020000Y-116840000D03*
%TO.P,J3,10,Pin_10*%
%TO.N,/PB4*%
X157480000Y-116840000D03*
%TO.P,J3,11,Pin_11*%
%TO.N,/PB3*%
X154940000Y-116840000D03*
%TO.P,J3,12,Pin_12*%
%TO.N,/PD2*%
X152400000Y-116840000D03*
%TO.P,J3,13,Pin_13*%
%TO.N,/PC12*%
X149860000Y-116840000D03*
%TO.P,J3,14,Pin_14*%
%TO.N,/PC11*%
X147320000Y-116840000D03*
%TO.P,J3,15,Pin_15*%
%TO.N,/PC10*%
X144780000Y-116840000D03*
%TO.P,J3,16,Pin_16*%
%TO.N,/PA15*%
X142240000Y-116840000D03*
%TO.P,J3,17,Pin_17*%
%TO.N,/PA14*%
X139700000Y-116840000D03*
%TO.P,J3,18,Pin_18*%
%TO.N,/PF7*%
X137160000Y-116840000D03*
%TO.P,J3,19,Pin_19*%
%TO.N,/PF6*%
X134620000Y-116840000D03*
%TO.P,J3,20,Pin_20*%
%TO.N,/PA13*%
X132080000Y-116840000D03*
%TO.P,J3,21,Pin_21*%
%TO.N,/PA12*%
X129540000Y-116840000D03*
%TO.P,J3,22,Pin_22*%
%TO.N,/PA11*%
X127000000Y-116840000D03*
%TO.P,J3,23,Pin_23*%
%TO.N,/PA10*%
X124460000Y-116840000D03*
%TO.P,J3,24,Pin_24*%
%TO.N,/PA9*%
X121920000Y-116840000D03*
%TO.P,J3,25,Pin_25*%
%TO.N,/PA8*%
X119380000Y-116840000D03*
%TO.P,J3,26,Pin_26*%
%TO.N,/PC9*%
X116840000Y-116840000D03*
%TO.P,J3,27,Pin_27*%
%TO.N,/PC8*%
X114300000Y-116840000D03*
%TO.P,J3,28,Pin_28*%
%TO.N,/PC7*%
X111760000Y-116840000D03*
%TO.P,J3,29,Pin_29*%
%TO.N,/PC6*%
X109220000Y-116840000D03*
%TO.P,J3,30,Pin_30*%
%TO.N,/PB15*%
X106680000Y-116840000D03*
%TO.P,J3,31,Pin_31*%
%TO.N,/PB14*%
X104140000Y-116840000D03*
%TO.P,J3,32,Pin_32*%
%TO.N,/PB13*%
X101600000Y-116840000D03*
%TO.P,J3,33,Pin_33*%
%TO.N,GND*%
X99060000Y-116840000D03*
%TD*%
D28*
%TO.P,R11,2*%
%TO.N,/Sensing/I2CBUS*%
X139700000Y-103820000D03*
%TO.P,R11,1*%
%TO.N,+5V*%
X139700000Y-104460000D03*
%TD*%
D35*
%TO.P,D3,2,K*%
%TO.N,Net-(D3-Pad2)*%
X140637500Y-91440000D03*
%TO.P,D3,1,A*%
%TO.N,Net-(D3-Pad1)*%
X138762500Y-91440000D03*
%TD*%
D36*
%TO.P,R2,2*%
%TO.N,Net-(Q1-Pad1)*%
X106680000Y-104460000D03*
%TO.P,R2,1*%
%TO.N,GND*%
X106680000Y-103820000D03*
%TD*%
D38*
%TO.P,BT1,2,-*%
%TO.N,GND*%
X179097744Y-142267744D03*
%TO.P,BT1,1,+*%
%TO.N,Net-(BT1-Pad1)*%
X100437744Y-142267744D03*
%TD*%
D30*
%TO.P,SW2,4*%
%TO.N,N/C*%
X137450000Y-87070000D03*
%TO.P,SW2,3*%
X137450000Y-80570000D03*
%TO.P,SW2,2,B*%
%TO.N,Net-(FTDI(UART)1-Pad13)*%
X141950000Y-87070000D03*
D31*
%TO.P,SW2,1,A*%
%TO.N,+5V*%
X141950000Y-80570000D03*
%TD*%
D15*
%TO.P,LDR2,2*%
%TO.N,GND*%
X150180000Y-83820000D03*
%TO.P,LDR2,1*%
%TO.N,/PC0*%
X149540000Y-83820000D03*
%TD*%
%TO.P,R7,2*%
%TO.N,Net-(C2-Pad1)*%
X114620000Y-109220000D03*
%TO.P,R7,1*%
%TO.N,Net-(D2-Pad2)*%
X113980000Y-109220000D03*
%TD*%
%TO.P,R5,2*%
%TO.N,GND*%
X109540000Y-99060000D03*
%TO.P,R5,1*%
%TO.N,Net-(R4-Pad2)*%
X108900000Y-99060000D03*
%TD*%
D39*
%TO.P,Q1,1,E*%
%TO.N,Net-(Q1-Pad1)*%
X116840000Y-101600000D03*
D40*
%TO.P,Q1,2,B*%
%TO.N,Net-(D1-Pad1)*%
X118110000Y-100330000D03*
%TO.P,Q1,3,C*%
%TO.N,Net-(Q1-Pad3)*%
X119380000Y-101600000D03*
%TD*%
D15*
%TO.P,R8,2*%
%TO.N,/PC1*%
X147640000Y-81280000D03*
%TO.P,R8,1*%
%TO.N,+5V*%
X147000000Y-81280000D03*
%TD*%
D31*
%TO.P,SW3,1,A*%
%TO.N,+5V*%
X145070000Y-109930000D03*
D30*
%TO.P,SW3,2,B*%
%TO.N,/microcontroller_interfacing/GND = Normal R{slash}W operations*%
X145070000Y-103430000D03*
%TO.P,SW3,3*%
%TO.N,N/C*%
X149570000Y-109930000D03*
%TO.P,SW3,4*%
X149570000Y-103430000D03*
%TD*%
D41*
%TO.P,VoltageRegulator1,3,VO*%
%TO.N,+5V*%
X107035000Y-90685000D03*
D42*
%TO.P,VoltageRegulator1,2,GND*%
%TO.N,GND*%
X100735000Y-92965000D03*
D41*
%TO.P,VoltageRegulator1,1,VI*%
%TO.N,OPAMP OUT*%
X107035000Y-95245000D03*
%TD*%
D43*
%TO.N,+5V*%
X166370000Y-96266000D03*
%TO.N,Net-(C5-Pad1)*%
X112522000Y-85344000D03*
X112522000Y-80518000D03*
X126238000Y-80363540D03*
X145288000Y-84328000D03*
%TO.N,/Sensing/I2CBUS*%
X130048000Y-90424000D03*
%TO.N,+5V*%
X127762000Y-91186000D03*
%TO.N,/microcontroller_interfacing/GND = Normal R{slash}W operations*%
X128524000Y-92202000D03*
%TO.N,/Sensing/CLK*%
X127000000Y-89944500D03*
%TO.N,/Sensing/I2CBUS*%
X133604000Y-94742000D03*
%TO.N,GND*%
X109347000Y-101325020D03*
X125090701Y-99445299D03*
X137159527Y-96523625D03*
X135890000Y-88265000D03*
X144813319Y-100875500D03*
X142227701Y-101612299D03*
X99060000Y-114300000D03*
X101600000Y-109220000D03*
%TO.N,/PC1*%
X149860000Y-79464500D03*
X157480000Y-99060000D03*
X147320000Y-83820000D03*
%TO.N,/PA2*%
X114300000Y-83820000D03*
%TO.N,/PA3*%
X114300000Y-86360000D03*
%TO.N,/PC4*%
X154940000Y-91440000D03*
%TO.N,+5V*%
X157480000Y-101600000D03*
X142240000Y-95579020D03*
X137160000Y-92164500D03*
X133985000Y-85090000D03*
%TO.N,/Sensing/I2CBUS*%
X139700000Y-101600000D03*
X129540000Y-88495500D03*
%TO.N,/Sensing/CLK*%
X123735500Y-88707701D03*
X127000000Y-88495500D03*
%TO.N,/microcontroller_interfacing/GND = Normal R{slash}W operations*%
X139027701Y-97248125D03*
%TO.N,Net-(Q1-Pad1)*%
X116840000Y-94704500D03*
X111760000Y-101600000D03*
%TO.N,Net-(BT1-Pad1)*%
X110490000Y-114300000D03*
X110490000Y-107315000D03*
%TO.N,OPAMP OUT*%
X109220000Y-93980000D03*
X111760000Y-99060000D03*
%TO.N,Net-(D1-Pad1)*%
X111760000Y-109220000D03*
X116840000Y-104140000D03*
%TO.N,Net-(D2-Pad1)*%
X127000000Y-106680000D03*
X121920000Y-109220000D03*
%TO.N,Net-(D3-Pad1)*%
X96520000Y-88900000D03*
X137160000Y-89944500D03*
%TO.N,USB D-*%
X114300000Y-91440000D03*
X96520000Y-86360000D03*
%TO.N,USB D+*%
X114300000Y-88900000D03*
X96520000Y-83820000D03*
%TD*%
D44*
%TO.N,+5V*%
X166370000Y-95504000D02*
X166370000Y-96266000D01*
X166787000Y-95087000D02*
X166370000Y-95504000D01*
X166787000Y-95087000D02*
X165390000Y-93690000D01*
X180340000Y-108640000D02*
X166787000Y-95087000D01*
X153416000Y-112776000D02*
X153670000Y-112522000D01*
X153670000Y-112522000D02*
X153670000Y-101600000D01*
X138938000Y-112776000D02*
X153416000Y-112776000D01*
X138176000Y-112014000D02*
X138938000Y-112776000D01*
X138176000Y-105984000D02*
X138176000Y-112014000D01*
X139700000Y-104460000D02*
X138176000Y-105984000D01*
X153670000Y-101600000D02*
X144269639Y-101600000D01*
X154940000Y-101600000D02*
X153670000Y-101600000D01*
%TO.N,Net-(C5-Pad1)*%
X112522000Y-86360000D02*
X114046000Y-87884000D01*
X112522000Y-85344000D02*
X112522000Y-86360000D01*
X116205000Y-85725000D02*
X116630000Y-85725000D01*
X126238000Y-80363540D02*
X126083540Y-80518000D01*
X126083540Y-80518000D02*
X112522000Y-80518000D01*
X139700000Y-94488000D02*
X141732000Y-94488000D01*
X137668000Y-94488000D02*
X139700000Y-94488000D01*
X114046000Y-87884000D02*
X116205000Y-85725000D01*
X145288000Y-90932000D02*
X145288000Y-84328000D01*
X137160000Y-94996000D02*
X137668000Y-94488000D01*
X137160000Y-95510000D02*
X137160000Y-94996000D01*
X141732000Y-94488000D02*
X145288000Y-90932000D01*
X137380000Y-95730000D02*
X137160000Y-95510000D01*
%TO.N,Net-(D3-Pad2)*%
X139192000Y-92964000D02*
X139152750Y-92924750D01*
X140142000Y-92964000D02*
X139192000Y-92964000D01*
X139152750Y-92924750D02*
X140637500Y-91440000D01*
X138097500Y-93980000D02*
X139152750Y-92924750D01*
%TO.N,/Sensing/I2CBUS*%
X131445000Y-91829614D02*
X131445000Y-94045000D01*
X130048000Y-90432614D02*
X131445000Y-91829614D01*
X130048000Y-90424000D02*
X130048000Y-90432614D01*
%TO.N,+5V*%
X127635000Y-91313000D02*
X127762000Y-91186000D01*
X127635000Y-94045000D02*
X127635000Y-91313000D01*
%TO.N,/microcontroller_interfacing/GND = Normal R{slash}W operations*%
X128905000Y-92583000D02*
X128524000Y-92202000D01*
X128905000Y-94045000D02*
X128905000Y-92583000D01*
%TO.N,/Sensing/CLK*%
X127790500Y-89944500D02*
X127000000Y-89944500D01*
X130175000Y-92329000D02*
X127790500Y-89944500D01*
%TO.N,/Sensing/I2CBUS*%
X132907000Y-94045000D02*
X133604000Y-94742000D01*
X131445000Y-94045000D02*
X132907000Y-94045000D01*
%TO.N,/Sensing/CLK*%
X130175000Y-94045000D02*
X130175000Y-92329000D01*
%TO.N,GND*%
X125318000Y-99218000D02*
X125090701Y-99445299D01*
X125318000Y-96678000D02*
X125318000Y-99218000D01*
X125318000Y-96678000D02*
X127635000Y-98995000D01*
X124210000Y-95570000D02*
X125318000Y-96678000D01*
X138684000Y-99559386D02*
X138684000Y-99060000D01*
X140716000Y-101591386D02*
X138684000Y-99559386D01*
X137480000Y-99060000D02*
X138684000Y-99060000D01*
X140716000Y-101600000D02*
X140716000Y-101591386D01*
X142215402Y-101600000D02*
X140716000Y-101600000D01*
X142227701Y-101612299D02*
X142215402Y-101600000D01*
X138684000Y-99060000D02*
X139725000Y-99060000D01*
%TO.N,/PC1*%
X164780000Y-111760000D02*
X162560000Y-111760000D01*
X162560000Y-111760000D02*
X162560000Y-104140000D01*
X162560000Y-104140000D02*
X157480000Y-99060000D01*
%TO.N,+3V0*%
X180340000Y-66040000D02*
X180340000Y-76200000D01*
%TO.N,GND*%
X101940000Y-101410000D02*
X101940000Y-102910000D01*
X99835000Y-82545000D02*
X99835000Y-81545000D01*
X127635000Y-98995000D02*
X131445000Y-98995000D01*
X134620000Y-101920000D02*
X134620000Y-104140000D01*
X99060000Y-116840000D02*
X99060000Y-114300000D01*
X134935000Y-88265000D02*
X134620000Y-88580000D01*
X150180000Y-83820000D02*
X152400000Y-83820000D01*
X99835000Y-81545000D02*
X99715000Y-81425000D01*
X142560000Y-99060000D02*
X144780000Y-99060000D01*
X99715000Y-76855000D02*
X99060000Y-76200000D01*
X102985000Y-84805000D02*
X105695000Y-84805000D01*
X147320000Y-93707900D02*
X150180000Y-90847900D01*
X144780000Y-101150480D02*
X144780000Y-100908819D01*
X101940000Y-102910000D02*
X102210000Y-103180000D01*
X123057500Y-95570000D02*
X124210000Y-95570000D01*
X173894511Y-137104511D02*
X173894511Y-130905489D01*
X102715000Y-86575000D02*
X102715000Y-85075000D01*
X137480000Y-99060000D02*
X137480000Y-101280000D01*
X102985000Y-82885000D02*
X103955000Y-81915000D01*
X100735000Y-87695000D02*
X99735000Y-86695000D01*
X129730361Y-106360000D02*
X129540000Y-106360000D01*
X134620000Y-88580000D02*
X132450800Y-86410800D01*
X106680000Y-103820000D02*
X107000000Y-103500000D01*
X134620000Y-106680000D02*
X132080000Y-109220000D01*
X179097744Y-142267744D02*
X173962255Y-137132255D01*
X135890000Y-88265000D02*
X134935000Y-88265000D01*
X105695000Y-84805000D02*
X108585000Y-81915000D01*
X165420000Y-111760000D02*
X175260000Y-111760000D01*
X102210000Y-106600000D02*
X101940000Y-106870000D01*
X132080000Y-108709639D02*
X129730361Y-106360000D01*
X129860000Y-111760000D02*
X132080000Y-111760000D01*
X109855000Y-81915000D02*
X116630000Y-81915000D01*
X134620000Y-106680000D02*
X134620000Y-104140000D01*
X144780000Y-99060000D02*
X147320000Y-96520000D01*
X100260000Y-107090000D02*
X101600000Y-108430000D01*
X100025000Y-81115000D02*
X99715000Y-81425000D01*
X100260000Y-101140000D02*
X100260000Y-87570000D01*
X137480000Y-96844098D02*
X137159527Y-96523625D01*
X177800000Y-76200000D02*
X177800000Y-66040000D01*
X99060000Y-76200000D02*
X99060000Y-66040000D01*
X102715000Y-81115000D02*
X100025000Y-81115000D01*
X131445000Y-98995000D02*
X131445000Y-100965000D01*
X132450800Y-86410800D02*
X131445000Y-86410800D01*
X107000000Y-101600000D02*
X109220000Y-101600000D01*
X109540000Y-101280000D02*
X109540000Y-99060000D01*
X100260000Y-87570000D02*
X101035000Y-86795000D01*
X106040000Y-103180000D02*
X102210000Y-103180000D01*
X101600000Y-108430000D02*
X101600000Y-109220000D01*
X100025000Y-86575000D02*
X99715000Y-86265000D01*
X137480000Y-101280000D02*
X134620000Y-104140000D01*
X129540000Y-104140000D02*
X129540000Y-106360000D01*
X137480000Y-99060000D02*
X137480000Y-96844098D01*
X103955000Y-81915000D02*
X109855000Y-81915000D01*
X152400000Y-83820000D02*
X160020000Y-76200000D01*
X109220000Y-101600000D02*
X109540000Y-101280000D01*
X100735000Y-92965000D02*
X100735000Y-87695000D01*
X99250000Y-106870000D02*
X98940000Y-106560000D01*
X177800000Y-116840000D02*
X177800000Y-114300000D01*
X150180000Y-90847900D02*
X150180000Y-83820000D01*
X177800000Y-114300000D02*
X175260000Y-111760000D01*
X132080000Y-109220000D02*
X132080000Y-108709639D01*
X100260000Y-101140000D02*
X99520000Y-101140000D01*
X173894511Y-130905489D02*
X177800000Y-127000000D01*
X107000000Y-103500000D02*
X107000000Y-101600000D01*
X147183950Y-93843950D02*
X147456050Y-94116050D01*
X124460000Y-105542500D02*
X124460000Y-104140000D01*
X131445000Y-100965000D02*
X134620000Y-104140000D01*
X177800000Y-116840000D02*
X177800000Y-127000000D01*
X101940000Y-106870000D02*
X99250000Y-106870000D01*
X144780000Y-100908819D02*
X144813319Y-100875500D01*
X98940000Y-102720000D02*
X99060000Y-102840000D01*
X132080000Y-111760000D02*
X132080000Y-109220000D01*
X102985000Y-84805000D02*
X102985000Y-82885000D01*
X99060000Y-127000000D02*
X99060000Y-116840000D01*
X99520000Y-101140000D02*
X98940000Y-101720000D01*
X102715000Y-86575000D02*
X100025000Y-86575000D01*
X160020000Y-96520000D02*
X147320000Y-96520000D01*
X102715000Y-85075000D02*
X102985000Y-84805000D01*
X142560000Y-99060000D02*
X144650480Y-101150480D01*
X98940000Y-101720000D02*
X98940000Y-102720000D01*
X144650480Y-101150480D02*
X144780000Y-101150480D01*
X102985000Y-82885000D02*
X102985000Y-81385000D01*
X102985000Y-81385000D02*
X102715000Y-81115000D01*
X102210000Y-105100000D02*
X102210000Y-106600000D01*
X160020000Y-76200000D02*
X160020000Y-66040000D01*
X106680000Y-103820000D02*
X106040000Y-103180000D01*
X108585000Y-81915000D02*
X109855000Y-81915000D01*
X124460000Y-104140000D02*
X129540000Y-104140000D01*
X175260000Y-111760000D02*
X160020000Y-96520000D01*
X147320000Y-96520000D02*
X147320000Y-93707900D01*
X102210000Y-103180000D02*
X102210000Y-105100000D01*
X99715000Y-81425000D02*
X99715000Y-76855000D01*
%TO.N,/VBAT*%
X175260000Y-66040000D02*
X175260000Y-76200000D01*
%TO.N,/PC13*%
X172720000Y-76200000D02*
X172720000Y-66040000D01*
%TO.N,/PC14*%
X170180000Y-66040000D02*
X170180000Y-76200000D01*
%TO.N,/PC15*%
X167640000Y-76200000D02*
X167640000Y-66040000D01*
%TO.N,/PF0*%
X165100000Y-66040000D02*
X165100000Y-76200000D01*
%TO.N,/PF1*%
X162560000Y-76200000D02*
X162560000Y-66040000D01*
%TO.N,/NRST*%
X157480000Y-66040000D02*
X157480000Y-76200000D01*
%TO.N,/PC0*%
X154940000Y-76200000D02*
X149860000Y-81280000D01*
X154940000Y-76200000D02*
X154940000Y-66040000D01*
X149540000Y-81600000D02*
X149860000Y-81280000D01*
X147640000Y-79060000D02*
X147640000Y-78740000D01*
X149860000Y-81280000D02*
X147640000Y-79060000D01*
X149540000Y-83820000D02*
X149540000Y-81600000D01*
%TO.N,/PC1*%
X152400000Y-66040000D02*
X152400000Y-76200000D01*
X152400000Y-76200000D02*
X149860000Y-78740000D01*
X149860000Y-79464500D02*
X149860000Y-78740000D01*
X147640000Y-81280000D02*
X147640000Y-83500000D01*
X147640000Y-83500000D02*
X147320000Y-83820000D01*
%TO.N,/PC2*%
X149860000Y-76200000D02*
X149860000Y-66040000D01*
%TO.N,/PC3*%
X147320000Y-66040000D02*
X147320000Y-76200000D01*
%TO.N,/PA0*%
X144780000Y-76200000D02*
X144780000Y-66040000D01*
%TO.N,/PA1*%
X142240000Y-66040000D02*
X142240000Y-76200000D01*
%TO.N,/PA2*%
X139700000Y-76200000D02*
X139700000Y-66040000D01*
X115995000Y-83820000D02*
X114300000Y-83820000D01*
X116630000Y-83185000D02*
X115995000Y-83820000D01*
%TO.N,/PA3*%
X116630000Y-84455000D02*
X116205000Y-84455000D01*
X137160000Y-66040000D02*
X137160000Y-76200000D01*
X116205000Y-84455000D02*
X114300000Y-86360000D01*
%TO.N,/PF4*%
X134620000Y-76200000D02*
X134620000Y-66040000D01*
%TO.N,/PF5*%
X132080000Y-66040000D02*
X132080000Y-76200000D01*
%TO.N,/PA4*%
X129540000Y-76200000D02*
X129540000Y-66040000D01*
%TO.N,/PA5*%
X127000000Y-66040000D02*
X127000000Y-76200000D01*
%TO.N,/PA6*%
X124460000Y-76200000D02*
X124460000Y-66040000D01*
%TO.N,/PA7*%
X121920000Y-66040000D02*
X121920000Y-76200000D01*
%TO.N,/PC4*%
X152080000Y-93980000D02*
X152080000Y-93789639D01*
X152080000Y-93789639D02*
X154429639Y-91440000D01*
X119380000Y-76200000D02*
X119380000Y-66040000D01*
X154429639Y-91440000D02*
X154940000Y-91440000D01*
%TO.N,/PC5*%
X119380000Y-78740000D02*
X116840000Y-76200000D01*
X116840000Y-66040000D02*
X116840000Y-76200000D01*
X131445000Y-80645000D02*
X129540000Y-78740000D01*
X129540000Y-78740000D02*
X119380000Y-78740000D01*
X131445000Y-81229200D02*
X131445000Y-80645000D01*
%TO.N,/PB0*%
X130175000Y-81229200D02*
X130175000Y-80645000D01*
X130175000Y-80645000D02*
X128719520Y-79189520D01*
X117289520Y-79189520D02*
X114300000Y-76200000D01*
X114300000Y-76200000D02*
X114300000Y-66040000D01*
X128719520Y-79189520D02*
X117289520Y-79189520D01*
%TO.N,/PB1*%
X111760000Y-66040000D02*
X111760000Y-76200000D01*
X127899040Y-79639040D02*
X115199040Y-79639040D01*
X128905000Y-80645000D02*
X127899040Y-79639040D01*
X128905000Y-81229200D02*
X128905000Y-80645000D01*
X115199040Y-79639040D02*
X111760000Y-76200000D01*
%TO.N,/PB2*%
X109220000Y-76200000D02*
X109220000Y-66040000D01*
%TO.N,/PB10*%
X106680000Y-66040000D02*
X106680000Y-76200000D01*
%TO.N,/PB11*%
X104140000Y-76200000D02*
X104140000Y-66040000D01*
%TO.N,/PB12*%
X101600000Y-66040000D02*
X101600000Y-76200000D01*
%TO.N,+5V*%
X167640000Y-83820000D02*
X160340000Y-83820000D01*
X124140000Y-93660000D02*
X124460000Y-93980000D01*
X141920000Y-99060000D02*
X138590000Y-95730000D01*
X124460000Y-93980000D02*
X127000000Y-93980000D01*
X107035000Y-90685000D02*
X110330000Y-93980000D01*
X124485000Y-83629639D02*
X125647320Y-82467320D01*
X139700000Y-106680000D02*
X139700000Y-104460000D01*
X124140000Y-91440000D02*
X124140000Y-93660000D01*
X140120000Y-78740000D02*
X141950000Y-80570000D01*
X124929640Y-83185000D02*
X125647320Y-82467320D01*
X135344500Y-93980000D02*
X134620000Y-93980000D01*
X147000000Y-78740000D02*
X147000000Y-79060000D01*
X124460000Y-93980000D02*
X121920000Y-93980000D01*
X137160000Y-92164500D02*
X135344500Y-93980000D01*
X134620000Y-78740000D02*
X140120000Y-78740000D01*
X125095000Y-81915000D02*
X125647320Y-82467320D01*
X180340000Y-127000000D02*
X180340000Y-116840000D01*
X138445960Y-95304040D02*
X142240000Y-95304040D01*
X165390000Y-93690000D02*
X167640000Y-91440000D01*
X129540000Y-83820000D02*
X132080000Y-83820000D01*
X127000000Y-93980000D02*
X127570000Y-93980000D01*
X142950000Y-109930000D02*
X139700000Y-106680000D01*
X133985000Y-85090000D02*
X132715000Y-83820000D01*
X142240000Y-95304040D02*
X142240000Y-95579020D01*
X126885439Y-81229200D02*
X127635000Y-81229200D01*
X132715000Y-83820000D02*
X132715000Y-83185000D01*
X145490000Y-80570000D02*
X141950000Y-80570000D01*
X134620000Y-81280000D02*
X134620000Y-78740000D01*
X147000000Y-81280000D02*
X146200000Y-81280000D01*
X127570000Y-93980000D02*
X127635000Y-94045000D01*
X141920000Y-99250361D02*
X141920000Y-99060000D01*
X125647320Y-82467320D02*
X126885439Y-81229200D01*
X122130000Y-83185000D02*
X124929640Y-83185000D01*
X180340000Y-116840000D02*
X180340000Y-108640000D01*
X134620000Y-101280000D02*
X134620000Y-93980000D01*
X132080000Y-83820000D02*
X132715000Y-83185000D01*
X154940000Y-101600000D02*
X157480000Y-101600000D01*
X127635000Y-81915000D02*
X129540000Y-83820000D01*
X146200000Y-81280000D02*
X145490000Y-80570000D01*
X127635000Y-81229200D02*
X127635000Y-81915000D01*
X132715000Y-83185000D02*
X134620000Y-81280000D01*
X163270000Y-93690000D02*
X165390000Y-93690000D01*
X138020000Y-95730000D02*
X138445960Y-95304040D01*
X122130000Y-81915000D02*
X125095000Y-81915000D01*
X138590000Y-95730000D02*
X138020000Y-95730000D01*
X167640000Y-91440000D02*
X167640000Y-83820000D01*
X147000000Y-79060000D02*
X145490000Y-80570000D01*
X110330000Y-93980000D02*
X121920000Y-93980000D01*
X145070000Y-109930000D02*
X142950000Y-109930000D01*
X124485000Y-83820000D02*
X124485000Y-83629639D01*
X144269639Y-101600000D02*
X141920000Y-99250361D01*
X121920000Y-93980000D02*
X127000000Y-93980000D01*
%TO.N,/PB9*%
X175260000Y-127000000D02*
X175260000Y-116840000D01*
%TO.N,/PB8*%
X172720000Y-116840000D02*
X172720000Y-127000000D01*
%TO.N,VDD*%
X170180000Y-127000000D02*
X170180000Y-116840000D01*
%TO.N,/BOOT*%
X167640000Y-116840000D02*
X167640000Y-127000000D01*
%TO.N,/PB7*%
X165100000Y-127000000D02*
X165100000Y-116840000D01*
%TO.N,/PB6*%
X162560000Y-116840000D02*
X162560000Y-127000000D01*
%TO.N,/PB5*%
X160020000Y-127000000D02*
X160020000Y-116840000D01*
%TO.N,/PB4*%
X157480000Y-116840000D02*
X157480000Y-127000000D01*
%TO.N,/PB3*%
X154940000Y-127000000D02*
X154940000Y-116840000D01*
%TO.N,/PD2*%
X152400000Y-116840000D02*
X152400000Y-127000000D01*
%TO.N,/PC12*%
X149860000Y-127000000D02*
X149860000Y-116840000D01*
%TO.N,/PC11*%
X147320000Y-127000000D02*
X147320000Y-116840000D01*
%TO.N,/PC10*%
X144780000Y-116840000D02*
X144780000Y-127000000D01*
%TO.N,/PA15*%
X142240000Y-127000000D02*
X142240000Y-116840000D01*
%TO.N,/PA14*%
X139700000Y-116840000D02*
X139700000Y-127000000D01*
%TO.N,/PF7*%
X137160000Y-127000000D02*
X137160000Y-116840000D01*
%TO.N,/PF6*%
X134620000Y-127000000D02*
X134620000Y-116840000D01*
%TO.N,/PA13*%
X132080000Y-127000000D02*
X132080000Y-116840000D01*
%TO.N,/PA12*%
X129540000Y-116840000D02*
X129540000Y-127000000D01*
%TO.N,/PA11*%
X127000000Y-127000000D02*
X127000000Y-116840000D01*
%TO.N,/PA10*%
X124460000Y-116840000D02*
X124460000Y-127000000D01*
%TO.N,/PA9*%
X121920000Y-127000000D02*
X121920000Y-116840000D01*
%TO.N,/PA8*%
X119380000Y-127000000D02*
X119380000Y-116840000D01*
%TO.N,/PC9*%
X116840000Y-116840000D02*
X116840000Y-127000000D01*
%TO.N,/PC8*%
X114300000Y-127000000D02*
X114300000Y-116840000D01*
%TO.N,/PC7*%
X111760000Y-116840000D02*
X111760000Y-127000000D01*
%TO.N,/PC6*%
X109220000Y-127000000D02*
X109220000Y-116840000D01*
%TO.N,/PB15*%
X106680000Y-116840000D02*
X106680000Y-127000000D01*
%TO.N,/PB14*%
X104140000Y-127000000D02*
X104140000Y-116840000D01*
%TO.N,/PB13*%
X101600000Y-116840000D02*
X101600000Y-127000000D01*
%TO.N,/Sensing/I2CBUS*%
X128226211Y-85235389D02*
X129496211Y-85235389D01*
X127635000Y-84455000D02*
X127000000Y-83820000D01*
X129540000Y-85279178D02*
X129540000Y-87045800D01*
X129540000Y-87045800D02*
X130175000Y-86410800D01*
X127635000Y-86410800D02*
X127635000Y-85826600D01*
X129496211Y-85235389D02*
X129540000Y-85279178D01*
X139700000Y-103820000D02*
X139700000Y-101600000D01*
X127000000Y-83820000D02*
X125125000Y-83820000D01*
X127635000Y-86410800D02*
X127635000Y-84455000D01*
X127635000Y-85826600D02*
X128226211Y-85235389D01*
X129540000Y-88495500D02*
X129540000Y-87045800D01*
%TO.N,/Sensing/CLK*%
X127404500Y-88495500D02*
X128905000Y-86995000D01*
X123735500Y-88707701D02*
X123735500Y-90205139D01*
X128905000Y-86995000D02*
X128905000Y-86410800D01*
X123735500Y-90205139D02*
X124780000Y-91249639D01*
X127000000Y-88495500D02*
X127404500Y-88495500D01*
X124780000Y-91249639D02*
X124780000Y-91440000D01*
%TO.N,/microcontroller_interfacing/GND = Normal R{slash}W operations*%
X140365000Y-99060000D02*
X140365000Y-98140718D01*
X145070000Y-103430000D02*
X140700000Y-99060000D01*
X139700000Y-97475718D02*
X139472407Y-97248125D01*
X139472407Y-97248125D02*
X139027701Y-97248125D01*
X140700000Y-99060000D02*
X140365000Y-99060000D01*
X140365000Y-98140718D02*
X139700000Y-97475718D01*
%TO.N,Net-(LED1-Pad2)*%
X149403950Y-94116050D02*
X159700000Y-83820000D01*
X149331050Y-94116050D02*
X149403950Y-94116050D01*
%TO.N,Net-(R9-Pad2)*%
X152924520Y-93690000D02*
X152634520Y-93980000D01*
X156770000Y-93690000D02*
X152924520Y-93690000D01*
%TO.N,Net-(R1-Pad1)*%
X129540000Y-109220000D02*
X126812500Y-109220000D01*
X126812500Y-109220000D02*
X125410000Y-107817500D01*
X129540000Y-107000000D02*
X129540000Y-109220000D01*
%TO.N,Net-(Q1-Pad1)*%
X106870361Y-104460000D02*
X108770480Y-102559881D01*
X116390480Y-102049520D02*
X108770480Y-102049520D01*
X111760000Y-101600000D02*
X116840000Y-101600000D01*
X119642020Y-94429520D02*
X116840000Y-94429520D01*
X116840000Y-101600000D02*
X116390480Y-102049520D01*
X120782500Y-95570000D02*
X119642020Y-94429520D01*
X116840000Y-94429520D02*
X116840000Y-94704500D01*
X106680000Y-104460000D02*
X106870361Y-104460000D01*
X108770480Y-102559881D02*
X108770480Y-102049520D01*
%TO.N,Net-(BT1-Pad1)*%
X121920000Y-101920000D02*
X121920000Y-103952500D01*
X100370000Y-142240000D02*
X100370000Y-132431010D01*
X100370000Y-132431010D02*
X105314511Y-127486499D01*
X110490000Y-107315000D02*
X111380181Y-106424819D01*
X111380181Y-106424819D02*
X112015181Y-106424819D01*
X112015181Y-106424819D02*
X109410361Y-103820000D01*
X112270361Y-106680000D02*
X112015181Y-106424819D01*
X123057500Y-103002500D02*
X122013750Y-104046250D01*
X121920000Y-103952500D02*
X119192500Y-106680000D01*
X105314511Y-127486499D02*
X105314511Y-116544479D01*
X122013750Y-104046250D02*
X123510000Y-105542500D01*
X109410361Y-103820000D02*
X109220000Y-103820000D01*
X122013750Y-104046250D02*
X121920000Y-103952500D01*
X107558990Y-114300000D02*
X110490000Y-114300000D01*
X119192500Y-106680000D02*
X112270361Y-106680000D01*
X123057500Y-97470000D02*
X123057500Y-103002500D01*
X105314511Y-116544479D02*
X107558990Y-114300000D01*
%TO.N,Net-(D1-Pad2)*%
X109220000Y-108282500D02*
X109220000Y-104460000D01*
%TO.N,OPAMP OUT*%
X119062141Y-96837859D02*
X119694282Y-97470000D01*
X119060000Y-96840000D02*
X119062141Y-96837859D01*
X111760000Y-96840000D02*
X119060000Y-96840000D01*
X119694282Y-97470000D02*
X120782500Y-97470000D01*
X108300000Y-93980000D02*
X107035000Y-95245000D01*
X106360000Y-95920000D02*
X106360000Y-101600000D01*
X109220000Y-93980000D02*
X108300000Y-93980000D01*
X107035000Y-95245000D02*
X106360000Y-95920000D01*
X111760000Y-96840000D02*
X111760000Y-99060000D01*
%TO.N,Net-(R4-Pad2)*%
X109540000Y-96200000D02*
X111760000Y-96200000D01*
X111760000Y-96200000D02*
X119060000Y-96200000D01*
X108900000Y-96840000D02*
X109540000Y-96200000D01*
X108900000Y-99060000D02*
X108900000Y-96840000D01*
X119380000Y-96520000D02*
X120782500Y-96520000D01*
X119060000Y-96200000D02*
X119380000Y-96520000D01*
%TO.N,Net-(Q1-Pad3)*%
X121920000Y-101280000D02*
X119700000Y-101280000D01*
X119700000Y-101280000D02*
X119380000Y-101600000D01*
%TO.N,Net-(D2-Pad2)*%
X117917980Y-108695480D02*
X114314159Y-108695480D01*
X118442500Y-109220000D02*
X117917980Y-108695480D01*
X113980000Y-109029639D02*
X113980000Y-109220000D01*
X114314159Y-108695480D02*
X113980000Y-109029639D01*
%TO.N,Net-(C2-Pad1)*%
X114620000Y-109220000D02*
X114620000Y-111760000D01*
X97760000Y-105440000D02*
X99060000Y-105440000D01*
X121920000Y-111760000D02*
X123510000Y-110170000D01*
X123510000Y-110170000D02*
X123510000Y-107817500D01*
X129220000Y-111760000D02*
X125100000Y-111760000D01*
X114620000Y-111760000D02*
X96520000Y-111760000D01*
X114620000Y-111760000D02*
X121920000Y-111760000D01*
X96520000Y-106680000D02*
X97760000Y-105440000D01*
X96520000Y-111760000D02*
X96520000Y-106680000D01*
X125100000Y-111760000D02*
X123510000Y-110170000D01*
%TO.N,Net-(D3-Pad2)*%
X137480000Y-93980000D02*
X138097500Y-93980000D01*
%TO.N,Net-(R16-Pad2)*%
X135069520Y-99060000D02*
X136840000Y-99060000D01*
X136840000Y-93980000D02*
X135069520Y-95750480D01*
X135069520Y-95750480D02*
X135069520Y-99060000D01*
%TO.N,Net-(FTDI(UART)1-Pad13)*%
X139800000Y-89220000D02*
X141950000Y-87070000D01*
X124780000Y-89220000D02*
X134620000Y-89220000D01*
X124460000Y-87930115D02*
X124460000Y-88900000D01*
X134620000Y-89220000D02*
X139800000Y-89220000D01*
X122254885Y-85725000D02*
X124460000Y-87930115D01*
X124460000Y-88900000D02*
X124780000Y-89220000D01*
X122130000Y-85725000D02*
X122254885Y-85725000D01*
%TO.N,Net-(D1-Pad1)*%
X110157500Y-109220000D02*
X109220000Y-110157500D01*
X111760000Y-109220000D02*
X110157500Y-109220000D01*
X117814511Y-100625489D02*
X117814511Y-103165489D01*
X117814511Y-103165489D02*
X116840000Y-104140000D01*
%TO.N,Net-(D2-Pad1)*%
X125862500Y-105542500D02*
X127000000Y-106680000D01*
X125410000Y-105542500D02*
X125862500Y-105542500D01*
X121920000Y-109220000D02*
X120317500Y-109220000D01*
%TO.N,Net-(D3-Pad1)*%
X96520000Y-88900000D02*
X96520000Y-87559511D01*
X98934511Y-85145000D02*
X99835000Y-85145000D01*
X96520000Y-87559511D02*
X98934511Y-85145000D01*
X138655500Y-91440000D02*
X137160000Y-89944500D01*
X138762500Y-91440000D02*
X138655500Y-91440000D01*
D45*
%TO.N,USB D-*%
X96520000Y-86360000D02*
X96520000Y-84519511D01*
X114300000Y-90505470D02*
X114300000Y-91440000D01*
X99835000Y-84495000D02*
X99810489Y-84519511D01*
X116630000Y-88265000D02*
X116540470Y-88265000D01*
X116540470Y-88265000D02*
X114300000Y-90505470D01*
X99810489Y-84519511D02*
X96520000Y-84519511D01*
%TO.N,USB D+*%
X116630000Y-86995000D02*
X116205000Y-86995000D01*
X96545000Y-83845000D02*
X99835000Y-83845000D01*
X96520000Y-83820000D02*
X96545000Y-83845000D01*
X116205000Y-86995000D02*
X114300000Y-88900000D01*
%TD*%
M02*
